{
  "format_version": "lead-sheet-midi-v3",
  "title": "ABC Conversations: Luke Bateman (10min segment)",
  "description": "Real audio analysis - OpenSMILE eGeMAPS + Whisper transcription",
  "duration_s": 600,
  "total_words": 1717,
  "positive_gestures": 25,
  "negative_gestures": 15,
  "neutral_gestures": 1677,
  "ternary_sum": 10,
  "conservation_state": "OPEN",
  "acoustic_summary": {
    "frames": 59920,
    "duration_s": 600.0,
    "processing_s": 13.8,
    "voiced_pct": 43,
    "f0_mean_hz": 110.8,
    "f0_std_hz": 84.7,
    "f0_range_hz": "56-998"
  },
  "energy_curve": [
    {
      "t": 5.0,
      "energy": 20.0,
      "ternary_sum": 0,
      "word_count": 25
    },
    {
      "t": 15.0,
      "energy": 20.0,
      "ternary_sum": 0,
      "word_count": 36
    },
    {
      "t": 25.0,
      "energy": 20.0,
      "ternary_sum": 0,
      "word_count": 31
    },
    {
      "t": 35.0,
      "energy": 20.0,
      "ternary_sum": 0,
      "word_count": 16
    },
    {
      "t": 45.0,
      "energy": 22.142857142857142,
      "ternary_sum": -1,
      "word_count": 28
    },
    {
      "t": 55.0,
      "energy": 20.0,
      "ternary_sum": 0,
      "word_count": 25
    },
    {
      "t": 65.0,
      "energy": 22.307692307692307,
      "ternary_sum": -1,
      "word_count": 26
    },
    {
      "t": 75.0,
      "energy": 22.06896551724138,
      "ternary_sum": 1,
      "word_count": 29
    },
    {
      "t": 85.0,
      "energy": 20.0,
      "ternary_sum": 0,
      "word_count": 20
    },
    {
      "t": 95.0,
      "energy": 22.727272727272727,
      "ternary_sum": -1,
      "word_count": 22
    },
    {
      "t": 105.0,
      "energy": 20.0,
      "ternary_sum": 0,
      "word_count": 23
    },
    {
      "t": 115.0,
      "energy": 22.22222222222222,
      "ternary_sum": 1,
      "word_count": 27
    },
    {
      "t": 125.0,
      "energy": 20.0,
      "ternary_sum": 0,
      "word_count": 39
    },
    {
      "t": 135.0,
      "energy": 20.0,
      "ternary_sum": 0,
      "word_count": 27
    },
    {
      "t": 145.0,
      "energy": 20.0,
      "ternary_sum": 0,
      "word_count": 28
    },
    {
      "t": 155.0,
      "energy": 28.0,
      "ternary_sum": -4,
      "word_count": 30
    },
    {
      "t": 165.0,
      "energy": 20.0,
      "ternary_sum": 0,
      "word_count": 27
    },
    {
      "t": 175.0,
      "energy": 21.714285714285715,
      "ternary_sum": 1,
      "word_count": 35
    },
    {
      "t": 185.0,
      "energy": 22.142857142857142,
      "ternary_sum": 1,
      "word_count": 28
    },
    {
      "t": 195.0,
      "energy": 20.0,
      "ternary_sum": 0,
      "word_count": 35
    },
    {
      "t": 205.0,
      "energy": 20.0,
      "ternary_sum": 0,
      "word_count": 34
    },
    {
      "t": 215.0,
      "energy": 25.294117647058822,
      "ternary_sum": 3,
      "word_count": 34
    },
    {
      "t": 225.0,
      "energy": 20.0,
      "ternary_sum": 0,
      "word_count": 30
    },
    {
      "t": 235.0,
      "energy": 20.0,
      "ternary_sum": 0,
      "word_count": 32
    },
    {
      "t": 245.0,
      "energy": 20.0,
      "ternary_sum": 0,
      "word_count": 26
    },
    {
      "t": 255.0,
      "energy": 22.727272727272727,
      "ternary_sum": 1,
      "word_count": 22
    },
    {
      "t": 265.0,
      "energy": 20.0,
      "ternary_sum": 0,
      "word_count": 27
    },
    {
      "t": 275.0,
      "energy": 20.0,
      "ternary_sum": 0,
      "word_count": 29
    },
    {
      "t": 285.0,
      "energy": 21.93548387096774,
      "ternary_sum": 1,
      "word_count": 31
    },
    {
      "t": 295.0,
      "energy": 26.0,
      "ternary_sum": 3,
      "word_count": 30
    },
    {
      "t": 305.0,
      "energy": 21.875,
      "ternary_sum": -1,
      "word_count": 32
    },
    {
      "t": 315.0,
      "energy": 22.0,
      "ternary_sum": 1,
      "word_count": 30
    },
    {
      "t": 325.0,
      "energy": 24.864864864864863,
      "ternary_sum": 3,
      "word_count": 37
    },
    {
      "t": 335.0,
      "energy": 20.0,
      "ternary_sum": 0,
      "word_count": 27
    },
    {
      "t": 345.0,
      "energy": 20.0,
      "ternary_sum": 0,
      "word_count": 21
    },
    {
      "t": 355.0,
      "energy": 20.0,
      "ternary_sum": 0,
      "word_count": 39
    },
    {
      "t": 365.0,
      "energy": 20.0,
      "ternary_sum": 0,
      "word_count": 39
    },
    {
      "t": 375.0,
      "energy": 20.0,
      "ternary_sum": 0,
      "word_count": 27
    },
    {
      "t": 385.0,
      "energy": 21.93548387096774,
      "ternary_sum": 1,
      "word_count": 31
    },
    {
      "t": 395.0,
      "energy": 20.0,
      "ternary_sum": 0,
      "word_count": 20
    },
    {
      "t": 405.0,
      "energy": 20.0,
      "ternary_sum": 0,
      "word_count": 27
    },
    {
      "t": 415.0,
      "energy": 20.0,
      "ternary_sum": 0,
      "word_count": 26
    },
    {
      "t": 425.0,
      "energy": 20.0,
      "ternary_sum": 0,
      "word_count": 41
    },
    {
      "t": 435.0,
      "energy": 20.0,
      "ternary_sum": 0,
      "word_count": 33
    },
    {
      "t": 445.0,
      "energy": 23.0,
      "ternary_sum": 0,
      "word_count": 40
    },
    {
      "t": 455.0,
      "energy": 31.25,
      "ternary_sum": 3,
      "word_count": 16
    },
    {
      "t": 465.0,
      "energy": 20.0,
      "ternary_sum": 0,
      "word_count": 22
    },
    {
      "t": 475.0,
      "energy": 20.0,
      "ternary_sum": 0,
      "word_count": 24
    },
    {
      "t": 485.0,
      "energy": 20.0,
      "ternary_sum": 0,
      "word_count": 26
    },
    {
      "t": 495.0,
      "energy": 23.529411764705884,
      "ternary_sum": 2,
      "word_count": 34
    },
    {
      "t": 505.0,
      "energy": 24.615384615384617,
      "ternary_sum": 1,
      "word_count": 13
    },
    {
      "t": 515.0,
      "energy": 25.454545454545453,
      "ternary_sum": -1,
      "word_count": 11
    },
    {
      "t": 525.0,
      "energy": 21.62162162162162,
      "ternary_sum": -1,
      "word_count": 37
    },
    {
      "t": 535.0,
      "energy": 23.333333333333332,
      "ternary_sum": -2,
      "word_count": 36
    },
    {
      "t": 545.0,
      "energy": 22.0,
      "ternary_sum": -1,
      "word_count": 30
    },
    {
      "t": 555.0,
      "energy": 22.142857142857142,
      "ternary_sum": -1,
      "word_count": 28
    },
    {
      "t": 565.0,
      "energy": 22.4,
      "ternary_sum": 1,
      "word_count": 25
    },
    {
      "t": 575.0,
      "energy": 20.0,
      "ternary_sum": 0,
      "word_count": 31
    },
    {
      "t": 585.0,
      "energy": 20.0,
      "ternary_sum": 0,
      "word_count": 35
    },
    {
      "t": 595.0,
      "energy": 20.0,
      "ternary_sum": 0,
      "word_count": 27
    }
  ],
  "speakers": {
    "host": 0,
    "guest": 1
  },
  "events": [
    {
      "t": 0.54,
      "word": "Just",
      "f0_hz": 110.0,
      "pitch_bend": 0,
      "ternary": 0,
      "t_pitch": 0,
      "t_vol": 0,
      "t_timing": 0,
      "spk": 1,
      "role": 1,
      "note": 60,
      "velocity": 64,
      "energy": 20,
      "duration_s": 0.48
    },
    {
      "t": 1.02,
      "word": "one",
      "f0_hz": 110.0,
      "pitch_bend": 0,
      "ternary": 0,
      "t_pitch": 0,
      "t_vol": 0,
      "t_timing": 0,
      "spk": 1,
      "role": 1,
      "note": 60,
      "velocity": 64,
      "energy": 20,
      "duration_s": 0.44
    },
    {
      "t": 1.46,
      "word": "day",
      "f0_hz": 110.0,
      "pitch_bend": 0,
      "ternary": 0,
      "t_pitch": 0,
      "t_vol": 0,
      "t_timing": 0,
      "spk": 1,
      "role": 1,
      "note": 60,
      "velocity": 64,
      "energy": 20,
      "duration_s": 0.18
    },
    {
      "t": 1.64,
      "word": "after",
      "f0_hz": 110.0,
      "pitch_bend": 0,
      "ternary": 0,
      "t_pitch": 0,
      "t_vol": 0,
      "t_timing": 0,
      "spk": 1,
      "role": 1,
      "note": 60,
      "velocity": 64,
      "energy": 20,
      "duration_s": 0.28
    },
    {
      "t": 1.92,
      "word": "Jack",
      "f0_hz": 110.0,
      "pitch_bend": 0,
      "ternary": 0,
      "t_pitch": 0,
      "t_vol": 0,
      "t_timing": 0,
      "spk": 1,
      "role": 1,
      "note": 60,
      "velocity": 64,
      "energy": 20,
      "duration_s": 0.22
    },
    {
      "t": 2.14,
      "word": "McLennan's",
      "f0_hz": 110.0,
      "pitch_bend": 0,
      "ternary": 0,
      "t_pitch": 0,
      "t_vol": 0,
      "t_timing": 0,
      "spk": 1,
      "role": 1,
      "note": 60,
      "velocity": 64,
      "energy": 20,
      "duration_s": 0.8
    },
    {
      "t": 2.94,
      "word": "relationship",
      "f0_hz": 110.0,
      "pitch_bend": 0,
      "ternary": 0,
      "t_pitch": 0,
      "t_vol": 0,
      "t_timing": 0,
      "spk": 1,
      "role": 1,
      "note": 60,
      "velocity": 64,
      "energy": 20,
      "duration_s": 0.16
    },
    {
      "t": 3.1,
      "word": "fell",
      "f0_hz": 110.0,
      "pitch_bend": 0,
      "ternary": 0,
      "t_pitch": 0,
      "t_vol": 0,
      "t_timing": 0,
      "spk": 1,
      "role": 1,
      "note": 60,
      "velocity": 64,
      "energy": 20,
      "duration_s": 0.32
    },
    {
      "t": 3.42,
      "word": "apart,",
      "f0_hz": 110.0,
      "pitch_bend": 0,
      "ternary": 0,
      "t_pitch": 0,
      "t_vol": 0,
      "t_timing": 0,
      "spk": 1,
      "role": 1,
      "note": 60,
      "velocity": 64,
      "energy": 20,
      "duration_s": 0.48
    },
    {
      "t": 4.1,
      "word": "he",
      "f0_hz": 130.0,
      "pitch_bend": 0,
      "ternary": 0,
      "t_pitch": 0,
      "t_vol": 0,
      "t_timing": 0,
      "spk": 1,
      "role": 1,
      "note": 60,
      "velocity": 64,
      "energy": 20,
      "duration_s": 0.16
    },
    {
      "t": 4.26,
      "word": "vanished.",
      "f0_hz": 110.0,
      "pitch_bend": 0,
      "ternary": 0,
      "t_pitch": 0,
      "t_vol": 0,
      "t_timing": 0,
      "spk": 1,
      "role": 1,
      "note": 60,
      "velocity": 64,
      "energy": 20,
      "duration_s": 0.36
    },
    {
      "t": 5.08,
      "word": "I",
      "f0_hz": 110.0,
      "pitch_bend": 0,
      "ternary": 0,
      "t_pitch": 0,
      "t_vol": 0,
      "t_timing": 0,
      "spk": 1,
      "role": 1,
      "note": 60,
      "velocity": 64,
      "energy": 20,
      "duration_s": 0.02
    },
    {
      "t": 5.1,
      "word": "couldn't",
      "f0_hz": 110.0,
      "pitch_bend": 0,
      "ternary": 0,
      "t_pitch": 0,
      "t_vol": 0,
      "t_timing": 0,
      "spk": 1,
      "role": 1,
      "note": 60,
      "velocity": 64,
      "energy": 20,
      "duration_s": 0.2
    },
    {
      "t": 5.3,
      "word": "believe",
      "f0_hz": 110.0,
      "pitch_bend": 0,
      "ternary": 0,
      "t_pitch": 0,
      "t_vol": 0,
      "t_timing": 0,
      "spk": 1,
      "role": 1,
      "note": 60,
      "velocity": 64,
      "energy": 20,
      "duration_s": 0.24
    },
    {
      "t": 5.54,
      "word": "this",
      "f0_hz": 110.0,
      "pitch_bend": 0,
      "ternary": 0,
      "t_pitch": 0,
      "t_vol": 0,
      "t_timing": 0,
      "spk": 1,
      "role": 1,
      "note": 60,
      "velocity": 64,
      "energy": 20,
      "duration_s": 0.22
    },
    {
      "t": 5.76,
      "word": "was",
      "f0_hz": 130.0,
      "pitch_bend": 0,
      "ternary": 0,
      "t_pitch": 0,
      "t_vol": 0,
      "t_timing": 0,
      "spk": 1,
      "role": 1,
      "note": 60,
      "velocity": 64,
      "energy": 20,
      "duration_s": 0.24
    },
    {
      "t": 6.0,
      "word": "happening.",
      "f0_hz": 130.0,
      "pitch_bend": 0,
      "ternary": 0,
      "t_pitch": 0,
      "t_vol": 0,
      "t_timing": 0,
      "spk": 1,
      "role": 1,
      "note": 60,
      "velocity": 64,
      "energy": 20,
      "duration_s": 0.52
    },
    {
      "t": 7.24,
      "word": "Immediately,",
      "f0_hz": 110.0,
      "pitch_bend": 0,
      "ternary": 0,
      "t_pitch": 0,
      "t_vol": 0,
      "t_timing": 0,
      "spk": 1,
      "role": 1,
      "note": 60,
      "velocity": 64,
      "energy": 20,
      "duration_s": 0.0
    },
    {
      "t": 7.36,
      "word": "accusations",
      "f0_hz": 110.0,
      "pitch_bend": 0,
      "ternary": 0,
      "t_pitch": 0,
      "t_vol": 0,
      "t_timing": 0,
      "spk": 1,
      "role": 1,
      "note": 60,
      "velocity": 64,
      "energy": 20,
      "duration_s": 0.64
    },
    {
      "t": 8.0,
      "word": "started",
      "f0_hz": 110.0,
      "pitch_bend": 0,
      "ternary": 0,
      "t_pitch": 0,
      "t_vol": 0,
      "t_timing": 0,
      "spk": 1,
      "role": 1,
      "note": 60,
      "velocity": 64,
      "energy": 20,
      "duration_s": 0.68
    },
    {
      "t": 8.68,
      "word": "flying.",
      "f0_hz": 110.0,
      "pitch_bend": 0,
      "ternary": 0,
      "t_pitch": 0,
      "t_vol": 0,
      "t_timing": 0,
      "spk": 1,
      "role": 1,
      "note": 60,
      "velocity": 64,
      "energy": 20,
      "duration_s": 0.54
    },
    {
      "t": 9.48,
      "word": "You",
      "f0_hz": 130.0,
      "pitch_bend": 0,
      "ternary": 0,
      "t_pitch": 0,
      "t_vol": 0,
      "t_timing": 0,
      "spk": 1,
      "role": 1,
      "note": 60,
      "velocity": 64,
      "energy": 20,
      "duration_s": 0.0
    },
    {
      "t": 9.48,
      "word": "need",
      "f0_hz": 110.0,
      "pitch_bend": 0,
      "ternary": 0,
      "t_pitch": 0,
      "t_vol": 0,
      "t_timing": 0,
      "spk": 1,
      "role": 1,
      "note": 60,
      "velocity": 64,
      "energy": 20,
      "duration_s": 0.2
    },
    {
      "t": 9.68,
      "word": "to",
      "f0_hz": 110.0,
      "pitch_bend": 0,
      "ternary": 0,
      "t_pitch": 0,
      "t_vol": 0,
      "t_timing": 0,
      "spk": 1,
      "role": 1,
      "note": 60,
      "velocity": 64,
      "energy": 20,
      "duration_s": 0.22
    },
    {
      "t": 9.9,
      "word": "cough",
      "f0_hz": 110.0,
      "pitch_bend": 0,
      "ternary": 0,
      "t_pitch": 0,
      "t_vol": 0,
      "t_timing": 0,
      "spk": 1,
      "role": 1,
      "note": 60,
      "velocity": 64,
      "energy": 20,
      "duration_s": 0.22
    },
    {
      "t": 10.12,
      "word": "up",
      "f0_hz": 110.0,
      "pitch_bend": 0,
      "ternary": 0,
      "t_pitch": 0,
      "t_vol": 0,
      "t_timing": 0,
      "spk": 1,
      "role": 1,
      "note": 60,
      "velocity": 64,
      "energy": 20,
      "duration_s": 0.38
    },
    {
      "t": 10.5,
      "word": "and",
      "f0_hz": 110.0,
      "pitch_bend": 0,
      "ternary": 0,
      "t_pitch": 0,
      "t_vol": 0,
      "t_timing": 0,
      "spk": 1,
      "role": 1,
      "note": 60,
      "velocity": 64,
      "energy": 20,
      "duration_s": 0.2
    },
    {
      "t": 10.7,
      "word": "you",
      "f0_hz": 130.0,
      "pitch_bend": 0,
      "ternary": 0,
      "t_pitch": 0,
      "t_vol": 0,
      "t_timing": 0,
      "spk": 1,
      "role": 1,
      "note": 60,
      "velocity": 64,
      "energy": 20,
      "duration_s": 0.12
    },
    {
      "t": 10.82,
      "word": "need",
      "f0_hz": 110.0,
      "pitch_bend": 0,
      "ternary": 0,
      "t_pitch": 0,
      "t_vol": 0,
      "t_timing": 0,
      "spk": 1,
      "role": 1,
      "note": 60,
      "velocity": 64,
      "energy": 20,
      "duration_s": 0.18
    },
    {
      "t": 11.0,
      "word": "to",
      "f0_hz": 110.0,
      "pitch_bend": 0,
      "ternary": 0,
      "t_pitch": 0,
      "t_vol": 0,
      "t_timing": 0,
      "spk": 1,
      "role": 1,
      "note": 60,
      "velocity": 64,
      "energy": 20,
      "duration_s": 0.2
    },
    {
      "t": 11.2,
      "word": "confess.",
      "f0_hz": 110.0,
      "pitch_bend": 0,
      "ternary": 0,
      "t_pitch": 0,
      "t_vol": 0,
      "t_timing": 0,
      "spk": 1,
      "role": 1,
      "note": 60,
      "velocity": 64,
      "energy": 20,
      "duration_s": 0.34
    },
    {
      "t": 11.92,
      "word": "But",
      "f0_hz": 110.0,
      "pitch_bend": 0,
      "ternary": 0,
      "t_pitch": 0,
      "t_vol": 0,
      "t_timing": 0,
      "spk": 1,
      "role": 1,
      "note": 60,
      "velocity": 64,
      "energy": 20,
      "duration_s": 0.12
    },
    {
      "t": 12.04,
      "word": "it",
      "f0_hz": 110.0,
      "pitch_bend": 0,
      "ternary": 0,
      "t_pitch": 0,
      "t_vol": 0,
      "t_timing": 0,
      "spk": 1,
      "role": 1,
      "note": 60,
      "velocity": 64,
      "energy": 20,
      "duration_s": 0.28
    },
    {
      "t": 12.32,
      "word": "soon",
      "f0_hz": 110.0,
      "pitch_bend": 0,
      "ternary": 0,
      "t_pitch": 0,
      "t_vol": 0,
      "t_timing": 0,
      "spk": 1,
      "role": 1,
      "note": 60,
      "velocity": 64,
      "energy": 20,
      "duration_s": 0.24
    },
    {
      "t": 12.56,
      "word": "became",
      "f0_hz": 110.0,
      "pitch_bend": 0,
      "ternary": 0,
      "t_pitch": 0,
      "t_vol": 0,
      "t_timing": 0,
      "spk": 1,
      "role": 1,
      "note": 60,
      "velocity": 64,
      "energy": 20,
      "duration_s": 0.34
    },
    {
      "t": 12.9,
      "word": "clear.",
      "f0_hz": 110.0,
      "pitch_bend": 0,
      "ternary": 0,
      "t_pitch": 0,
      "t_vol": 0,
      "t_timing": 0,
      "spk": 1,
      "role": 1,
      "note": 60,
      "velocity": 64,
      "energy": 20,
      "duration_s": 0.38
    },
    {
      "t": 13.38,
      "word": "There",
      "f0_hz": 110.0,
      "pitch_bend": 0,
      "ternary": 0,
      "t_pitch": 0,
      "t_vol": 0,
      "t_timing": 0,
      "spk": 1,
      "role": 1,
      "note": 60,
      "velocity": 64,
      "energy": 20,
      "duration_s": 0.2
    },
    {
      "t": 13.58,
      "word": "was",
      "f0_hz": 130.0,
      "pitch_bend": 0,
      "ternary": 0,
      "t_pitch": 0,
      "t_vol": 0,
      "t_timing": 0,
      "spk": 1,
      "role": 1,
      "note": 60,
      "velocity": 64,
      "energy": 20,
      "duration_s": 0.36
    },
    {
      "t": 13.94,
      "word": "so",
      "f0_hz": 110.0,
      "pitch_bend": 0,
      "ternary": 0,
      "t_pitch": 0,
      "t_vol": 0,
      "t_timing": 0,
      "spk": 1,
      "role": 1,
      "note": 60,
      "velocity": 64,
      "energy": 20,
      "duration_s": 0.28
    },
    {
      "t": 14.22,
      "word": "much",
      "f0_hz": 110.0,
      "pitch_bend": 0,
      "ternary": 0,
      "t_pitch": 0,
      "t_vol": 0,
      "t_timing": 0,
      "spk": 1,
      "role": 1,
      "note": 60,
      "velocity": 64,
      "energy": 20,
      "duration_s": 0.28
    },
    {
      "t": 14.5,
      "word": "more",
      "f0_hz": 110.0,
      "pitch_bend": 0,
      "ternary": 0,
      "t_pitch": 0,
      "t_vol": 0,
      "t_timing": 0,
      "spk": 1,
      "role": 1,
      "note": 60,
      "velocity": 64,
      "energy": 20,
      "duration_s": 0.28
    },
    {
      "t": 14.78,
      "word": "to",
      "f0_hz": 110.0,
      "pitch_bend": 0,
      "ternary": 0,
      "t_pitch": 0,
      "t_vol": 0,
      "t_timing": 0,
      "spk": 1,
      "role": 1,
      "note": 60,
      "velocity": 64,
      "energy": 20,
      "duration_s": 0.18
    },
    {
      "t": 14.96,
      "word": "the",
      "f0_hz": 110.0,
      "pitch_bend": 0,
      "ternary": 0,
      "t_pitch": 0,
      "t_vol": 0,
      "t_timing": 0,
      "spk": 1,
      "role": 1,
      "note": 60,
      "velocity": 64,
      "energy": 20,
      "duration_s": 0.18
    },
    {
      "t": 15.14,
      "word": "story.",
      "f0_hz": 110.0,
      "pitch_bend": 0,
      "ternary": 0,
      "t_pitch": 0,
      "t_vol": 0,
      "t_timing": 0,
      "spk": 1,
      "role": 1,
      "note": 60,
      "velocity": 64,
      "energy": 20,
      "duration_s": 0.36
    },
    {
      "t": 15.68,
      "word": "There",
      "f0_hz": 110.0,
      "pitch_bend": 0,
      "ternary": 0,
      "t_pitch": 0,
      "t_vol": 0,
      "t_timing": 0,
      "spk": 1,
      "role": 1,
      "note": 60,
      "velocity": 64,
      "energy": 20,
      "duration_s": 0.14
    },
    {
      "t": 15.82,
      "word": "has",
      "f0_hz": 130.0,
      "pitch_bend": 0,
      "ternary": 0,
      "t_pitch": 0,
      "t_vol": 0,
      "t_timing": 0,
      "spk": 1,
      "role": 1,
      "note": 60,
      "velocity": 64,
      "energy": 20,
      "duration_s": 0.18
    },
    {
      "t": 16.0,
      "word": "to",
      "f0_hz": 110.0,
      "pitch_bend": 0,
      "ternary": 0,
      "t_pitch": 0,
      "t_vol": 0,
      "t_timing": 0,
      "spk": 1,
      "role": 1,
      "note": 60,
      "velocity": 64,
      "energy": 20,
      "duration_s": 0.06
    },
    {
      "t": 16.06,
      "word": "be",
      "f0_hz": 110.0,
      "pitch_bend": 0,
      "ternary": 0,
      "t_pitch": 0,
      "t_vol": 0,
      "t_timing": 0,
      "spk": 1,
      "role": 1,
      "note": 60,
      "velocity": 64,
      "energy": 20,
      "duration_s": 0.16
    },
    {
      "t": 16.22,
      "word": "something",
      "f0_hz": 110.0,
      "pitch_bend": 0,
      "ternary": 0,
      "t_pitch": 0,
      "t_vol": 0,
      "t_timing": 0,
      "spk": 1,
      "role": 1,
      "note": 60,
      "velocity": 64,
      "energy": 20,
      "duration_s": 0.2
    },
    {
      "t": 16.42,
      "word": "more",
      "f0_hz": 110.0,
      "pitch_bend": 0,
      "ternary": 0,
      "t_pitch": 0,
      "t_vol": 0,
      "t_timing": 0,
      "spk": 0,
      "role": 1,
      "note": 60,
      "velocity": 64,
      "energy": 20,
      "duration_s": 0.18
    },
    {
      "t": 16.6,
      "word": "nefarious",
      "f0_hz": 110.0,
      "pitch_bend": 0,
      "ternary": 0,
      "t_pitch": 0,
      "t_vol": 0,
      "t_timing": 0,
      "spk": 1,
      "role": 1,
      "note": 60,
      "velocity": 64,
      "energy": 20,
      "duration_s": 0.44
    },
    {
      "t": 17.04,
      "word": "going",
      "f0_hz": 110.0,
      "pitch_bend": 0,
      "ternary": 0,
      "t_pitch": 0,
      "t_vol": 0,
      "t_timing": 0,
      "spk": 1,
      "role": 1,
      "note": 60,
      "velocity": 64,
      "energy": 20,
      "duration_s": 0.28
    },
    {
      "t": 17.32,
      "word": "on.",
      "f0_hz": 110.0,
      "pitch_bend": 0,
      "ternary": 0,
      "t_pitch": 0,
      "t_vol": 0,
      "t_timing": 0,
      "spk": 1,
      "role": 1,
      "note": 60,
      "velocity": 64,
      "energy": 20,
      "duration_s": 0.24
    },
    {
      "t": 17.86,
      "word": "I'm",
      "f0_hz": 110.0,
      "pitch_bend": 0,
      "ternary": 0,
      "t_pitch": 0,
      "t_vol": 0,
      "t_timing": 0,
      "spk": 1,
      "role": 1,
      "note": 60,
      "velocity": 64,
      "energy": 20,
      "duration_s": 0.22
    },
    {
      "t": 18.08,
      "word": "Rob",
      "f0_hz": 110.0,
      "pitch_bend": 0,
      "ternary": 0,
      "t_pitch": 0,
      "t_vol": 0,
      "t_timing": 0,
      "spk": 1,
      "role": 1,
      "note": 60,
      "velocity": 64,
      "energy": 20,
      "duration_s": 0.18
    },
    {
      "t": 18.26,
      "word": "Bergen.",
      "f0_hz": 110.0,
      "pitch_bend": 0,
      "ternary": 0,
      "t_pitch": 0,
      "t_vol": 0,
      "t_timing": 0,
      "spk": 1,
      "role": 1,
      "note": 60,
      "velocity": 64,
      "energy": 20,
      "duration_s": 0.36
    },
    {
      "t": 19.1,
      "word": "Join",
      "f0_hz": 110.0,
      "pitch_bend": 0,
      "ternary": 0,
      "t_pitch": 0,
      "t_vol": 0,
      "t_timing": 0,
      "spk": 1,
      "role": 1,
      "note": 60,
      "velocity": 64,
      "energy": 20,
      "duration_s": 0.22
    },
    {
      "t": 19.32,
      "word": "me",
      "f0_hz": 110.0,
      "pitch_bend": 0,
      "ternary": 0,
      "t_pitch": 0,
      "t_vol": 0,
      "t_timing": 0,
      "spk": 1,
      "role": 1,
      "note": 60,
      "velocity": 64,
      "energy": 20,
      "duration_s": 0.14
    },
    {
      "t": 19.46,
      "word": "as",
      "f0_hz": 110.0,
      "pitch_bend": 0,
      "ternary": 0,
      "t_pitch": 0,
      "t_vol": 0,
      "t_timing": 0,
      "spk": 1,
      "role": 1,
      "note": 60,
      "velocity": 64,
      "energy": 20,
      "duration_s": 0.1
    },
    {
      "t": 19.56,
      "word": "I",
      "f0_hz": 110.0,
      "pitch_bend": 0,
      "ternary": 0,
      "t_pitch": 0,
      "t_vol": 0,
      "t_timing": 0,
      "spk": 1,
      "role": 1,
      "note": 60,
      "velocity": 64,
      "energy": 20,
      "duration_s": 0.38
    },
    {
      "t": 19.94,
      "word": "investigate",
      "f0_hz": 110.0,
      "pitch_bend": 0,
      "ternary": 0,
      "t_pitch": 0,
      "t_vol": 0,
      "t_timing": 0,
      "spk": 1,
      "role": 1,
      "note": 60,
      "velocity": 64,
      "energy": 20,
      "duration_s": 0.16
    },
    {
      "t": 20.1,
      "word": "what",
      "f0_hz": 130.0,
      "pitch_bend": 0,
      "ternary": 0,
      "t_pitch": 0,
      "t_vol": 0,
      "t_timing": 0,
      "spk": 1,
      "role": 1,
      "note": 60,
      "velocity": 64,
      "energy": 20,
      "duration_s": 0.48
    },
    {
      "t": 20.58,
      "word": "became",
      "f0_hz": 110.0,
      "pitch_bend": 0,
      "ternary": 0,
      "t_pitch": 0,
      "t_vol": 0,
      "t_timing": 0,
      "spk": 1,
      "role": 1,
      "note": 60,
      "velocity": 64,
      "energy": 20,
      "duration_s": 0.32
    },
    {
      "t": 20.9,
      "word": "of",
      "f0_hz": 110.0,
      "pitch_bend": 0,
      "ternary": 0,
      "t_pitch": 0,
      "t_vol": 0,
      "t_timing": 0,
      "spk": 1,
      "role": 1,
      "note": 60,
      "velocity": 64,
      "energy": 20,
      "duration_s": 0.24
    },
    {
      "t": 21.14,
      "word": "Jack",
      "f0_hz": 110.0,
      "pitch_bend": 0,
      "ternary": 0,
      "t_pitch": 0,
      "t_vol": 0,
      "t_timing": 0,
      "spk": 1,
      "role": 1,
      "note": 60,
      "velocity": 64,
      "energy": 20,
      "duration_s": 0.26
    },
    {
      "t": 21.4,
      "word": "in",
      "f0_hz": 110.0,
      "pitch_bend": 0,
      "ternary": 0,
      "t_pitch": 0,
      "t_vol": 0,
      "t_timing": 0,
      "spk": 1,
      "role": 1,
      "note": 60,
      "velocity": 64,
      "energy": 20,
      "duration_s": 0.36
    },
    {
      "t": 21.76,
      "word": "the",
      "f0_hz": 110.0,
      "pitch_bend": 0,
      "ternary": 0,
      "t_pitch": 0,
      "t_vol": 0,
      "t_timing": 0,
      "spk": 1,
      "role": 1,
      "note": 60,
      "velocity": 64,
      "energy": 20,
      "duration_s": 0.24
    },
    {
      "t": 22.0,
      "word": "new",
      "f0_hz": 110.0,
      "pitch_bend": 0,
      "ternary": 0,
      "t_pitch": 0,
      "t_vol": 0,
      "t_timing": 0,
      "spk": 1,
      "role": 1,
      "note": 60,
      "velocity": 64,
      "energy": 20,
      "duration_s": 0.12
    },
    {
      "t": 22.12,
      "word": "season",
      "f0_hz": 110.0,
      "pitch_bend": 0,
      "ternary": 0,
      "t_pitch": 0,
      "t_vol": 0,
      "t_timing": 0,
      "spk": 1,
      "role": 1,
      "note": 60,
      "velocity": 64,
      "energy": 20,
      "duration_s": 0.34
    },
    {
      "t": 22.46,
      "word": "of",
      "f0_hz": 110.0,
      "pitch_bend": 0,
      "ternary": 0,
      "t_pitch": 0,
      "t_vol": 0,
      "t_timing": 0,
      "spk": 1,
      "role": 1,
      "note": 60,
      "velocity": 64,
      "energy": 20,
      "duration_s": 0.28
    },
    {
      "t": 22.74,
      "word": "Unravel.",
      "f0_hz": 110.0,
      "pitch_bend": 0,
      "ternary": 0,
      "t_pitch": 0,
      "t_vol": 0,
      "t_timing": 0,
      "spk": 1,
      "role": 1,
      "note": 60,
      "velocity": 64,
      "energy": 20,
      "duration_s": 0.32
    },
    {
      "t": 23.4,
      "word": "You",
      "f0_hz": 130.0,
      "pitch_bend": 0,
      "ternary": 0,
      "t_pitch": 0,
      "t_vol": 0,
      "t_timing": 0,
      "spk": 1,
      "role": 1,
      "note": 60,
      "velocity": 64,
      "energy": 20,
      "duration_s": 0.16
    },
    {
      "t": 23.56,
      "word": "know",
      "f0_hz": 110.0,
      "pitch_bend": 0,
      "ternary": 0,
      "t_pitch": 0,
      "t_vol": 0,
      "t_timing": 0,
      "spk": 1,
      "role": 1,
      "note": 60,
      "velocity": 64,
      "energy": 20,
      "duration_s": 0.22
    },
    {
      "t": 23.78,
      "word": "where",
      "f0_hz": 130.0,
      "pitch_bend": 0,
      "ternary": 0,
      "t_pitch": 0,
      "t_vol": 0,
      "t_timing": 0,
      "spk": 1,
      "role": 1,
      "note": 60,
      "velocity": 64,
      "energy": 20,
      "duration_s": 0.18
    },
    {
      "t": 23.96,
      "word": "my",
      "f0_hz": 110.0,
      "pitch_bend": 0,
      "ternary": 0,
      "t_pitch": 0,
      "t_vol": 0,
      "t_timing": 0,
      "spk": 1,
      "role": 1,
      "note": 60,
      "velocity": 64,
      "energy": 20,
      "duration_s": 0.3
    },
    {
      "t": 24.26,
      "word": "son",
      "f0_hz": 110.0,
      "pitch_bend": 0,
      "ternary": 0,
      "t_pitch": 0,
      "t_vol": 0,
      "t_timing": 0,
      "spk": 1,
      "role": 1,
      "note": 60,
      "velocity": 64,
      "energy": 20,
      "duration_s": 0.16
    },
    {
      "t": 24.42,
      "word": "is.",
      "f0_hz": 110.0,
      "pitch_bend": 0,
      "ternary": 0,
      "t_pitch": 0,
      "t_vol": 0,
      "t_timing": 0,
      "spk": 1,
      "role": 1,
      "note": 60,
      "velocity": 64,
      "energy": 20,
      "duration_s": 0.24
    },
    {
      "t": 24.88,
      "word": "Search",
      "f0_hz": 110.0,
      "pitch_bend": 0,
      "ternary": 0,
      "t_pitch": 0,
      "t_vol": 0,
      "t_timing": 0,
      "spk": 1,
      "role": 1,
      "note": 60,
      "velocity": 64,
      "energy": 20,
      "duration_s": 0.3
    },
    {
      "t": 25.18,
      "word": "for",
      "f0_hz": 110.0,
      "pitch_bend": 0,
      "ternary": 0,
      "t_pitch": 0,
      "t_vol": 0,
      "t_timing": 0,
      "spk": 1,
      "role": 1,
      "note": 60,
      "velocity": 64,
      "energy": 20,
      "duration_s": 0.12
    },
    {
      "t": 25.3,
      "word": "the",
      "f0_hz": 110.0,
      "pitch_bend": 0,
      "ternary": 0,
      "t_pitch": 0,
      "t_vol": 0,
      "t_timing": 0,
      "spk": 1,
      "role": 1,
      "note": 60,
      "velocity": 64,
      "energy": 20,
      "duration_s": 0.12
    },
    {
      "t": 25.42,
      "word": "Unravel",
      "f0_hz": 110.0,
      "pitch_bend": 0,
      "ternary": 0,
      "t_pitch": 0,
      "t_vol": 0,
      "t_timing": 0,
      "spk": 1,
      "role": 1,
      "note": 60,
      "velocity": 64,
      "energy": 20,
      "duration_s": 0.24
    },
    {
      "t": 25.66,
      "word": "podcast",
      "f0_hz": 110.0,
      "pitch_bend": 0,
      "ternary": 0,
      "t_pitch": 0,
      "t_vol": 0,
      "t_timing": 0,
      "spk": 1,
      "role": 1,
      "note": 60,
      "velocity": 64,
      "energy": 20,
      "duration_s": 0.44
    },
    {
      "t": 26.1,
      "word": "on",
      "f0_hz": 110.0,
      "pitch_bend": 0,
      "ternary": 0,
      "t_pitch": 0,
      "t_vol": 0,
      "t_timing": 0,
      "spk": 1,
      "role": 1,
      "note": 60,
      "velocity": 64,
      "energy": 20,
      "duration_s": 0.44
    },
    {
      "t": 26.54,
      "word": "ABC",
      "f0_hz": 110.0,
      "pitch_bend": 0,
      "ternary": 0,
      "t_pitch": 0,
      "t_vol": 0,
      "t_timing": 0,
      "spk": 1,
      "role": 1,
      "note": 60,
      "velocity": 64,
      "energy": 20,
      "duration_s": 0.3
    },
    {
      "t": 26.84,
      "word": "Listen",
      "f0_hz": 110.0,
      "pitch_bend": 0,
      "ternary": 0,
      "t_pitch": 0,
      "t_vol": 0,
      "t_timing": 0,
      "spk": 0,
      "role": 1,
      "note": 60,
      "velocity": 64,
      "energy": 20,
      "duration_s": 0.4
    },
    {
      "t": 27.24,
      "word": "or",
      "f0_hz": 110.0,
      "pitch_bend": 0,
      "ternary": 0,
      "t_pitch": 0,
      "t_vol": 0,
      "t_timing": 0,
      "spk": 1,
      "role": 1,
      "note": 60,
      "velocity": 64,
      "energy": 20,
      "duration_s": 0.44
    },
    {
      "t": 27.68,
      "word": "wherever",
      "f0_hz": 130.0,
      "pitch_bend": 0,
      "ternary": 0,
      "t_pitch": 0,
      "t_vol": 0,
      "t_timing": 0,
      "spk": 1,
      "role": 1,
      "note": 60,
      "velocity": 64,
      "energy": 20,
      "duration_s": 0.34
    },
    {
      "t": 28.02,
      "word": "you",
      "f0_hz": 130.0,
      "pitch_bend": 0,
      "ternary": 0,
      "t_pitch": 0,
      "t_vol": 0,
      "t_timing": 0,
      "spk": 1,
      "role": 1,
      "note": 60,
      "velocity": 64,
      "energy": 20,
      "duration_s": 0.16
    },
    {
      "t": 28.18,
      "word": "get",
      "f0_hz": 110.0,
      "pitch_bend": 0,
      "ternary": 0,
      "t_pitch": 0,
      "t_vol": 0,
      "t_timing": 0,
      "spk": 1,
      "role": 1,
      "note": 60,
      "velocity": 64,
      "energy": 20,
      "duration_s": 0.12
    },
    {
      "t": 28.3,
      "word": "your",
      "f0_hz": 130.0,
      "pitch_bend": 0,
      "ternary": 0,
      "t_pitch": 0,
      "t_vol": 0,
      "t_timing": 0,
      "spk": 1,
      "role": 1,
      "note": 60,
      "velocity": 64,
      "energy": 20,
      "duration_s": 0.22
    },
    {
      "t": 28.52,
      "word": "podcasts.",
      "f0_hz": 110.0,
      "pitch_bend": 0,
      "ternary": 0,
      "t_pitch": 0,
      "t_vol": 0,
      "t_timing": 0,
      "spk": 1,
      "role": 1,
      "note": 60,
      "velocity": 64,
      "energy": 20,
      "duration_s": 0.48
    },
    {
      "t": 29.0,
      "word": "ABC",
      "f0_hz": 110.0,
      "pitch_bend": 0,
      "ternary": 0,
      "t_pitch": 0,
      "t_vol": 0,
      "t_timing": 0,
      "spk": 0,
      "role": 1,
      "note": 60,
      "velocity": 64,
      "energy": 20,
      "duration_s": 1.28
    },
    {
      "t": 30.28,
      "word": "Listen,",
      "f0_hz": 110.0,
      "pitch_bend": 0,
      "ternary": 0,
      "t_pitch": 0,
      "t_vol": 0,
      "t_timing": 0,
      "spk": 0,
      "role": 1,
      "note": 60,
      "velocity": 64,
      "energy": 20,
      "duration_s": 0.78
    },
    {
      "t": 31.46,
      "word": "podcasts,",
      "f0_hz": 110.0,
      "pitch_bend": 0,
      "ternary": 0,
      "t_pitch": 0,
      "t_vol": 0,
      "t_timing": 0,
      "spk": 1,
      "role": 1,
      "note": 60,
      "velocity": 64,
      "energy": 20,
      "duration_s": 0.46
    },
    {
      "t": 32.48,
      "word": "radio,",
      "f0_hz": 110.0,
      "pitch_bend": 0,
      "ternary": 0,
      "t_pitch": 0,
      "t_vol": 0,
      "t_timing": 0,
      "spk": 1,
      "role": 1,
      "note": 60,
      "velocity": 64,
      "energy": 20,
      "duration_s": 0.22
    },
    {
      "t": 33.14,
      "word": "news,",
      "f0_hz": 110.0,
      "pitch_bend": 0,
      "ternary": 0,
      "t_pitch": 0,
      "t_vol": 0,
      "t_timing": 0,
      "spk": 1,
      "role": 1,
      "note": 60,
      "velocity": 64,
      "energy": 20,
      "duration_s": 0.56
    },
    {
      "t": 34.26,
      "word": "music",
      "f0_hz": 110.0,
      "pitch_bend": 0,
      "ternary": 0,
      "t_pitch": 0,
      "t_vol": 0,
      "t_timing": 0,
      "spk": 1,
      "role": 1,
      "note": 60,
      "velocity": 64,
      "energy": 20,
      "duration_s": 0.0
    },
    {
      "t": 34.26,
      "word": "and",
      "f0_hz": 110.0,
      "pitch_bend": 0,
      "ternary": 0,
      "t_pitch": 0,
      "t_vol": 0,
      "t_timing": 0,
      "spk": 1,
      "role": 1,
      "note": 60,
      "velocity": 64,
      "energy": 20,
      "duration_s": 0.46
    },
    {
      "t": 34.72,
      "word": "more.",
      "f0_hz": 110.0,
      "pitch_bend": 0,
      "ternary": 0,
      "t_pitch": 0,
      "t_vol": 0,
      "t_timing": 0,
      "spk": 1,
      "role": 1,
      "note": 60,
      "velocity": 64,
      "energy": 20,
      "duration_s": 1.18
    },
    {
      "t": 37.44,
      "word": "Just",
      "f0_hz": 110.0,
      "pitch_bend": 0,
      "ternary": 0,
      "t_pitch": 0,
      "t_vol": 0,
      "t_timing": 0,
      "spk": 1,
      "role": 1,
      "note": 60,
      "velocity": 64,
      "energy": 20,
      "duration_s": 0.2
    },
    {
      "t": 37.64,
      "word": "a",
      "f0_hz": 110.0,
      "pitch_bend": 0,
      "ternary": 0,
      "t_pitch": 0,
      "t_vol": 0,
      "t_timing": 0,
      "spk": 1,
      "role": 1,
      "note": 60,
      "velocity": 64,
      "energy": 20,
      "duration_s": 0.14
    },
    {
      "t": 37.78,
      "word": "few",
      "f0_hz": 110.0,
      "pitch_bend": 0,
      "ternary": 0,
      "t_pitch": 0,
      "t_vol": 0,
      "t_timing": 0,
      "spk": 1,
      "role": 1,
      "note": 60,
      "velocity": 64,
      "energy": 20,
      "duration_s": 0.2
    },
    {
      "t": 37.98,
      "word": "years",
      "f0_hz": 130.0,
      "pitch_bend": 0,
      "ternary": 0,
      "t_pitch": 0,
      "t_vol": 0,
      "t_timing": 0,
      "spk": 1,
      "role": 1,
      "note": 60,
      "velocity": 64,
      "energy": 20,
      "duration_s": 0.24
    },
    {
      "t": 38.22,
      "word": "ago,",
      "f0_hz": 110.0,
      "pitch_bend": 0,
      "ternary": 0,
      "t_pitch": 0,
      "t_vol": 0,
      "t_timing": 0,
      "spk": 1,
      "role": 1,
      "note": 60,
      "velocity": 64,
      "energy": 20,
      "duration_s": 0.46
    },
    {
      "t": 38.9,
      "word": "Luke",
      "f0_hz": 110.0,
      "pitch_bend": 0,
      "ternary": 0,
      "t_pitch": 0,
      "t_vol": 0,
      "t_timing": 0,
      "spk": 1,
      "role": 1,
      "note": 60,
      "velocity": 64,
      "energy": 20,
      "duration_s": 0.08
    },
    {
      "t": 38.98,
      "word": "Bateman",
      "f0_hz": 110.0,
      "pitch_bend": 0,
      "ternary": 0,
      "t_pitch": 0,
      "t_vol": 0,
      "t_timing": 0,
      "spk": 1,
      "role": 1,
      "note": 60,
      "velocity": 64,
      "energy": 20,
      "duration_s": 0.42
    },
    {
      "t": 39.4,
      "word": "was",
      "f0_hz": 130.0,
      "pitch_bend": 0,
      "ternary": 0,
      "t_pitch": 0,
      "t_vol": 0,
      "t_timing": 0,
      "spk": 1,
      "role": 1,
      "note": 60,
      "velocity": 64,
      "energy": 20,
      "duration_s": 0.3
    },
    {
      "t": 39.7,
      "word": "being",
      "f0_hz": 110.0,
      "pitch_bend": 0,
      "ternary": 0,
      "t_pitch": 0,
      "t_vol": 0,
      "t_timing": 0,
      "spk": 1,
      "role": 1,
      "note": 60,
      "velocity": 64,
      "energy": 20,
      "duration_s": 0.42
    },
    {
      "t": 40.12,
      "word": "cheered",
      "f0_hz": 110.0,
      "pitch_bend": 0,
      "ternary": 0,
      "t_pitch": 0,
      "t_vol": 0,
      "t_timing": 0,
      "spk": 1,
      "role": 1,
      "note": 60,
      "velocity": 64,
      "energy": 20,
      "duration_s": 0.24
    },
    {
      "t": 40.36,
      "word": "on",
      "f0_hz": 110.0,
      "pitch_bend": 0,
      "ternary": 0,
      "t_pitch": 0,
      "t_vol": 0,
      "t_timing": 0,
      "spk": 1,
      "role": 1,
      "note": 60,
      "velocity": 64,
      "energy": 20,
      "duration_s": 0.5
    },
    {
      "t": 40.86,
      "word": "by",
      "f0_hz": 110.0,
      "pitch_bend": 0,
      "ternary": 0,
      "t_pitch": 0,
      "t_vol": 0,
      "t_timing": 0,
      "spk": 1,
      "role": 1,
      "note": 60,
      "velocity": 64,
      "energy": 20,
      "duration_s": 0.34
    },
    {
      "t": 41.2,
      "word": "tens",
      "f0_hz": 110.0,
      "pitch_bend": 0,
      "ternary": 0,
      "t_pitch": 0,
      "t_vol": 0,
      "t_timing": 0,
      "spk": 1,
      "role": 1,
      "note": 60,
      "velocity": 64,
      "energy": 20,
      "duration_s": 0.42
    },
    {
      "t": 41.62,
      "word": "of",
      "f0_hz": 110.0,
      "pitch_bend": 0,
      "ternary": 0,
      "t_pitch": 0,
      "t_vol": 0,
      "t_timing": 0,
      "spk": 1,
      "role": 1,
      "note": 60,
      "velocity": 64,
      "energy": 20,
      "duration_s": 0.2
    },
    {
      "t": 41.82,
      "word": "thousands",
      "f0_hz": 110.0,
      "pitch_bend": 0,
      "ternary": 0,
      "t_pitch": 0,
      "t_vol": 0,
      "t_timing": 0,
      "spk": 1,
      "role": 1,
      "note": 60,
      "velocity": 64,
      "energy": 20,
      "duration_s": 0.4
    },
    {
      "t": 42.22,
      "word": "of",
      "f0_hz": 110.0,
      "pitch_bend": 0,
      "ternary": 0,
      "t_pitch": 0,
      "t_vol": 0,
      "t_timing": 0,
      "spk": 1,
      "role": 1,
      "note": 60,
      "velocity": 64,
      "energy": 20,
      "duration_s": 0.46
    },
    {
      "t": 42.68,
      "word": "roaring",
      "f0_hz": 110.0,
      "pitch_bend": 0,
      "ternary": 0,
      "t_pitch": 0,
      "t_vol": 0,
      "t_timing": 0,
      "spk": 0,
      "role": 1,
      "note": 60,
      "velocity": 64,
      "energy": 20,
      "duration_s": 0.44
    },
    {
      "t": 43.12,
      "word": "NRL",
      "f0_hz": 110.0,
      "pitch_bend": 0,
      "ternary": 0,
      "t_pitch": 0,
      "t_vol": 0,
      "t_timing": 0,
      "spk": 1,
      "role": 1,
      "note": 60,
      "velocity": 64,
      "energy": 20,
      "duration_s": 0.46
    },
    {
      "t": 43.58,
      "word": "fans",
      "f0_hz": 110.0,
      "pitch_bend": 0,
      "ternary": 0,
      "t_pitch": 0,
      "t_vol": 0,
      "t_timing": 0,
      "spk": 1,
      "role": 1,
      "note": 60,
      "velocity": 64,
      "energy": 20,
      "duration_s": 0.34
    },
    {
      "t": 43.92,
      "word": "in",
      "f0_hz": 110.0,
      "pitch_bend": 0,
      "ternary": 0,
      "t_pitch": 0,
      "t_vol": 0,
      "t_timing": 0,
      "spk": 1,
      "role": 1,
      "note": 60,
      "velocity": 64,
      "energy": 20,
      "duration_s": 0.32
    },
    {
      "t": 44.24,
      "word": "stadiums",
      "f0_hz": 110.0,
      "pitch_bend": 0,
      "ternary": 0,
      "t_pitch": 0,
      "t_vol": 0,
      "t_timing": 0,
      "spk": 1,
      "role": 1,
      "note": 60,
      "velocity": 64,
      "energy": 20,
      "duration_s": 0.46
    },
    {
      "t": 44.7,
      "word": "where",
      "f0_hz": 130.0,
      "pitch_bend": 0,
      "ternary": 0,
      "t_pitch": 0,
      "t_vol": 0,
      "t_timing": 0,
      "spk": 1,
      "role": 1,
      "note": 60,
      "velocity": 64,
      "energy": 20,
      "duration_s": 0.7
    },
    {
      "t": 45.4,
      "word": "he",
      "f0_hz": 130.0,
      "pitch_bend": 0,
      "ternary": 0,
      "t_pitch": 0,
      "t_vol": 0,
      "t_timing": 0,
      "spk": 1,
      "role": 1,
      "note": 60,
      "velocity": 64,
      "energy": 20,
      "duration_s": 0.14
    },
    {
      "t": 45.54,
      "word": "played",
      "f0_hz": 110.0,
      "pitch_bend": 0,
      "ternary": 0,
      "t_pitch": 0,
      "t_vol": 0,
      "t_timing": 0,
      "spk": 1,
      "role": 1,
      "note": 60,
      "velocity": 64,
      "energy": 20,
      "duration_s": 0.3
    },
    {
      "t": 45.84,
      "word": "for",
      "f0_hz": 110.0,
      "pitch_bend": 0,
      "ternary": 0,
      "t_pitch": 0,
      "t_vol": 0,
      "t_timing": 0,
      "spk": 1,
      "role": 1,
      "note": 60,
      "velocity": 64,
      "energy": 20,
      "duration_s": 0.22
    },
    {
      "t": 46.06,
      "word": "the",
      "f0_hz": 110.0,
      "pitch_bend": 0,
      "ternary": 0,
      "t_pitch": 0,
      "t_vol": 0,
      "t_timing": 0,
      "spk": 1,
      "role": 1,
      "note": 60,
      "velocity": 64,
      "energy": 20,
      "duration_s": 0.2
    },
    {
      "t": 46.26,
      "word": "Canberra",
      "f0_hz": 110.0,
      "pitch_bend": 0,
      "ternary": 0,
      "t_pitch": 0,
      "t_vol": 0,
      "t_timing": 0,
      "spk": 1,
      "role": 1,
      "note": 60,
      "velocity": 64,
      "energy": 20,
      "duration_s": 0.18
    },
    {
      "t": 46.44,
      "word": "Raiders.",
      "f0_hz": 110.0,
      "pitch_bend": 0,
      "ternary": 0,
      "t_pitch": 0,
      "t_vol": 0,
      "t_timing": 0,
      "spk": 1,
      "role": 1,
      "note": 60,
      "velocity": 64,
      "energy": 20,
      "duration_s": 0.44
    },
    {
      "t": 47.5,
      "word": "And",
      "f0_hz": 110.0,
      "pitch_bend": 0,
      "ternary": 0,
      "t_pitch": 0,
      "t_vol": 0,
      "t_timing": 0,
      "spk": 1,
      "role": 1,
      "note": 60,
      "velocity": 64,
      "energy": 20,
      "duration_s": 0.2
    },
    {
      "t": 47.7,
      "word": "that's",
      "f0_hz": 110.0,
      "pitch_bend": 0,
      "ternary": 0,
      "t_pitch": 0,
      "t_vol": 0,
      "t_timing": 0,
      "spk": 1,
      "role": 1,
      "note": 60,
      "velocity": 64,
      "energy": 20,
      "duration_s": 0.28
    },
    {
      "t": 47.98,
      "word": "not",
      "f0_hz": 110.0,
      "pitch_bend": 0,
      "ternary": -1,
      "t_pitch": -1,
      "t_vol": -1,
      "t_timing": -1,
      "spk": 1,
      "role": 0,
      "note": 57,
      "velocity": 44,
      "energy": 80,
      "duration_s": 0.2
    },
    {
      "t": 48.18,
      "word": "to",
      "f0_hz": 110.0,
      "pitch_bend": 0,
      "ternary": 0,
      "t_pitch": 0,
      "t_vol": 0,
      "t_timing": 0,
      "spk": 1,
      "role": 1,
      "note": 60,
      "velocity": 64,
      "energy": 20,
      "duration_s": 0.12
    },
    {
      "t": 48.3,
      "word": "mention",
      "f0_hz": 110.0,
      "pitch_bend": 0,
      "ternary": 0,
      "t_pitch": 0,
      "t_vol": 0,
      "t_timing": 0,
      "spk": 1,
      "role": 1,
      "note": 60,
      "velocity": 64,
      "energy": 20,
      "duration_s": 0.3
    },
    {
      "t": 48.6,
      "word": "the",
      "f0_hz": 110.0,
      "pitch_bend": 0,
      "ternary": 0,
      "t_pitch": 0,
      "t_vol": 0,
      "t_timing": 0,
      "spk": 1,
      "role": 1,
      "note": 60,
      "velocity": 64,
      "energy": 20,
      "duration_s": 0.5
    },
    {
      "t": 49.1,
      "word": "countless",
      "f0_hz": 110.0,
      "pitch_bend": 0,
      "ternary": 0,
      "t_pitch": 0,
      "t_vol": 0,
      "t_timing": 0,
      "spk": 1,
      "role": 1,
      "note": 60,
      "velocity": 64,
      "energy": 20,
      "duration_s": 0.2
    },
    {
      "t": 49.3,
      "word": "more",
      "f0_hz": 110.0,
      "pitch_bend": 0,
      "ternary": 0,
      "t_pitch": 0,
      "t_vol": 0,
      "t_timing": 0,
      "spk": 1,
      "role": 1,
      "note": 60,
      "velocity": 64,
      "energy": 20,
      "duration_s": 0.42
    },
    {
      "t": 49.72,
      "word": "league",
      "f0_hz": 110.0,
      "pitch_bend": 0,
      "ternary": 0,
      "t_pitch": 0,
      "t_vol": 0,
      "t_timing": 0,
      "spk": 1,
      "role": 1,
      "note": 60,
      "velocity": 64,
      "energy": 20,
      "duration_s": 0.32
    },
    {
      "t": 50.04,
      "word": "die",
      "f0_hz": 110.0,
      "pitch_bend": 0,
      "ternary": 0,
      "t_pitch": 0,
      "t_vol": 0,
      "t_timing": 0,
      "spk": 1,
      "role": 1,
      "note": 60,
      "velocity": 64,
      "energy": 20,
      "duration_s": 0.36
    },
    {
      "t": 50.4,
      "word": "-hards",
      "f0_hz": 110.0,
      "pitch_bend": 0,
      "ternary": 0,
      "t_pitch": 0,
      "t_vol": 0,
      "t_timing": 0,
      "spk": 1,
      "role": 1,
      "note": 60,
      "velocity": 64,
      "energy": 20,
      "duration_s": 0.2
    },
    {
      "t": 50.6,
      "word": "watching",
      "f0_hz": 130.0,
      "pitch_bend": 0,
      "ternary": 0,
      "t_pitch": 0,
      "t_vol": 0,
      "t_timing": 0,
      "spk": 1,
      "role": 1,
      "note": 60,
      "velocity": 64,
      "energy": 20,
      "duration_s": 0.38
    },
    {
      "t": 50.98,
      "word": "him",
      "f0_hz": 130.0,
      "pitch_bend": 0,
      "ternary": 0,
      "t_pitch": 0,
      "t_vol": 0,
      "t_timing": 0,
      "spk": 1,
      "role": 1,
      "note": 60,
      "velocity": 64,
      "energy": 20,
      "duration_s": 0.2
    },
    {
      "t": 51.18,
      "word": "on",
      "f0_hz": 110.0,
      "pitch_bend": 0,
      "ternary": 0,
      "t_pitch": 0,
      "t_vol": 0,
      "t_timing": 0,
      "spk": 1,
      "role": 1,
      "note": 60,
      "velocity": 64,
      "energy": 20,
      "duration_s": 0.32
    },
    {
      "t": 51.5,
      "word": "TV.",
      "f0_hz": 110.0,
      "pitch_bend": 0,
      "ternary": 0,
      "t_pitch": 0,
      "t_vol": 0,
      "t_timing": 0,
      "spk": 1,
      "role": 1,
      "note": 60,
      "velocity": 64,
      "energy": 20,
      "duration_s": 0.3
    },
    {
      "t": 52.68,
      "word": "But",
      "f0_hz": 110.0,
      "pitch_bend": 0,
      "ternary": 0,
      "t_pitch": 0,
      "t_vol": 0,
      "t_timing": 0,
      "spk": 1,
      "role": 1,
      "note": 60,
      "velocity": 64,
      "energy": 20,
      "duration_s": 0.2
    },
    {
      "t": 52.88,
      "word": "for",
      "f0_hz": 110.0,
      "pitch_bend": 0,
      "ternary": 0,
      "t_pitch": 0,
      "t_vol": 0,
      "t_timing": 0,
      "spk": 1,
      "role": 1,
      "note": 60,
      "velocity": 64,
      "energy": 20,
      "duration_s": 0.14
    },
    {
      "t": 53.02,
      "word": "all",
      "f0_hz": 110.0,
      "pitch_bend": 0,
      "ternary": 0,
      "t_pitch": 0,
      "t_vol": 0,
      "t_timing": 0,
      "spk": 1,
      "role": 1,
      "note": 60,
      "velocity": 64,
      "energy": 20,
      "duration_s": 0.2
    },
    {
      "t": 53.22,
      "word": "of",
      "f0_hz": 110.0,
      "pitch_bend": 0,
      "ternary": 0,
      "t_pitch": 0,
      "t_vol": 0,
      "t_timing": 0,
      "spk": 1,
      "role": 1,
      "note": 60,
      "velocity": 64,
      "energy": 20,
      "duration_s": 0.08
    },
    {
      "t": 53.3,
      "word": "his",
      "f0_hz": 130.0,
      "pitch_bend": 0,
      "ternary": 0,
      "t_pitch": 0,
      "t_vol": 0,
      "t_timing": 0,
      "spk": 1,
      "role": 1,
      "note": 60,
      "velocity": 64,
      "energy": 20,
      "duration_s": 0.18
    },
    {
      "t": 53.48,
      "word": "fans,",
      "f0_hz": 110.0,
      "pitch_bend": 0,
      "ternary": 0,
      "t_pitch": 0,
      "t_vol": 0,
      "t_timing": 0,
      "spk": 1,
      "role": 1,
      "note": 60,
      "velocity": 64,
      "energy": 20,
      "duration_s": 0.6
    },
    {
      "t": 54.58,
      "word": "Luke",
      "f0_hz": 110.0,
      "pitch_bend": 0,
      "ternary": 0,
      "t_pitch": 0,
      "t_vol": 0,
      "t_timing": 0,
      "spk": 1,
      "role": 1,
      "note": 60,
      "velocity": 64,
      "energy": 20,
      "duration_s": 0.12
    },
    {
      "t": 54.7,
      "word": "often",
      "f0_hz": 110.0,
      "pitch_bend": 0,
      "ternary": 0,
      "t_pitch": 0,
      "t_vol": 0,
      "t_timing": 0,
      "spk": 1,
      "role": 1,
      "note": 60,
      "velocity": 64,
      "energy": 20,
      "duration_s": 0.4
    },
    {
      "t": 55.1,
      "word": "felt",
      "f0_hz": 110.0,
      "pitch_bend": 0,
      "ternary": 0,
      "t_pitch": 0,
      "t_vol": 0,
      "t_timing": 0,
      "spk": 1,
      "role": 1,
      "note": 60,
      "velocity": 64,
      "energy": 20,
      "duration_s": 0.58
    },
    {
      "t": 55.68,
      "word": "isolated",
      "f0_hz": 110.0,
      "pitch_bend": 0,
      "ternary": 0,
      "t_pitch": 0,
      "t_vol": 0,
      "t_timing": 0,
      "spk": 1,
      "role": 1,
      "note": 60,
      "velocity": 64,
      "energy": 20,
      "duration_s": 0.62
    },
    {
      "t": 56.3,
      "word": "and",
      "f0_hz": 110.0,
      "pitch_bend": 0,
      "ternary": 0,
      "t_pitch": 0,
      "t_vol": 0,
      "t_timing": 0,
      "spk": 1,
      "role": 1,
      "note": 60,
      "velocity": 64,
      "energy": 20,
      "duration_s": 0.4
    },
    {
      "t": 56.7,
      "word": "alone",
      "f0_hz": 110.0,
      "pitch_bend": 0,
      "ternary": 0,
      "t_pitch": 0,
      "t_vol": 0,
      "t_timing": 0,
      "spk": 1,
      "role": 1,
      "note": 60,
      "velocity": 64,
      "energy": 20,
      "duration_s": 0.56
    },
    {
      "t": 57.26,
      "word": "and",
      "f0_hz": 110.0,
      "pitch_bend": 0,
      "ternary": 0,
      "t_pitch": 0,
      "t_vol": 0,
      "t_timing": 0,
      "spk": 1,
      "role": 1,
      "note": 60,
      "velocity": 64,
      "energy": 20,
      "duration_s": 0.52
    },
    {
      "t": 57.78,
      "word": "found",
      "f0_hz": 110.0,
      "pitch_bend": 0,
      "ternary": 0,
      "t_pitch": 0,
      "t_vol": 0,
      "t_timing": 0,
      "spk": 1,
      "role": 1,
      "note": 60,
      "velocity": 64,
      "energy": 20,
      "duration_s": 0.28
    },
    {
      "t": 58.06,
      "word": "solace",
      "f0_hz": 110.0,
      "pitch_bend": 0,
      "ternary": 0,
      "t_pitch": 0,
      "t_vol": 0,
      "t_timing": 0,
      "spk": 1,
      "role": 1,
      "note": 60,
      "velocity": 64,
      "energy": 20,
      "duration_s": 0.32
    },
    {
      "t": 58.38,
      "word": "in",
      "f0_hz": 110.0,
      "pitch_bend": 0,
      "ternary": 0,
      "t_pitch": 0,
      "t_vol": 0,
      "t_timing": 0,
      "spk": 1,
      "role": 1,
      "note": 60,
      "velocity": 64,
      "energy": 20,
      "duration_s": 0.22
    },
    {
      "t": 58.6,
      "word": "books,",
      "f0_hz": 110.0,
      "pitch_bend": 0,
      "ternary": 0,
      "t_pitch": 0,
      "t_vol": 0,
      "t_timing": 0,
      "spk": 1,
      "role": 1,
      "note": 60,
      "velocity": 64,
      "energy": 20,
      "duration_s": 0.76
    },
    {
      "t": 59.64,
      "word": "especially",
      "f0_hz": 110.0,
      "pitch_bend": 0,
      "ternary": 0,
      "t_pitch": 0,
      "t_vol": 0,
      "t_timing": 0,
      "spk": 1,
      "role": 1,
      "note": 60,
      "velocity": 64,
      "energy": 20,
      "duration_s": 0.3
    },
    {
      "t": 59.94,
      "word": "fantasy",
      "f0_hz": 110.0,
      "pitch_bend": 0,
      "ternary": 0,
      "t_pitch": 0,
      "t_vol": 0,
      "t_timing": 0,
      "spk": 1,
      "role": 1,
      "note": 60,
      "velocity": 64,
      "energy": 20,
      "duration_s": 0.38
    },
    {
      "t": 60.32,
      "word": "novels.",
      "f0_hz": 110.0,
      "pitch_bend": 0,
      "ternary": 0,
      "t_pitch": 0,
      "t_vol": 0,
      "t_timing": 0,
      "spk": 1,
      "role": 1,
      "note": 60,
      "velocity": 64,
      "energy": 20,
      "duration_s": 0.42
    },
    {
      "t": 61.46,
      "word": "Not",
      "f0_hz": 110.0,
      "pitch_bend": 0,
      "ternary": -1,
      "t_pitch": -1,
      "t_vol": -1,
      "t_timing": -1,
      "spk": 1,
      "role": 0,
      "note": 57,
      "velocity": 44,
      "energy": 80,
      "duration_s": 0.3
    },
    {
      "t": 61.76,
      "word": "that",
      "f0_hz": 110.0,
      "pitch_bend": 0,
      "ternary": 0,
      "t_pitch": 0,
      "t_vol": 0,
      "t_timing": 0,
      "spk": 1,
      "role": 1,
      "note": 60,
      "velocity": 64,
      "energy": 20,
      "duration_s": 0.24
    },
    {
      "t": 62.0,
      "word": "he",
      "f0_hz": 130.0,
      "pitch_bend": 0,
      "ternary": 0,
      "t_pitch": 0,
      "t_vol": 0,
      "t_timing": 0,
      "spk": 1,
      "role": 1,
      "note": 60,
      "velocity": 64,
      "energy": 20,
      "duration_s": 0.22
    },
    {
      "t": 62.22,
      "word": "could",
      "f0_hz": 110.0,
      "pitch_bend": 0,
      "ternary": 0,
      "t_pitch": 0,
      "t_vol": 0,
      "t_timing": 0,
      "spk": 1,
      "role": 1,
      "note": 60,
      "velocity": 64,
      "energy": 20,
      "duration_s": 0.2
    },
    {
      "t": 62.42,
      "word": "tell",
      "f0_hz": 110.0,
      "pitch_bend": 0,
      "ternary": 0,
      "t_pitch": 0,
      "t_vol": 0,
      "t_timing": 0,
      "spk": 1,
      "role": 1,
      "note": 60,
      "velocity": 64,
      "energy": 20,
      "duration_s": 0.28
    },
    {
      "t": 62.7,
      "word": "anyone",
      "f0_hz": 110.0,
      "pitch_bend": 0,
      "ternary": 0,
      "t_pitch": 0,
      "t_vol": 0,
      "t_timing": 0,
      "spk": 1,
      "role": 1,
      "note": 60,
      "velocity": 64,
      "energy": 20,
      "duration_s": 0.3
    },
    {
      "t": 63.0,
      "word": "that.",
      "f0_hz": 110.0,
      "pitch_bend": 0,
      "ternary": 0,
      "t_pitch": 0,
      "t_vol": 0,
      "t_timing": 0,
      "spk": 1,
      "role": 1,
      "note": 60,
      "velocity": 64,
      "energy": 20,
      "duration_s": 0.62
    },
    {
      "t": 64.26,
      "word": "Nowadays,",
      "f0_hz": 110.0,
      "pitch_bend": 0,
      "ternary": 0,
      "t_pitch": 0,
      "t_vol": 0,
      "t_timing": 0,
      "spk": 1,
      "role": 1,
      "note": 60,
      "velocity": 64,
      "energy": 20,
      "duration_s": 0.6
    },
    {
      "t": 65.1,
      "word": "Luke",
      "f0_hz": 110.0,
      "pitch_bend": 0,
      "ternary": 0,
      "t_pitch": 0,
      "t_vol": 0,
      "t_timing": 0,
      "spk": 1,
      "role": 1,
      "note": 60,
      "velocity": 64,
      "energy": 20,
      "duration_s": 0.02
    },
    {
      "t": 65.12,
      "word": "is",
      "f0_hz": 110.0,
      "pitch_bend": 0,
      "ternary": 0,
      "t_pitch": 0,
      "t_vol": 0,
      "t_timing": 0,
      "spk": 1,
      "role": 1,
      "note": 60,
      "velocity": 64,
      "energy": 20,
      "duration_s": 0.24
    },
    {
      "t": 65.36,
      "word": "retired",
      "f0_hz": 110.0,
      "pitch_bend": 0,
      "ternary": 0,
      "t_pitch": 0,
      "t_vol": 0,
      "t_timing": 0,
      "spk": 1,
      "role": 1,
      "note": 60,
      "velocity": 64,
      "energy": 20,
      "duration_s": 0.28
    },
    {
      "t": 65.64,
      "word": "from",
      "f0_hz": 110.0,
      "pitch_bend": 0,
      "ternary": 0,
      "t_pitch": 0,
      "t_vol": 0,
      "t_timing": 0,
      "spk": 1,
      "role": 1,
      "note": 60,
      "velocity": 64,
      "energy": 20,
      "duration_s": 0.28
    },
    {
      "t": 65.92,
      "word": "NRL.",
      "f0_hz": 110.0,
      "pitch_bend": 0,
      "ternary": 0,
      "t_pitch": 0,
      "t_vol": 0,
      "t_timing": 0,
      "spk": 1,
      "role": 1,
      "note": 60,
      "velocity": 64,
      "energy": 20,
      "duration_s": 0.34
    },
    {
      "t": 66.8,
      "word": "You",
      "f0_hz": 130.0,
      "pitch_bend": 0,
      "ternary": 0,
      "t_pitch": 0,
      "t_vol": 0,
      "t_timing": 0,
      "spk": 1,
      "role": 1,
      "note": 60,
      "velocity": 64,
      "energy": 20,
      "duration_s": 0.16
    },
    {
      "t": 66.96,
      "word": "might",
      "f0_hz": 110.0,
      "pitch_bend": 0,
      "ternary": 0,
      "t_pitch": 0,
      "t_vol": 0,
      "t_timing": 0,
      "spk": 1,
      "role": 1,
      "note": 60,
      "velocity": 64,
      "energy": 20,
      "duration_s": 0.22
    },
    {
      "t": 67.18,
      "word": "know",
      "f0_hz": 110.0,
      "pitch_bend": 0,
      "ternary": 0,
      "t_pitch": 0,
      "t_vol": 0,
      "t_timing": 0,
      "spk": 1,
      "role": 1,
      "note": 60,
      "velocity": 64,
      "energy": 20,
      "duration_s": 0.32
    },
    {
      "t": 67.5,
      "word": "him",
      "f0_hz": 130.0,
      "pitch_bend": 0,
      "ternary": 0,
      "t_pitch": 0,
      "t_vol": 0,
      "t_timing": 0,
      "spk": 1,
      "role": 1,
      "note": 60,
      "velocity": 64,
      "energy": 20,
      "duration_s": 0.16
    },
    {
      "t": 67.66,
      "word": "as",
      "f0_hz": 110.0,
      "pitch_bend": 0,
      "ternary": 0,
      "t_pitch": 0,
      "t_vol": 0,
      "t_timing": 0,
      "spk": 1,
      "role": 1,
      "note": 60,
      "velocity": 64,
      "energy": 20,
      "duration_s": 0.32
    },
    {
      "t": 67.98,
      "word": "a",
      "f0_hz": 110.0,
      "pitch_bend": 0,
      "ternary": 0,
      "t_pitch": 0,
      "t_vol": 0,
      "t_timing": 0,
      "spk": 1,
      "role": 1,
      "note": 60,
      "velocity": 64,
      "energy": 20,
      "duration_s": 0.38
    },
    {
      "t": 68.36,
      "word": "lovable",
      "f0_hz": 110.0,
      "pitch_bend": 0,
      "ternary": 0,
      "t_pitch": 0,
      "t_vol": 0,
      "t_timing": 0,
      "spk": 1,
      "role": 1,
      "note": 60,
      "velocity": 64,
      "energy": 20,
      "duration_s": 0.1
    },
    {
      "t": 68.46,
      "word": "favorite",
      "f0_hz": 110.0,
      "pitch_bend": 0,
      "ternary": 0,
      "t_pitch": 0,
      "t_vol": 0,
      "t_timing": 0,
      "spk": 1,
      "role": 1,
      "note": 60,
      "velocity": 64,
      "energy": 20,
      "duration_s": 0.5
    },
    {
      "t": 68.96,
      "word": "on",
      "f0_hz": 110.0,
      "pitch_bend": 0,
      "ternary": 0,
      "t_pitch": 0,
      "t_vol": 0,
      "t_timing": 0,
      "spk": 1,
      "role": 1,
      "note": 60,
      "velocity": 64,
      "energy": 20,
      "duration_s": 0.28
    },
    {
      "t": 69.24,
      "word": "hit",
      "f0_hz": 130.0,
      "pitch_bend": 0,
      "ternary": 0,
      "t_pitch": 0,
      "t_vol": 0,
      "t_timing": 0,
      "spk": 1,
      "role": 1,
      "note": 60,
      "velocity": 64,
      "energy": 20,
      "duration_s": 0.2
    },
    {
      "t": 69.44,
      "word": "TV",
      "f0_hz": 110.0,
      "pitch_bend": 0,
      "ternary": 0,
      "t_pitch": 0,
      "t_vol": 0,
      "t_timing": 0,
      "spk": 1,
      "role": 1,
      "note": 60,
      "velocity": 64,
      "energy": 20,
      "duration_s": 0.26
    },
    {
      "t": 69.7,
      "word": "shows",
      "f0_hz": 110.0,
      "pitch_bend": 0,
      "ternary": 0,
      "t_pitch": 0,
      "t_vol": 0,
      "t_timing": 0,
      "spk": 1,
      "role": 1,
      "note": 60,
      "velocity": 64,
      "energy": 20,
      "duration_s": 0.44
    },
    {
      "t": 70.14,
      "word": "like",
      "f0_hz": 110.0,
      "pitch_bend": 0,
      "ternary": 0,
      "t_pitch": 0,
      "t_vol": 0,
      "t_timing": 0,
      "spk": 1,
      "role": 1,
      "note": 60,
      "velocity": 64,
      "energy": 20,
      "duration_s": 0.24
    },
    {
      "t": 70.38,
      "word": "Bachelor",
      "f0_hz": 110.0,
      "pitch_bend": 0,
      "ternary": 0,
      "t_pitch": 0,
      "t_vol": 0,
      "t_timing": 0,
      "spk": 0,
      "role": 1,
      "note": 60,
      "velocity": 64,
      "energy": 20,
      "duration_s": 0.38
    },
    {
      "t": 70.76,
      "word": "and",
      "f0_hz": 110.0,
      "pitch_bend": 0,
      "ternary": 0,
      "t_pitch": 0,
      "t_vol": 0,
      "t_timing": 0,
      "spk": 1,
      "role": 1,
      "note": 60,
      "velocity": 64,
      "energy": 20,
      "duration_s": 0.26
    },
    {
      "t": 71.02,
      "word": "I'm",
      "f0_hz": 110.0,
      "pitch_bend": 0,
      "ternary": 0,
      "t_pitch": 0,
      "t_vol": 0,
      "t_timing": 0,
      "spk": 1,
      "role": 1,
      "note": 60,
      "velocity": 64,
      "energy": 20,
      "duration_s": 0.18
    },
    {
      "t": 71.2,
      "word": "a",
      "f0_hz": 110.0,
      "pitch_bend": 0,
      "ternary": 0,
      "t_pitch": 0,
      "t_vol": 0,
      "t_timing": 0,
      "spk": 1,
      "role": 1,
      "note": 60,
      "velocity": 64,
      "energy": 20,
      "duration_s": 0.08
    },
    {
      "t": 71.28,
      "word": "celebrity",
      "f0_hz": 110.0,
      "pitch_bend": 0,
      "ternary": 0,
      "t_pitch": 0,
      "t_vol": 0,
      "t_timing": 0,
      "spk": 1,
      "role": 1,
      "note": 60,
      "velocity": 64,
      "energy": 20,
      "duration_s": 0.34
    },
    {
      "t": 71.62,
      "word": "or",
      "f0_hz": 110.0,
      "pitch_bend": 0,
      "ternary": 0,
      "t_pitch": 0,
      "t_vol": 0,
      "t_timing": 0,
      "spk": 0,
      "role": 1,
      "note": 60,
      "velocity": 64,
      "energy": 20,
      "duration_s": 0.7
    },
    {
      "t": 72.32,
      "word": "his",
      "f0_hz": 130.0,
      "pitch_bend": 0,
      "ternary": 0,
      "t_pitch": 0,
      "t_vol": 0,
      "t_timing": 0,
      "spk": 1,
      "role": 1,
      "note": 60,
      "velocity": 64,
      "energy": 20,
      "duration_s": 0.32
    },
    {
      "t": 72.64,
      "word": "Instagram",
      "f0_hz": 110.0,
      "pitch_bend": 0,
      "ternary": 0,
      "t_pitch": 0,
      "t_vol": 0,
      "t_timing": 0,
      "spk": 1,
      "role": 1,
      "note": 60,
      "velocity": 64,
      "energy": 20,
      "duration_s": 0.36
    },
    {
      "t": 73.0,
      "word": "Reels",
      "f0_hz": 110.0,
      "pitch_bend": 0,
      "ternary": 0,
      "t_pitch": 0,
      "t_vol": 0,
      "t_timing": 0,
      "spk": 1,
      "role": 1,
      "note": 60,
      "velocity": 64,
      "energy": 20,
      "duration_s": 0.26
    },
    {
      "t": 73.26,
      "word": "and",
      "f0_hz": 110.0,
      "pitch_bend": 0,
      "ternary": 0,
      "t_pitch": 0,
      "t_vol": 0,
      "t_timing": 0,
      "spk": 1,
      "role": 1,
      "note": 60,
      "velocity": 64,
      "energy": 20,
      "duration_s": 0.28
    },
    {
      "t": 73.54,
      "word": "TikToks",
      "f0_hz": 110.0,
      "pitch_bend": 0,
      "ternary": 0,
      "t_pitch": 0,
      "t_vol": 0,
      "t_timing": 0,
      "spk": 1,
      "role": 1,
      "note": 60,
      "velocity": 64,
      "energy": 20,
      "duration_s": 0.68
    },
    {
      "t": 74.22,
      "word": "where",
      "f0_hz": 130.0,
      "pitch_bend": 0,
      "ternary": 0,
      "t_pitch": 0,
      "t_vol": 0,
      "t_timing": 0,
      "spk": 1,
      "role": 1,
      "note": 60,
      "velocity": 64,
      "energy": 20,
      "duration_s": 0.14
    },
    {
      "t": 74.36,
      "word": "he",
      "f0_hz": 130.0,
      "pitch_bend": 0,
      "ternary": 0,
      "t_pitch": 0,
      "t_vol": 0,
      "t_timing": 0,
      "spk": 1,
      "role": 1,
      "note": 60,
      "velocity": 64,
      "energy": 20,
      "duration_s": 0.14
    },
    {
      "t": 74.5,
      "word": "shares",
      "f0_hz": 110.0,
      "pitch_bend": 0,
      "ternary": 0,
      "t_pitch": 0,
      "t_vol": 0,
      "t_timing": 0,
      "spk": 1,
      "role": 1,
      "note": 60,
      "velocity": 64,
      "energy": 20,
      "duration_s": 0.2
    },
    {
      "t": 74.7,
      "word": "his",
      "f0_hz": 130.0,
      "pitch_bend": 0,
      "ternary": 0,
      "t_pitch": 0,
      "t_vol": 0,
      "t_timing": 0,
      "spk": 1,
      "role": 1,
      "note": 60,
      "velocity": 64,
      "energy": 20,
      "duration_s": 0.28
    },
    {
      "t": 74.98,
      "word": "love",
      "f0_hz": 110.0,
      "pitch_bend": 0,
      "ternary": 1,
      "t_pitch": 1,
      "t_vol": 1,
      "t_timing": 1,
      "spk": 1,
      "role": 2,
      "note": 63,
      "velocity": 84,
      "energy": 80,
      "duration_s": 0.2
    },
    {
      "t": 75.18,
      "word": "of",
      "f0_hz": 110.0,
      "pitch_bend": 0,
      "ternary": 0,
      "t_pitch": 0,
      "t_vol": 0,
      "t_timing": 0,
      "spk": 1,
      "role": 1,
      "note": 60,
      "velocity": 64,
      "energy": 20,
      "duration_s": 0.3
    },
    {
      "t": 75.48,
      "word": "reading.",
      "f0_hz": 110.0,
      "pitch_bend": 0,
      "ternary": 0,
      "t_pitch": 0,
      "t_vol": 0,
      "t_timing": 0,
      "spk": 1,
      "role": 1,
      "note": 60,
      "velocity": 64,
      "energy": 20,
      "duration_s": 0.58
    },
    {
      "t": 76.36,
      "word": "Sweaty",
      "f0_hz": 110.0,
      "pitch_bend": 0,
      "ternary": 0,
      "t_pitch": 0,
      "t_vol": 0,
      "t_timing": 0,
      "spk": 1,
      "role": 1,
      "note": 60,
      "velocity": 64,
      "energy": 20,
      "duration_s": 0.44
    },
    {
      "t": 76.8,
      "word": "and",
      "f0_hz": 110.0,
      "pitch_bend": 0,
      "ternary": 0,
      "t_pitch": 0,
      "t_vol": 0,
      "t_timing": 0,
      "spk": 1,
      "role": 1,
      "note": 60,
      "velocity": 64,
      "energy": 20,
      "duration_s": 0.3
    },
    {
      "t": 77.1,
      "word": "sometimes",
      "f0_hz": 110.0,
      "pitch_bend": 0,
      "ternary": 0,
      "t_pitch": 0,
      "t_vol": 0,
      "t_timing": 0,
      "spk": 1,
      "role": 1,
      "note": 60,
      "velocity": 64,
      "energy": 20,
      "duration_s": 0.38
    },
    {
      "t": 77.48,
      "word": "disheveled",
      "f0_hz": 110.0,
      "pitch_bend": 0,
      "ternary": 0,
      "t_pitch": 0,
      "t_vol": 0,
      "t_timing": 0,
      "spk": 1,
      "role": 1,
      "note": 60,
      "velocity": 64,
      "energy": 20,
      "duration_s": 0.98
    },
    {
      "t": 78.46,
      "word": "from",
      "f0_hz": 110.0,
      "pitch_bend": 0,
      "ternary": 0,
      "t_pitch": 0,
      "t_vol": 0,
      "t_timing": 0,
      "spk": 1,
      "role": 1,
      "note": 60,
      "velocity": 64,
      "energy": 20,
      "duration_s": 0.24
    },
    {
      "t": 78.7,
      "word": "his",
      "f0_hz": 130.0,
      "pitch_bend": 0,
      "ternary": 0,
      "t_pitch": 0,
      "t_vol": 0,
      "t_timing": 0,
      "spk": 1,
      "role": 1,
      "note": 60,
      "velocity": 64,
      "energy": 20,
      "duration_s": 0.24
    },
    {
      "t": 78.94,
      "word": "tractor",
      "f0_hz": 110.0,
      "pitch_bend": 0,
      "ternary": 0,
      "t_pitch": 0,
      "t_vol": 0,
      "t_timing": 0,
      "spk": 1,
      "role": 1,
      "note": 60,
      "velocity": 64,
      "energy": 20,
      "duration_s": 0.36
    },
    {
      "t": 79.3,
      "word": "in",
      "f0_hz": 110.0,
      "pitch_bend": 0,
      "ternary": 0,
      "t_pitch": 0,
      "t_vol": 0,
      "t_timing": 0,
      "spk": 1,
      "role": 1,
      "note": 60,
      "velocity": 64,
      "energy": 20,
      "duration_s": 0.36
    },
    {
      "t": 79.66,
      "word": "Western",
      "f0_hz": 130.0,
      "pitch_bend": 0,
      "ternary": 0,
      "t_pitch": 0,
      "t_vol": 0,
      "t_timing": 0,
      "spk": 0,
      "role": 1,
      "note": 60,
      "velocity": 64,
      "energy": 20,
      "duration_s": 0.3
    },
    {
      "t": 79.96,
      "word": "Queensland.",
      "f0_hz": 110.0,
      "pitch_bend": 0,
      "ternary": 0,
      "t_pitch": 0,
      "t_vol": 0,
      "t_timing": 0,
      "spk": 1,
      "role": 1,
      "note": 60,
      "velocity": 64,
      "energy": 20,
      "duration_s": 0.46
    },
    {
      "t": 81.28,
      "word": "Which",
      "f0_hz": 130.0,
      "pitch_bend": 0,
      "ternary": 0,
      "t_pitch": 0,
      "t_vol": 0,
      "t_timing": 0,
      "spk": 1,
      "role": 1,
      "note": 60,
      "velocity": 64,
      "energy": 20,
      "duration_s": 0.16
    },
    {
      "t": 81.44,
      "word": "is",
      "f0_hz": 110.0,
      "pitch_bend": 0,
      "ternary": 0,
      "t_pitch": 0,
      "t_vol": 0,
      "t_timing": 0,
      "spk": 1,
      "role": 1,
      "note": 60,
      "velocity": 64,
      "energy": 20,
      "duration_s": 0.24
    },
    {
      "t": 81.68,
      "word": "to",
      "f0_hz": 110.0,
      "pitch_bend": 0,
      "ternary": 0,
      "t_pitch": 0,
      "t_vol": 0,
      "t_timing": 0,
      "spk": 1,
      "role": 1,
      "note": 60,
      "velocity": 64,
      "energy": 20,
      "duration_s": 0.12
    },
    {
      "t": 81.8,
      "word": "say,",
      "f0_hz": 110.0,
      "pitch_bend": 0,
      "ternary": 0,
      "t_pitch": 0,
      "t_vol": 0,
      "t_timing": 0,
      "spk": 1,
      "role": 1,
      "note": 60,
      "velocity": 64,
      "energy": 20,
      "duration_s": 0.94
    },
    {
      "t": 82.84,
      "word": "Luke",
      "f0_hz": 110.0,
      "pitch_bend": 0,
      "ternary": 0,
      "t_pitch": 0,
      "t_vol": 0,
      "t_timing": 0,
      "spk": 1,
      "role": 1,
      "note": 60,
      "velocity": 64,
      "energy": 20,
      "duration_s": 0.2
    },
    {
      "t": 83.04,
      "word": "is",
      "f0_hz": 110.0,
      "pitch_bend": 0,
      "ternary": 0,
      "t_pitch": 0,
      "t_vol": 0,
      "t_timing": 0,
      "spk": 1,
      "role": 1,
      "note": 60,
      "velocity": 64,
      "energy": 20,
      "duration_s": 0.6
    },
    {
      "t": 83.64,
      "word": "alone",
      "f0_hz": 110.0,
      "pitch_bend": 0,
      "ternary": 0,
      "t_pitch": 0,
      "t_vol": 0,
      "t_timing": 0,
      "spk": 1,
      "role": 1,
      "note": 60,
      "velocity": 64,
      "energy": 20,
      "duration_s": 0.3
    },
    {
      "t": 83.94,
      "word": "again,",
      "f0_hz": 110.0,
      "pitch_bend": 0,
      "ternary": 0,
      "t_pitch": 0,
      "t_vol": 0,
      "t_timing": 0,
      "spk": 1,
      "role": 1,
      "note": 60,
      "velocity": 64,
      "energy": 20,
      "duration_s": 0.78
    },
    {
      "t": 84.92,
      "word": "but",
      "f0_hz": 110.0,
      "pitch_bend": 0,
      "ternary": 0,
      "t_pitch": 0,
      "t_vol": 0,
      "t_timing": 0,
      "spk": 1,
      "role": 1,
      "note": 60,
      "velocity": 64,
      "energy": 20,
      "duration_s": 0.4
    },
    {
      "t": 85.32,
      "word": "in",
      "f0_hz": 110.0,
      "pitch_bend": 0,
      "ternary": 0,
      "t_pitch": 0,
      "t_vol": 0,
      "t_timing": 0,
      "spk": 1,
      "role": 1,
      "note": 60,
      "velocity": 64,
      "energy": 20,
      "duration_s": 0.16
    },
    {
      "t": 85.48,
      "word": "a",
      "f0_hz": 110.0,
      "pitch_bend": 0,
      "ternary": 0,
      "t_pitch": 0,
      "t_vol": 0,
      "t_timing": 0,
      "spk": 1,
      "role": 1,
      "note": 60,
      "velocity": 64,
      "energy": 20,
      "duration_s": 0.18
    },
    {
      "t": 85.66,
      "word": "very",
      "f0_hz": 110.0,
      "pitch_bend": 0,
      "ternary": 0,
      "t_pitch": 0,
      "t_vol": 0,
      "t_timing": 0,
      "spk": 1,
      "role": 1,
      "note": 60,
      "velocity": 64,
      "energy": 20,
      "duration_s": 0.4
    },
    {
      "t": 86.06,
      "word": "different",
      "f0_hz": 110.0,
      "pitch_bend": 0,
      "ternary": 0,
      "t_pitch": 0,
      "t_vol": 0,
      "t_timing": 0,
      "spk": 1,
      "role": 1,
      "note": 60,
      "velocity": 64,
      "energy": 20,
      "duration_s": 0.36
    },
    {
      "t": 86.42,
      "word": "way.",
      "f0_hz": 130.0,
      "pitch_bend": 0,
      "ternary": 0,
      "t_pitch": 0,
      "t_vol": 0,
      "t_timing": 0,
      "spk": 1,
      "role": 1,
      "note": 60,
      "velocity": 64,
      "energy": 20,
      "duration_s": 0.46
    },
    {
      "t": 86.88,
      "word": "Happily",
      "f0_hz": 130.0,
      "pitch_bend": 0,
      "ternary": 0,
      "t_pitch": 0,
      "t_vol": 0,
      "t_timing": 0,
      "spk": 1,
      "role": 1,
      "note": 60,
      "velocity": 64,
      "energy": 20,
      "duration_s": 0.96
    },
    {
      "t": 87.84,
      "word": "and",
      "f0_hz": 110.0,
      "pitch_bend": 0,
      "ternary": 0,
      "t_pitch": 0,
      "t_vol": 0,
      "t_timing": 0,
      "spk": 1,
      "role": 1,
      "note": 60,
      "velocity": 64,
      "energy": 20,
      "duration_s": 0.58
    },
    {
      "t": 88.42,
      "word": "on",
      "f0_hz": 110.0,
      "pitch_bend": 0,
      "ternary": 0,
      "t_pitch": 0,
      "t_vol": 0,
      "t_timing": 0,
      "spk": 1,
      "role": 1,
      "note": 60,
      "velocity": 64,
      "energy": 20,
      "duration_s": 0.22
    },
    {
      "t": 88.64,
      "word": "his",
      "f0_hz": 130.0,
      "pitch_bend": 0,
      "ternary": 0,
      "t_pitch": 0,
      "t_vol": 0,
      "t_timing": 0,
      "spk": 1,
      "role": 1,
      "note": 60,
      "velocity": 64,
      "energy": 20,
      "duration_s": 0.36
    },
    {
      "t": 89.0,
      "word": "own",
      "f0_hz": 110.0,
      "pitch_bend": 0,
      "ternary": 0,
      "t_pitch": 0,
      "t_vol": 0,
      "t_timing": 0,
      "spk": 1,
      "role": 1,
      "note": 60,
      "velocity": 64,
      "energy": 20,
      "duration_s": 0.38
    },
    {
      "t": 89.38,
      "word": "terms.",
      "f0_hz": 110.0,
      "pitch_bend": 0,
      "ternary": 0,
      "t_pitch": 0,
      "t_vol": 0,
      "t_timing": 0,
      "spk": 1,
      "role": 1,
      "note": 60,
      "velocity": 64,
      "energy": 20,
      "duration_s": 0.64
    },
    {
      "t": 90.68,
      "word": "But",
      "f0_hz": 110.0,
      "pitch_bend": 0,
      "ternary": 0,
      "t_pitch": 0,
      "t_vol": 0,
      "t_timing": 0,
      "spk": 1,
      "role": 1,
      "note": 60,
      "velocity": 64,
      "energy": 20,
      "duration_s": 0.26
    },
    {
      "t": 90.94,
      "word": "he",
      "f0_hz": 130.0,
      "pitch_bend": 0,
      "ternary": 0,
      "t_pitch": 0,
      "t_vol": 0,
      "t_timing": 0,
      "spk": 1,
      "role": 1,
      "note": 60,
      "velocity": 64,
      "energy": 20,
      "duration_s": 0.38
    },
    {
      "t": 91.32,
      "word": "almost",
      "f0_hz": 110.0,
      "pitch_bend": 0,
      "ternary": 0,
      "t_pitch": 0,
      "t_vol": 0,
      "t_timing": 0,
      "spk": 1,
      "role": 1,
      "note": 60,
      "velocity": 64,
      "energy": 20,
      "duration_s": 0.34
    },
    {
      "t": 91.66,
      "word": "didn't",
      "f0_hz": 110.0,
      "pitch_bend": 0,
      "ternary": -1,
      "t_pitch": -1,
      "t_vol": -1,
      "t_timing": -1,
      "spk": 1,
      "role": 0,
      "note": 57,
      "velocity": 44,
      "energy": 80,
      "duration_s": 0.22
    },
    {
      "t": 91.88,
      "word": "get",
      "f0_hz": 110.0,
      "pitch_bend": 0,
      "ternary": 0,
      "t_pitch": 0,
      "t_vol": 0,
      "t_timing": 0,
      "spk": 1,
      "role": 1,
      "note": 60,
      "velocity": 64,
      "energy": 20,
      "duration_s": 0.28
    },
    {
      "t": 92.16,
      "word": "there",
      "f0_hz": 110.0,
      "pitch_bend": 0,
      "ternary": 0,
      "t_pitch": 0,
      "t_vol": 0,
      "t_timing": 0,
      "spk": 1,
      "role": 1,
      "note": 60,
      "velocity": 64,
      "energy": 20,
      "duration_s": 0.62
    },
    {
      "t": 92.78,
      "word": "because",
      "f0_hz": 110.0,
      "pitch_bend": 0,
      "ternary": 0,
      "t_pitch": 0,
      "t_vol": 0,
      "t_timing": 0,
      "spk": 1,
      "role": 1,
      "note": 60,
      "velocity": 64,
      "energy": 20,
      "duration_s": 0.32
    },
    {
      "t": 93.1,
      "word": "of",
      "f0_hz": 110.0,
      "pitch_bend": 0,
      "ternary": 0,
      "t_pitch": 0,
      "t_vol": 0,
      "t_timing": 0,
      "spk": 1,
      "role": 1,
      "note": 60,
      "velocity": 64,
      "energy": 20,
      "duration_s": 0.24
    },
    {
      "t": 93.34,
      "word": "a",
      "f0_hz": 110.0,
      "pitch_bend": 0,
      "ternary": 0,
      "t_pitch": 0,
      "t_vol": 0,
      "t_timing": 0,
      "spk": 1,
      "role": 1,
      "note": 60,
      "velocity": 64,
      "energy": 20,
      "duration_s": 0.12
    },
    {
      "t": 93.46,
      "word": "crippling",
      "f0_hz": 110.0,
      "pitch_bend": 0,
      "ternary": 0,
      "t_pitch": 0,
      "t_vol": 0,
      "t_timing": 0,
      "spk": 1,
      "role": 1,
      "note": 60,
      "velocity": 64,
      "energy": 20,
      "duration_s": 0.36
    },
    {
      "t": 93.82,
      "word": "addiction",
      "f0_hz": 110.0,
      "pitch_bend": 0,
      "ternary": 0,
      "t_pitch": 0,
      "t_vol": 0,
      "t_timing": 0,
      "spk": 1,
      "role": 1,
      "note": 60,
      "velocity": 64,
      "energy": 20,
      "duration_s": 0.92
    },
    {
      "t": 94.74,
      "word": "during",
      "f0_hz": 110.0,
      "pitch_bend": 0,
      "ternary": 0,
      "t_pitch": 0,
      "t_vol": 0,
      "t_timing": 0,
      "spk": 1,
      "role": 1,
      "note": 60,
      "velocity": 64,
      "energy": 20,
      "duration_s": 0.54
    },
    {
      "t": 95.28,
      "word": "his",
      "f0_hz": 130.0,
      "pitch_bend": 0,
      "ternary": 0,
      "t_pitch": 0,
      "t_vol": 0,
      "t_timing": 0,
      "spk": 1,
      "role": 1,
      "note": 60,
      "velocity": 64,
      "energy": 20,
      "duration_s": 0.36
    },
    {
      "t": 95.64,
      "word": "40",
      "f0_hz": 110.0,
      "pitch_bend": 0,
      "ternary": 0,
      "t_pitch": 0,
      "t_vol": 0,
      "t_timing": 0,
      "spk": 1,
      "role": 1,
      "note": 60,
      "velocity": 64,
      "energy": 20,
      "duration_s": 0.2
    },
    {
      "t": 95.84,
      "word": "days.",
      "f0_hz": 110.0,
      "pitch_bend": 0,
      "ternary": 0,
      "t_pitch": 0,
      "t_vol": 0,
      "t_timing": 0,
      "spk": 1,
      "role": 1,
      "note": 60,
      "velocity": 64,
      "energy": 20,
      "duration_s": 0.36
    },
    {
      "t": 97.08,
      "word": "Hey,",
      "f0_hz": 130.0,
      "pitch_bend": 0,
      "ternary": 0,
      "t_pitch": 0,
      "t_vol": 0,
      "t_timing": 0,
      "spk": 1,
      "role": 1,
      "note": 60,
      "velocity": 64,
      "energy": 20,
      "duration_s": 0.06
    },
    {
      "t": 97.2,
      "word": "Luke.",
      "f0_hz": 110.0,
      "pitch_bend": 0,
      "ternary": 0,
      "t_pitch": 0,
      "t_vol": 0,
      "t_timing": 0,
      "spk": 1,
      "role": 1,
      "note": 60,
      "velocity": 64,
      "energy": 20,
      "duration_s": 0.6
    },
    {
      "t": 98.46,
      "word": "Oh,",
      "f0_hz": 110.0,
      "pitch_bend": 0,
      "ternary": 0,
      "t_pitch": 0,
      "t_vol": 0,
      "t_timing": 0,
      "spk": 0,
      "role": 1,
      "note": 60,
      "velocity": 64,
      "energy": 20,
      "duration_s": 0.04
    },
    {
      "t": 98.5,
      "word": "yeah.",
      "f0_hz": 130.0,
      "pitch_bend": 0,
      "ternary": 0,
      "t_pitch": 0,
      "t_vol": 0,
      "t_timing": 0,
      "spk": 1,
      "role": 1,
      "note": 60,
      "velocity": 64,
      "energy": 20,
      "duration_s": 0.44
    },
    {
      "t": 98.94,
      "word": "Oh,",
      "f0_hz": 110.0,
      "pitch_bend": 0,
      "ternary": 0,
      "t_pitch": 0,
      "t_vol": 0,
      "t_timing": 0,
      "spk": 0,
      "role": 1,
      "note": 60,
      "velocity": 64,
      "energy": 20,
      "duration_s": 0.68
    },
    {
      "t": 99.62,
      "word": "yeah.",
      "f0_hz": 130.0,
      "pitch_bend": 0,
      "ternary": 0,
      "t_pitch": 0,
      "t_vol": 0,
      "t_timing": 0,
      "spk": 0,
      "role": 1,
      "note": 60,
      "velocity": 64,
      "energy": 20,
      "duration_s": 0.0
    },
    {
      "t": 99.86,
      "word": "I'm",
      "f0_hz": 110.0,
      "pitch_bend": 0,
      "ternary": 0,
      "t_pitch": 0,
      "t_vol": 0,
      "t_timing": 0,
      "spk": 1,
      "role": 1,
      "note": 60,
      "velocity": 64,
      "energy": 20,
      "duration_s": 0.72
    },
    {
      "t": 100.58,
      "word": "good.",
      "f0_hz": 110.0,
      "pitch_bend": 0,
      "ternary": 0,
      "t_pitch": 0,
      "t_vol": 0,
      "t_timing": 0,
      "spk": 1,
      "role": 1,
      "note": 60,
      "velocity": 64,
      "energy": 20,
      "duration_s": 0.28
    },
    {
      "t": 101.12,
      "word": "I'm",
      "f0_hz": 110.0,
      "pitch_bend": 0,
      "ternary": 0,
      "t_pitch": 0,
      "t_vol": 0,
      "t_timing": 0,
      "spk": 1,
      "role": 1,
      "note": 60,
      "velocity": 64,
      "energy": 20,
      "duration_s": 0.0
    },
    {
      "t": 101.12,
      "word": "good.",
      "f0_hz": 110.0,
      "pitch_bend": 0,
      "ternary": 0,
      "t_pitch": 0,
      "t_vol": 0,
      "t_timing": 0,
      "spk": 1,
      "role": 1,
      "note": 60,
      "velocity": 64,
      "energy": 20,
      "duration_s": 0.52
    },
    {
      "t": 101.68,
      "word": "Hey,",
      "f0_hz": 130.0,
      "pitch_bend": 0,
      "ternary": 0,
      "t_pitch": 0,
      "t_vol": 0,
      "t_timing": 0,
      "spk": 1,
      "role": 1,
      "note": 60,
      "velocity": 64,
      "energy": 20,
      "duration_s": 0.68
    },
    {
      "t": 102.4,
      "word": "these",
      "f0_hz": 110.0,
      "pitch_bend": 0,
      "ternary": 0,
      "t_pitch": 0,
      "t_vol": 0,
      "t_timing": 0,
      "spk": 1,
      "role": 1,
      "note": 60,
      "velocity": 64,
      "energy": 20,
      "duration_s": 0.18
    },
    {
      "t": 102.58,
      "word": "days",
      "f0_hz": 110.0,
      "pitch_bend": 0,
      "ternary": 0,
      "t_pitch": 0,
      "t_vol": 0,
      "t_timing": 0,
      "spk": 1,
      "role": 1,
      "note": 60,
      "velocity": 64,
      "energy": 20,
      "duration_s": 0.42
    },
    {
      "t": 103.0,
      "word": "in",
      "f0_hz": 110.0,
      "pitch_bend": 0,
      "ternary": 0,
      "t_pitch": 0,
      "t_vol": 0,
      "t_timing": 0,
      "spk": 1,
      "role": 1,
      "note": 60,
      "velocity": 64,
      "energy": 20,
      "duration_s": 0.2
    },
    {
      "t": 103.2,
      "word": "between",
      "f0_hz": 110.0,
      "pitch_bend": 0,
      "ternary": 0,
      "t_pitch": 0,
      "t_vol": 0,
      "t_timing": 0,
      "spk": 1,
      "role": 1,
      "note": 60,
      "velocity": 64,
      "energy": 20,
      "duration_s": 0.56
    },
    {
      "t": 103.76,
      "word": "zooming",
      "f0_hz": 110.0,
      "pitch_bend": 0,
      "ternary": 0,
      "t_pitch": 0,
      "t_vol": 0,
      "t_timing": 0,
      "spk": 1,
      "role": 1,
      "note": 60,
      "velocity": 64,
      "energy": 20,
      "duration_s": 0.28
    },
    {
      "t": 104.04,
      "word": "around",
      "f0_hz": 110.0,
      "pitch_bend": 0,
      "ternary": 0,
      "t_pitch": 0,
      "t_vol": 0,
      "t_timing": 0,
      "spk": 1,
      "role": 1,
      "note": 60,
      "velocity": 64,
      "energy": 20,
      "duration_s": 0.7
    },
    {
      "t": 104.74,
      "word": "LA",
      "f0_hz": 110.0,
      "pitch_bend": 0,
      "ternary": 0,
      "t_pitch": 0,
      "t_vol": 0,
      "t_timing": 0,
      "spk": 1,
      "role": 1,
      "note": 60,
      "velocity": 64,
      "energy": 20,
      "duration_s": 0.54
    },
    {
      "t": 105.28,
      "word": "capital",
      "f0_hz": 110.0,
      "pitch_bend": 0,
      "ternary": 0,
      "t_pitch": 0,
      "t_vol": 0,
      "t_timing": 0,
      "spk": 1,
      "role": 1,
      "note": 60,
      "velocity": 64,
      "energy": 20,
      "duration_s": 0.3
    },
    {
      "t": 105.58,
      "word": "cities",
      "f0_hz": 110.0,
      "pitch_bend": 0,
      "ternary": 0,
      "t_pitch": 0,
      "t_vol": 0,
      "t_timing": 0,
      "spk": 1,
      "role": 1,
      "note": 60,
      "velocity": 64,
      "energy": 20,
      "duration_s": 0.4
    },
    {
      "t": 105.98,
      "word": "in",
      "f0_hz": 110.0,
      "pitch_bend": 0,
      "ternary": 0,
      "t_pitch": 0,
      "t_vol": 0,
      "t_timing": 0,
      "spk": 1,
      "role": 1,
      "note": 60,
      "velocity": 64,
      "energy": 20,
      "duration_s": 0.24
    },
    {
      "t": 106.22,
      "word": "Australia,",
      "f0_hz": 110.0,
      "pitch_bend": 0,
      "ternary": 0,
      "t_pitch": 0,
      "t_vol": 0,
      "t_timing": 0,
      "spk": 1,
      "role": 1,
      "note": 60,
      "velocity": 64,
      "energy": 20,
      "duration_s": 0.86
    },
    {
      "t": 107.14,
      "word": "you",
      "f0_hz": 130.0,
      "pitch_bend": 0,
      "ternary": 0,
      "t_pitch": 0,
      "t_vol": 0,
      "t_timing": 0,
      "spk": 1,
      "role": 1,
      "note": 60,
      "velocity": 64,
      "energy": 20,
      "duration_s": 0.38
    },
    {
      "t": 107.52,
      "word": "are",
      "f0_hz": 110.0,
      "pitch_bend": 0,
      "ternary": 0,
      "t_pitch": 0,
      "t_vol": 0,
      "t_timing": 0,
      "spk": 0,
      "role": 1,
      "note": 60,
      "velocity": 64,
      "energy": 20,
      "duration_s": 0.18
    },
    {
      "t": 107.7,
      "word": "logging",
      "f0_hz": 110.0,
      "pitch_bend": 0,
      "ternary": 0,
      "t_pitch": 0,
      "t_vol": 0,
      "t_timing": 0,
      "spk": 0,
      "role": 1,
      "note": 60,
      "velocity": 64,
      "energy": 20,
      "duration_s": 0.28
    },
    {
      "t": 107.98,
      "word": "trees",
      "f0_hz": 110.0,
      "pitch_bend": 0,
      "ternary": 0,
      "t_pitch": 0,
      "t_vol": 0,
      "t_timing": 0,
      "spk": 1,
      "role": 1,
      "note": 60,
      "velocity": 64,
      "energy": 20,
      "duration_s": 0.52
    },
    {
      "t": 108.5,
      "word": "in",
      "f0_hz": 110.0,
      "pitch_bend": 0,
      "ternary": 0,
      "t_pitch": 0,
      "t_vol": 0,
      "t_timing": 0,
      "spk": 1,
      "role": 1,
      "note": 60,
      "velocity": 64,
      "energy": 20,
      "duration_s": 0.24
    },
    {
      "t": 108.74,
      "word": "Outback,",
      "f0_hz": 110.0,
      "pitch_bend": 0,
      "ternary": 0,
      "t_pitch": 0,
      "t_vol": 0,
      "t_timing": 0,
      "spk": 1,
      "role": 1,
      "note": 60,
      "velocity": 64,
      "energy": 20,
      "duration_s": 0.42
    },
    {
      "t": 109.2,
      "word": "Western",
      "f0_hz": 130.0,
      "pitch_bend": 0,
      "ternary": 0,
      "t_pitch": 0,
      "t_vol": 0,
      "t_timing": 0,
      "spk": 1,
      "role": 1,
      "note": 60,
      "velocity": 64,
      "energy": 20,
      "duration_s": 0.3
    },
    {
      "t": 109.5,
      "word": "Queensland.",
      "f0_hz": 110.0,
      "pitch_bend": 0,
      "ternary": 0,
      "t_pitch": 0,
      "t_vol": 0,
      "t_timing": 0,
      "spk": 1,
      "role": 1,
      "note": 60,
      "velocity": 64,
      "energy": 20,
      "duration_s": 0.52
    },
    {
      "t": 110.4,
      "word": "What",
      "f0_hz": 130.0,
      "pitch_bend": 0,
      "ternary": 0,
      "t_pitch": 0,
      "t_vol": 0,
      "t_timing": 0,
      "spk": 1,
      "role": 1,
      "note": 60,
      "velocity": 64,
      "energy": 20,
      "duration_s": 0.72
    },
    {
      "t": 111.12,
      "word": "does",
      "f0_hz": 110.0,
      "pitch_bend": 0,
      "ternary": 0,
      "t_pitch": 0,
      "t_vol": 0,
      "t_timing": 0,
      "spk": 1,
      "role": 1,
      "note": 60,
      "velocity": 64,
      "energy": 20,
      "duration_s": 0.12
    },
    {
      "t": 111.24,
      "word": "it",
      "f0_hz": 110.0,
      "pitch_bend": 0,
      "ternary": 0,
      "t_pitch": 0,
      "t_vol": 0,
      "t_timing": 0,
      "spk": 1,
      "role": 1,
      "note": 60,
      "velocity": 64,
      "energy": 20,
      "duration_s": 0.12
    },
    {
      "t": 111.36,
      "word": "look",
      "f0_hz": 110.0,
      "pitch_bend": 0,
      "ternary": 0,
      "t_pitch": 0,
      "t_vol": 0,
      "t_timing": 0,
      "spk": 1,
      "role": 1,
      "note": 60,
      "velocity": 64,
      "energy": 20,
      "duration_s": 0.22
    },
    {
      "t": 111.58,
      "word": "like",
      "f0_hz": 110.0,
      "pitch_bend": 0,
      "ternary": 0,
      "t_pitch": 0,
      "t_vol": 0,
      "t_timing": 0,
      "spk": 1,
      "role": 1,
      "note": 60,
      "velocity": 64,
      "energy": 20,
      "duration_s": 0.44
    },
    {
      "t": 112.02,
      "word": "where",
      "f0_hz": 130.0,
      "pitch_bend": 0,
      "ternary": 0,
      "t_pitch": 0,
      "t_vol": 0,
      "t_timing": 0,
      "spk": 1,
      "role": 1,
      "note": 60,
      "velocity": 64,
      "energy": 20,
      "duration_s": 0.56
    },
    {
      "t": 112.58,
      "word": "you",
      "f0_hz": 130.0,
      "pitch_bend": 0,
      "ternary": 0,
      "t_pitch": 0,
      "t_vol": 0,
      "t_timing": 0,
      "spk": 1,
      "role": 1,
      "note": 60,
      "velocity": 64,
      "energy": 20,
      "duration_s": 0.3
    },
    {
      "t": 112.88,
      "word": "park",
      "f0_hz": 110.0,
      "pitch_bend": 0,
      "ternary": 0,
      "t_pitch": 0,
      "t_vol": 0,
      "t_timing": 0,
      "spk": 1,
      "role": 1,
      "note": 60,
      "velocity": 64,
      "energy": 20,
      "duration_s": 0.24
    },
    {
      "t": 113.12,
      "word": "your",
      "f0_hz": 130.0,
      "pitch_bend": 0,
      "ternary": 0,
      "t_pitch": 0,
      "t_vol": 0,
      "t_timing": 0,
      "spk": 1,
      "role": 1,
      "note": 60,
      "velocity": 64,
      "energy": 20,
      "duration_s": 0.36
    },
    {
      "t": 113.48,
      "word": "caravan",
      "f0_hz": 110.0,
      "pitch_bend": 0,
      "ternary": 0,
      "t_pitch": 0,
      "t_vol": 0,
      "t_timing": 0,
      "spk": 1,
      "role": 1,
      "note": 60,
      "velocity": 64,
      "energy": 20,
      "duration_s": 0.14
    },
    {
      "t": 113.62,
      "word": "out",
      "f0_hz": 110.0,
      "pitch_bend": 0,
      "ternary": 0,
      "t_pitch": 0,
      "t_vol": 0,
      "t_timing": 0,
      "spk": 1,
      "role": 1,
      "note": 60,
      "velocity": 64,
      "energy": 20,
      "duration_s": 0.3
    },
    {
      "t": 113.92,
      "word": "there?",
      "f0_hz": 110.0,
      "pitch_bend": 0,
      "ternary": 1,
      "t_pitch": 1,
      "t_vol": 1,
      "t_timing": 1,
      "spk": 1,
      "role": 2,
      "note": 63,
      "velocity": 84,
      "energy": 80,
      "duration_s": 1.28
    },
    {
      "t": 115.86,
      "word": "I",
      "f0_hz": 110.0,
      "pitch_bend": 0,
      "ternary": 0,
      "t_pitch": 0,
      "t_vol": 0,
      "t_timing": 0,
      "spk": 0,
      "role": 1,
      "note": 60,
      "velocity": 64,
      "energy": 20,
      "duration_s": 0.44
    },
    {
      "t": 116.3,
      "word": "was",
      "f0_hz": 130.0,
      "pitch_bend": 0,
      "ternary": 0,
      "t_pitch": 0,
      "t_vol": 0,
      "t_timing": 0,
      "spk": 1,
      "role": 1,
      "note": 60,
      "velocity": 64,
      "energy": 20,
      "duration_s": 0.28
    },
    {
      "t": 116.58,
      "word": "actually",
      "f0_hz": 110.0,
      "pitch_bend": 0,
      "ternary": 0,
      "t_pitch": 0,
      "t_vol": 0,
      "t_timing": 0,
      "spk": 1,
      "role": 1,
      "note": 60,
      "velocity": 64,
      "energy": 20,
      "duration_s": 0.3
    },
    {
      "t": 116.88,
      "word": "just",
      "f0_hz": 110.0,
      "pitch_bend": 0,
      "ternary": 0,
      "t_pitch": 0,
      "t_vol": 0,
      "t_timing": 0,
      "spk": 1,
      "role": 1,
      "note": 60,
      "velocity": 64,
      "energy": 20,
      "duration_s": 0.22
    },
    {
      "t": 117.1,
      "word": "having",
      "f0_hz": 130.0,
      "pitch_bend": 0,
      "ternary": 0,
      "t_pitch": 0,
      "t_vol": 0,
      "t_timing": 0,
      "spk": 1,
      "role": 1,
      "note": 60,
      "velocity": 64,
      "energy": 20,
      "duration_s": 0.12
    },
    {
      "t": 117.22,
      "word": "this",
      "f0_hz": 110.0,
      "pitch_bend": 0,
      "ternary": 0,
      "t_pitch": 0,
      "t_vol": 0,
      "t_timing": 0,
      "spk": 1,
      "role": 1,
      "note": 60,
      "velocity": 64,
      "energy": 20,
      "duration_s": 0.22
    },
    {
      "t": 117.44,
      "word": "conversation",
      "f0_hz": 110.0,
      "pitch_bend": 0,
      "ternary": 0,
      "t_pitch": 0,
      "t_vol": 0,
      "t_timing": 0,
      "spk": 1,
      "role": 1,
      "note": 60,
      "velocity": 64,
      "energy": 20,
      "duration_s": 0.36
    },
    {
      "t": 117.8,
      "word": "with",
      "f0_hz": 130.0,
      "pitch_bend": 0,
      "ternary": 0,
      "t_pitch": 0,
      "t_vol": 0,
      "t_timing": 0,
      "spk": 0,
      "role": 1,
      "note": 60,
      "velocity": 64,
      "energy": 20,
      "duration_s": 0.22
    },
    {
      "t": 118.02,
      "word": "someone",
      "f0_hz": 110.0,
      "pitch_bend": 0,
      "ternary": 0,
      "t_pitch": 0,
      "t_vol": 0,
      "t_timing": 0,
      "spk": 1,
      "role": 1,
      "note": 60,
      "velocity": 64,
      "energy": 20,
      "duration_s": 0.12
    },
    {
      "t": 118.14,
      "word": "this",
      "f0_hz": 110.0,
      "pitch_bend": 0,
      "ternary": 0,
      "t_pitch": 0,
      "t_vol": 0,
      "t_timing": 0,
      "spk": 1,
      "role": 1,
      "note": 60,
      "velocity": 64,
      "energy": 20,
      "duration_s": 0.24
    },
    {
      "t": 118.38,
      "word": "morning",
      "f0_hz": 110.0,
      "pitch_bend": 0,
      "ternary": 0,
      "t_pitch": 0,
      "t_vol": 0,
      "t_timing": 0,
      "spk": 1,
      "role": 1,
      "note": 60,
      "velocity": 64,
      "energy": 20,
      "duration_s": 0.22
    },
    {
      "t": 118.6,
      "word": "because",
      "f0_hz": 110.0,
      "pitch_bend": 0,
      "ternary": 0,
      "t_pitch": 0,
      "t_vol": 0,
      "t_timing": 0,
      "spk": 1,
      "role": 1,
      "note": 60,
      "velocity": 64,
      "energy": 20,
      "duration_s": 0.96
    },
    {
      "t": 119.56,
      "word": "I",
      "f0_hz": 110.0,
      "pitch_bend": 0,
      "ternary": 0,
      "t_pitch": 0,
      "t_vol": 0,
      "t_timing": 0,
      "spk": 1,
      "role": 1,
      "note": 60,
      "velocity": 64,
      "energy": 20,
      "duration_s": 0.08
    },
    {
      "t": 119.64,
      "word": "think",
      "f0_hz": 110.0,
      "pitch_bend": 0,
      "ternary": 0,
      "t_pitch": 0,
      "t_vol": 0,
      "t_timing": 0,
      "spk": 1,
      "role": 1,
      "note": 60,
      "velocity": 64,
      "energy": 20,
      "duration_s": 0.24
    },
    {
      "t": 119.88,
      "word": "sometimes",
      "f0_hz": 110.0,
      "pitch_bend": 0,
      "ternary": 0,
      "t_pitch": 0,
      "t_vol": 0,
      "t_timing": 0,
      "spk": 1,
      "role": 1,
      "note": 60,
      "velocity": 64,
      "energy": 20,
      "duration_s": 0.36
    },
    {
      "t": 120.24,
      "word": "people",
      "f0_hz": 110.0,
      "pitch_bend": 0,
      "ternary": 0,
      "t_pitch": 0,
      "t_vol": 0,
      "t_timing": 0,
      "spk": 1,
      "role": 1,
      "note": 60,
      "velocity": 64,
      "energy": 20,
      "duration_s": 0.46
    },
    {
      "t": 120.7,
      "word": "think",
      "f0_hz": 110.0,
      "pitch_bend": 0,
      "ternary": 0,
      "t_pitch": 0,
      "t_vol": 0,
      "t_timing": 0,
      "spk": 1,
      "role": 1,
      "note": 60,
      "velocity": 64,
      "energy": 20,
      "duration_s": 0.86
    },
    {
      "t": 121.56,
      "word": "it's",
      "f0_hz": 110.0,
      "pitch_bend": 0,
      "ternary": 0,
      "t_pitch": 0,
      "t_vol": 0,
      "t_timing": 0,
      "spk": 1,
      "role": 1,
      "note": 60,
      "velocity": 64,
      "energy": 20,
      "duration_s": 0.32
    },
    {
      "t": 121.88,
      "word": "just",
      "f0_hz": 110.0,
      "pitch_bend": 0,
      "ternary": 0,
      "t_pitch": 0,
      "t_vol": 0,
      "t_timing": 0,
      "spk": 1,
      "role": 1,
      "note": 60,
      "velocity": 64,
      "energy": 20,
      "duration_s": 0.16
    },
    {
      "t": 122.04,
      "word": "sort",
      "f0_hz": 110.0,
      "pitch_bend": 0,
      "ternary": 0,
      "t_pitch": 0,
      "t_vol": 0,
      "t_timing": 0,
      "spk": 1,
      "role": 1,
      "note": 60,
      "velocity": 64,
      "energy": 20,
      "duration_s": 0.28
    },
    {
      "t": 122.32,
      "word": "of",
      "f0_hz": 110.0,
      "pitch_bend": 0,
      "ternary": 0,
      "t_pitch": 0,
      "t_vol": 0,
      "t_timing": 0,
      "spk": 1,
      "role": 1,
      "note": 60,
      "velocity": 64,
      "energy": 20,
      "duration_s": 0.42
    },
    {
      "t": 122.74,
      "word": "a,",
      "f0_hz": 110.0,
      "pitch_bend": 0,
      "ternary": 0,
      "t_pitch": 0,
      "t_vol": 0,
      "t_timing": 0,
      "spk": 1,
      "role": 1,
      "note": 60,
      "velocity": 64,
      "energy": 20,
      "duration_s": 0.1
    },
    {
      "t": 122.84,
      "word": "you",
      "f0_hz": 130.0,
      "pitch_bend": 0,
      "ternary": 0,
      "t_pitch": 0,
      "t_vol": 0,
      "t_timing": 0,
      "spk": 1,
      "role": 1,
      "note": 60,
      "velocity": 64,
      "energy": 20,
      "duration_s": 0.04
    },
    {
      "t": 122.88,
      "word": "know,",
      "f0_hz": 110.0,
      "pitch_bend": 0,
      "ternary": 0,
      "t_pitch": 0,
      "t_vol": 0,
      "t_timing": 0,
      "spk": 1,
      "role": 1,
      "note": 60,
      "velocity": 64,
      "energy": 20,
      "duration_s": 0.22
    },
    {
      "t": 123.26,
      "word": "like",
      "f0_hz": 110.0,
      "pitch_bend": 0,
      "ternary": 0,
      "t_pitch": 0,
      "t_vol": 0,
      "t_timing": 0,
      "spk": 1,
      "role": 1,
      "note": 60,
      "velocity": 64,
      "energy": 20,
      "duration_s": 0.0
    },
    {
      "t": 123.26,
      "word": "a",
      "f0_hz": 110.0,
      "pitch_bend": 0,
      "ternary": 0,
      "t_pitch": 0,
      "t_vol": 0,
      "t_timing": 0,
      "spk": 1,
      "role": 1,
      "note": 60,
      "velocity": 64,
      "energy": 20,
      "duration_s": 0.28
    },
    {
      "t": 123.54,
      "word": "trip",
      "f0_hz": 110.0,
      "pitch_bend": 0,
      "ternary": 0,
      "t_pitch": 0,
      "t_vol": 0,
      "t_timing": 0,
      "spk": 1,
      "role": 1,
      "note": 60,
      "velocity": 64,
      "energy": 20,
      "duration_s": 0.16
    },
    {
      "t": 123.7,
      "word": "to",
      "f0_hz": 110.0,
      "pitch_bend": 0,
      "ternary": 0,
      "t_pitch": 0,
      "t_vol": 0,
      "t_timing": 0,
      "spk": 1,
      "role": 1,
      "note": 60,
      "velocity": 64,
      "energy": 20,
      "duration_s": 0.14
    },
    {
      "t": 123.84,
      "word": "the",
      "f0_hz": 110.0,
      "pitch_bend": 0,
      "ternary": 0,
      "t_pitch": 0,
      "t_vol": 0,
      "t_timing": 0,
      "spk": 1,
      "role": 1,
      "note": 60,
      "velocity": 64,
      "energy": 20,
      "duration_s": 0.24
    },
    {
      "t": 124.08,
      "word": "farm,",
      "f0_hz": 110.0,
      "pitch_bend": 0,
      "ternary": 0,
      "t_pitch": 0,
      "t_vol": 0,
      "t_timing": 0,
      "spk": 1,
      "role": 1,
      "note": 60,
      "velocity": 64,
      "energy": 20,
      "duration_s": 0.4
    },
    {
      "t": 124.56,
      "word": "like",
      "f0_hz": 110.0,
      "pitch_bend": 0,
      "ternary": 0,
      "t_pitch": 0,
      "t_vol": 0,
      "t_timing": 0,
      "spk": 0,
      "role": 1,
      "note": 60,
      "velocity": 64,
      "energy": 20,
      "duration_s": 0.18
    },
    {
      "t": 124.74,
      "word": "it's",
      "f0_hz": 110.0,
      "pitch_bend": 0,
      "ternary": 0,
      "t_pitch": 0,
      "t_vol": 0,
      "t_timing": 0,
      "spk": 1,
      "role": 1,
      "note": 60,
      "velocity": 64,
      "energy": 20,
      "duration_s": 0.14
    },
    {
      "t": 124.88,
      "word": "just",
      "f0_hz": 110.0,
      "pitch_bend": 0,
      "ternary": 0,
      "t_pitch": 0,
      "t_vol": 0,
      "t_timing": 0,
      "spk": 1,
      "role": 1,
      "note": 60,
      "velocity": 64,
      "energy": 20,
      "duration_s": 0.14
    },
    {
      "t": 125.02,
      "word": "like",
      "f0_hz": 110.0,
      "pitch_bend": 0,
      "ternary": 0,
      "t_pitch": 0,
      "t_vol": 0,
      "t_timing": 0,
      "spk": 1,
      "role": 1,
      "note": 60,
      "velocity": 64,
      "energy": 20,
      "duration_s": 0.06
    },
    {
      "t": 125.08,
      "word": "you",
      "f0_hz": 130.0,
      "pitch_bend": 0,
      "ternary": 0,
      "t_pitch": 0,
      "t_vol": 0,
      "t_timing": 0,
      "spk": 1,
      "role": 1,
      "note": 60,
      "velocity": 64,
      "energy": 20,
      "duration_s": 0.32
    },
    {
      "t": 125.4,
      "word": "can",
      "f0_hz": 110.0,
      "pitch_bend": 0,
      "ternary": 0,
      "t_pitch": 0,
      "t_vol": 0,
      "t_timing": 0,
      "spk": 1,
      "role": 1,
      "note": 60,
      "velocity": 64,
      "energy": 20,
      "duration_s": 0.2
    },
    {
      "t": 125.6,
      "word": "just",
      "f0_hz": 110.0,
      "pitch_bend": 0,
      "ternary": 0,
      "t_pitch": 0,
      "t_vol": 0,
      "t_timing": 0,
      "spk": 1,
      "role": 1,
      "note": 60,
      "velocity": 64,
      "energy": 20,
      "duration_s": 0.22
    },
    {
      "t": 125.82,
      "word": "jump",
      "f0_hz": 110.0,
      "pitch_bend": 0,
      "ternary": 0,
      "t_pitch": 0,
      "t_vol": 0,
      "t_timing": 0,
      "spk": 1,
      "role": 1,
      "note": 60,
      "velocity": 64,
      "energy": 20,
      "duration_s": 0.16
    },
    {
      "t": 125.98,
      "word": "in",
      "f0_hz": 110.0,
      "pitch_bend": 0,
      "ternary": 0,
      "t_pitch": 0,
      "t_vol": 0,
      "t_timing": 0,
      "spk": 1,
      "role": 1,
      "note": 60,
      "velocity": 64,
      "energy": 20,
      "duration_s": 0.16
    },
    {
      "t": 126.14,
      "word": "your",
      "f0_hz": 130.0,
      "pitch_bend": 0,
      "ternary": 0,
      "t_pitch": 0,
      "t_vol": 0,
      "t_timing": 0,
      "spk": 1,
      "role": 1,
      "note": 60,
      "velocity": 64,
      "energy": 20,
      "duration_s": 0.2
    },
    {
      "t": 126.34,
      "word": "car",
      "f0_hz": 110.0,
      "pitch_bend": 0,
      "ternary": 0,
      "t_pitch": 0,
      "t_vol": 0,
      "t_timing": 0,
      "spk": 1,
      "role": 1,
      "note": 60,
      "velocity": 64,
      "energy": 20,
      "duration_s": 0.7
    },
    {
      "t": 127.04,
      "word": "and",
      "f0_hz": 110.0,
      "pitch_bend": 0,
      "ternary": 0,
      "t_pitch": 0,
      "t_vol": 0,
      "t_timing": 0,
      "spk": 1,
      "role": 1,
      "note": 60,
      "velocity": 64,
      "energy": 20,
      "duration_s": 0.58
    },
    {
      "t": 127.62,
      "word": "spend",
      "f0_hz": 110.0,
      "pitch_bend": 0,
      "ternary": 0,
      "t_pitch": 0,
      "t_vol": 0,
      "t_timing": 0,
      "spk": 0,
      "role": 1,
      "note": 60,
      "velocity": 64,
      "energy": 20,
      "duration_s": 0.2
    },
    {
      "t": 127.82,
      "word": "an",
      "f0_hz": 110.0,
      "pitch_bend": 0,
      "ternary": 0,
      "t_pitch": 0,
      "t_vol": 0,
      "t_timing": 0,
      "spk": 0,
      "role": 1,
      "note": 60,
      "velocity": 64,
      "energy": 20,
      "duration_s": 0.22
    },
    {
      "t": 128.04,
      "word": "hour",
      "f0_hz": 130.0,
      "pitch_bend": 0,
      "ternary": 0,
      "t_pitch": 0,
      "t_vol": 0,
      "t_timing": 0,
      "spk": 1,
      "role": 1,
      "note": 60,
      "velocity": 64,
      "energy": 20,
      "duration_s": 0.34
    },
    {
      "t": 128.38,
      "word": "on",
      "f0_hz": 110.0,
      "pitch_bend": 0,
      "ternary": 0,
      "t_pitch": 0,
      "t_vol": 0,
      "t_timing": 0,
      "spk": 1,
      "role": 1,
      "note": 60,
      "velocity": 64,
      "energy": 20,
      "duration_s": 0.26
    },
    {
      "t": 128.64,
      "word": "the",
      "f0_hz": 110.0,
      "pitch_bend": 0,
      "ternary": 0,
      "t_pitch": 0,
      "t_vol": 0,
      "t_timing": 0,
      "spk": 1,
      "role": 1,
      "note": 60,
      "velocity": 64,
      "energy": 20,
      "duration_s": 0.16
    },
    {
      "t": 128.8,
      "word": "car",
      "f0_hz": 110.0,
      "pitch_bend": 0,
      "ternary": 0,
      "t_pitch": 0,
      "t_vol": 0,
      "t_timing": 0,
      "spk": 1,
      "role": 1,
      "note": 60,
      "velocity": 64,
      "energy": 20,
      "duration_s": 0.14
    },
    {
      "t": 128.94,
      "word": "and",
      "f0_hz": 110.0,
      "pitch_bend": 0,
      "ternary": 0,
      "t_pitch": 0,
      "t_vol": 0,
      "t_timing": 0,
      "spk": 1,
      "role": 1,
      "note": 60,
      "velocity": 64,
      "energy": 20,
      "duration_s": 0.08
    },
    {
      "t": 129.02,
      "word": "you",
      "f0_hz": 130.0,
      "pitch_bend": 0,
      "ternary": 0,
      "t_pitch": 0,
      "t_vol": 0,
      "t_timing": 0,
      "spk": 1,
      "role": 1,
      "note": 60,
      "velocity": 64,
      "energy": 20,
      "duration_s": 0.04
    },
    {
      "t": 129.06,
      "word": "get",
      "f0_hz": 110.0,
      "pitch_bend": 0,
      "ternary": 0,
      "t_pitch": 0,
      "t_vol": 0,
      "t_timing": 0,
      "spk": 1,
      "role": 1,
      "note": 60,
      "velocity": 64,
      "energy": 20,
      "duration_s": 0.06
    },
    {
      "t": 129.12,
      "word": "to",
      "f0_hz": 110.0,
      "pitch_bend": 0,
      "ternary": 0,
      "t_pitch": 0,
      "t_vol": 0,
      "t_timing": 0,
      "spk": 1,
      "role": 1,
      "note": 60,
      "velocity": 64,
      "energy": 20,
      "duration_s": 0.14
    },
    {
      "t": 129.26,
      "word": "the",
      "f0_hz": 110.0,
      "pitch_bend": 0,
      "ternary": 0,
      "t_pitch": 0,
      "t_vol": 0,
      "t_timing": 0,
      "spk": 1,
      "role": 1,
      "note": 60,
      "velocity": 64,
      "energy": 20,
      "duration_s": 0.24
    },
    {
      "t": 129.5,
      "word": "farm.",
      "f0_hz": 110.0,
      "pitch_bend": 0,
      "ternary": 0,
      "t_pitch": 0,
      "t_vol": 0,
      "t_timing": 0,
      "spk": 1,
      "role": 1,
      "note": 60,
      "velocity": 64,
      "energy": 20,
      "duration_s": 0.26
    },
    {
      "t": 130.4,
      "word": "But",
      "f0_hz": 110.0,
      "pitch_bend": 0,
      "ternary": 0,
      "t_pitch": 0,
      "t_vol": 0,
      "t_timing": 0,
      "spk": 1,
      "role": 1,
      "note": 60,
      "velocity": 64,
      "energy": 20,
      "duration_s": 0.26
    },
    {
      "t": 130.66,
      "word": "where",
      "f0_hz": 130.0,
      "pitch_bend": 0,
      "ternary": 0,
      "t_pitch": 0,
      "t_vol": 0,
      "t_timing": 0,
      "spk": 1,
      "role": 1,
      "note": 60,
      "velocity": 64,
      "energy": 20,
      "duration_s": 0.28
    },
    {
      "t": 130.94,
      "word": "I",
      "f0_hz": 110.0,
      "pitch_bend": 0,
      "ternary": 0,
      "t_pitch": 0,
      "t_vol": 0,
      "t_timing": 0,
      "spk": 1,
      "role": 1,
      "note": 60,
      "velocity": 64,
      "energy": 20,
      "duration_s": 0.22
    },
    {
      "t": 131.16,
      "word": "am",
      "f0_hz": 110.0,
      "pitch_bend": 0,
      "ternary": 0,
      "t_pitch": 0,
      "t_vol": 0,
      "t_timing": 0,
      "spk": 1,
      "role": 1,
      "note": 60,
      "velocity": 64,
      "energy": 20,
      "duration_s": 0.52
    },
    {
      "t": 131.68,
      "word": "is",
      "f0_hz": 110.0,
      "pitch_bend": 0,
      "ternary": 0,
      "t_pitch": 0,
      "t_vol": 0,
      "t_timing": 0,
      "spk": 1,
      "role": 1,
      "note": 60,
      "velocity": 64,
      "energy": 20,
      "duration_s": 0.72
    },
    {
      "t": 132.4,
      "word": "a",
      "f0_hz": 110.0,
      "pitch_bend": 0,
      "ternary": 0,
      "t_pitch": 0,
      "t_vol": 0,
      "t_timing": 0,
      "spk": 1,
      "role": 1,
      "note": 60,
      "velocity": 64,
      "energy": 20,
      "duration_s": 0.24
    },
    {
      "t": 132.64,
      "word": "nine",
      "f0_hz": 110.0,
      "pitch_bend": 0,
      "ternary": 0,
      "t_pitch": 0,
      "t_vol": 0,
      "t_timing": 0,
      "spk": 1,
      "role": 1,
      "note": 60,
      "velocity": 64,
      "energy": 20,
      "duration_s": 0.18
    },
    {
      "t": 132.82,
      "word": "-hour",
      "f0_hz": 110.0,
      "pitch_bend": 0,
      "ternary": 0,
      "t_pitch": 0,
      "t_vol": 0,
      "t_timing": 0,
      "spk": 1,
      "role": 1,
      "note": 60,
      "velocity": 64,
      "energy": 20,
      "duration_s": 0.2
    },
    {
      "t": 133.02,
      "word": "drive",
      "f0_hz": 110.0,
      "pitch_bend": 0,
      "ternary": 0,
      "t_pitch": 0,
      "t_vol": 0,
      "t_timing": 0,
      "spk": 1,
      "role": 1,
      "note": 60,
      "velocity": 64,
      "energy": 20,
      "duration_s": 0.28
    },
    {
      "t": 133.3,
      "word": "from",
      "f0_hz": 110.0,
      "pitch_bend": 0,
      "ternary": 0,
      "t_pitch": 0,
      "t_vol": 0,
      "t_timing": 0,
      "spk": 1,
      "role": 1,
      "note": 60,
      "velocity": 64,
      "energy": 20,
      "duration_s": 0.22
    },
    {
      "t": 133.52,
      "word": "Brisbane.",
      "f0_hz": 110.0,
      "pitch_bend": 0,
      "ternary": 0,
      "t_pitch": 0,
      "t_vol": 0,
      "t_timing": 0,
      "spk": 1,
      "role": 1,
      "note": 60,
      "velocity": 64,
      "energy": 20,
      "duration_s": 0.46
    },
    {
      "t": 134.52,
      "word": "The",
      "f0_hz": 110.0,
      "pitch_bend": 0,
      "ternary": 0,
      "t_pitch": 0,
      "t_vol": 0,
      "t_timing": 0,
      "spk": 1,
      "role": 1,
      "note": 60,
      "velocity": 64,
      "energy": 20,
      "duration_s": 0.16
    },
    {
      "t": 134.68,
      "word": "closest",
      "f0_hz": 110.0,
      "pitch_bend": 0,
      "ternary": 0,
      "t_pitch": 0,
      "t_vol": 0,
      "t_timing": 0,
      "spk": 1,
      "role": 1,
      "note": 60,
      "velocity": 64,
      "energy": 20,
      "duration_s": 0.4
    },
    {
      "t": 135.08,
      "word": "town",
      "f0_hz": 110.0,
      "pitch_bend": 0,
      "ternary": 0,
      "t_pitch": 0,
      "t_vol": 0,
      "t_timing": 0,
      "spk": 1,
      "role": 1,
      "note": 60,
      "velocity": 64,
      "energy": 20,
      "duration_s": 0.32
    },
    {
      "t": 135.4,
      "word": "to",
      "f0_hz": 110.0,
      "pitch_bend": 0,
      "ternary": 0,
      "t_pitch": 0,
      "t_vol": 0,
      "t_timing": 0,
      "spk": 1,
      "role": 1,
      "note": 60,
      "velocity": 64,
      "energy": 20,
      "duration_s": 0.1
    },
    {
      "t": 135.5,
      "word": "me",
      "f0_hz": 110.0,
      "pitch_bend": 0,
      "ternary": 0,
      "t_pitch": 0,
      "t_vol": 0,
      "t_timing": 0,
      "spk": 1,
      "role": 1,
      "note": 60,
      "velocity": 64,
      "energy": 20,
      "duration_s": 0.1
    },
    {
      "t": 135.6,
      "word": "is",
      "f0_hz": 110.0,
      "pitch_bend": 0,
      "ternary": 0,
      "t_pitch": 0,
      "t_vol": 0,
      "t_timing": 0,
      "spk": 1,
      "role": 1,
      "note": 60,
      "velocity": 64,
      "energy": 20,
      "duration_s": 0.18
    },
    {
      "t": 135.78,
      "word": "two",
      "f0_hz": 110.0,
      "pitch_bend": 0,
      "ternary": 0,
      "t_pitch": 0,
      "t_vol": 0,
      "t_timing": 0,
      "spk": 1,
      "role": 1,
      "note": 60,
      "velocity": 64,
      "energy": 20,
      "duration_s": 0.18
    },
    {
      "t": 135.96,
      "word": "hours",
      "f0_hz": 130.0,
      "pitch_bend": 0,
      "ternary": 0,
      "t_pitch": 0,
      "t_vol": 0,
      "t_timing": 0,
      "spk": 1,
      "role": 1,
      "note": 60,
      "velocity": 64,
      "energy": 20,
      "duration_s": 0.22
    },
    {
      "t": 136.18,
      "word": "away.",
      "f0_hz": 110.0,
      "pitch_bend": 0,
      "ternary": 0,
      "t_pitch": 0,
      "t_vol": 0,
      "t_timing": 0,
      "spk": 1,
      "role": 1,
      "note": 60,
      "velocity": 64,
      "energy": 20,
      "duration_s": 0.8
    },
    {
      "t": 137.46,
      "word": "And",
      "f0_hz": 110.0,
      "pitch_bend": 0,
      "ternary": 0,
      "t_pitch": 0,
      "t_vol": 0,
      "t_timing": 0,
      "spk": 1,
      "role": 1,
      "note": 60,
      "velocity": 64,
      "energy": 20,
      "duration_s": 0.1
    },
    {
      "t": 137.56,
      "word": "we",
      "f0_hz": 130.0,
      "pitch_bend": 0,
      "ternary": 0,
      "t_pitch": 0,
      "t_vol": 0,
      "t_timing": 0,
      "spk": 1,
      "role": 1,
      "note": 60,
      "velocity": 64,
      "energy": 20,
      "duration_s": 0.2
    },
    {
      "t": 137.76,
      "word": "are",
      "f0_hz": 110.0,
      "pitch_bend": 0,
      "ternary": 0,
      "t_pitch": 0,
      "t_vol": 0,
      "t_timing": 0,
      "spk": 1,
      "role": 1,
      "note": 60,
      "velocity": 64,
      "energy": 20,
      "duration_s": 0.24
    },
    {
      "t": 138.0,
      "word": "in",
      "f0_hz": 110.0,
      "pitch_bend": 0,
      "ternary": 0,
      "t_pitch": 0,
      "t_vol": 0,
      "t_timing": 0,
      "spk": 1,
      "role": 1,
      "note": 60,
      "velocity": 64,
      "energy": 20,
      "duration_s": 0.18
    },
    {
      "t": 138.18,
      "word": "the",
      "f0_hz": 110.0,
      "pitch_bend": 0,
      "ternary": 0,
      "t_pitch": 0,
      "t_vol": 0,
      "t_timing": 0,
      "spk": 1,
      "role": 1,
      "note": 60,
      "velocity": 64,
      "energy": 20,
      "duration_s": 0.54
    },
    {
      "t": 138.72,
      "word": "remote",
      "f0_hz": 110.0,
      "pitch_bend": 0,
      "ternary": 0,
      "t_pitch": 0,
      "t_vol": 0,
      "t_timing": 0,
      "spk": 1,
      "role": 1,
      "note": 60,
      "velocity": 64,
      "energy": 20,
      "duration_s": 0.86
    },
    {
      "t": 139.58,
      "word": "Outback.",
      "f0_hz": 110.0,
      "pitch_bend": 0,
      "ternary": 0,
      "t_pitch": 0,
      "t_vol": 0,
      "t_timing": 0,
      "spk": 0,
      "role": 1,
      "note": 60,
      "velocity": 64,
      "energy": 20,
      "duration_s": 0.98
    },
    {
      "t": 140.56,
      "word": "There",
      "f0_hz": 110.0,
      "pitch_bend": 0,
      "ternary": 0,
      "t_pitch": 0,
      "t_vol": 0,
      "t_timing": 0,
      "spk": 1,
      "role": 1,
      "note": 60,
      "velocity": 64,
      "energy": 20,
      "duration_s": 0.88
    },
    {
      "t": 141.44,
      "word": "is",
      "f0_hz": 110.0,
      "pitch_bend": 0,
      "ternary": 0,
      "t_pitch": 0,
      "t_vol": 0,
      "t_timing": 0,
      "spk": 0,
      "role": 1,
      "note": 60,
      "velocity": 64,
      "energy": 20,
      "duration_s": 0.26
    },
    {
      "t": 141.7,
      "word": "nothing",
      "f0_hz": 110.0,
      "pitch_bend": 0,
      "ternary": 0,
      "t_pitch": 0,
      "t_vol": 0,
      "t_timing": 0,
      "spk": 1,
      "role": 1,
      "note": 60,
      "velocity": 64,
      "energy": 20,
      "duration_s": 0.6
    },
    {
      "t": 142.3,
      "word": "out",
      "f0_hz": 110.0,
      "pitch_bend": 0,
      "ternary": 0,
      "t_pitch": 0,
      "t_vol": 0,
      "t_timing": 0,
      "spk": 1,
      "role": 1,
      "note": 60,
      "velocity": 64,
      "energy": 20,
      "duration_s": 0.28
    },
    {
      "t": 142.58,
      "word": "there.",
      "f0_hz": 110.0,
      "pitch_bend": 0,
      "ternary": 0,
      "t_pitch": 0,
      "t_vol": 0,
      "t_timing": 0,
      "spk": 1,
      "role": 1,
      "note": 60,
      "velocity": 64,
      "energy": 20,
      "duration_s": 0.56
    },
    {
      "t": 143.3,
      "word": "And",
      "f0_hz": 110.0,
      "pitch_bend": 0,
      "ternary": 0,
      "t_pitch": 0,
      "t_vol": 0,
      "t_timing": 0,
      "spk": 0,
      "role": 1,
      "note": 60,
      "velocity": 64,
      "energy": 20,
      "duration_s": 0.0
    },
    {
      "t": 143.3,
      "word": "people,",
      "f0_hz": 110.0,
      "pitch_bend": 0,
      "ternary": 0,
      "t_pitch": 0,
      "t_vol": 0,
      "t_timing": 0,
      "spk": 1,
      "role": 1,
      "note": 60,
      "velocity": 64,
      "energy": 20,
      "duration_s": 0.32
    },
    {
      "t": 143.62,
      "word": "you",
      "f0_hz": 130.0,
      "pitch_bend": 0,
      "ternary": 0,
      "t_pitch": 0,
      "t_vol": 0,
      "t_timing": 0,
      "spk": 0,
      "role": 1,
      "note": 60,
      "velocity": 64,
      "energy": 20,
      "duration_s": 0.0
    },
    {
      "t": 143.62,
      "word": "know,",
      "f0_hz": 110.0,
      "pitch_bend": 0,
      "ternary": 0,
      "t_pitch": 0,
      "t_vol": 0,
      "t_timing": 0,
      "spk": 1,
      "role": 1,
      "note": 60,
      "velocity": 64,
      "energy": 20,
      "duration_s": 1.56
    },
    {
      "t": 145.18,
      "word": "people,",
      "f0_hz": 110.0,
      "pitch_bend": 0,
      "ternary": 0,
      "t_pitch": 0,
      "t_vol": 0,
      "t_timing": 0,
      "spk": 1,
      "role": 1,
      "note": 60,
      "velocity": 64,
      "energy": 20,
      "duration_s": 0.0
    },
    {
      "t": 145.42,
      "word": "like",
      "f0_hz": 110.0,
      "pitch_bend": 0,
      "ternary": 0,
      "t_pitch": 0,
      "t_vol": 0,
      "t_timing": 0,
      "spk": 1,
      "role": 1,
      "note": 60,
      "velocity": 64,
      "energy": 20,
      "duration_s": 0.08
    },
    {
      "t": 145.5,
      "word": "some",
      "f0_hz": 110.0,
      "pitch_bend": 0,
      "ternary": 0,
      "t_pitch": 0,
      "t_vol": 0,
      "t_timing": 0,
      "spk": 1,
      "role": 1,
      "note": 60,
      "velocity": 64,
      "energy": 20,
      "duration_s": 0.32
    },
    {
      "t": 145.82,
      "word": "some",
      "f0_hz": 110.0,
      "pitch_bend": 0,
      "ternary": 0,
      "t_pitch": 0,
      "t_vol": 0,
      "t_timing": 0,
      "spk": 0,
      "role": 1,
      "note": 60,
      "velocity": 64,
      "energy": 20,
      "duration_s": 0.16
    },
    {
      "t": 145.98,
      "word": "media",
      "f0_hz": 110.0,
      "pitch_bend": 0,
      "ternary": 0,
      "t_pitch": 0,
      "t_vol": 0,
      "t_timing": 0,
      "spk": 1,
      "role": 1,
      "note": 60,
      "velocity": 64,
      "energy": 20,
      "duration_s": 0.18
    },
    {
      "t": 146.16,
      "word": "people",
      "f0_hz": 110.0,
      "pitch_bend": 0,
      "ternary": 0,
      "t_pitch": 0,
      "t_vol": 0,
      "t_timing": 0,
      "spk": 1,
      "role": 1,
      "note": 60,
      "velocity": 64,
      "energy": 20,
      "duration_s": 0.42
    },
    {
      "t": 146.58,
      "word": "back,",
      "f0_hz": 110.0,
      "pitch_bend": 0,
      "ternary": 0,
      "t_pitch": 0,
      "t_vol": 0,
      "t_timing": 0,
      "spk": 1,
      "role": 1,
      "note": 60,
      "velocity": 64,
      "energy": 20,
      "duration_s": 0.24
    },
    {
      "t": 146.88,
      "word": "oh,",
      "f0_hz": 110.0,
      "pitch_bend": 0,
      "ternary": 0,
      "t_pitch": 0,
      "t_vol": 0,
      "t_timing": 0,
      "spk": 1,
      "role": 1,
      "note": 60,
      "velocity": 64,
      "energy": 20,
      "duration_s": 0.38
    },
    {
      "t": 147.28,
      "word": "you",
      "f0_hz": 130.0,
      "pitch_bend": 0,
      "ternary": 0,
      "t_pitch": 0,
      "t_vol": 0,
      "t_timing": 0,
      "spk": 1,
      "role": 1,
      "note": 60,
      "velocity": 64,
      "energy": 20,
      "duration_s": 0.08
    },
    {
      "t": 147.36,
      "word": "know,",
      "f0_hz": 110.0,
      "pitch_bend": 0,
      "ternary": 0,
      "t_pitch": 0,
      "t_vol": 0,
      "t_timing": 0,
      "spk": 1,
      "role": 1,
      "note": 60,
      "velocity": 64,
      "energy": 20,
      "duration_s": 0.16
    },
    {
      "t": 147.52,
      "word": "we'll",
      "f0_hz": 130.0,
      "pitch_bend": 0,
      "ternary": 0,
      "t_pitch": 0,
      "t_vol": 0,
      "t_timing": 0,
      "spk": 1,
      "role": 1,
      "note": 60,
      "velocity": 64,
      "energy": 20,
      "duration_s": 0.16
    },
    {
      "t": 147.68,
      "word": "just",
      "f0_hz": 110.0,
      "pitch_bend": 0,
      "ternary": 0,
      "t_pitch": 0,
      "t_vol": 0,
      "t_timing": 0,
      "spk": 1,
      "role": 1,
      "note": 60,
      "velocity": 64,
      "energy": 20,
      "duration_s": 0.1
    },
    {
      "t": 147.78,
      "word": "come",
      "f0_hz": 110.0,
      "pitch_bend": 0,
      "ternary": 0,
      "t_pitch": 0,
      "t_vol": 0,
      "t_timing": 0,
      "spk": 1,
      "role": 1,
      "note": 60,
      "velocity": 64,
      "energy": 20,
      "duration_s": 0.6
    },
    {
      "t": 148.38,
      "word": "and",
      "f0_hz": 110.0,
      "pitch_bend": 0,
      "ternary": 0,
      "t_pitch": 0,
      "t_vol": 0,
      "t_timing": 0,
      "spk": 1,
      "role": 1,
      "note": 60,
      "velocity": 64,
      "energy": 20,
      "duration_s": 0.24
    },
    {
      "t": 148.62,
      "word": "shoot",
      "f0_hz": 110.0,
      "pitch_bend": 0,
      "ternary": 0,
      "t_pitch": 0,
      "t_vol": 0,
      "t_timing": 0,
      "spk": 1,
      "role": 1,
      "note": 60,
      "velocity": 64,
      "energy": 20,
      "duration_s": 0.22
    },
    {
      "t": 148.84,
      "word": "you",
      "f0_hz": 130.0,
      "pitch_bend": 0,
      "ternary": 0,
      "t_pitch": 0,
      "t_vol": 0,
      "t_timing": 0,
      "spk": 1,
      "role": 1,
      "note": 60,
      "velocity": 64,
      "energy": 20,
      "duration_s": 0.2
    },
    {
      "t": 149.04,
      "word": "on",
      "f0_hz": 110.0,
      "pitch_bend": 0,
      "ternary": 0,
      "t_pitch": 0,
      "t_vol": 0,
      "t_timing": 0,
      "spk": 1,
      "role": 1,
      "note": 60,
      "velocity": 64,
      "energy": 20,
      "duration_s": 0.1
    },
    {
      "t": 149.14,
      "word": "the",
      "f0_hz": 110.0,
      "pitch_bend": 0,
      "ternary": 0,
      "t_pitch": 0,
      "t_vol": 0,
      "t_timing": 0,
      "spk": 1,
      "role": 1,
      "note": 60,
      "velocity": 64,
      "energy": 20,
      "duration_s": 0.26
    },
    {
      "t": 149.4,
      "word": "farm.",
      "f0_hz": 110.0,
      "pitch_bend": 0,
      "ternary": 0,
      "t_pitch": 0,
      "t_vol": 0,
      "t_timing": 0,
      "spk": 1,
      "role": 1,
      "note": 60,
      "velocity": 64,
      "energy": 20,
      "duration_s": 0.48
    },
    {
      "t": 150.3,
      "word": "You",
      "f0_hz": 130.0,
      "pitch_bend": 0,
      "ternary": 0,
      "t_pitch": 0,
      "t_vol": 0,
      "t_timing": 0,
      "spk": 1,
      "role": 1,
      "note": 60,
      "velocity": 64,
      "energy": 20,
      "duration_s": 0.08
    },
    {
      "t": 150.38,
      "word": "know,",
      "f0_hz": 110.0,
      "pitch_bend": 0,
      "ternary": 0,
      "t_pitch": 0,
      "t_vol": 0,
      "t_timing": 0,
      "spk": 1,
      "role": 1,
      "note": 60,
      "velocity": 64,
      "energy": 20,
      "duration_s": 0.3
    },
    {
      "t": 151.08,
      "word": "that's",
      "f0_hz": 110.0,
      "pitch_bend": 0,
      "ternary": 0,
      "t_pitch": 0,
      "t_vol": 0,
      "t_timing": 0,
      "spk": 1,
      "role": 1,
      "note": 60,
      "velocity": 64,
      "energy": 20,
      "duration_s": 0.58
    },
    {
      "t": 151.66,
      "word": "not",
      "f0_hz": 110.0,
      "pitch_bend": 0,
      "ternary": -1,
      "t_pitch": -1,
      "t_vol": -1,
      "t_timing": -1,
      "spk": 1,
      "role": 0,
      "note": 57,
      "velocity": 44,
      "energy": 80,
      "duration_s": 0.48
    },
    {
      "t": 152.14,
      "word": "how",
      "f0_hz": 130.0,
      "pitch_bend": 0,
      "ternary": 0,
      "t_pitch": 0,
      "t_vol": 0,
      "t_timing": 0,
      "spk": 1,
      "role": 1,
      "note": 60,
      "velocity": 64,
      "energy": 20,
      "duration_s": 0.28
    },
    {
      "t": 152.42,
      "word": "this",
      "f0_hz": 110.0,
      "pitch_bend": 0,
      "ternary": 0,
      "t_pitch": 0,
      "t_vol": 0,
      "t_timing": 0,
      "spk": 1,
      "role": 1,
      "note": 60,
      "velocity": 64,
      "energy": 20,
      "duration_s": 0.24
    },
    {
      "t": 152.66,
      "word": "works.",
      "f0_hz": 130.0,
      "pitch_bend": 0,
      "ternary": 0,
      "t_pitch": 0,
      "t_vol": 0,
      "t_timing": 0,
      "spk": 1,
      "role": 1,
      "note": 60,
      "velocity": 64,
      "energy": 20,
      "duration_s": 0.38
    },
    {
      "t": 153.06,
      "word": "Again,",
      "f0_hz": 110.0,
      "pitch_bend": 0,
      "ternary": 0,
      "t_pitch": 0,
      "t_vol": 0,
      "t_timing": 0,
      "spk": 0,
      "role": 1,
      "note": 60,
      "velocity": 64,
      "energy": 20,
      "duration_s": 0.46
    },
    {
      "t": 153.52,
      "word": "you",
      "f0_hz": 130.0,
      "pitch_bend": 0,
      "ternary": 0,
      "t_pitch": 0,
      "t_vol": 0,
      "t_timing": 0,
      "spk": 1,
      "role": 1,
      "note": 60,
      "velocity": 64,
      "energy": 20,
      "duration_s": 0.08
    },
    {
      "t": 153.6,
      "word": "come",
      "f0_hz": 110.0,
      "pitch_bend": 0,
      "ternary": 0,
      "t_pitch": 0,
      "t_vol": 0,
      "t_timing": 0,
      "spk": 0,
      "role": 1,
      "note": 60,
      "velocity": 64,
      "energy": 20,
      "duration_s": 0.28
    },
    {
      "t": 153.88,
      "word": "in",
      "f0_hz": 110.0,
      "pitch_bend": 0,
      "ternary": 0,
      "t_pitch": 0,
      "t_vol": 0,
      "t_timing": 0,
      "spk": 1,
      "role": 1,
      "note": 60,
      "velocity": 64,
      "energy": 20,
      "duration_s": 0.18
    },
    {
      "t": 154.06,
      "word": "there,",
      "f0_hz": 110.0,
      "pitch_bend": 0,
      "ternary": 0,
      "t_pitch": 0,
      "t_vol": 0,
      "t_timing": 0,
      "spk": 1,
      "role": 1,
      "note": 60,
      "velocity": 64,
      "energy": 20,
      "duration_s": 0.2
    },
    {
      "t": 154.26,
      "word": "you",
      "f0_hz": 130.0,
      "pitch_bend": 0,
      "ternary": 0,
      "t_pitch": 0,
      "t_vol": 0,
      "t_timing": 0,
      "spk": 1,
      "role": 1,
      "note": 60,
      "velocity": 64,
      "energy": 20,
      "duration_s": 0.0
    },
    {
      "t": 154.26,
      "word": "know,",
      "f0_hz": 110.0,
      "pitch_bend": 0,
      "ternary": 0,
      "t_pitch": 0,
      "t_vol": 0,
      "t_timing": 0,
      "spk": 1,
      "role": 1,
      "note": 60,
      "velocity": 64,
      "energy": 20,
      "duration_s": 0.16
    },
    {
      "t": 154.62,
      "word": "there's",
      "f0_hz": 110.0,
      "pitch_bend": 0,
      "ternary": 0,
      "t_pitch": 0,
      "t_vol": 0,
      "t_timing": 0,
      "spk": 1,
      "role": 1,
      "note": 60,
      "velocity": 64,
      "energy": 20,
      "duration_s": 0.42
    },
    {
      "t": 155.04,
      "word": "no",
      "f0_hz": 110.0,
      "pitch_bend": 0,
      "ternary": -1,
      "t_pitch": -1,
      "t_vol": -1,
      "t_timing": -1,
      "spk": 1,
      "role": 0,
      "note": 57,
      "velocity": 44,
      "energy": 80,
      "duration_s": 0.24
    },
    {
      "t": 155.28,
      "word": "mains",
      "f0_hz": 110.0,
      "pitch_bend": 0,
      "ternary": 0,
      "t_pitch": 0,
      "t_vol": 0,
      "t_timing": 0,
      "spk": 1,
      "role": 1,
      "note": 60,
      "velocity": 64,
      "energy": 20,
      "duration_s": 0.32
    },
    {
      "t": 155.6,
      "word": "power.",
      "f0_hz": 110.0,
      "pitch_bend": 0,
      "ternary": 0,
      "t_pitch": 0,
      "t_vol": 0,
      "t_timing": 0,
      "spk": 1,
      "role": 1,
      "note": 60,
      "velocity": 64,
      "energy": 20,
      "duration_s": 0.64
    },
    {
      "t": 156.58,
      "word": "There's",
      "f0_hz": 110.0,
      "pitch_bend": 0,
      "ternary": 0,
      "t_pitch": 0,
      "t_vol": 0,
      "t_timing": 0,
      "spk": 1,
      "role": 1,
      "note": 60,
      "velocity": 64,
      "energy": 20,
      "duration_s": 0.02
    },
    {
      "t": 156.6,
      "word": "no",
      "f0_hz": 110.0,
      "pitch_bend": 0,
      "ternary": -1,
      "t_pitch": -1,
      "t_vol": -1,
      "t_timing": -1,
      "spk": 1,
      "role": 0,
      "note": 57,
      "velocity": 44,
      "energy": 80,
      "duration_s": 0.32
    },
    {
      "t": 156.92,
      "word": "petrol",
      "f0_hz": 110.0,
      "pitch_bend": 0,
      "ternary": 0,
      "t_pitch": 0,
      "t_vol": 0,
      "t_timing": 0,
      "spk": 1,
      "role": 1,
      "note": 60,
      "velocity": 64,
      "energy": 20,
      "duration_s": 0.26
    },
    {
      "t": 157.18,
      "word": "stations.",
      "f0_hz": 110.0,
      "pitch_bend": 0,
      "ternary": 0,
      "t_pitch": 0,
      "t_vol": 0,
      "t_timing": 0,
      "spk": 1,
      "role": 1,
      "note": 60,
      "velocity": 64,
      "energy": 20,
      "duration_s": 0.56
    },
    {
      "t": 158.04,
      "word": "There's",
      "f0_hz": 110.0,
      "pitch_bend": 0,
      "ternary": 0,
      "t_pitch": 0,
      "t_vol": 0,
      "t_timing": 0,
      "spk": 1,
      "role": 1,
      "note": 60,
      "velocity": 64,
      "energy": 20,
      "duration_s": 0.02
    },
    {
      "t": 158.06,
      "word": "no,",
      "f0_hz": 110.0,
      "pitch_bend": 0,
      "ternary": 0,
      "t_pitch": 0,
      "t_vol": 0,
      "t_timing": 0,
      "spk": 1,
      "role": 1,
      "note": 60,
      "velocity": 64,
      "energy": 20,
      "duration_s": 0.5
    },
    {
      "t": 158.56,
      "word": "you",
      "f0_hz": 130.0,
      "pitch_bend": 0,
      "ternary": 0,
      "t_pitch": 0,
      "t_vol": 0,
      "t_timing": 0,
      "spk": 1,
      "role": 1,
      "note": 60,
      "velocity": 64,
      "energy": 20,
      "duration_s": 0.22
    },
    {
      "t": 158.78,
      "word": "know,",
      "f0_hz": 110.0,
      "pitch_bend": 0,
      "ternary": 0,
      "t_pitch": 0,
      "t_vol": 0,
      "t_timing": 0,
      "spk": 1,
      "role": 1,
      "note": 60,
      "velocity": 64,
      "energy": 20,
      "duration_s": 0.0
    },
    {
      "t": 158.78,
      "word": "there's",
      "f0_hz": 110.0,
      "pitch_bend": 0,
      "ternary": 0,
      "t_pitch": 0,
      "t_vol": 0,
      "t_timing": 0,
      "spk": 1,
      "role": 1,
      "note": 60,
      "velocity": 64,
      "energy": 20,
      "duration_s": 0.18
    },
    {
      "t": 158.96,
      "word": "no",
      "f0_hz": 110.0,
      "pitch_bend": 0,
      "ternary": -1,
      "t_pitch": -1,
      "t_vol": -1,
      "t_timing": -1,
      "spk": 1,
      "role": 0,
      "note": 57,
      "velocity": 44,
      "energy": 80,
      "duration_s": 0.26
    },
    {
      "t": 159.22,
      "word": "water.",
      "f0_hz": 130.0,
      "pitch_bend": 0,
      "ternary": 0,
      "t_pitch": 0,
      "t_vol": 0,
      "t_timing": 0,
      "spk": 1,
      "role": 1,
      "note": 60,
      "velocity": 64,
      "energy": 20,
      "duration_s": 0.3
    },
    {
      "t": 159.82,
      "word": "You",
      "f0_hz": 130.0,
      "pitch_bend": 0,
      "ternary": 0,
      "t_pitch": 0,
      "t_vol": 0,
      "t_timing": 0,
      "spk": 0,
      "role": 1,
      "note": 60,
      "velocity": 64,
      "energy": 20,
      "duration_s": 0.42
    },
    {
      "t": 160.24,
      "word": "know,",
      "f0_hz": 110.0,
      "pitch_bend": 0,
      "ternary": 0,
      "t_pitch": 0,
      "t_vol": 0,
      "t_timing": 0,
      "spk": 1,
      "role": 1,
      "note": 60,
      "velocity": 64,
      "energy": 20,
      "duration_s": 0.16
    },
    {
      "t": 160.4,
      "word": "you've",
      "f0_hz": 130.0,
      "pitch_bend": 0,
      "ternary": 0,
      "t_pitch": 0,
      "t_vol": 0,
      "t_timing": 0,
      "spk": 1,
      "role": 1,
      "note": 60,
      "velocity": 64,
      "energy": 20,
      "duration_s": 0.28
    },
    {
      "t": 160.68,
      "word": "got",
      "f0_hz": 110.0,
      "pitch_bend": 0,
      "ternary": 0,
      "t_pitch": 0,
      "t_vol": 0,
      "t_timing": 0,
      "spk": 1,
      "role": 1,
      "note": 60,
      "velocity": 64,
      "energy": 20,
      "duration_s": 0.06
    },
    {
      "t": 160.74,
      "word": "to",
      "f0_hz": 110.0,
      "pitch_bend": 0,
      "ternary": 0,
      "t_pitch": 0,
      "t_vol": 0,
      "t_timing": 0,
      "spk": 1,
      "role": 1,
      "note": 60,
      "velocity": 64,
      "energy": 20,
      "duration_s": 0.16
    },
    {
      "t": 160.9,
      "word": "take,",
      "f0_hz": 110.0,
      "pitch_bend": 0,
      "ternary": 0,
      "t_pitch": 0,
      "t_vol": 0,
      "t_timing": 0,
      "spk": 1,
      "role": 1,
      "note": 60,
      "velocity": 64,
      "energy": 20,
      "duration_s": 0.1
    },
    {
      "t": 161.14,
      "word": "you've",
      "f0_hz": 130.0,
      "pitch_bend": 0,
      "ternary": 0,
      "t_pitch": 0,
      "t_vol": 0,
      "t_timing": 0,
      "spk": 1,
      "role": 1,
      "note": 60,
      "velocity": 64,
      "energy": 20,
      "duration_s": 0.0
    },
    {
      "t": 161.14,
      "word": "got",
      "f0_hz": 110.0,
      "pitch_bend": 0,
      "ternary": 0,
      "t_pitch": 0,
      "t_vol": 0,
      "t_timing": 0,
      "spk": 1,
      "role": 1,
      "note": 60,
      "velocity": 64,
      "energy": 20,
      "duration_s": 0.0
    },
    {
      "t": 161.14,
      "word": "to",
      "f0_hz": 110.0,
      "pitch_bend": 0,
      "ternary": 0,
      "t_pitch": 0,
      "t_vol": 0,
      "t_timing": 0,
      "spk": 1,
      "role": 1,
      "note": 60,
      "velocity": 64,
      "energy": 20,
      "duration_s": 0.04
    },
    {
      "t": 161.18,
      "word": "bring",
      "f0_hz": 110.0,
      "pitch_bend": 0,
      "ternary": 0,
      "t_pitch": 0,
      "t_vol": 0,
      "t_timing": 0,
      "spk": 1,
      "role": 1,
      "note": 60,
      "velocity": 64,
      "energy": 20,
      "duration_s": 0.22
    },
    {
      "t": 161.4,
      "word": "water",
      "f0_hz": 130.0,
      "pitch_bend": 0,
      "ternary": 0,
      "t_pitch": 0,
      "t_vol": 0,
      "t_timing": 0,
      "spk": 1,
      "role": 1,
      "note": 60,
      "velocity": 64,
      "energy": 20,
      "duration_s": 0.24
    },
    {
      "t": 161.64,
      "word": "with",
      "f0_hz": 130.0,
      "pitch_bend": 0,
      "ternary": 0,
      "t_pitch": 0,
      "t_vol": 0,
      "t_timing": 0,
      "spk": 1,
      "role": 1,
      "note": 60,
      "velocity": 64,
      "energy": 20,
      "duration_s": 0.22
    },
    {
      "t": 161.86,
      "word": "you.",
      "f0_hz": 130.0,
      "pitch_bend": 0,
      "ternary": 0,
      "t_pitch": 0,
      "t_vol": 0,
      "t_timing": 0,
      "spk": 1,
      "role": 1,
      "note": 60,
      "velocity": 64,
      "energy": 20,
      "duration_s": 0.26
    },
    {
      "t": 162.34,
      "word": "There's",
      "f0_hz": 110.0,
      "pitch_bend": 0,
      "ternary": 0,
      "t_pitch": 0,
      "t_vol": 0,
      "t_timing": 0,
      "spk": 1,
      "role": 1,
      "note": 60,
      "velocity": 64,
      "energy": 20,
      "duration_s": 0.5
    },
    {
      "t": 162.84,
      "word": "nothing",
      "f0_hz": 110.0,
      "pitch_bend": 0,
      "ternary": 0,
      "t_pitch": 0,
      "t_vol": 0,
      "t_timing": 0,
      "spk": 1,
      "role": 1,
      "note": 60,
      "velocity": 64,
      "energy": 20,
      "duration_s": 0.32
    },
    {
      "t": 163.16,
      "word": "there.",
      "f0_hz": 110.0,
      "pitch_bend": 0,
      "ternary": 0,
      "t_pitch": 0,
      "t_vol": 0,
      "t_timing": 0,
      "spk": 1,
      "role": 1,
      "note": 60,
      "velocity": 64,
      "energy": 20,
      "duration_s": 0.4
    },
    {
      "t": 164.16,
      "word": "And",
      "f0_hz": 110.0,
      "pitch_bend": 0,
      "ternary": 0,
      "t_pitch": 0,
      "t_vol": 0,
      "t_timing": 0,
      "spk": 0,
      "role": 1,
      "note": 60,
      "velocity": 64,
      "energy": 20,
      "duration_s": 0.48
    },
    {
      "t": 164.64,
      "word": "so",
      "f0_hz": 110.0,
      "pitch_bend": 0,
      "ternary": 0,
      "t_pitch": 0,
      "t_vol": 0,
      "t_timing": 0,
      "spk": 1,
      "role": 1,
      "note": 60,
      "velocity": 64,
      "energy": 20,
      "duration_s": 0.22
    },
    {
      "t": 164.86,
      "word": "it's",
      "f0_hz": 110.0,
      "pitch_bend": 0,
      "ternary": 0,
      "t_pitch": 0,
      "t_vol": 0,
      "t_timing": 0,
      "spk": 1,
      "role": 1,
      "note": 60,
      "velocity": 64,
      "energy": 20,
      "duration_s": 0.32
    },
    {
      "t": 165.18,
      "word": "very,",
      "f0_hz": 110.0,
      "pitch_bend": 0,
      "ternary": 0,
      "t_pitch": 0,
      "t_vol": 0,
      "t_timing": 0,
      "spk": 1,
      "role": 1,
      "note": 60,
      "velocity": 64,
      "energy": 20,
      "duration_s": 0.78
    },
    {
      "t": 165.96,
      "word": "it",
      "f0_hz": 110.0,
      "pitch_bend": 0,
      "ternary": 0,
      "t_pitch": 0,
      "t_vol": 0,
      "t_timing": 0,
      "spk": 1,
      "role": 1,
      "note": 60,
      "velocity": 64,
      "energy": 20,
      "duration_s": 0.4
    },
    {
      "t": 166.36,
      "word": "is,",
      "f0_hz": 110.0,
      "pitch_bend": 0,
      "ternary": 0,
      "t_pitch": 0,
      "t_vol": 0,
      "t_timing": 0,
      "spk": 1,
      "role": 1,
      "note": 60,
      "velocity": 64,
      "energy": 20,
      "duration_s": 0.76
    },
    {
      "t": 167.28,
      "word": "if",
      "f0_hz": 110.0,
      "pitch_bend": 0,
      "ternary": 0,
      "t_pitch": 0,
      "t_vol": 0,
      "t_timing": 0,
      "spk": 1,
      "role": 1,
      "note": 60,
      "velocity": 64,
      "energy": 20,
      "duration_s": 0.0
    },
    {
      "t": 167.28,
      "word": "you",
      "f0_hz": 130.0,
      "pitch_bend": 0,
      "ternary": 0,
      "t_pitch": 0,
      "t_vol": 0,
      "t_timing": 0,
      "spk": 1,
      "role": 1,
      "note": 60,
      "velocity": 64,
      "energy": 20,
      "duration_s": 0.16
    },
    {
      "t": 167.44,
      "word": "think",
      "f0_hz": 110.0,
      "pitch_bend": 0,
      "ternary": 0,
      "t_pitch": 0,
      "t_vol": 0,
      "t_timing": 0,
      "spk": 1,
      "role": 1,
      "note": 60,
      "velocity": 64,
      "energy": 20,
      "duration_s": 0.3
    },
    {
      "t": 167.74,
      "word": "of",
      "f0_hz": 110.0,
      "pitch_bend": 0,
      "ternary": 0,
      "t_pitch": 0,
      "t_vol": 0,
      "t_timing": 0,
      "spk": 1,
      "role": 1,
      "note": 60,
      "velocity": 64,
      "energy": 20,
      "duration_s": 0.98
    },
    {
      "t": 168.72,
      "word": "untouched",
      "f0_hz": 110.0,
      "pitch_bend": 0,
      "ternary": 0,
      "t_pitch": 0,
      "t_vol": 0,
      "t_timing": 0,
      "spk": 1,
      "role": 1,
      "note": 60,
      "velocity": 64,
      "energy": 20,
      "duration_s": 0.66
    },
    {
      "t": 169.38,
      "word": "bushland,",
      "f0_hz": 110.0,
      "pitch_bend": 0,
      "ternary": 0,
      "t_pitch": 0,
      "t_vol": 0,
      "t_timing": 0,
      "spk": 1,
      "role": 1,
      "note": 60,
      "velocity": 64,
      "energy": 20,
      "duration_s": 0.24
    },
    {
      "t": 170.48,
      "word": "that",
      "f0_hz": 110.0,
      "pitch_bend": 0,
      "ternary": 0,
      "t_pitch": 0,
      "t_vol": 0,
      "t_timing": 0,
      "spk": 1,
      "role": 1,
      "note": 60,
      "velocity": 64,
      "energy": 20,
      "duration_s": 0.4
    },
    {
      "t": 170.88,
      "word": "is",
      "f0_hz": 110.0,
      "pitch_bend": 0,
      "ternary": 0,
      "t_pitch": 0,
      "t_vol": 0,
      "t_timing": 0,
      "spk": 1,
      "role": 1,
      "note": 60,
      "velocity": 64,
      "energy": 20,
      "duration_s": 0.1
    },
    {
      "t": 170.98,
      "word": "what",
      "f0_hz": 130.0,
      "pitch_bend": 0,
      "ternary": 0,
      "t_pitch": 0,
      "t_vol": 0,
      "t_timing": 0,
      "spk": 1,
      "role": 1,
      "note": 60,
      "velocity": 64,
      "energy": 20,
      "duration_s": 0.16
    },
    {
      "t": 171.14,
      "word": "it",
      "f0_hz": 110.0,
      "pitch_bend": 0,
      "ternary": 0,
      "t_pitch": 0,
      "t_vol": 0,
      "t_timing": 0,
      "spk": 1,
      "role": 1,
      "note": 60,
      "velocity": 64,
      "energy": 20,
      "duration_s": 0.12
    },
    {
      "t": 171.26,
      "word": "is.",
      "f0_hz": 110.0,
      "pitch_bend": 0,
      "ternary": 0,
      "t_pitch": 0,
      "t_vol": 0,
      "t_timing": 0,
      "spk": 1,
      "role": 1,
      "note": 60,
      "velocity": 64,
      "energy": 20,
      "duration_s": 0.14
    },
    {
      "t": 171.54,
      "word": "And",
      "f0_hz": 110.0,
      "pitch_bend": 0,
      "ternary": 0,
      "t_pitch": 0,
      "t_vol": 0,
      "t_timing": 0,
      "spk": 1,
      "role": 1,
      "note": 60,
      "velocity": 64,
      "energy": 20,
      "duration_s": 0.0
    },
    {
      "t": 171.54,
      "word": "then",
      "f0_hz": 110.0,
      "pitch_bend": 0,
      "ternary": 0,
      "t_pitch": 0,
      "t_vol": 0,
      "t_timing": 0,
      "spk": 1,
      "role": 1,
      "note": 60,
      "velocity": 64,
      "energy": 20,
      "duration_s": 0.12
    },
    {
      "t": 171.66,
      "word": "there's",
      "f0_hz": 110.0,
      "pitch_bend": 0,
      "ternary": 0,
      "t_pitch": 0,
      "t_vol": 0,
      "t_timing": 0,
      "spk": 1,
      "role": 1,
      "note": 60,
      "velocity": 64,
      "energy": 20,
      "duration_s": 0.12
    },
    {
      "t": 171.78,
      "word": "just",
      "f0_hz": 110.0,
      "pitch_bend": 0,
      "ternary": 0,
      "t_pitch": 0,
      "t_vol": 0,
      "t_timing": 0,
      "spk": 1,
      "role": 1,
      "note": 60,
      "velocity": 64,
      "energy": 20,
      "duration_s": 0.24
    },
    {
      "t": 172.02,
      "word": "a",
      "f0_hz": 110.0,
      "pitch_bend": 0,
      "ternary": 0,
      "t_pitch": 0,
      "t_vol": 0,
      "t_timing": 0,
      "spk": 1,
      "role": 1,
      "note": 60,
      "velocity": 64,
      "energy": 20,
      "duration_s": 0.16
    },
    {
      "t": 172.18,
      "word": "caravan",
      "f0_hz": 110.0,
      "pitch_bend": 0,
      "ternary": 0,
      "t_pitch": 0,
      "t_vol": 0,
      "t_timing": 0,
      "spk": 1,
      "role": 1,
      "note": 60,
      "velocity": 64,
      "energy": 20,
      "duration_s": 0.22
    },
    {
      "t": 172.4,
      "word": "sitting",
      "f0_hz": 110.0,
      "pitch_bend": 0,
      "ternary": 0,
      "t_pitch": 0,
      "t_vol": 0,
      "t_timing": 0,
      "spk": 0,
      "role": 1,
      "note": 60,
      "velocity": 64,
      "energy": 20,
      "duration_s": 0.34
    },
    {
      "t": 172.74,
      "word": "in",
      "f0_hz": 110.0,
      "pitch_bend": 0,
      "ternary": 0,
      "t_pitch": 0,
      "t_vol": 0,
      "t_timing": 0,
      "spk": 1,
      "role": 1,
      "note": 60,
      "velocity": 64,
      "energy": 20,
      "duration_s": 0.16
    },
    {
      "t": 172.9,
      "word": "the",
      "f0_hz": 110.0,
      "pitch_bend": 0,
      "ternary": 0,
      "t_pitch": 0,
      "t_vol": 0,
      "t_timing": 0,
      "spk": 1,
      "role": 1,
      "note": 60,
      "velocity": 64,
      "energy": 20,
      "duration_s": 0.04
    },
    {
      "t": 172.94,
      "word": "middle",
      "f0_hz": 110.0,
      "pitch_bend": 0,
      "ternary": 0,
      "t_pitch": 0,
      "t_vol": 0,
      "t_timing": 0,
      "spk": 1,
      "role": 1,
      "note": 60,
      "velocity": 64,
      "energy": 20,
      "duration_s": 0.16
    },
    {
      "t": 173.1,
      "word": "of",
      "f0_hz": 110.0,
      "pitch_bend": 0,
      "ternary": 0,
      "t_pitch": 0,
      "t_vol": 0,
      "t_timing": 0,
      "spk": 1,
      "role": 1,
      "note": 60,
      "velocity": 64,
      "energy": 20,
      "duration_s": 0.2
    },
    {
      "t": 173.3,
      "word": "it.",
      "f0_hz": 110.0,
      "pitch_bend": 0,
      "ternary": 0,
      "t_pitch": 0,
      "t_vol": 0,
      "t_timing": 0,
      "spk": 1,
      "role": 1,
      "note": 60,
      "velocity": 64,
      "energy": 20,
      "duration_s": 0.36
    },
    {
      "t": 173.74,
      "word": "Wow.",
      "f0_hz": 130.0,
      "pitch_bend": 0,
      "ternary": 0,
      "t_pitch": 0,
      "t_vol": 0,
      "t_timing": 0,
      "spk": 1,
      "role": 1,
      "note": 60,
      "velocity": 64,
      "energy": 20,
      "duration_s": 0.48
    },
    {
      "t": 174.66,
      "word": "That",
      "f0_hz": 110.0,
      "pitch_bend": 0,
      "ternary": 0,
      "t_pitch": 0,
      "t_vol": 0,
      "t_timing": 0,
      "spk": 1,
      "role": 1,
      "note": 60,
      "velocity": 64,
      "energy": 20,
      "duration_s": 0.44
    },
    {
      "t": 175.1,
      "word": "is",
      "f0_hz": 110.0,
      "pitch_bend": 0,
      "ternary": 0,
      "t_pitch": 0,
      "t_vol": 0,
      "t_timing": 0,
      "spk": 1,
      "role": 1,
      "note": 60,
      "velocity": 64,
      "energy": 20,
      "duration_s": 0.64
    },
    {
      "t": 175.74,
      "word": "giving",
      "f0_hz": 110.0,
      "pitch_bend": 0,
      "ternary": 0,
      "t_pitch": 0,
      "t_vol": 0,
      "t_timing": 0,
      "spk": 1,
      "role": 1,
      "note": 60,
      "velocity": 64,
      "energy": 20,
      "duration_s": 0.38
    },
    {
      "t": 176.12,
      "word": "us",
      "f0_hz": 110.0,
      "pitch_bend": 0,
      "ternary": 0,
      "t_pitch": 0,
      "t_vol": 0,
      "t_timing": 0,
      "spk": 1,
      "role": 1,
      "note": 60,
      "velocity": 64,
      "energy": 20,
      "duration_s": 0.22
    },
    {
      "t": 176.34,
      "word": "a",
      "f0_hz": 110.0,
      "pitch_bend": 0,
      "ternary": 0,
      "t_pitch": 0,
      "t_vol": 0,
      "t_timing": 0,
      "spk": 1,
      "role": 1,
      "note": 60,
      "velocity": 64,
      "energy": 20,
      "duration_s": 0.1
    },
    {
      "t": 176.44,
      "word": "sense",
      "f0_hz": 110.0,
      "pitch_bend": 0,
      "ternary": 0,
      "t_pitch": 0,
      "t_vol": 0,
      "t_timing": 0,
      "spk": 1,
      "role": 1,
      "note": 60,
      "velocity": 64,
      "energy": 20,
      "duration_s": 0.12
    },
    {
      "t": 176.56,
      "word": "of",
      "f0_hz": 110.0,
      "pitch_bend": 0,
      "ternary": 0,
      "t_pitch": 0,
      "t_vol": 0,
      "t_timing": 0,
      "spk": 1,
      "role": 1,
      "note": 60,
      "velocity": 64,
      "energy": 20,
      "duration_s": 0.24
    },
    {
      "t": 176.8,
      "word": "distance",
      "f0_hz": 110.0,
      "pitch_bend": 0,
      "ternary": 0,
      "t_pitch": 0,
      "t_vol": 0,
      "t_timing": 0,
      "spk": 1,
      "role": 1,
      "note": 60,
      "velocity": 64,
      "energy": 20,
      "duration_s": 0.22
    },
    {
      "t": 177.02,
      "word": "and",
      "f0_hz": 110.0,
      "pitch_bend": 0,
      "ternary": 0,
      "t_pitch": 0,
      "t_vol": 0,
      "t_timing": 0,
      "spk": 1,
      "role": 1,
      "note": 60,
      "velocity": 64,
      "energy": 20,
      "duration_s": 0.32
    },
    {
      "t": 177.34,
      "word": "space",
      "f0_hz": 110.0,
      "pitch_bend": 0,
      "ternary": 0,
      "t_pitch": 0,
      "t_vol": 0,
      "t_timing": 0,
      "spk": 1,
      "role": 1,
      "note": 60,
      "velocity": 64,
      "energy": 20,
      "duration_s": 0.24
    },
    {
      "t": 177.58,
      "word": "right",
      "f0_hz": 110.0,
      "pitch_bend": 0,
      "ternary": 1,
      "t_pitch": 1,
      "t_vol": 1,
      "t_timing": 1,
      "spk": 1,
      "role": 2,
      "note": 63,
      "velocity": 84,
      "energy": 80,
      "duration_s": 0.32
    },
    {
      "t": 177.9,
      "word": "there.",
      "f0_hz": 110.0,
      "pitch_bend": 0,
      "ternary": 0,
      "t_pitch": 0,
      "t_vol": 0,
      "t_timing": 0,
      "spk": 0,
      "role": 1,
      "note": 60,
      "velocity": 64,
      "energy": 20,
      "duration_s": 0.28
    },
    {
      "t": 179.04,
      "word": "How",
      "f0_hz": 130.0,
      "pitch_bend": 0,
      "ternary": 0,
      "t_pitch": 0,
      "t_vol": 0,
      "t_timing": 0,
      "spk": 1,
      "role": 1,
      "note": 60,
      "velocity": 64,
      "energy": 20,
      "duration_s": 0.2
    },
    {
      "t": 179.24,
      "word": "much",
      "f0_hz": 110.0,
      "pitch_bend": 0,
      "ternary": 0,
      "t_pitch": 0,
      "t_vol": 0,
      "t_timing": 0,
      "spk": 1,
      "role": 1,
      "note": 60,
      "velocity": 64,
      "energy": 20,
      "duration_s": 0.36
    },
    {
      "t": 179.6,
      "word": "of",
      "f0_hz": 110.0,
      "pitch_bend": 0,
      "ternary": 0,
      "t_pitch": 0,
      "t_vol": 0,
      "t_timing": 0,
      "spk": 1,
      "role": 1,
      "note": 60,
      "velocity": 64,
      "energy": 20,
      "duration_s": 0.16
    },
    {
      "t": 179.76,
      "word": "the",
      "f0_hz": 110.0,
      "pitch_bend": 0,
      "ternary": 0,
      "t_pitch": 0,
      "t_vol": 0,
      "t_timing": 0,
      "spk": 1,
      "role": 1,
      "note": 60,
      "velocity": 64,
      "energy": 20,
      "duration_s": 0.2
    },
    {
      "t": 179.96,
      "word": "day",
      "f0_hz": 110.0,
      "pitch_bend": 0,
      "ternary": 0,
      "t_pitch": 0,
      "t_vol": 0,
      "t_timing": 0,
      "spk": 1,
      "role": 1,
      "note": 60,
      "velocity": 64,
      "energy": 20,
      "duration_s": 0.18
    },
    {
      "t": 180.14,
      "word": "do",
      "f0_hz": 110.0,
      "pitch_bend": 0,
      "ternary": 0,
      "t_pitch": 0,
      "t_vol": 0,
      "t_timing": 0,
      "spk": 1,
      "role": 1,
      "note": 60,
      "velocity": 64,
      "energy": 20,
      "duration_s": 0.12
    },
    {
      "t": 180.26,
      "word": "you",
      "f0_hz": 130.0,
      "pitch_bend": 0,
      "ternary": 0,
      "t_pitch": 0,
      "t_vol": 0,
      "t_timing": 0,
      "spk": 1,
      "role": 1,
      "note": 60,
      "velocity": 64,
      "energy": 20,
      "duration_s": 0.16
    },
    {
      "t": 180.42,
      "word": "spend",
      "f0_hz": 110.0,
      "pitch_bend": 0,
      "ternary": 0,
      "t_pitch": 0,
      "t_vol": 0,
      "t_timing": 0,
      "spk": 1,
      "role": 1,
      "note": 60,
      "velocity": 64,
      "energy": 20,
      "duration_s": 0.22
    },
    {
      "t": 180.64,
      "word": "alone",
      "f0_hz": 110.0,
      "pitch_bend": 0,
      "ternary": 0,
      "t_pitch": 0,
      "t_vol": 0,
      "t_timing": 0,
      "spk": 1,
      "role": 1,
      "note": 60,
      "velocity": 64,
      "energy": 20,
      "duration_s": 0.26
    },
    {
      "t": 180.9,
      "word": "out",
      "f0_hz": 110.0,
      "pitch_bend": 0,
      "ternary": 0,
      "t_pitch": 0,
      "t_vol": 0,
      "t_timing": 0,
      "spk": 1,
      "role": 1,
      "note": 60,
      "velocity": 64,
      "energy": 20,
      "duration_s": 0.28
    },
    {
      "t": 181.18,
      "word": "there?",
      "f0_hz": 110.0,
      "pitch_bend": 0,
      "ternary": 1,
      "t_pitch": 1,
      "t_vol": 1,
      "t_timing": 1,
      "spk": 1,
      "role": 2,
      "note": 63,
      "velocity": 84,
      "energy": 80,
      "duration_s": 0.58
    },
    {
      "t": 182.24,
      "word": "Pretty",
      "f0_hz": 110.0,
      "pitch_bend": 0,
      "ternary": 0,
      "t_pitch": 0,
      "t_vol": 0,
      "t_timing": 0,
      "spk": 1,
      "role": 1,
      "note": 60,
      "velocity": 64,
      "energy": 20,
      "duration_s": 0.18
    },
    {
      "t": 182.42,
      "word": "much",
      "f0_hz": 110.0,
      "pitch_bend": 0,
      "ternary": 0,
      "t_pitch": 0,
      "t_vol": 0,
      "t_timing": 0,
      "spk": 1,
      "role": 1,
      "note": 60,
      "velocity": 64,
      "energy": 20,
      "duration_s": 0.2
    },
    {
      "t": 182.62,
      "word": "most",
      "f0_hz": 110.0,
      "pitch_bend": 0,
      "ternary": 0,
      "t_pitch": 0,
      "t_vol": 0,
      "t_timing": 0,
      "spk": 1,
      "role": 1,
      "note": 60,
      "velocity": 64,
      "energy": 20,
      "duration_s": 0.3
    },
    {
      "t": 182.92,
      "word": "of",
      "f0_hz": 110.0,
      "pitch_bend": 0,
      "ternary": 0,
      "t_pitch": 0,
      "t_vol": 0,
      "t_timing": 0,
      "spk": 1,
      "role": 1,
      "note": 60,
      "velocity": 64,
      "energy": 20,
      "duration_s": 0.18
    },
    {
      "t": 183.1,
      "word": "the",
      "f0_hz": 110.0,
      "pitch_bend": 0,
      "ternary": 0,
      "t_pitch": 0,
      "t_vol": 0,
      "t_timing": 0,
      "spk": 1,
      "role": 1,
      "note": 60,
      "velocity": 64,
      "energy": 20,
      "duration_s": 0.08
    },
    {
      "t": 183.18,
      "word": "day,",
      "f0_hz": 110.0,
      "pitch_bend": 0,
      "ternary": 0,
      "t_pitch": 0,
      "t_vol": 0,
      "t_timing": 0,
      "spk": 1,
      "role": 1,
      "note": 60,
      "velocity": 64,
      "energy": 20,
      "duration_s": 0.22
    },
    {
      "t": 183.48,
      "word": "I",
      "f0_hz": 110.0,
      "pitch_bend": 0,
      "ternary": 0,
      "t_pitch": 0,
      "t_vol": 0,
      "t_timing": 0,
      "spk": 1,
      "role": 1,
      "note": 60,
      "velocity": 64,
      "energy": 20,
      "duration_s": 0.18
    },
    {
      "t": 183.66,
      "word": "would",
      "f0_hz": 130.0,
      "pitch_bend": 0,
      "ternary": 0,
      "t_pitch": 0,
      "t_vol": 0,
      "t_timing": 0,
      "spk": 1,
      "role": 1,
      "note": 60,
      "velocity": 64,
      "energy": 20,
      "duration_s": 0.0
    },
    {
      "t": 183.66,
      "word": "say,",
      "f0_hz": 110.0,
      "pitch_bend": 0,
      "ternary": 0,
      "t_pitch": 0,
      "t_vol": 0,
      "t_timing": 0,
      "spk": 1,
      "role": 1,
      "note": 60,
      "velocity": 64,
      "energy": 20,
      "duration_s": 0.26
    },
    {
      "t": 184.14,
      "word": "you",
      "f0_hz": 130.0,
      "pitch_bend": 0,
      "ternary": 0,
      "t_pitch": 0,
      "t_vol": 0,
      "t_timing": 0,
      "spk": 1,
      "role": 1,
      "note": 60,
      "velocity": 64,
      "energy": 20,
      "duration_s": 0.1
    },
    {
      "t": 184.24,
      "word": "know,",
      "f0_hz": 110.0,
      "pitch_bend": 0,
      "ternary": 0,
      "t_pitch": 0,
      "t_vol": 0,
      "t_timing": 0,
      "spk": 1,
      "role": 1,
      "note": 60,
      "velocity": 64,
      "energy": 20,
      "duration_s": 0.36
    },
    {
      "t": 184.6,
      "word": "I",
      "f0_hz": 110.0,
      "pitch_bend": 0,
      "ternary": 0,
      "t_pitch": 0,
      "t_vol": 0,
      "t_timing": 0,
      "spk": 1,
      "role": 1,
      "note": 60,
      "velocity": 64,
      "energy": 20,
      "duration_s": 0.36
    },
    {
      "t": 184.96,
      "word": "work",
      "f0_hz": 130.0,
      "pitch_bend": 0,
      "ternary": 0,
      "t_pitch": 0,
      "t_vol": 0,
      "t_timing": 0,
      "spk": 1,
      "role": 1,
      "note": 60,
      "velocity": 64,
      "energy": 20,
      "duration_s": 0.22
    },
    {
      "t": 185.18,
      "word": "at",
      "f0_hz": 110.0,
      "pitch_bend": 0,
      "ternary": 0,
      "t_pitch": 0,
      "t_vol": 0,
      "t_timing": 0,
      "spk": 0,
      "role": 1,
      "note": 60,
      "velocity": 64,
      "energy": 20,
      "duration_s": 0.32
    },
    {
      "t": 185.5,
      "word": "there",
      "f0_hz": 110.0,
      "pitch_bend": 0,
      "ternary": 0,
      "t_pitch": 0,
      "t_vol": 0,
      "t_timing": 0,
      "spk": 1,
      "role": 1,
      "note": 60,
      "velocity": 64,
      "energy": 20,
      "duration_s": 0.58
    },
    {
      "t": 186.08,
      "word": "with",
      "f0_hz": 130.0,
      "pitch_bend": 0,
      "ternary": 0,
      "t_pitch": 0,
      "t_vol": 0,
      "t_timing": 0,
      "spk": 1,
      "role": 1,
      "note": 60,
      "velocity": 64,
      "energy": 20,
      "duration_s": 0.26
    },
    {
      "t": 186.34,
      "word": "my",
      "f0_hz": 110.0,
      "pitch_bend": 0,
      "ternary": 0,
      "t_pitch": 0,
      "t_vol": 0,
      "t_timing": 0,
      "spk": 1,
      "role": 1,
      "note": 60,
      "velocity": 64,
      "energy": 20,
      "duration_s": 0.58
    },
    {
      "t": 186.92,
      "word": "stepfather.",
      "f0_hz": 110.0,
      "pitch_bend": 0,
      "ternary": 0,
      "t_pitch": 0,
      "t_vol": 0,
      "t_timing": 0,
      "spk": 1,
      "role": 1,
      "note": 60,
      "velocity": 64,
      "energy": 20,
      "duration_s": 0.74
    },
    {
      "t": 188.66,
      "word": "And",
      "f0_hz": 110.0,
      "pitch_bend": 0,
      "ternary": 0,
      "t_pitch": 0,
      "t_vol": 0,
      "t_timing": 0,
      "spk": 0,
      "role": 1,
      "note": 60,
      "velocity": 64,
      "energy": 20,
      "duration_s": 0.44
    },
    {
      "t": 189.1,
      "word": "we",
      "f0_hz": 130.0,
      "pitch_bend": 0,
      "ternary": 0,
      "t_pitch": 0,
      "t_vol": 0,
      "t_timing": 0,
      "spk": 1,
      "role": 1,
      "note": 60,
      "velocity": 64,
      "energy": 20,
      "duration_s": 0.2
    },
    {
      "t": 189.3,
      "word": "both",
      "f0_hz": 110.0,
      "pitch_bend": 0,
      "ternary": 0,
      "t_pitch": 0,
      "t_vol": 0,
      "t_timing": 0,
      "spk": 1,
      "role": 1,
      "note": 60,
      "velocity": 64,
      "energy": 20,
      "duration_s": 0.38
    },
    {
      "t": 189.68,
      "word": "have",
      "f0_hz": 130.0,
      "pitch_bend": 0,
      "ternary": 0,
      "t_pitch": 0,
      "t_vol": 0,
      "t_timing": 0,
      "spk": 1,
      "role": 1,
      "note": 60,
      "velocity": 64,
      "energy": 20,
      "duration_s": 0.34
    },
    {
      "t": 190.02,
      "word": "a",
      "f0_hz": 110.0,
      "pitch_bend": 0,
      "ternary": 0,
      "t_pitch": 0,
      "t_vol": 0,
      "t_timing": 0,
      "spk": 1,
      "role": 1,
      "note": 60,
      "velocity": 64,
      "energy": 20,
      "duration_s": 0.1
    },
    {
      "t": 190.12,
      "word": "caravan,",
      "f0_hz": 110.0,
      "pitch_bend": 0,
      "ternary": 0,
      "t_pitch": 0,
      "t_vol": 0,
      "t_timing": 0,
      "spk": 1,
      "role": 1,
      "note": 60,
      "velocity": 64,
      "energy": 20,
      "duration_s": 0.42
    },
    {
      "t": 190.7,
      "word": "which",
      "f0_hz": 130.0,
      "pitch_bend": 0,
      "ternary": 0,
      "t_pitch": 0,
      "t_vol": 0,
      "t_timing": 0,
      "spk": 1,
      "role": 1,
      "note": 60,
      "velocity": 64,
      "energy": 20,
      "duration_s": 0.18
    },
    {
      "t": 190.88,
      "word": "is",
      "f0_hz": 110.0,
      "pitch_bend": 0,
      "ternary": 0,
      "t_pitch": 0,
      "t_vol": 0,
      "t_timing": 0,
      "spk": 1,
      "role": 1,
      "note": 60,
      "velocity": 64,
      "energy": 20,
      "duration_s": 0.32
    },
    {
      "t": 191.2,
      "word": "about",
      "f0_hz": 110.0,
      "pitch_bend": 0,
      "ternary": 0,
      "t_pitch": 0,
      "t_vol": 0,
      "t_timing": 0,
      "spk": 1,
      "role": 1,
      "note": 60,
      "velocity": 64,
      "energy": 20,
      "duration_s": 0.32
    },
    {
      "t": 191.52,
      "word": "30",
      "f0_hz": 110.0,
      "pitch_bend": 0,
      "ternary": 0,
      "t_pitch": 0,
      "t_vol": 0,
      "t_timing": 0,
      "spk": 1,
      "role": 1,
      "note": 60,
      "velocity": 64,
      "energy": 20,
      "duration_s": 0.36
    },
    {
      "t": 191.88,
      "word": "minutes",
      "f0_hz": 110.0,
      "pitch_bend": 0,
      "ternary": 0,
      "t_pitch": 0,
      "t_vol": 0,
      "t_timing": 0,
      "spk": 1,
      "role": 1,
      "note": 60,
      "velocity": 64,
      "energy": 20,
      "duration_s": 0.26
    },
    {
      "t": 192.14,
      "word": "away",
      "f0_hz": 110.0,
      "pitch_bend": 0,
      "ternary": 0,
      "t_pitch": 0,
      "t_vol": 0,
      "t_timing": 0,
      "spk": 1,
      "role": 1,
      "note": 60,
      "velocity": 64,
      "energy": 20,
      "duration_s": 0.26
    },
    {
      "t": 192.4,
      "word": "from",
      "f0_hz": 110.0,
      "pitch_bend": 0,
      "ternary": 0,
      "t_pitch": 0,
      "t_vol": 0,
      "t_timing": 0,
      "spk": 1,
      "role": 1,
      "note": 60,
      "velocity": 64,
      "energy": 20,
      "duration_s": 0.12
    },
    {
      "t": 192.52,
      "word": "each",
      "f0_hz": 110.0,
      "pitch_bend": 0,
      "ternary": 0,
      "t_pitch": 0,
      "t_vol": 0,
      "t_timing": 0,
      "spk": 1,
      "role": 1,
      "note": 60,
      "velocity": 64,
      "energy": 20,
      "duration_s": 0.2
    },
    {
      "t": 192.72,
      "word": "other.",
      "f0_hz": 110.0,
      "pitch_bend": 0,
      "ternary": 0,
      "t_pitch": 0,
      "t_vol": 0,
      "t_timing": 0,
      "spk": 1,
      "role": 1,
      "note": 60,
      "velocity": 64,
      "energy": 20,
      "duration_s": 1.06
    },
    {
      "t": 193.82,
      "word": "And",
      "f0_hz": 110.0,
      "pitch_bend": 0,
      "ternary": 0,
      "t_pitch": 0,
      "t_vol": 0,
      "t_timing": 0,
      "spk": 1,
      "role": 1,
      "note": 60,
      "velocity": 64,
      "energy": 20,
      "duration_s": 0.1
    },
    {
      "t": 193.92,
      "word": "we",
      "f0_hz": 130.0,
      "pitch_bend": 0,
      "ternary": 0,
      "t_pitch": 0,
      "t_vol": 0,
      "t_timing": 0,
      "spk": 1,
      "role": 1,
      "note": 60,
      "velocity": 64,
      "energy": 20,
      "duration_s": 0.12
    },
    {
      "t": 194.04,
      "word": "sort",
      "f0_hz": 110.0,
      "pitch_bend": 0,
      "ternary": 0,
      "t_pitch": 0,
      "t_vol": 0,
      "t_timing": 0,
      "spk": 1,
      "role": 1,
      "note": 60,
      "velocity": 64,
      "energy": 20,
      "duration_s": 0.16
    },
    {
      "t": 194.2,
      "word": "of",
      "f0_hz": 110.0,
      "pitch_bend": 0,
      "ternary": 0,
      "t_pitch": 0,
      "t_vol": 0,
      "t_timing": 0,
      "spk": 1,
      "role": 1,
      "note": 60,
      "velocity": 64,
      "energy": 20,
      "duration_s": 0.0
    },
    {
      "t": 194.2,
      "word": "wake",
      "f0_hz": 130.0,
      "pitch_bend": 0,
      "ternary": 0,
      "t_pitch": 0,
      "t_vol": 0,
      "t_timing": 0,
      "spk": 1,
      "role": 1,
      "note": 60,
      "velocity": 64,
      "energy": 20,
      "duration_s": 0.22
    },
    {
      "t": 194.42,
      "word": "up.",
      "f0_hz": 110.0,
      "pitch_bend": 0,
      "ternary": 0,
      "t_pitch": 0,
      "t_vol": 0,
      "t_timing": 0,
      "spk": 1,
      "role": 1,
      "note": 60,
      "velocity": 64,
      "energy": 20,
      "duration_s": 0.58
    },
    {
      "t": 195.22,
      "word": "We",
      "f0_hz": 130.0,
      "pitch_bend": 0,
      "ternary": 0,
      "t_pitch": 0,
      "t_vol": 0,
      "t_timing": 0,
      "spk": 1,
      "role": 1,
      "note": 60,
      "velocity": 64,
      "energy": 20,
      "duration_s": 0.0
    },
    {
      "t": 195.22,
      "word": "see",
      "f0_hz": 110.0,
      "pitch_bend": 0,
      "ternary": 0,
      "t_pitch": 0,
      "t_vol": 0,
      "t_timing": 0,
      "spk": 1,
      "role": 1,
      "note": 60,
      "velocity": 64,
      "energy": 20,
      "duration_s": 0.12
    },
    {
      "t": 195.34,
      "word": "each",
      "f0_hz": 110.0,
      "pitch_bend": 0,
      "ternary": 0,
      "t_pitch": 0,
      "t_vol": 0,
      "t_timing": 0,
      "spk": 1,
      "role": 1,
      "note": 60,
      "velocity": 64,
      "energy": 20,
      "duration_s": 0.18
    },
    {
      "t": 195.52,
      "word": "other",
      "f0_hz": 110.0,
      "pitch_bend": 0,
      "ternary": 0,
      "t_pitch": 0,
      "t_vol": 0,
      "t_timing": 0,
      "spk": 1,
      "role": 1,
      "note": 60,
      "velocity": 64,
      "energy": 20,
      "duration_s": 0.16
    },
    {
      "t": 195.68,
      "word": "and",
      "f0_hz": 110.0,
      "pitch_bend": 0,
      "ternary": 0,
      "t_pitch": 0,
      "t_vol": 0,
      "t_timing": 0,
      "spk": 0,
      "role": 1,
      "note": 60,
      "velocity": 64,
      "energy": 20,
      "duration_s": 0.22
    },
    {
      "t": 195.9,
      "word": "we",
      "f0_hz": 130.0,
      "pitch_bend": 0,
      "ternary": 0,
      "t_pitch": 0,
      "t_vol": 0,
      "t_timing": 0,
      "spk": 0,
      "role": 1,
      "note": 60,
      "velocity": 64,
      "energy": 20,
      "duration_s": 0.26
    },
    {
      "t": 196.16,
      "word": "drive",
      "f0_hz": 110.0,
      "pitch_bend": 0,
      "ternary": 0,
      "t_pitch": 0,
      "t_vol": 0,
      "t_timing": 0,
      "spk": 1,
      "role": 1,
      "note": 60,
      "velocity": 64,
      "energy": 20,
      "duration_s": 0.4
    },
    {
      "t": 196.56,
      "word": "to",
      "f0_hz": 110.0,
      "pitch_bend": 0,
      "ternary": 0,
      "t_pitch": 0,
      "t_vol": 0,
      "t_timing": 0,
      "spk": 1,
      "role": 1,
      "note": 60,
      "velocity": 64,
      "energy": 20,
      "duration_s": 0.3
    },
    {
      "t": 196.86,
      "word": "work.",
      "f0_hz": 130.0,
      "pitch_bend": 0,
      "ternary": 0,
      "t_pitch": 0,
      "t_vol": 0,
      "t_timing": 0,
      "spk": 1,
      "role": 1,
      "note": 60,
      "velocity": 64,
      "energy": 20,
      "duration_s": 0.68
    },
    {
      "t": 197.66,
      "word": "And",
      "f0_hz": 110.0,
      "pitch_bend": 0,
      "ternary": 0,
      "t_pitch": 0,
      "t_vol": 0,
      "t_timing": 0,
      "spk": 1,
      "role": 1,
      "note": 60,
      "velocity": 64,
      "energy": 20,
      "duration_s": 0.0
    },
    {
      "t": 197.66,
      "word": "then",
      "f0_hz": 110.0,
      "pitch_bend": 0,
      "ternary": 0,
      "t_pitch": 0,
      "t_vol": 0,
      "t_timing": 0,
      "spk": 1,
      "role": 1,
      "note": 60,
      "velocity": 64,
      "energy": 20,
      "duration_s": 0.08
    },
    {
      "t": 197.74,
      "word": "we're",
      "f0_hz": 130.0,
      "pitch_bend": 0,
      "ternary": 0,
      "t_pitch": 0,
      "t_vol": 0,
      "t_timing": 0,
      "spk": 1,
      "role": 1,
      "note": 60,
      "velocity": 64,
      "energy": 20,
      "duration_s": 0.28
    },
    {
      "t": 198.02,
      "word": "getting",
      "f0_hz": 110.0,
      "pitch_bend": 0,
      "ternary": 0,
      "t_pitch": 0,
      "t_vol": 0,
      "t_timing": 0,
      "spk": 1,
      "role": 1,
      "note": 60,
      "velocity": 64,
      "energy": 20,
      "duration_s": 0.0
    },
    {
      "t": 198.02,
      "word": "our",
      "f0_hz": 110.0,
      "pitch_bend": 0,
      "ternary": 0,
      "t_pitch": 0,
      "t_vol": 0,
      "t_timing": 0,
      "spk": 1,
      "role": 1,
      "note": 60,
      "velocity": 64,
      "energy": 20,
      "duration_s": 0.34
    },
    {
      "t": 198.36,
      "word": "tractors,",
      "f0_hz": 110.0,
      "pitch_bend": 0,
      "ternary": 0,
      "t_pitch": 0,
      "t_vol": 0,
      "t_timing": 0,
      "spk": 1,
      "role": 1,
      "note": 60,
      "velocity": 64,
      "energy": 20,
      "duration_s": 0.4
    },
    {
      "t": 198.76,
      "word": "like",
      "f0_hz": 110.0,
      "pitch_bend": 0,
      "ternary": 0,
      "t_pitch": 0,
      "t_vol": 0,
      "t_timing": 0,
      "spk": 1,
      "role": 1,
      "note": 60,
      "velocity": 64,
      "energy": 20,
      "duration_s": 0.22
    },
    {
      "t": 198.98,
      "word": "separate",
      "f0_hz": 110.0,
      "pitch_bend": 0,
      "ternary": 0,
      "t_pitch": 0,
      "t_vol": 0,
      "t_timing": 0,
      "spk": 0,
      "role": 1,
      "note": 60,
      "velocity": 64,
      "energy": 20,
      "duration_s": 0.2
    },
    {
      "t": 199.18,
      "word": "tractors.",
      "f0_hz": 110.0,
      "pitch_bend": 0,
      "ternary": 0,
      "t_pitch": 0,
      "t_vol": 0,
      "t_timing": 0,
      "spk": 1,
      "role": 1,
      "note": 60,
      "velocity": 64,
      "energy": 20,
      "duration_s": 0.64
    },
    {
      "t": 200.0,
      "word": "You",
      "f0_hz": 130.0,
      "pitch_bend": 0,
      "ternary": 0,
      "t_pitch": 0,
      "t_vol": 0,
      "t_timing": 0,
      "spk": 1,
      "role": 1,
      "note": 60,
      "velocity": 64,
      "energy": 20,
      "duration_s": 0.0
    },
    {
      "t": 200.0,
      "word": "know,",
      "f0_hz": 110.0,
      "pitch_bend": 0,
      "ternary": 0,
      "t_pitch": 0,
      "t_vol": 0,
      "t_timing": 0,
      "spk": 1,
      "role": 1,
      "note": 60,
      "velocity": 64,
      "energy": 20,
      "duration_s": 0.24
    },
    {
      "t": 200.46,
      "word": "work",
      "f0_hz": 130.0,
      "pitch_bend": 0,
      "ternary": 0,
      "t_pitch": 0,
      "t_vol": 0,
      "t_timing": 0,
      "spk": 1,
      "role": 1,
      "note": 60,
      "velocity": 64,
      "energy": 20,
      "duration_s": 0.0
    },
    {
      "t": 200.46,
      "word": "all",
      "f0_hz": 110.0,
      "pitch_bend": 0,
      "ternary": 0,
      "t_pitch": 0,
      "t_vol": 0,
      "t_timing": 0,
      "spk": 1,
      "role": 1,
      "note": 60,
      "velocity": 64,
      "energy": 20,
      "duration_s": 0.24
    },
    {
      "t": 200.7,
      "word": "day,",
      "f0_hz": 110.0,
      "pitch_bend": 0,
      "ternary": 0,
      "t_pitch": 0,
      "t_vol": 0,
      "t_timing": 0,
      "spk": 1,
      "role": 1,
      "note": 60,
      "velocity": 64,
      "energy": 20,
      "duration_s": 0.64
    },
    {
      "t": 201.7,
      "word": "finish",
      "f0_hz": 110.0,
      "pitch_bend": 0,
      "ternary": 0,
      "t_pitch": 0,
      "t_vol": 0,
      "t_timing": 0,
      "spk": 1,
      "role": 1,
      "note": 60,
      "velocity": 64,
      "energy": 20,
      "duration_s": 0.04
    },
    {
      "t": 201.74,
      "word": "up,",
      "f0_hz": 110.0,
      "pitch_bend": 0,
      "ternary": 0,
      "t_pitch": 0,
      "t_vol": 0,
      "t_timing": 0,
      "spk": 1,
      "role": 1,
      "note": 60,
      "velocity": 64,
      "energy": 20,
      "duration_s": 0.24
    },
    {
      "t": 202.22,
      "word": "drive",
      "f0_hz": 110.0,
      "pitch_bend": 0,
      "ternary": 0,
      "t_pitch": 0,
      "t_vol": 0,
      "t_timing": 0,
      "spk": 1,
      "role": 1,
      "note": 60,
      "velocity": 64,
      "energy": 20,
      "duration_s": 0.0
    },
    {
      "t": 202.22,
      "word": "home,",
      "f0_hz": 130.0,
      "pitch_bend": 0,
      "ternary": 0,
      "t_pitch": 0,
      "t_vol": 0,
      "t_timing": 0,
      "spk": 1,
      "role": 1,
      "note": 60,
      "velocity": 64,
      "energy": 20,
      "duration_s": 0.26
    },
    {
      "t": 202.48,
      "word": "and",
      "f0_hz": 110.0,
      "pitch_bend": 0,
      "ternary": 0,
      "t_pitch": 0,
      "t_vol": 0,
      "t_timing": 0,
      "spk": 1,
      "role": 1,
      "note": 60,
      "velocity": 64,
      "energy": 20,
      "duration_s": 0.1
    },
    {
      "t": 202.58,
      "word": "then",
      "f0_hz": 110.0,
      "pitch_bend": 0,
      "ternary": 0,
      "t_pitch": 0,
      "t_vol": 0,
      "t_timing": 0,
      "spk": 1,
      "role": 1,
      "note": 60,
      "velocity": 64,
      "energy": 20,
      "duration_s": 0.12
    },
    {
      "t": 202.7,
      "word": "go",
      "f0_hz": 110.0,
      "pitch_bend": 0,
      "ternary": 0,
      "t_pitch": 0,
      "t_vol": 0,
      "t_timing": 0,
      "spk": 1,
      "role": 1,
      "note": 60,
      "velocity": 64,
      "energy": 20,
      "duration_s": 0.12
    },
    {
      "t": 202.82,
      "word": "back",
      "f0_hz": 110.0,
      "pitch_bend": 0,
      "ternary": 0,
      "t_pitch": 0,
      "t_vol": 0,
      "t_timing": 0,
      "spk": 1,
      "role": 1,
      "note": 60,
      "velocity": 64,
      "energy": 20,
      "duration_s": 0.24
    },
    {
      "t": 203.06,
      "word": "to",
      "f0_hz": 110.0,
      "pitch_bend": 0,
      "ternary": 0,
      "t_pitch": 0,
      "t_vol": 0,
      "t_timing": 0,
      "spk": 1,
      "role": 1,
      "note": 60,
      "velocity": 64,
      "energy": 20,
      "duration_s": 0.06
    },
    {
      "t": 203.12,
      "word": "our",
      "f0_hz": 110.0,
      "pitch_bend": 0,
      "ternary": 0,
      "t_pitch": 0,
      "t_vol": 0,
      "t_timing": 0,
      "spk": 1,
      "role": 1,
      "note": 60,
      "velocity": 64,
      "energy": 20,
      "duration_s": 0.3
    },
    {
      "t": 203.42,
      "word": "caravan.",
      "f0_hz": 110.0,
      "pitch_bend": 0,
      "ternary": 0,
      "t_pitch": 0,
      "t_vol": 0,
      "t_timing": 0,
      "spk": 1,
      "role": 1,
      "note": 60,
      "velocity": 64,
      "energy": 20,
      "duration_s": 0.18
    },
    {
      "t": 204.18,
      "word": "So",
      "f0_hz": 110.0,
      "pitch_bend": 0,
      "ternary": 0,
      "t_pitch": 0,
      "t_vol": 0,
      "t_timing": 0,
      "spk": 1,
      "role": 1,
      "note": 60,
      "velocity": 64,
      "energy": 20,
      "duration_s": 0.32
    },
    {
      "t": 204.5,
      "word": "pretty",
      "f0_hz": 110.0,
      "pitch_bend": 0,
      "ternary": 0,
      "t_pitch": 0,
      "t_vol": 0,
      "t_timing": 0,
      "spk": 1,
      "role": 1,
      "note": 60,
      "velocity": 64,
      "energy": 20,
      "duration_s": 0.14
    },
    {
      "t": 204.64,
      "word": "much,",
      "f0_hz": 110.0,
      "pitch_bend": 0,
      "ternary": 0,
      "t_pitch": 0,
      "t_vol": 0,
      "t_timing": 0,
      "spk": 1,
      "role": 1,
      "note": 60,
      "velocity": 64,
      "energy": 20,
      "duration_s": 0.26
    },
    {
      "t": 204.98,
      "word": "I",
      "f0_hz": 110.0,
      "pitch_bend": 0,
      "ternary": 0,
      "t_pitch": 0,
      "t_vol": 0,
      "t_timing": 0,
      "spk": 1,
      "role": 1,
      "note": 60,
      "velocity": 64,
      "energy": 20,
      "duration_s": 0.06
    },
    {
      "t": 205.04,
      "word": "would",
      "f0_hz": 130.0,
      "pitch_bend": 0,
      "ternary": 0,
      "t_pitch": 0,
      "t_vol": 0,
      "t_timing": 0,
      "spk": 1,
      "role": 1,
      "note": 60,
      "velocity": 64,
      "energy": 20,
      "duration_s": 0.16
    },
    {
      "t": 205.2,
      "word": "say,",
      "f0_hz": 110.0,
      "pitch_bend": 0,
      "ternary": 0,
      "t_pitch": 0,
      "t_vol": 0,
      "t_timing": 0,
      "spk": 1,
      "role": 1,
      "note": 60,
      "velocity": 64,
      "energy": 20,
      "duration_s": 0.22
    },
    {
      "t": 205.42,
      "word": "you",
      "f0_hz": 130.0,
      "pitch_bend": 0,
      "ternary": 0,
      "t_pitch": 0,
      "t_vol": 0,
      "t_timing": 0,
      "spk": 1,
      "role": 1,
      "note": 60,
      "velocity": 64,
      "energy": 20,
      "duration_s": 0.0
    },
    {
      "t": 205.42,
      "word": "know,",
      "f0_hz": 110.0,
      "pitch_bend": 0,
      "ternary": 0,
      "t_pitch": 0,
      "t_vol": 0,
      "t_timing": 0,
      "spk": 1,
      "role": 1,
      "note": 60,
      "velocity": 64,
      "energy": 20,
      "duration_s": 1.46
    },
    {
      "t": 206.88,
      "word": "95",
      "f0_hz": 110.0,
      "pitch_bend": 0,
      "ternary": 0,
      "t_pitch": 0,
      "t_vol": 0,
      "t_timing": 0,
      "spk": 1,
      "role": 1,
      "note": 60,
      "velocity": 64,
      "energy": 20,
      "duration_s": 0.0
    },
    {
      "t": 206.88,
      "word": "plus",
      "f0_hz": 110.0,
      "pitch_bend": 0,
      "ternary": 0,
      "t_pitch": 0,
      "t_vol": 0,
      "t_timing": 0,
      "spk": 1,
      "role": 1,
      "note": 60,
      "velocity": 64,
      "energy": 20,
      "duration_s": 0.92
    },
    {
      "t": 207.8,
      "word": "percent",
      "f0_hz": 110.0,
      "pitch_bend": 0,
      "ternary": 0,
      "t_pitch": 0,
      "t_vol": 0,
      "t_timing": 0,
      "spk": 0,
      "role": 1,
      "note": 60,
      "velocity": 64,
      "energy": 20,
      "duration_s": 0.28
    },
    {
      "t": 208.08,
      "word": "of",
      "f0_hz": 110.0,
      "pitch_bend": 0,
      "ternary": 0,
      "t_pitch": 0,
      "t_vol": 0,
      "t_timing": 0,
      "spk": 1,
      "role": 1,
      "note": 60,
      "velocity": 64,
      "energy": 20,
      "duration_s": 0.08
    },
    {
      "t": 208.16,
      "word": "my",
      "f0_hz": 110.0,
      "pitch_bend": 0,
      "ternary": 0,
      "t_pitch": 0,
      "t_vol": 0,
      "t_timing": 0,
      "spk": 1,
      "role": 1,
      "note": 60,
      "velocity": 64,
      "energy": 20,
      "duration_s": 0.18
    },
    {
      "t": 208.34,
      "word": "days",
      "f0_hz": 110.0,
      "pitch_bend": 0,
      "ternary": 0,
      "t_pitch": 0,
      "t_vol": 0,
      "t_timing": 0,
      "spk": 1,
      "role": 1,
      "note": 60,
      "velocity": 64,
      "energy": 20,
      "duration_s": 0.26
    },
    {
      "t": 208.6,
      "word": "are",
      "f0_hz": 110.0,
      "pitch_bend": 0,
      "ternary": 0,
      "t_pitch": 0,
      "t_vol": 0,
      "t_timing": 0,
      "spk": 0,
      "role": 1,
      "note": 60,
      "velocity": 64,
      "energy": 20,
      "duration_s": 0.22
    },
    {
      "t": 208.82,
      "word": "spent",
      "f0_hz": 110.0,
      "pitch_bend": 0,
      "ternary": 0,
      "t_pitch": 0,
      "t_vol": 0,
      "t_timing": 0,
      "spk": 1,
      "role": 1,
      "note": 60,
      "velocity": 64,
      "energy": 20,
      "duration_s": 0.16
    },
    {
      "t": 208.98,
      "word": "alone.",
      "f0_hz": 110.0,
      "pitch_bend": 0,
      "ternary": 0,
      "t_pitch": 0,
      "t_vol": 0,
      "t_timing": 0,
      "spk": 1,
      "role": 1,
      "note": 60,
      "velocity": 64,
      "energy": 20,
      "duration_s": 0.38
    },
    {
      "t": 209.66,
      "word": "Wow.",
      "f0_hz": 130.0,
      "pitch_bend": 0,
      "ternary": 0,
      "t_pitch": 0,
      "t_vol": 0,
      "t_timing": 0,
      "spk": 0,
      "role": 1,
      "note": 60,
      "velocity": 64,
      "energy": 20,
      "duration_s": 0.44
    },
    {
      "t": 210.14,
      "word": "And",
      "f0_hz": 110.0,
      "pitch_bend": 0,
      "ternary": 0,
      "t_pitch": 0,
      "t_vol": 0,
      "t_timing": 0,
      "spk": 1,
      "role": 1,
      "note": 60,
      "velocity": 64,
      "energy": 20,
      "duration_s": 0.44
    },
    {
      "t": 210.58,
      "word": "what's",
      "f0_hz": 130.0,
      "pitch_bend": 0,
      "ternary": 0,
      "t_pitch": 0,
      "t_vol": 0,
      "t_timing": 0,
      "spk": 1,
      "role": 1,
      "note": 60,
      "velocity": 64,
      "energy": 20,
      "duration_s": 0.3
    },
    {
      "t": 210.88,
      "word": "the",
      "f0_hz": 110.0,
      "pitch_bend": 0,
      "ternary": 0,
      "t_pitch": 0,
      "t_vol": 0,
      "t_timing": 0,
      "spk": 1,
      "role": 1,
      "note": 60,
      "velocity": 64,
      "energy": 20,
      "duration_s": 0.18
    },
    {
      "t": 211.06,
      "word": "work",
      "f0_hz": 130.0,
      "pitch_bend": 0,
      "ternary": 0,
      "t_pitch": 0,
      "t_vol": 0,
      "t_timing": 0,
      "spk": 1,
      "role": 1,
      "note": 60,
      "velocity": 64,
      "energy": 20,
      "duration_s": 0.24
    },
    {
      "t": 211.3,
      "word": "like",
      "f0_hz": 110.0,
      "pitch_bend": 0,
      "ternary": 0,
      "t_pitch": 0,
      "t_vol": 0,
      "t_timing": 0,
      "spk": 1,
      "role": 1,
      "note": 60,
      "velocity": 64,
      "energy": 20,
      "duration_s": 0.3
    },
    {
      "t": 211.6,
      "word": "it?",
      "f0_hz": 110.0,
      "pitch_bend": 0,
      "ternary": 1,
      "t_pitch": 1,
      "t_vol": 1,
      "t_timing": 1,
      "spk": 0,
      "role": 2,
      "note": 63,
      "velocity": 84,
      "energy": 80,
      "duration_s": 0.14
    },
    {
      "t": 211.8,
      "word": "Is",
      "f0_hz": 110.0,
      "pitch_bend": 0,
      "ternary": 0,
      "t_pitch": 0,
      "t_vol": 0,
      "t_timing": 0,
      "spk": 1,
      "role": 1,
      "note": 60,
      "velocity": 64,
      "energy": 20,
      "duration_s": 0.02
    },
    {
      "t": 211.82,
      "word": "it",
      "f0_hz": 110.0,
      "pitch_bend": 0,
      "ternary": 0,
      "t_pitch": 0,
      "t_vol": 0,
      "t_timing": 0,
      "spk": 1,
      "role": 1,
      "note": 60,
      "velocity": 64,
      "energy": 20,
      "duration_s": 0.22
    },
    {
      "t": 212.04,
      "word": "hard?",
      "f0_hz": 130.0,
      "pitch_bend": 0,
      "ternary": 1,
      "t_pitch": 1,
      "t_vol": 1,
      "t_timing": 1,
      "spk": 1,
      "role": 2,
      "note": 63,
      "velocity": 84,
      "energy": 80,
      "duration_s": 0.3
    },
    {
      "t": 212.5,
      "word": "What",
      "f0_hz": 130.0,
      "pitch_bend": 0,
      "ternary": 0,
      "t_pitch": 0,
      "t_vol": 0,
      "t_timing": 0,
      "spk": 1,
      "role": 1,
      "note": 60,
      "velocity": 64,
      "energy": 20,
      "duration_s": 0.0
    },
    {
      "t": 212.5,
      "word": "kind",
      "f0_hz": 110.0,
      "pitch_bend": 0,
      "ternary": 0,
      "t_pitch": 0,
      "t_vol": 0,
      "t_timing": 0,
      "spk": 1,
      "role": 1,
      "note": 60,
      "velocity": 64,
      "energy": 20,
      "duration_s": 0.2
    },
    {
      "t": 212.7,
      "word": "of",
      "f0_hz": 110.0,
      "pitch_bend": 0,
      "ternary": 0,
      "t_pitch": 0,
      "t_vol": 0,
      "t_timing": 0,
      "spk": 1,
      "role": 1,
      "note": 60,
      "velocity": 64,
      "energy": 20,
      "duration_s": 0.06
    },
    {
      "t": 212.76,
      "word": "tools",
      "f0_hz": 110.0,
      "pitch_bend": 0,
      "ternary": 0,
      "t_pitch": 0,
      "t_vol": 0,
      "t_timing": 0,
      "spk": 1,
      "role": 1,
      "note": 60,
      "velocity": 64,
      "energy": 20,
      "duration_s": 0.2
    },
    {
      "t": 212.96,
      "word": "are",
      "f0_hz": 110.0,
      "pitch_bend": 0,
      "ternary": 0,
      "t_pitch": 0,
      "t_vol": 0,
      "t_timing": 0,
      "spk": 1,
      "role": 1,
      "note": 60,
      "velocity": 64,
      "energy": 20,
      "duration_s": 0.18
    },
    {
      "t": 213.14,
      "word": "you",
      "f0_hz": 130.0,
      "pitch_bend": 0,
      "ternary": 0,
      "t_pitch": 0,
      "t_vol": 0,
      "t_timing": 0,
      "spk": 1,
      "role": 1,
      "note": 60,
      "velocity": 64,
      "energy": 20,
      "duration_s": 0.14
    },
    {
      "t": 213.28,
      "word": "using",
      "f0_hz": 110.0,
      "pitch_bend": 0,
      "ternary": 0,
      "t_pitch": 0,
      "t_vol": 0,
      "t_timing": 0,
      "spk": 1,
      "role": 1,
      "note": 60,
      "velocity": 64,
      "energy": 20,
      "duration_s": 0.24
    },
    {
      "t": 213.52,
      "word": "leaders",
      "f0_hz": 110.0,
      "pitch_bend": 0,
      "ternary": 0,
      "t_pitch": 0,
      "t_vol": 0,
      "t_timing": 0,
      "spk": 0,
      "role": 1,
      "note": 60,
      "velocity": 64,
      "energy": 20,
      "duration_s": 0.3
    },
    {
      "t": 213.82,
      "word": "through",
      "f0_hz": 110.0,
      "pitch_bend": 0,
      "ternary": 0,
      "t_pitch": 0,
      "t_vol": 0,
      "t_timing": 0,
      "spk": 1,
      "role": 1,
      "note": 60,
      "velocity": 64,
      "energy": 20,
      "duration_s": 0.24
    },
    {
      "t": 214.06,
      "word": "that?",
      "f0_hz": 110.0,
      "pitch_bend": 0,
      "ternary": 1,
      "t_pitch": 1,
      "t_vol": 1,
      "t_timing": 1,
      "spk": 1,
      "role": 2,
      "note": 63,
      "velocity": 84,
      "energy": 80,
      "duration_s": 0.54
    },
    {
      "t": 215.4,
      "word": "Changes",
      "f0_hz": 110.0,
      "pitch_bend": 0,
      "ternary": 0,
      "t_pitch": 0,
      "t_vol": 0,
      "t_timing": 0,
      "spk": 0,
      "role": 1,
      "note": 60,
      "velocity": 64,
      "energy": 20,
      "duration_s": 0.48
    },
    {
      "t": 215.88,
      "word": "day",
      "f0_hz": 110.0,
      "pitch_bend": 0,
      "ternary": 0,
      "t_pitch": 0,
      "t_vol": 0,
      "t_timing": 0,
      "spk": 1,
      "role": 1,
      "note": 60,
      "velocity": 64,
      "energy": 20,
      "duration_s": 0.48
    },
    {
      "t": 216.36,
      "word": "to",
      "f0_hz": 110.0,
      "pitch_bend": 0,
      "ternary": 0,
      "t_pitch": 0,
      "t_vol": 0,
      "t_timing": 0,
      "spk": 1,
      "role": 1,
      "note": 60,
      "velocity": 64,
      "energy": 20,
      "duration_s": 0.66
    },
    {
      "t": 217.02,
      "word": "day,",
      "f0_hz": 110.0,
      "pitch_bend": 0,
      "ternary": 0,
      "t_pitch": 0,
      "t_vol": 0,
      "t_timing": 0,
      "spk": 1,
      "role": 1,
      "note": 60,
      "velocity": 64,
      "energy": 20,
      "duration_s": 0.0
    },
    {
      "t": 217.08,
      "word": "hopefully.",
      "f0_hz": 130.0,
      "pitch_bend": 0,
      "ternary": 0,
      "t_pitch": 0,
      "t_vol": 0,
      "t_timing": 0,
      "spk": 1,
      "role": 1,
      "note": 60,
      "velocity": 64,
      "energy": 20,
      "duration_s": 0.48
    },
    {
      "t": 217.68,
      "word": "On",
      "f0_hz": 110.0,
      "pitch_bend": 0,
      "ternary": 0,
      "t_pitch": 0,
      "t_vol": 0,
      "t_timing": 0,
      "spk": 1,
      "role": 1,
      "note": 60,
      "velocity": 64,
      "energy": 20,
      "duration_s": 0.14
    },
    {
      "t": 217.82,
      "word": "a",
      "f0_hz": 110.0,
      "pitch_bend": 0,
      "ternary": 0,
      "t_pitch": 0,
      "t_vol": 0,
      "t_timing": 0,
      "spk": 1,
      "role": 1,
      "note": 60,
      "velocity": 64,
      "energy": 20,
      "duration_s": 0.14
    },
    {
      "t": 217.96,
      "word": "good",
      "f0_hz": 110.0,
      "pitch_bend": 0,
      "ternary": 0,
      "t_pitch": 0,
      "t_vol": 0,
      "t_timing": 0,
      "spk": 1,
      "role": 1,
      "note": 60,
      "velocity": 64,
      "energy": 20,
      "duration_s": 0.24
    },
    {
      "t": 218.2,
      "word": "day,",
      "f0_hz": 110.0,
      "pitch_bend": 0,
      "ternary": 0,
      "t_pitch": 0,
      "t_vol": 0,
      "t_timing": 0,
      "spk": 1,
      "role": 1,
      "note": 60,
      "velocity": 64,
      "energy": 20,
      "duration_s": 0.42
    },
    {
      "t": 218.74,
      "word": "it's",
      "f0_hz": 110.0,
      "pitch_bend": 0,
      "ternary": 0,
      "t_pitch": 0,
      "t_vol": 0,
      "t_timing": 0,
      "spk": 1,
      "role": 1,
      "note": 60,
      "velocity": 64,
      "energy": 20,
      "duration_s": 0.02
    },
    {
      "t": 218.76,
      "word": "sending",
      "f0_hz": 110.0,
      "pitch_bend": 0,
      "ternary": 0,
      "t_pitch": 0,
      "t_vol": 0,
      "t_timing": 0,
      "spk": 1,
      "role": 1,
      "note": 60,
      "velocity": 64,
      "energy": 20,
      "duration_s": 0.2
    },
    {
      "t": 218.96,
      "word": "in",
      "f0_hz": 110.0,
      "pitch_bend": 0,
      "ternary": 0,
      "t_pitch": 0,
      "t_vol": 0,
      "t_timing": 0,
      "spk": 1,
      "role": 1,
      "note": 60,
      "velocity": 64,
      "energy": 20,
      "duration_s": 0.56
    },
    {
      "t": 219.52,
      "word": "an",
      "f0_hz": 110.0,
      "pitch_bend": 0,
      "ternary": 0,
      "t_pitch": 0,
      "t_vol": 0,
      "t_timing": 0,
      "spk": 1,
      "role": 1,
      "note": 60,
      "velocity": 64,
      "energy": 20,
      "duration_s": 0.14
    },
    {
      "t": 219.66,
      "word": "air",
      "f0_hz": 110.0,
      "pitch_bend": 0,
      "ternary": 0,
      "t_pitch": 0,
      "t_vol": 0,
      "t_timing": 0,
      "spk": 0,
      "role": 1,
      "note": 60,
      "velocity": 64,
      "energy": 20,
      "duration_s": 0.22
    },
    {
      "t": 219.88,
      "word": "-conned",
      "f0_hz": 110.0,
      "pitch_bend": 0,
      "ternary": 0,
      "t_pitch": 0,
      "t_vol": 0,
      "t_timing": 0,
      "spk": 1,
      "role": 1,
      "note": 60,
      "velocity": 64,
      "energy": 20,
      "duration_s": 0.8
    },
    {
      "t": 220.68,
      "word": "tractor",
      "f0_hz": 110.0,
      "pitch_bend": 0,
      "ternary": 0,
      "t_pitch": 0,
      "t_vol": 0,
      "t_timing": 0,
      "spk": 1,
      "role": 1,
      "note": 60,
      "velocity": 64,
      "energy": 20,
      "duration_s": 0.28
    },
    {
      "t": 220.96,
      "word": "cab.",
      "f0_hz": 110.0,
      "pitch_bend": 0,
      "ternary": 0,
      "t_pitch": 0,
      "t_vol": 0,
      "t_timing": 0,
      "spk": 1,
      "role": 1,
      "note": 60,
      "velocity": 64,
      "energy": 20,
      "duration_s": 0.6
    },
    {
      "t": 221.88,
      "word": "And",
      "f0_hz": 110.0,
      "pitch_bend": 0,
      "ternary": 0,
      "t_pitch": 0,
      "t_vol": 0,
      "t_timing": 0,
      "spk": 0,
      "role": 1,
      "note": 60,
      "velocity": 64,
      "energy": 20,
      "duration_s": 0.16
    },
    {
      "t": 222.04,
      "word": "everything's",
      "f0_hz": 110.0,
      "pitch_bend": 0,
      "ternary": 0,
      "t_pitch": 0,
      "t_vol": 0,
      "t_timing": 0,
      "spk": 1,
      "role": 1,
      "note": 60,
      "velocity": 64,
      "energy": 20,
      "duration_s": 0.42
    },
    {
      "t": 222.46,
      "word": "running",
      "f0_hz": 110.0,
      "pitch_bend": 0,
      "ternary": 0,
      "t_pitch": 0,
      "t_vol": 0,
      "t_timing": 0,
      "spk": 0,
      "role": 1,
      "note": 60,
      "velocity": 64,
      "energy": 20,
      "duration_s": 0.2
    },
    {
      "t": 222.66,
      "word": "smooth",
      "f0_hz": 110.0,
      "pitch_bend": 0,
      "ternary": 0,
      "t_pitch": 0,
      "t_vol": 0,
      "t_timing": 0,
      "spk": 1,
      "role": 1,
      "note": 60,
      "velocity": 64,
      "energy": 20,
      "duration_s": 0.42
    },
    {
      "t": 223.08,
      "word": "in.",
      "f0_hz": 110.0,
      "pitch_bend": 0,
      "ternary": 0,
      "t_pitch": 0,
      "t_vol": 0,
      "t_timing": 0,
      "spk": 1,
      "role": 1,
      "note": 60,
      "velocity": 64,
      "energy": 20,
      "duration_s": 0.42
    },
    {
      "t": 223.76,
      "word": "You",
      "f0_hz": 130.0,
      "pitch_bend": 0,
      "ternary": 0,
      "t_pitch": 0,
      "t_vol": 0,
      "t_timing": 0,
      "spk": 1,
      "role": 1,
      "note": 60,
      "velocity": 64,
      "energy": 20,
      "duration_s": 0.06
    },
    {
      "t": 223.82,
      "word": "sort",
      "f0_hz": 110.0,
      "pitch_bend": 0,
      "ternary": 0,
      "t_pitch": 0,
      "t_vol": 0,
      "t_timing": 0,
      "spk": 0,
      "role": 1,
      "note": 60,
      "velocity": 64,
      "energy": 20,
      "duration_s": 0.06
    },
    {
      "t": 223.88,
      "word": "of",
      "f0_hz": 110.0,
      "pitch_bend": 0,
      "ternary": 0,
      "t_pitch": 0,
      "t_vol": 0,
      "t_timing": 0,
      "spk": 1,
      "role": 1,
      "note": 60,
      "velocity": 64,
      "energy": 20,
      "duration_s": 0.12
    },
    {
      "t": 224.0,
      "word": "get",
      "f0_hz": 110.0,
      "pitch_bend": 0,
      "ternary": 0,
      "t_pitch": 0,
      "t_vol": 0,
      "t_timing": 0,
      "spk": 1,
      "role": 1,
      "note": 60,
      "velocity": 64,
      "energy": 20,
      "duration_s": 0.12
    },
    {
      "t": 224.12,
      "word": "in",
      "f0_hz": 110.0,
      "pitch_bend": 0,
      "ternary": 0,
      "t_pitch": 0,
      "t_vol": 0,
      "t_timing": 0,
      "spk": 1,
      "role": 1,
      "note": 60,
      "velocity": 64,
      "energy": 20,
      "duration_s": 0.16
    },
    {
      "t": 224.28,
      "word": "the",
      "f0_hz": 110.0,
      "pitch_bend": 0,
      "ternary": 0,
      "t_pitch": 0,
      "t_vol": 0,
      "t_timing": 0,
      "spk": 1,
      "role": 1,
      "note": 60,
      "velocity": 64,
      "energy": 20,
      "duration_s": 0.16
    },
    {
      "t": 224.44,
      "word": "morning,",
      "f0_hz": 110.0,
      "pitch_bend": 0,
      "ternary": 0,
      "t_pitch": 0,
      "t_vol": 0,
      "t_timing": 0,
      "spk": 1,
      "role": 1,
      "note": 60,
      "velocity": 64,
      "energy": 20,
      "duration_s": 0.24
    },
    {
      "t": 224.8,
      "word": "get",
      "f0_hz": 110.0,
      "pitch_bend": 0,
      "ternary": 0,
      "t_pitch": 0,
      "t_vol": 0,
      "t_timing": 0,
      "spk": 1,
      "role": 1,
      "note": 60,
      "velocity": 64,
      "energy": 20,
      "duration_s": 0.06
    },
    {
      "t": 224.86,
      "word": "out",
      "f0_hz": 110.0,
      "pitch_bend": 0,
      "ternary": 0,
      "t_pitch": 0,
      "t_vol": 0,
      "t_timing": 0,
      "spk": 1,
      "role": 1,
      "note": 60,
      "velocity": 64,
      "energy": 20,
      "duration_s": 0.12
    },
    {
      "t": 224.98,
      "word": "in",
      "f0_hz": 110.0,
      "pitch_bend": 0,
      "ternary": 0,
      "t_pitch": 0,
      "t_vol": 0,
      "t_timing": 0,
      "spk": 0,
      "role": 1,
      "note": 60,
      "velocity": 64,
      "energy": 20,
      "duration_s": 0.12
    },
    {
      "t": 225.1,
      "word": "the",
      "f0_hz": 110.0,
      "pitch_bend": 0,
      "ternary": 0,
      "t_pitch": 0,
      "t_vol": 0,
      "t_timing": 0,
      "spk": 1,
      "role": 1,
      "note": 60,
      "velocity": 64,
      "energy": 20,
      "duration_s": 0.06
    },
    {
      "t": 225.16,
      "word": "afternoon.",
      "f0_hz": 110.0,
      "pitch_bend": 0,
      "ternary": 0,
      "t_pitch": 0,
      "t_vol": 0,
      "t_timing": 0,
      "spk": 1,
      "role": 1,
      "note": 60,
      "velocity": 64,
      "energy": 20,
      "duration_s": 0.48
    },
    {
      "t": 226.02,
      "word": "And",
      "f0_hz": 110.0,
      "pitch_bend": 0,
      "ternary": 0,
      "t_pitch": 0,
      "t_vol": 0,
      "t_timing": 0,
      "spk": 1,
      "role": 1,
      "note": 60,
      "velocity": 64,
      "energy": 20,
      "duration_s": 0.18
    },
    {
      "t": 226.2,
      "word": "it's",
      "f0_hz": 110.0,
      "pitch_bend": 0,
      "ternary": 0,
      "t_pitch": 0,
      "t_vol": 0,
      "t_timing": 0,
      "spk": 1,
      "role": 1,
      "note": 60,
      "velocity": 64,
      "energy": 20,
      "duration_s": 0.14
    },
    {
      "t": 226.34,
      "word": "just",
      "f0_hz": 110.0,
      "pitch_bend": 0,
      "ternary": 0,
      "t_pitch": 0,
      "t_vol": 0,
      "t_timing": 0,
      "spk": 1,
      "role": 1,
      "note": 60,
      "velocity": 64,
      "energy": 20,
      "duration_s": 0.24
    },
    {
      "t": 226.58,
      "word": "up",
      "f0_hz": 110.0,
      "pitch_bend": 0,
      "ternary": 0,
      "t_pitch": 0,
      "t_vol": 0,
      "t_timing": 0,
      "spk": 1,
      "role": 1,
      "note": 60,
      "velocity": 64,
      "energy": 20,
      "duration_s": 0.28
    },
    {
      "t": 226.86,
      "word": "operating,",
      "f0_hz": 110.0,
      "pitch_bend": 0,
      "ternary": 0,
      "t_pitch": 0,
      "t_vol": 0,
      "t_timing": 0,
      "spk": 1,
      "role": 1,
      "note": 60,
      "velocity": 64,
      "energy": 20,
      "duration_s": 0.54
    },
    {
      "t": 227.4,
      "word": "you",
      "f0_hz": 130.0,
      "pitch_bend": 0,
      "ternary": 0,
      "t_pitch": 0,
      "t_vol": 0,
      "t_timing": 0,
      "spk": 1,
      "role": 1,
      "note": 60,
      "velocity": 64,
      "energy": 20,
      "duration_s": 0.0
    },
    {
      "t": 227.4,
      "word": "know,",
      "f0_hz": 110.0,
      "pitch_bend": 0,
      "ternary": 0,
      "t_pitch": 0,
      "t_vol": 0,
      "t_timing": 0,
      "spk": 1,
      "role": 1,
      "note": 60,
      "velocity": 64,
      "energy": 20,
      "duration_s": 0.78
    },
    {
      "t": 228.64,
      "word": "30,",
      "f0_hz": 110.0,
      "pitch_bend": 0,
      "ternary": 0,
      "t_pitch": 0,
      "t_vol": 0,
      "t_timing": 0,
      "spk": 1,
      "role": 1,
      "note": 60,
      "velocity": 64,
      "energy": 20,
      "duration_s": 0.0
    },
    {
      "t": 228.66,
      "word": "40",
      "f0_hz": 110.0,
      "pitch_bend": 0,
      "ternary": 0,
      "t_pitch": 0,
      "t_vol": 0,
      "t_timing": 0,
      "spk": 1,
      "role": 1,
      "note": 60,
      "velocity": 64,
      "energy": 20,
      "duration_s": 0.24
    },
    {
      "t": 228.9,
      "word": "ton",
      "f0_hz": 110.0,
      "pitch_bend": 0,
      "ternary": 0,
      "t_pitch": 0,
      "t_vol": 0,
      "t_timing": 0,
      "spk": 1,
      "role": 1,
      "note": 60,
      "velocity": 64,
      "energy": 20,
      "duration_s": 0.42
    },
    {
      "t": 229.32,
      "word": "machinery.",
      "f0_hz": 110.0,
      "pitch_bend": 0,
      "ternary": 0,
      "t_pitch": 0,
      "t_vol": 0,
      "t_timing": 0,
      "spk": 1,
      "role": 1,
      "note": 60,
      "velocity": 64,
      "energy": 20,
      "duration_s": 0.54
    },
    {
      "t": 231.22,
      "word": "But",
      "f0_hz": 110.0,
      "pitch_bend": 0,
      "ternary": 0,
      "t_pitch": 0,
      "t_vol": 0,
      "t_timing": 0,
      "spk": 1,
      "role": 1,
      "note": 60,
      "velocity": 64,
      "energy": 20,
      "duration_s": 0.48
    },
    {
      "t": 231.7,
      "word": "if",
      "f0_hz": 110.0,
      "pitch_bend": 0,
      "ternary": 0,
      "t_pitch": 0,
      "t_vol": 0,
      "t_timing": 0,
      "spk": 1,
      "role": 1,
      "note": 60,
      "velocity": 64,
      "energy": 20,
      "duration_s": 0.48
    },
    {
      "t": 232.18,
      "word": "you",
      "f0_hz": 130.0,
      "pitch_bend": 0,
      "ternary": 0,
      "t_pitch": 0,
      "t_vol": 0,
      "t_timing": 0,
      "spk": 1,
      "role": 1,
      "note": 60,
      "velocity": 64,
      "energy": 20,
      "duration_s": 0.1
    },
    {
      "t": 232.28,
      "word": "have",
      "f0_hz": 130.0,
      "pitch_bend": 0,
      "ternary": 0,
      "t_pitch": 0,
      "t_vol": 0,
      "t_timing": 0,
      "spk": 1,
      "role": 1,
      "note": 60,
      "velocity": 64,
      "energy": 20,
      "duration_s": 0.16
    },
    {
      "t": 232.44,
      "word": "a",
      "f0_hz": 110.0,
      "pitch_bend": 0,
      "ternary": 0,
      "t_pitch": 0,
      "t_vol": 0,
      "t_timing": 0,
      "spk": 1,
      "role": 1,
      "note": 60,
      "velocity": 64,
      "energy": 20,
      "duration_s": 0.4
    },
    {
      "t": 232.84,
      "word": "breakdown",
      "f0_hz": 110.0,
      "pitch_bend": 0,
      "ternary": 0,
      "t_pitch": 0,
      "t_vol": 0,
      "t_timing": 0,
      "spk": 1,
      "role": 1,
      "note": 60,
      "velocity": 64,
      "energy": 20,
      "duration_s": 0.4
    },
    {
      "t": 233.24,
      "word": "or",
      "f0_hz": 110.0,
      "pitch_bend": 0,
      "ternary": 0,
      "t_pitch": 0,
      "t_vol": 0,
      "t_timing": 0,
      "spk": 1,
      "role": 1,
      "note": 60,
      "velocity": 64,
      "energy": 20,
      "duration_s": 0.26
    },
    {
      "t": 233.5,
      "word": "something",
      "f0_hz": 110.0,
      "pitch_bend": 0,
      "ternary": 0,
      "t_pitch": 0,
      "t_vol": 0,
      "t_timing": 0,
      "spk": 1,
      "role": 1,
      "note": 60,
      "velocity": 64,
      "energy": 20,
      "duration_s": 0.24
    },
    {
      "t": 233.74,
      "word": "goes",
      "f0_hz": 110.0,
      "pitch_bend": 0,
      "ternary": 0,
      "t_pitch": 0,
      "t_vol": 0,
      "t_timing": 0,
      "spk": 1,
      "role": 1,
      "note": 60,
      "velocity": 64,
      "energy": 20,
      "duration_s": 0.26
    },
    {
      "t": 234.0,
      "word": "wrong,",
      "f0_hz": 130.0,
      "pitch_bend": 0,
      "ternary": 0,
      "t_pitch": 0,
      "t_vol": 0,
      "t_timing": 0,
      "spk": 1,
      "role": 1,
      "note": 60,
      "velocity": 64,
      "energy": 20,
      "duration_s": 0.28
    },
    {
      "t": 234.5,
      "word": "it",
      "f0_hz": 110.0,
      "pitch_bend": 0,
      "ternary": 0,
      "t_pitch": 0,
      "t_vol": 0,
      "t_timing": 0,
      "spk": 1,
      "role": 1,
      "note": 60,
      "velocity": 64,
      "energy": 20,
      "duration_s": 0.0
    },
    {
      "t": 234.5,
      "word": "can",
      "f0_hz": 110.0,
      "pitch_bend": 0,
      "ternary": 0,
      "t_pitch": 0,
      "t_vol": 0,
      "t_timing": 0,
      "spk": 1,
      "role": 1,
      "note": 60,
      "velocity": 64,
      "energy": 20,
      "duration_s": 0.82
    },
    {
      "t": 235.32,
      "word": "change",
      "f0_hz": 110.0,
      "pitch_bend": 0,
      "ternary": 0,
      "t_pitch": 0,
      "t_vol": 0,
      "t_timing": 0,
      "spk": 1,
      "role": 1,
      "note": 60,
      "velocity": 64,
      "energy": 20,
      "duration_s": 0.28
    },
    {
      "t": 235.6,
      "word": "very",
      "f0_hz": 110.0,
      "pitch_bend": 0,
      "ternary": 0,
      "t_pitch": 0,
      "t_vol": 0,
      "t_timing": 0,
      "spk": 1,
      "role": 1,
      "note": 60,
      "velocity": 64,
      "energy": 20,
      "duration_s": 0.22
    },
    {
      "t": 235.82,
      "word": "quickly.",
      "f0_hz": 110.0,
      "pitch_bend": 0,
      "ternary": 0,
      "t_pitch": 0,
      "t_vol": 0,
      "t_timing": 0,
      "spk": 1,
      "role": 1,
      "note": 60,
      "velocity": 64,
      "energy": 20,
      "duration_s": 0.3
    },
    {
      "t": 236.26,
      "word": "And",
      "f0_hz": 110.0,
      "pitch_bend": 0,
      "ternary": 0,
      "t_pitch": 0,
      "t_vol": 0,
      "t_timing": 0,
      "spk": 1,
      "role": 1,
      "note": 60,
      "velocity": 64,
      "energy": 20,
      "duration_s": 0.02
    },
    {
      "t": 236.28,
      "word": "then",
      "f0_hz": 110.0,
      "pitch_bend": 0,
      "ternary": 0,
      "t_pitch": 0,
      "t_vol": 0,
      "t_timing": 0,
      "spk": 1,
      "role": 1,
      "note": 60,
      "velocity": 64,
      "energy": 20,
      "duration_s": 0.1
    },
    {
      "t": 236.38,
      "word": "you",
      "f0_hz": 130.0,
      "pitch_bend": 0,
      "ternary": 0,
      "t_pitch": 0,
      "t_vol": 0,
      "t_timing": 0,
      "spk": 1,
      "role": 1,
      "note": 60,
      "velocity": 64,
      "energy": 20,
      "duration_s": 0.02
    },
    {
      "t": 236.4,
      "word": "can",
      "f0_hz": 110.0,
      "pitch_bend": 0,
      "ternary": 0,
      "t_pitch": 0,
      "t_vol": 0,
      "t_timing": 0,
      "spk": 1,
      "role": 1,
      "note": 60,
      "velocity": 64,
      "energy": 20,
      "duration_s": 0.12
    },
    {
      "t": 236.52,
      "word": "be",
      "f0_hz": 110.0,
      "pitch_bend": 0,
      "ternary": 0,
      "t_pitch": 0,
      "t_vol": 0,
      "t_timing": 0,
      "spk": 1,
      "role": 1,
      "note": 60,
      "velocity": 64,
      "energy": 20,
      "duration_s": 0.18
    },
    {
      "t": 236.7,
      "word": "swinging",
      "f0_hz": 110.0,
      "pitch_bend": 0,
      "ternary": 0,
      "t_pitch": 0,
      "t_vol": 0,
      "t_timing": 0,
      "spk": 1,
      "role": 1,
      "note": 60,
      "velocity": 64,
      "energy": 20,
      "duration_s": 0.18
    },
    {
      "t": 236.88,
      "word": "off",
      "f0_hz": 110.0,
      "pitch_bend": 0,
      "ternary": 0,
      "t_pitch": 0,
      "t_vol": 0,
      "t_timing": 0,
      "spk": 1,
      "role": 1,
      "note": 60,
      "velocity": 64,
      "energy": 20,
      "duration_s": 0.58
    },
    {
      "t": 237.46,
      "word": "spanners",
      "f0_hz": 110.0,
      "pitch_bend": 0,
      "ternary": 0,
      "t_pitch": 0,
      "t_vol": 0,
      "t_timing": 0,
      "spk": 1,
      "role": 1,
      "note": 60,
      "velocity": 64,
      "energy": 20,
      "duration_s": 0.44
    },
    {
      "t": 237.9,
      "word": "in",
      "f0_hz": 110.0,
      "pitch_bend": 0,
      "ternary": 0,
      "t_pitch": 0,
      "t_vol": 0,
      "t_timing": 0,
      "spk": 1,
      "role": 1,
      "note": 60,
      "velocity": 64,
      "energy": 20,
      "duration_s": 0.58
    },
    {
      "t": 238.48,
      "word": "the",
      "f0_hz": 110.0,
      "pitch_bend": 0,
      "ternary": 0,
      "t_pitch": 0,
      "t_vol": 0,
      "t_timing": 0,
      "spk": 1,
      "role": 1,
      "note": 60,
      "velocity": 64,
      "energy": 20,
      "duration_s": 0.12
    },
    {
      "t": 238.6,
      "word": "middle",
      "f0_hz": 110.0,
      "pitch_bend": 0,
      "ternary": 0,
      "t_pitch": 0,
      "t_vol": 0,
      "t_timing": 0,
      "spk": 1,
      "role": 1,
      "note": 60,
      "velocity": 64,
      "energy": 20,
      "duration_s": 0.18
    },
    {
      "t": 238.78,
      "word": "of",
      "f0_hz": 110.0,
      "pitch_bend": 0,
      "ternary": 0,
      "t_pitch": 0,
      "t_vol": 0,
      "t_timing": 0,
      "spk": 1,
      "role": 1,
      "note": 60,
      "velocity": 64,
      "energy": 20,
      "duration_s": 0.24
    },
    {
      "t": 239.02,
      "word": "the",
      "f0_hz": 110.0,
      "pitch_bend": 0,
      "ternary": 0,
      "t_pitch": 0,
      "t_vol": 0,
      "t_timing": 0,
      "spk": 1,
      "role": 1,
      "note": 60,
      "velocity": 64,
      "energy": 20,
      "duration_s": 0.12
    },
    {
      "t": 239.14,
      "word": "sun,",
      "f0_hz": 110.0,
      "pitch_bend": 0,
      "ternary": 0,
      "t_pitch": 0,
      "t_vol": 0,
      "t_timing": 0,
      "spk": 1,
      "role": 1,
      "note": 60,
      "velocity": 64,
      "energy": 20,
      "duration_s": 0.24
    },
    {
      "t": 239.5,
      "word": "things",
      "f0_hz": 110.0,
      "pitch_bend": 0,
      "ternary": 0,
      "t_pitch": 0,
      "t_vol": 0,
      "t_timing": 0,
      "spk": 1,
      "role": 1,
      "note": 60,
      "velocity": 64,
      "energy": 20,
      "duration_s": 0.2
    },
    {
      "t": 239.7,
      "word": "like",
      "f0_hz": 110.0,
      "pitch_bend": 0,
      "ternary": 0,
      "t_pitch": 0,
      "t_vol": 0,
      "t_timing": 0,
      "spk": 1,
      "role": 1,
      "note": 60,
      "velocity": 64,
      "energy": 20,
      "duration_s": 0.22
    },
    {
      "t": 239.92,
      "word": "that.",
      "f0_hz": 110.0,
      "pitch_bend": 0,
      "ternary": 0,
      "t_pitch": 0,
      "t_vol": 0,
      "t_timing": 0,
      "spk": 1,
      "role": 1,
      "note": 60,
      "velocity": 64,
      "energy": 20,
      "duration_s": 0.28
    },
    {
      "t": 240.2,
      "word": "So",
      "f0_hz": 110.0,
      "pitch_bend": 0,
      "ternary": 0,
      "t_pitch": 0,
      "t_vol": 0,
      "t_timing": 0,
      "spk": 1,
      "role": 1,
      "note": 60,
      "velocity": 64,
      "energy": 20,
      "duration_s": 0.7
    },
    {
      "t": 240.9,
      "word": "you're",
      "f0_hz": 130.0,
      "pitch_bend": 0,
      "ternary": 0,
      "t_pitch": 0,
      "t_vol": 0,
      "t_timing": 0,
      "spk": 1,
      "role": 1,
      "note": 60,
      "velocity": 64,
      "energy": 20,
      "duration_s": 0.5
    },
    {
      "t": 241.4,
      "word": "giving",
      "f0_hz": 110.0,
      "pitch_bend": 0,
      "ternary": 0,
      "t_pitch": 0,
      "t_vol": 0,
      "t_timing": 0,
      "spk": 1,
      "role": 1,
      "note": 60,
      "velocity": 64,
      "energy": 20,
      "duration_s": 0.06
    },
    {
      "t": 241.46,
      "word": "me",
      "f0_hz": 110.0,
      "pitch_bend": 0,
      "ternary": 0,
      "t_pitch": 0,
      "t_vol": 0,
      "t_timing": 0,
      "spk": 1,
      "role": 1,
      "note": 60,
      "velocity": 64,
      "energy": 20,
      "duration_s": 0.18
    },
    {
      "t": 241.64,
      "word": "this",
      "f0_hz": 110.0,
      "pitch_bend": 0,
      "ternary": 0,
      "t_pitch": 0,
      "t_vol": 0,
      "t_timing": 0,
      "spk": 1,
      "role": 1,
      "note": 60,
      "velocity": 64,
      "energy": 20,
      "duration_s": 0.18
    },
    {
      "t": 241.82,
      "word": "mental",
      "f0_hz": 110.0,
      "pitch_bend": 0,
      "ternary": 0,
      "t_pitch": 0,
      "t_vol": 0,
      "t_timing": 0,
      "spk": 1,
      "role": 1,
      "note": 60,
      "velocity": 64,
      "energy": 20,
      "duration_s": 0.32
    },
    {
      "t": 242.14,
      "word": "image",
      "f0_hz": 110.0,
      "pitch_bend": 0,
      "ternary": 0,
      "t_pitch": 0,
      "t_vol": 0,
      "t_timing": 0,
      "spk": 1,
      "role": 1,
      "note": 60,
      "velocity": 64,
      "energy": 20,
      "duration_s": 0.5
    },
    {
      "t": 242.64,
      "word": "of",
      "f0_hz": 110.0,
      "pitch_bend": 0,
      "ternary": 0,
      "t_pitch": 0,
      "t_vol": 0,
      "t_timing": 0,
      "spk": 1,
      "role": 1,
      "note": 60,
      "velocity": 64,
      "energy": 20,
      "duration_s": 0.48
    },
    {
      "t": 243.12,
      "word": "you",
      "f0_hz": 130.0,
      "pitch_bend": 0,
      "ternary": 0,
      "t_pitch": 0,
      "t_vol": 0,
      "t_timing": 0,
      "spk": 1,
      "role": 1,
      "note": 60,
      "velocity": 64,
      "energy": 20,
      "duration_s": 0.4
    },
    {
      "t": 243.52,
      "word": "working",
      "f0_hz": 130.0,
      "pitch_bend": 0,
      "ternary": 0,
      "t_pitch": 0,
      "t_vol": 0,
      "t_timing": 0,
      "spk": 1,
      "role": 1,
      "note": 60,
      "velocity": 64,
      "energy": 20,
      "duration_s": 0.3
    },
    {
      "t": 243.82,
      "word": "with",
      "f0_hz": 130.0,
      "pitch_bend": 0,
      "ternary": 0,
      "t_pitch": 0,
      "t_vol": 0,
      "t_timing": 0,
      "spk": 1,
      "role": 1,
      "note": 60,
      "velocity": 64,
      "energy": 20,
      "duration_s": 0.26
    },
    {
      "t": 244.08,
      "word": "your",
      "f0_hz": 130.0,
      "pitch_bend": 0,
      "ternary": 0,
      "t_pitch": 0,
      "t_vol": 0,
      "t_timing": 0,
      "spk": 1,
      "role": 1,
      "note": 60,
      "velocity": 64,
      "energy": 20,
      "duration_s": 0.18
    },
    {
      "t": 244.26,
      "word": "stepdad.",
      "f0_hz": 110.0,
      "pitch_bend": 0,
      "ternary": 0,
      "t_pitch": 0,
      "t_vol": 0,
      "t_timing": 0,
      "spk": 0,
      "role": 1,
      "note": 60,
      "velocity": 64,
      "energy": 20,
      "duration_s": 0.58
    },
    {
      "t": 245.1,
      "word": "That's",
      "f0_hz": 110.0,
      "pitch_bend": 0,
      "ternary": 0,
      "t_pitch": 0,
      "t_vol": 0,
      "t_timing": 0,
      "spk": 1,
      "role": 1,
      "note": 60,
      "velocity": 64,
      "energy": 20,
      "duration_s": 0.56
    },
    {
      "t": 245.66,
      "word": "already",
      "f0_hz": 110.0,
      "pitch_bend": 0,
      "ternary": 0,
      "t_pitch": 0,
      "t_vol": 0,
      "t_timing": 0,
      "spk": 1,
      "role": 1,
      "note": 60,
      "velocity": 64,
      "energy": 20,
      "duration_s": 0.8
    },
    {
      "t": 246.46,
      "word": "isolated",
      "f0_hz": 110.0,
      "pitch_bend": 0,
      "ternary": 0,
      "t_pitch": 0,
      "t_vol": 0,
      "t_timing": 0,
      "spk": 1,
      "role": 1,
      "note": 60,
      "velocity": 64,
      "energy": 20,
      "duration_s": 0.76
    },
    {
      "t": 247.22,
      "word": "and",
      "f0_hz": 110.0,
      "pitch_bend": 0,
      "ternary": 0,
      "t_pitch": 0,
      "t_vol": 0,
      "t_timing": 0,
      "spk": 1,
      "role": 1,
      "note": 60,
      "velocity": 64,
      "energy": 20,
      "duration_s": 0.26
    },
    {
      "t": 247.48,
      "word": "alone",
      "f0_hz": 110.0,
      "pitch_bend": 0,
      "ternary": 0,
      "t_pitch": 0,
      "t_vol": 0,
      "t_timing": 0,
      "spk": 1,
      "role": 1,
      "note": 60,
      "velocity": 64,
      "energy": 20,
      "duration_s": 0.32
    },
    {
      "t": 247.8,
      "word": "in",
      "f0_hz": 110.0,
      "pitch_bend": 0,
      "ternary": 0,
      "t_pitch": 0,
      "t_vol": 0,
      "t_timing": 0,
      "spk": 1,
      "role": 1,
      "note": 60,
      "velocity": 64,
      "energy": 20,
      "duration_s": 0.48
    },
    {
      "t": 248.28,
      "word": "the",
      "f0_hz": 110.0,
      "pitch_bend": 0,
      "ternary": 0,
      "t_pitch": 0,
      "t_vol": 0,
      "t_timing": 0,
      "spk": 1,
      "role": 1,
      "note": 60,
      "velocity": 64,
      "energy": 20,
      "duration_s": 0.2
    },
    {
      "t": 248.48,
      "word": "bush.",
      "f0_hz": 110.0,
      "pitch_bend": 0,
      "ternary": 0,
      "t_pitch": 0,
      "t_vol": 0,
      "t_timing": 0,
      "spk": 1,
      "role": 1,
      "note": 60,
      "velocity": 64,
      "energy": 20,
      "duration_s": 0.42
    },
    {
      "t": 249.36,
      "word": "And",
      "f0_hz": 110.0,
      "pitch_bend": 0,
      "ternary": 0,
      "t_pitch": 0,
      "t_vol": 0,
      "t_timing": 0,
      "spk": 1,
      "role": 1,
      "note": 60,
      "velocity": 64,
      "energy": 20,
      "duration_s": 0.12
    },
    {
      "t": 249.48,
      "word": "then",
      "f0_hz": 110.0,
      "pitch_bend": 0,
      "ternary": 0,
      "t_pitch": 0,
      "t_vol": 0,
      "t_timing": 0,
      "spk": 1,
      "role": 1,
      "note": 60,
      "velocity": 64,
      "energy": 20,
      "duration_s": 0.12
    },
    {
      "t": 249.6,
      "word": "you",
      "f0_hz": 130.0,
      "pitch_bend": 0,
      "ternary": 0,
      "t_pitch": 0,
      "t_vol": 0,
      "t_timing": 0,
      "spk": 1,
      "role": 1,
      "note": 60,
      "velocity": 64,
      "energy": 20,
      "duration_s": 0.1
    },
    {
      "t": 249.7,
      "word": "go",
      "f0_hz": 110.0,
      "pitch_bend": 0,
      "ternary": 0,
      "t_pitch": 0,
      "t_vol": 0,
      "t_timing": 0,
      "spk": 1,
      "role": 1,
      "note": 60,
      "velocity": 64,
      "energy": 20,
      "duration_s": 0.2
    },
    {
      "t": 249.9,
      "word": "back",
      "f0_hz": 110.0,
      "pitch_bend": 0,
      "ternary": 0,
      "t_pitch": 0,
      "t_vol": 0,
      "t_timing": 0,
      "spk": 1,
      "role": 1,
      "note": 60,
      "velocity": 64,
      "energy": 20,
      "duration_s": 0.4
    },
    {
      "t": 250.3,
      "word": "to",
      "f0_hz": 110.0,
      "pitch_bend": 0,
      "ternary": 0,
      "t_pitch": 0,
      "t_vol": 0,
      "t_timing": 0,
      "spk": 1,
      "role": 1,
      "note": 60,
      "velocity": 64,
      "energy": 20,
      "duration_s": 0.32
    },
    {
      "t": 250.62,
      "word": "your",
      "f0_hz": 130.0,
      "pitch_bend": 0,
      "ternary": 0,
      "t_pitch": 0,
      "t_vol": 0,
      "t_timing": 0,
      "spk": 1,
      "role": 1,
      "note": 60,
      "velocity": 64,
      "energy": 20,
      "duration_s": 0.34
    },
    {
      "t": 250.96,
      "word": "caravan,",
      "f0_hz": 110.0,
      "pitch_bend": 0,
      "ternary": 0,
      "t_pitch": 0,
      "t_vol": 0,
      "t_timing": 0,
      "spk": 1,
      "role": 1,
      "note": 60,
      "velocity": 64,
      "energy": 20,
      "duration_s": 0.32
    },
    {
      "t": 251.68,
      "word": "where",
      "f0_hz": 130.0,
      "pitch_bend": 0,
      "ternary": 0,
      "t_pitch": 0,
      "t_vol": 0,
      "t_timing": 0,
      "spk": 0,
      "role": 1,
      "note": 60,
      "velocity": 64,
      "energy": 20,
      "duration_s": 0.14
    },
    {
      "t": 251.82,
      "word": "you're",
      "f0_hz": 130.0,
      "pitch_bend": 0,
      "ternary": 0,
      "t_pitch": 0,
      "t_vol": 0,
      "t_timing": 0,
      "spk": 1,
      "role": 1,
      "note": 60,
      "velocity": 64,
      "energy": 20,
      "duration_s": 0.3
    },
    {
      "t": 252.12,
      "word": "even",
      "f0_hz": 110.0,
      "pitch_bend": 0,
      "ternary": 0,
      "t_pitch": 0,
      "t_vol": 0,
      "t_timing": 0,
      "spk": 1,
      "role": 1,
      "note": 60,
      "velocity": 64,
      "energy": 20,
      "duration_s": 0.08
    },
    {
      "t": 252.2,
      "word": "more",
      "f0_hz": 110.0,
      "pitch_bend": 0,
      "ternary": 0,
      "t_pitch": 0,
      "t_vol": 0,
      "t_timing": 0,
      "spk": 1,
      "role": 1,
      "note": 60,
      "velocity": 64,
      "energy": 20,
      "duration_s": 0.36
    },
    {
      "t": 252.56,
      "word": "alone.",
      "f0_hz": 110.0,
      "pitch_bend": 0,
      "ternary": 0,
      "t_pitch": 0,
      "t_vol": 0,
      "t_timing": 0,
      "spk": 1,
      "role": 1,
      "note": 60,
      "velocity": 64,
      "energy": 20,
      "duration_s": 0.36
    },
    {
      "t": 253.72,
      "word": "What",
      "f0_hz": 130.0,
      "pitch_bend": 0,
      "ternary": 0,
      "t_pitch": 0,
      "t_vol": 0,
      "t_timing": 0,
      "spk": 1,
      "role": 1,
      "note": 60,
      "velocity": 64,
      "energy": 20,
      "duration_s": 0.06
    },
    {
      "t": 253.78,
      "word": "are",
      "f0_hz": 110.0,
      "pitch_bend": 0,
      "ternary": 0,
      "t_pitch": 0,
      "t_vol": 0,
      "t_timing": 0,
      "spk": 1,
      "role": 1,
      "note": 60,
      "velocity": 64,
      "energy": 20,
      "duration_s": 0.06
    },
    {
      "t": 253.84,
      "word": "you",
      "f0_hz": 130.0,
      "pitch_bend": 0,
      "ternary": 0,
      "t_pitch": 0,
      "t_vol": 0,
      "t_timing": 0,
      "spk": 1,
      "role": 1,
      "note": 60,
      "velocity": 64,
      "energy": 20,
      "duration_s": 0.1
    },
    {
      "t": 253.94,
      "word": "doing",
      "f0_hz": 110.0,
      "pitch_bend": 0,
      "ternary": 0,
      "t_pitch": 0,
      "t_vol": 0,
      "t_timing": 0,
      "spk": 1,
      "role": 1,
      "note": 60,
      "velocity": 64,
      "energy": 20,
      "duration_s": 0.16
    },
    {
      "t": 254.1,
      "word": "in",
      "f0_hz": 110.0,
      "pitch_bend": 0,
      "ternary": 0,
      "t_pitch": 0,
      "t_vol": 0,
      "t_timing": 0,
      "spk": 1,
      "role": 1,
      "note": 60,
      "velocity": 64,
      "energy": 20,
      "duration_s": 0.18
    },
    {
      "t": 254.28,
      "word": "there?",
      "f0_hz": 110.0,
      "pitch_bend": 0,
      "ternary": 1,
      "t_pitch": 1,
      "t_vol": 1,
      "t_timing": 1,
      "spk": 1,
      "role": 2,
      "note": 63,
      "velocity": 84,
      "energy": 80,
      "duration_s": 0.42
    },
    {
      "t": 256.76,
      "word": "Usually",
      "f0_hz": 110.0,
      "pitch_bend": 0,
      "ternary": 0,
      "t_pitch": 0,
      "t_vol": 0,
      "t_timing": 0,
      "spk": 1,
      "role": 1,
      "note": 60,
      "velocity": 64,
      "energy": 20,
      "duration_s": 0.46
    },
    {
      "t": 257.22,
      "word": "reading",
      "f0_hz": 110.0,
      "pitch_bend": 0,
      "ternary": 0,
      "t_pitch": 0,
      "t_vol": 0,
      "t_timing": 0,
      "spk": 1,
      "role": 1,
      "note": 60,
      "velocity": 64,
      "energy": 20,
      "duration_s": 0.54
    },
    {
      "t": 257.76,
      "word": "and",
      "f0_hz": 110.0,
      "pitch_bend": 0,
      "ternary": 0,
      "t_pitch": 0,
      "t_vol": 0,
      "t_timing": 0,
      "spk": 1,
      "role": 1,
      "note": 60,
      "velocity": 64,
      "energy": 20,
      "duration_s": 0.14
    },
    {
      "t": 257.9,
      "word": "writing,",
      "f0_hz": 130.0,
      "pitch_bend": 0,
      "ternary": 0,
      "t_pitch": 0,
      "t_vol": 0,
      "t_timing": 0,
      "spk": 1,
      "role": 1,
      "note": 60,
      "velocity": 64,
      "energy": 20,
      "duration_s": 0.42
    },
    {
      "t": 259.06,
      "word": "just",
      "f0_hz": 110.0,
      "pitch_bend": 0,
      "ternary": 0,
      "t_pitch": 0,
      "t_vol": 0,
      "t_timing": 0,
      "spk": 1,
      "role": 1,
      "note": 60,
      "velocity": 64,
      "energy": 20,
      "duration_s": 0.54
    },
    {
      "t": 259.6,
      "word": "a",
      "f0_hz": 110.0,
      "pitch_bend": 0,
      "ternary": 0,
      "t_pitch": 0,
      "t_vol": 0,
      "t_timing": 0,
      "spk": 1,
      "role": 1,
      "note": 60,
      "velocity": 64,
      "energy": 20,
      "duration_s": 0.0
    },
    {
      "t": 259.6,
      "word": "lot",
      "f0_hz": 110.0,
      "pitch_bend": 0,
      "ternary": 0,
      "t_pitch": 0,
      "t_vol": 0,
      "t_timing": 0,
      "spk": 1,
      "role": 1,
      "note": 60,
      "velocity": 64,
      "energy": 20,
      "duration_s": 0.22
    },
    {
      "t": 259.82,
      "word": "of",
      "f0_hz": 110.0,
      "pitch_bend": 0,
      "ternary": 0,
      "t_pitch": 0,
      "t_vol": 0,
      "t_timing": 0,
      "spk": 1,
      "role": 1,
      "note": 60,
      "velocity": 64,
      "energy": 20,
      "duration_s": 0.18
    },
    {
      "t": 260.0,
      "word": "reading.",
      "f0_hz": 110.0,
      "pitch_bend": 0,
      "ternary": 0,
      "t_pitch": 0,
      "t_vol": 0,
      "t_timing": 0,
      "spk": 1,
      "role": 1,
      "note": 60,
      "velocity": 64,
      "energy": 20,
      "duration_s": 0.4
    },
    {
      "t": 260.94,
      "word": "And",
      "f0_hz": 110.0,
      "pitch_bend": 0,
      "ternary": 0,
      "t_pitch": 0,
      "t_vol": 0,
      "t_timing": 0,
      "spk": 1,
      "role": 1,
      "note": 60,
      "velocity": 64,
      "energy": 20,
      "duration_s": 0.08
    },
    {
      "t": 261.02,
      "word": "then",
      "f0_hz": 110.0,
      "pitch_bend": 0,
      "ternary": 0,
      "t_pitch": 0,
      "t_vol": 0,
      "t_timing": 0,
      "spk": 1,
      "role": 1,
      "note": 60,
      "velocity": 64,
      "energy": 20,
      "duration_s": 0.18
    },
    {
      "t": 261.2,
      "word": "over",
      "f0_hz": 110.0,
      "pitch_bend": 0,
      "ternary": 0,
      "t_pitch": 0,
      "t_vol": 0,
      "t_timing": 0,
      "spk": 1,
      "role": 1,
      "note": 60,
      "velocity": 64,
      "energy": 20,
      "duration_s": 0.14
    },
    {
      "t": 261.34,
      "word": "the",
      "f0_hz": 110.0,
      "pitch_bend": 0,
      "ternary": 0,
      "t_pitch": 0,
      "t_vol": 0,
      "t_timing": 0,
      "spk": 1,
      "role": 1,
      "note": 60,
      "velocity": 64,
      "energy": 20,
      "duration_s": 0.12
    },
    {
      "t": 261.46,
      "word": "past",
      "f0_hz": 110.0,
      "pitch_bend": 0,
      "ternary": 0,
      "t_pitch": 0,
      "t_vol": 0,
      "t_timing": 0,
      "spk": 1,
      "role": 1,
      "note": 60,
      "velocity": 64,
      "energy": 20,
      "duration_s": 0.3
    },
    {
      "t": 261.76,
      "word": "few",
      "f0_hz": 110.0,
      "pitch_bend": 0,
      "ternary": 0,
      "t_pitch": 0,
      "t_vol": 0,
      "t_timing": 0,
      "spk": 1,
      "role": 1,
      "note": 60,
      "velocity": 64,
      "energy": 20,
      "duration_s": 0.2
    },
    {
      "t": 261.96,
      "word": "years,",
      "f0_hz": 130.0,
      "pitch_bend": 0,
      "ternary": 0,
      "t_pitch": 0,
      "t_vol": 0,
      "t_timing": 0,
      "spk": 1,
      "role": 1,
      "note": 60,
      "velocity": 64,
      "energy": 20,
      "duration_s": 0.48
    },
    {
      "t": 262.58,
      "word": "a",
      "f0_hz": 110.0,
      "pitch_bend": 0,
      "ternary": 0,
      "t_pitch": 0,
      "t_vol": 0,
      "t_timing": 0,
      "spk": 1,
      "role": 1,
      "note": 60,
      "velocity": 64,
      "energy": 20,
      "duration_s": 0.04
    },
    {
      "t": 262.62,
      "word": "lot",
      "f0_hz": 110.0,
      "pitch_bend": 0,
      "ternary": 0,
      "t_pitch": 0,
      "t_vol": 0,
      "t_timing": 0,
      "spk": 1,
      "role": 1,
      "note": 60,
      "velocity": 64,
      "energy": 20,
      "duration_s": 0.12
    },
    {
      "t": 262.74,
      "word": "of",
      "f0_hz": 110.0,
      "pitch_bend": 0,
      "ternary": 0,
      "t_pitch": 0,
      "t_vol": 0,
      "t_timing": 0,
      "spk": 1,
      "role": 1,
      "note": 60,
      "velocity": 64,
      "energy": 20,
      "duration_s": 0.1
    },
    {
      "t": 262.84,
      "word": "writing,",
      "f0_hz": 130.0,
      "pitch_bend": 0,
      "ternary": 0,
      "t_pitch": 0,
      "t_vol": 0,
      "t_timing": 0,
      "spk": 1,
      "role": 1,
      "note": 60,
      "velocity": 64,
      "energy": 20,
      "duration_s": 0.8
    },
    {
      "t": 263.64,
      "word": "you",
      "f0_hz": 130.0,
      "pitch_bend": 0,
      "ternary": 0,
      "t_pitch": 0,
      "t_vol": 0,
      "t_timing": 0,
      "spk": 0,
      "role": 1,
      "note": 60,
      "velocity": 64,
      "energy": 20,
      "duration_s": 0.0
    },
    {
      "t": 263.64,
      "word": "know,",
      "f0_hz": 110.0,
      "pitch_bend": 0,
      "ternary": 0,
      "t_pitch": 0,
      "t_vol": 0,
      "t_timing": 0,
      "spk": 1,
      "role": 1,
      "note": 60,
      "velocity": 64,
      "energy": 20,
      "duration_s": 0.26
    },
    {
      "t": 264.0,
      "word": "my",
      "f0_hz": 110.0,
      "pitch_bend": 0,
      "ternary": 0,
      "t_pitch": 0,
      "t_vol": 0,
      "t_timing": 0,
      "spk": 1,
      "role": 1,
      "note": 60,
      "velocity": 64,
      "energy": 20,
      "duration_s": 0.1
    },
    {
      "t": 264.1,
      "word": "caravan,",
      "f0_hz": 110.0,
      "pitch_bend": 0,
      "ternary": 0,
      "t_pitch": 0,
      "t_vol": 0,
      "t_timing": 0,
      "spk": 1,
      "role": 1,
      "note": 60,
      "velocity": 64,
      "energy": 20,
      "duration_s": 0.58
    },
    {
      "t": 264.68,
      "word": "especially",
      "f0_hz": 110.0,
      "pitch_bend": 0,
      "ternary": 0,
      "t_pitch": 0,
      "t_vol": 0,
      "t_timing": 0,
      "spk": 0,
      "role": 1,
      "note": 60,
      "velocity": 64,
      "energy": 20,
      "duration_s": 0.8
    },
    {
      "t": 265.48,
      "word": "for",
      "f0_hz": 110.0,
      "pitch_bend": 0,
      "ternary": 0,
      "t_pitch": 0,
      "t_vol": 0,
      "t_timing": 0,
      "spk": 1,
      "role": 1,
      "note": 60,
      "velocity": 64,
      "energy": 20,
      "duration_s": 0.3
    },
    {
      "t": 265.78,
      "word": "the",
      "f0_hz": 110.0,
      "pitch_bend": 0,
      "ternary": 0,
      "t_pitch": 0,
      "t_vol": 0,
      "t_timing": 0,
      "spk": 1,
      "role": 1,
      "note": 60,
      "velocity": 64,
      "energy": 20,
      "duration_s": 0.22
    },
    {
      "t": 266.0,
      "word": "past",
      "f0_hz": 110.0,
      "pitch_bend": 0,
      "ternary": 0,
      "t_pitch": 0,
      "t_vol": 0,
      "t_timing": 0,
      "spk": 1,
      "role": 1,
      "note": 60,
      "velocity": 64,
      "energy": 20,
      "duration_s": 0.6
    },
    {
      "t": 266.6,
      "word": "12,",
      "f0_hz": 110.0,
      "pitch_bend": 0,
      "ternary": 0,
      "t_pitch": 0,
      "t_vol": 0,
      "t_timing": 0,
      "spk": 1,
      "role": 1,
      "note": 60,
      "velocity": 64,
      "energy": 20,
      "duration_s": 0.52
    },
    {
      "t": 267.4,
      "word": "18",
      "f0_hz": 110.0,
      "pitch_bend": 0,
      "ternary": 0,
      "t_pitch": 0,
      "t_vol": 0,
      "t_timing": 0,
      "spk": 1,
      "role": 1,
      "note": 60,
      "velocity": 64,
      "energy": 20,
      "duration_s": 0.0
    },
    {
      "t": 267.4,
      "word": "months",
      "f0_hz": 110.0,
      "pitch_bend": 0,
      "ternary": 0,
      "t_pitch": 0,
      "t_vol": 0,
      "t_timing": 0,
      "spk": 1,
      "role": 1,
      "note": 60,
      "velocity": 64,
      "energy": 20,
      "duration_s": 0.7
    },
    {
      "t": 268.1,
      "word": "has",
      "f0_hz": 130.0,
      "pitch_bend": 0,
      "ternary": 0,
      "t_pitch": 0,
      "t_vol": 0,
      "t_timing": 0,
      "spk": 1,
      "role": 1,
      "note": 60,
      "velocity": 64,
      "energy": 20,
      "duration_s": 0.36
    },
    {
      "t": 268.46,
      "word": "been",
      "f0_hz": 110.0,
      "pitch_bend": 0,
      "ternary": 0,
      "t_pitch": 0,
      "t_vol": 0,
      "t_timing": 0,
      "spk": 1,
      "role": 1,
      "note": 60,
      "velocity": 64,
      "energy": 20,
      "duration_s": 0.32
    },
    {
      "t": 268.78,
      "word": "my",
      "f0_hz": 110.0,
      "pitch_bend": 0,
      "ternary": 0,
      "t_pitch": 0,
      "t_vol": 0,
      "t_timing": 0,
      "spk": 1,
      "role": 1,
      "note": 60,
      "velocity": 64,
      "energy": 20,
      "duration_s": 0.9
    },
    {
      "t": 269.68,
      "word": "writing",
      "f0_hz": 130.0,
      "pitch_bend": 0,
      "ternary": 0,
      "t_pitch": 0,
      "t_vol": 0,
      "t_timing": 0,
      "spk": 1,
      "role": 1,
      "note": 60,
      "velocity": 64,
      "energy": 20,
      "duration_s": 0.4
    },
    {
      "t": 270.08,
      "word": "hub.",
      "f0_hz": 130.0,
      "pitch_bend": 0,
      "ternary": 0,
      "t_pitch": 0,
      "t_vol": 0,
      "t_timing": 0,
      "spk": 1,
      "role": 1,
      "note": 60,
      "velocity": 64,
      "energy": 20,
      "duration_s": 0.86
    },
    {
      "t": 271.08,
      "word": "There's",
      "f0_hz": 110.0,
      "pitch_bend": 0,
      "ternary": 0,
      "t_pitch": 0,
      "t_vol": 0,
      "t_timing": 0,
      "spk": 1,
      "role": 1,
      "note": 60,
      "velocity": 64,
      "energy": 20,
      "duration_s": 0.08
    },
    {
      "t": 271.16,
      "word": "my",
      "f0_hz": 110.0,
      "pitch_bend": 0,
      "ternary": 0,
      "t_pitch": 0,
      "t_vol": 0,
      "t_timing": 0,
      "spk": 1,
      "role": 1,
      "note": 60,
      "velocity": 64,
      "energy": 20,
      "duration_s": 0.12
    },
    {
      "t": 271.28,
      "word": "little",
      "f0_hz": 110.0,
      "pitch_bend": 0,
      "ternary": 0,
      "t_pitch": 0,
      "t_vol": 0,
      "t_timing": 0,
      "spk": 1,
      "role": 1,
      "note": 60,
      "velocity": 64,
      "energy": 20,
      "duration_s": 0.18
    },
    {
      "t": 271.46,
      "word": "writing",
      "f0_hz": 130.0,
      "pitch_bend": 0,
      "ternary": 0,
      "t_pitch": 0,
      "t_vol": 0,
      "t_timing": 0,
      "spk": 1,
      "role": 1,
      "note": 60,
      "velocity": 64,
      "energy": 20,
      "duration_s": 0.36
    },
    {
      "t": 271.82,
      "word": "sanctuary.",
      "f0_hz": 110.0,
      "pitch_bend": 0,
      "ternary": 0,
      "t_pitch": 0,
      "t_vol": 0,
      "t_timing": 0,
      "spk": 1,
      "role": 1,
      "note": 60,
      "velocity": 64,
      "energy": 20,
      "duration_s": 0.42
    },
    {
      "t": 273.4,
      "word": "So",
      "f0_hz": 110.0,
      "pitch_bend": 0,
      "ternary": 0,
      "t_pitch": 0,
      "t_vol": 0,
      "t_timing": 0,
      "spk": 1,
      "role": 1,
      "note": 60,
      "velocity": 64,
      "energy": 20,
      "duration_s": 0.0
    },
    {
      "t": 273.4,
      "word": "usually",
      "f0_hz": 110.0,
      "pitch_bend": 0,
      "ternary": 0,
      "t_pitch": 0,
      "t_vol": 0,
      "t_timing": 0,
      "spk": 0,
      "role": 1,
      "note": 60,
      "velocity": 64,
      "energy": 20,
      "duration_s": 0.42
    },
    {
      "t": 273.82,
      "word": "get",
      "f0_hz": 110.0,
      "pitch_bend": 0,
      "ternary": 0,
      "t_pitch": 0,
      "t_vol": 0,
      "t_timing": 0,
      "spk": 1,
      "role": 1,
      "note": 60,
      "velocity": 64,
      "energy": 20,
      "duration_s": 0.24
    },
    {
      "t": 274.06,
      "word": "home,",
      "f0_hz": 130.0,
      "pitch_bend": 0,
      "ternary": 0,
      "t_pitch": 0,
      "t_vol": 0,
      "t_timing": 0,
      "spk": 1,
      "role": 1,
      "note": 60,
      "velocity": 64,
      "energy": 20,
      "duration_s": 0.24
    },
    {
      "t": 274.48,
      "word": "cook",
      "f0_hz": 110.0,
      "pitch_bend": 0,
      "ternary": 0,
      "t_pitch": 0,
      "t_vol": 0,
      "t_timing": 0,
      "spk": 1,
      "role": 1,
      "note": 60,
      "velocity": 64,
      "energy": 20,
      "duration_s": 0.06
    },
    {
      "t": 274.54,
      "word": "dinner,",
      "f0_hz": 110.0,
      "pitch_bend": 0,
      "ternary": 0,
      "t_pitch": 0,
      "t_vol": 0,
      "t_timing": 0,
      "spk": 1,
      "role": 1,
      "note": 60,
      "velocity": 64,
      "energy": 20,
      "duration_s": 0.34
    },
    {
      "t": 274.92,
      "word": "and",
      "f0_hz": 110.0,
      "pitch_bend": 0,
      "ternary": 0,
      "t_pitch": 0,
      "t_vol": 0,
      "t_timing": 0,
      "spk": 1,
      "role": 1,
      "note": 60,
      "velocity": 64,
      "energy": 20,
      "duration_s": 0.18
    },
    {
      "t": 275.1,
      "word": "then",
      "f0_hz": 110.0,
      "pitch_bend": 0,
      "ternary": 0,
      "t_pitch": 0,
      "t_vol": 0,
      "t_timing": 0,
      "spk": 1,
      "role": 1,
      "note": 60,
      "velocity": 64,
      "energy": 20,
      "duration_s": 0.26
    },
    {
      "t": 275.36,
      "word": "sit",
      "f0_hz": 110.0,
      "pitch_bend": 0,
      "ternary": 0,
      "t_pitch": 0,
      "t_vol": 0,
      "t_timing": 0,
      "spk": 1,
      "role": 1,
      "note": 60,
      "velocity": 64,
      "energy": 20,
      "duration_s": 0.12
    },
    {
      "t": 275.48,
      "word": "down,",
      "f0_hz": 110.0,
      "pitch_bend": 0,
      "ternary": 0,
      "t_pitch": 0,
      "t_vol": 0,
      "t_timing": 0,
      "spk": 1,
      "role": 1,
      "note": 60,
      "velocity": 64,
      "energy": 20,
      "duration_s": 0.66
    },
    {
      "t": 276.3,
      "word": "pull",
      "f0_hz": 110.0,
      "pitch_bend": 0,
      "ternary": 0,
      "t_pitch": 0,
      "t_vol": 0,
      "t_timing": 0,
      "spk": 1,
      "role": 1,
      "note": 60,
      "velocity": 64,
      "energy": 20,
      "duration_s": 0.18
    },
    {
      "t": 276.48,
      "word": "the",
      "f0_hz": 110.0,
      "pitch_bend": 0,
      "ternary": 0,
      "t_pitch": 0,
      "t_vol": 0,
      "t_timing": 0,
      "spk": 1,
      "role": 1,
      "note": 60,
      "velocity": 64,
      "energy": 20,
      "duration_s": 0.16
    },
    {
      "t": 276.64,
      "word": "laptop",
      "f0_hz": 110.0,
      "pitch_bend": 0,
      "ternary": 0,
      "t_pitch": 0,
      "t_vol": 0,
      "t_timing": 0,
      "spk": 1,
      "role": 1,
      "note": 60,
      "velocity": 64,
      "energy": 20,
      "duration_s": 0.2
    },
    {
      "t": 276.84,
      "word": "out",
      "f0_hz": 110.0,
      "pitch_bend": 0,
      "ternary": 0,
      "t_pitch": 0,
      "t_vol": 0,
      "t_timing": 0,
      "spk": 1,
      "role": 1,
      "note": 60,
      "velocity": 64,
      "energy": 20,
      "duration_s": 0.28
    },
    {
      "t": 277.12,
      "word": "and",
      "f0_hz": 110.0,
      "pitch_bend": 0,
      "ternary": 0,
      "t_pitch": 0,
      "t_vol": 0,
      "t_timing": 0,
      "spk": 1,
      "role": 1,
      "note": 60,
      "velocity": 64,
      "energy": 20,
      "duration_s": 0.08
    },
    {
      "t": 277.2,
      "word": "just",
      "f0_hz": 110.0,
      "pitch_bend": 0,
      "ternary": 0,
      "t_pitch": 0,
      "t_vol": 0,
      "t_timing": 0,
      "spk": 1,
      "role": 1,
      "note": 60,
      "velocity": 64,
      "energy": 20,
      "duration_s": 0.18
    },
    {
      "t": 277.38,
      "word": "start",
      "f0_hz": 110.0,
      "pitch_bend": 0,
      "ternary": 0,
      "t_pitch": 0,
      "t_vol": 0,
      "t_timing": 0,
      "spk": 1,
      "role": 1,
      "note": 60,
      "velocity": 64,
      "energy": 20,
      "duration_s": 0.24
    },
    {
      "t": 277.62,
      "word": "writing.",
      "f0_hz": 130.0,
      "pitch_bend": 0,
      "ternary": 0,
      "t_pitch": 0,
      "t_vol": 0,
      "t_timing": 0,
      "spk": 1,
      "role": 1,
      "note": 60,
      "velocity": 64,
      "energy": 20,
      "duration_s": 0.58
    },
    {
      "t": 278.88,
      "word": "People",
      "f0_hz": 110.0,
      "pitch_bend": 0,
      "ternary": 0,
      "t_pitch": 0,
      "t_vol": 0,
      "t_timing": 0,
      "spk": 1,
      "role": 1,
      "note": 60,
      "velocity": 64,
      "energy": 20,
      "duration_s": 0.22
    },
    {
      "t": 279.1,
      "word": "talk",
      "f0_hz": 110.0,
      "pitch_bend": 0,
      "ternary": 0,
      "t_pitch": 0,
      "t_vol": 0,
      "t_timing": 0,
      "spk": 1,
      "role": 1,
      "note": 60,
      "velocity": 64,
      "energy": 20,
      "duration_s": 0.28
    },
    {
      "t": 279.38,
      "word": "about",
      "f0_hz": 110.0,
      "pitch_bend": 0,
      "ternary": 0,
      "t_pitch": 0,
      "t_vol": 0,
      "t_timing": 0,
      "spk": 1,
      "role": 1,
      "note": 60,
      "velocity": 64,
      "energy": 20,
      "duration_s": 0.3
    },
    {
      "t": 279.68,
      "word": "wanting",
      "f0_hz": 130.0,
      "pitch_bend": 0,
      "ternary": 0,
      "t_pitch": 0,
      "t_vol": 0,
      "t_timing": 0,
      "spk": 1,
      "role": 1,
      "note": 60,
      "velocity": 64,
      "energy": 20,
      "duration_s": 0.18
    },
    {
      "t": 279.86,
      "word": "a",
      "f0_hz": 110.0,
      "pitch_bend": 0,
      "ternary": 0,
      "t_pitch": 0,
      "t_vol": 0,
      "t_timing": 0,
      "spk": 1,
      "role": 1,
      "note": 60,
      "velocity": 64,
      "energy": 20,
      "duration_s": 0.18
    },
    {
      "t": 280.04,
      "word": "writer's",
      "f0_hz": 130.0,
      "pitch_bend": 0,
      "ternary": 0,
      "t_pitch": 0,
      "t_vol": 0,
      "t_timing": 0,
      "spk": 1,
      "role": 1,
      "note": 60,
      "velocity": 64,
      "energy": 20,
      "duration_s": 0.3
    },
    {
      "t": 280.34,
      "word": "retreat.",
      "f0_hz": 110.0,
      "pitch_bend": 0,
      "ternary": 0,
      "t_pitch": 0,
      "t_vol": 0,
      "t_timing": 0,
      "spk": 1,
      "role": 1,
      "note": 60,
      "velocity": 64,
      "energy": 20,
      "duration_s": 0.22
    },
    {
      "t": 280.76,
      "word": "That",
      "f0_hz": 110.0,
      "pitch_bend": 0,
      "ternary": 0,
      "t_pitch": 0,
      "t_vol": 0,
      "t_timing": 0,
      "spk": 1,
      "role": 1,
      "note": 60,
      "velocity": 64,
      "energy": 20,
      "duration_s": 0.0
    },
    {
      "t": 280.76,
      "word": "is",
      "f0_hz": 110.0,
      "pitch_bend": 0,
      "ternary": 0,
      "t_pitch": 0,
      "t_vol": 0,
      "t_timing": 0,
      "spk": 1,
      "role": 1,
      "note": 60,
      "velocity": 64,
      "energy": 20,
      "duration_s": 0.22
    },
    {
      "t": 280.98,
      "word": "quite",
      "f0_hz": 110.0,
      "pitch_bend": 0,
      "ternary": 0,
      "t_pitch": 0,
      "t_vol": 0,
      "t_timing": 0,
      "spk": 1,
      "role": 1,
      "note": 60,
      "velocity": 64,
      "energy": 20,
      "duration_s": 0.34
    },
    {
      "t": 281.32,
      "word": "a",
      "f0_hz": 110.0,
      "pitch_bend": 0,
      "ternary": 0,
      "t_pitch": 0,
      "t_vol": 0,
      "t_timing": 0,
      "spk": 1,
      "role": 1,
      "note": 60,
      "velocity": 64,
      "energy": 20,
      "duration_s": 0.08
    },
    {
      "t": 281.4,
      "word": "retreat.",
      "f0_hz": 110.0,
      "pitch_bend": 0,
      "ternary": 0,
      "t_pitch": 0,
      "t_vol": 0,
      "t_timing": 0,
      "spk": 1,
      "role": 1,
      "note": 60,
      "velocity": 64,
      "energy": 20,
      "duration_s": 0.22
    },
    {
      "t": 282.74,
      "word": "You",
      "f0_hz": 130.0,
      "pitch_bend": 0,
      "ternary": 0,
      "t_pitch": 0,
      "t_vol": 0,
      "t_timing": 0,
      "spk": 1,
      "role": 1,
      "note": 60,
      "velocity": 64,
      "energy": 20,
      "duration_s": 0.52
    },
    {
      "t": 283.26,
      "word": "lived",
      "f0_hz": 110.0,
      "pitch_bend": 0,
      "ternary": 0,
      "t_pitch": 0,
      "t_vol": 0,
      "t_timing": 0,
      "spk": 1,
      "role": 1,
      "note": 60,
      "velocity": 64,
      "energy": 20,
      "duration_s": 0.18
    },
    {
      "t": 283.44,
      "word": "your",
      "f0_hz": 130.0,
      "pitch_bend": 0,
      "ternary": 0,
      "t_pitch": 0,
      "t_vol": 0,
      "t_timing": 0,
      "spk": 1,
      "role": 1,
      "note": 60,
      "velocity": 64,
      "energy": 20,
      "duration_s": 0.24
    },
    {
      "t": 283.68,
      "word": "early",
      "f0_hz": 110.0,
      "pitch_bend": 0,
      "ternary": 0,
      "t_pitch": 0,
      "t_vol": 0,
      "t_timing": 0,
      "spk": 1,
      "role": 1,
      "note": 60,
      "velocity": 64,
      "energy": 20,
      "duration_s": 0.22
    },
    {
      "t": 283.9,
      "word": "life",
      "f0_hz": 110.0,
      "pitch_bend": 0,
      "ternary": 0,
      "t_pitch": 0,
      "t_vol": 0,
      "t_timing": 0,
      "spk": 1,
      "role": 1,
      "note": 60,
      "velocity": 64,
      "energy": 20,
      "duration_s": 0.34
    },
    {
      "t": 284.24,
      "word": "in",
      "f0_hz": 110.0,
      "pitch_bend": 0,
      "ternary": 0,
      "t_pitch": 0,
      "t_vol": 0,
      "t_timing": 0,
      "spk": 1,
      "role": 1,
      "note": 60,
      "velocity": 64,
      "energy": 20,
      "duration_s": 0.14
    },
    {
      "t": 284.38,
      "word": "the",
      "f0_hz": 110.0,
      "pitch_bend": 0,
      "ternary": 0,
      "t_pitch": 0,
      "t_vol": 0,
      "t_timing": 0,
      "spk": 1,
      "role": 1,
      "note": 60,
      "velocity": 64,
      "energy": 20,
      "duration_s": 0.28
    },
    {
      "t": 284.66,
      "word": "western",
      "f0_hz": 130.0,
      "pitch_bend": 0,
      "ternary": 0,
      "t_pitch": 0,
      "t_vol": 0,
      "t_timing": 0,
      "spk": 1,
      "role": 1,
      "note": 60,
      "velocity": 64,
      "energy": 20,
      "duration_s": 0.16
    },
    {
      "t": 284.82,
      "word": "towns",
      "f0_hz": 110.0,
      "pitch_bend": 0,
      "ternary": 0,
      "t_pitch": 0,
      "t_vol": 0,
      "t_timing": 0,
      "spk": 1,
      "role": 1,
      "note": 60,
      "velocity": 64,
      "energy": 20,
      "duration_s": 0.5
    },
    {
      "t": 285.32,
      "word": "of",
      "f0_hz": 110.0,
      "pitch_bend": 0,
      "ternary": 0,
      "t_pitch": 0,
      "t_vol": 0,
      "t_timing": 0,
      "spk": 1,
      "role": 1,
      "note": 60,
      "velocity": 64,
      "energy": 20,
      "duration_s": 0.24
    },
    {
      "t": 285.56,
      "word": "Queensland",
      "f0_hz": 110.0,
      "pitch_bend": 0,
      "ternary": 0,
      "t_pitch": 0,
      "t_vol": 0,
      "t_timing": 0,
      "spk": 1,
      "role": 1,
      "note": 60,
      "velocity": 64,
      "energy": 20,
      "duration_s": 0.36
    },
    {
      "t": 285.92,
      "word": "in",
      "f0_hz": 110.0,
      "pitch_bend": 0,
      "ternary": 0,
      "t_pitch": 0,
      "t_vol": 0,
      "t_timing": 0,
      "spk": 1,
      "role": 1,
      "note": 60,
      "velocity": 64,
      "energy": 20,
      "duration_s": 0.4
    },
    {
      "t": 286.32,
      "word": "a",
      "f0_hz": 110.0,
      "pitch_bend": 0,
      "ternary": 0,
      "t_pitch": 0,
      "t_vol": 0,
      "t_timing": 0,
      "spk": 1,
      "role": 1,
      "note": 60,
      "velocity": 64,
      "energy": 20,
      "duration_s": 0.24
    },
    {
      "t": 286.56,
      "word": "town",
      "f0_hz": 110.0,
      "pitch_bend": 0,
      "ternary": 0,
      "t_pitch": 0,
      "t_vol": 0,
      "t_timing": 0,
      "spk": 1,
      "role": 1,
      "note": 60,
      "velocity": 64,
      "energy": 20,
      "duration_s": 0.32
    },
    {
      "t": 286.88,
      "word": "called",
      "f0_hz": 110.0,
      "pitch_bend": 0,
      "ternary": 0,
      "t_pitch": 0,
      "t_vol": 0,
      "t_timing": 0,
      "spk": 1,
      "role": 1,
      "note": 60,
      "velocity": 64,
      "energy": 20,
      "duration_s": 0.5
    },
    {
      "t": 287.38,
      "word": "Miles.",
      "f0_hz": 110.0,
      "pitch_bend": 0,
      "ternary": 0,
      "t_pitch": 0,
      "t_vol": 0,
      "t_timing": 0,
      "spk": 1,
      "role": 1,
      "note": 60,
      "velocity": 64,
      "energy": 20,
      "duration_s": 0.54
    },
    {
      "t": 288.34,
      "word": "Is",
      "f0_hz": 110.0,
      "pitch_bend": 0,
      "ternary": 0,
      "t_pitch": 0,
      "t_vol": 0,
      "t_timing": 0,
      "spk": 1,
      "role": 1,
      "note": 60,
      "velocity": 64,
      "energy": 20,
      "duration_s": 0.0
    },
    {
      "t": 288.34,
      "word": "that",
      "f0_hz": 110.0,
      "pitch_bend": 0,
      "ternary": 0,
      "t_pitch": 0,
      "t_vol": 0,
      "t_timing": 0,
      "spk": 1,
      "role": 1,
      "note": 60,
      "velocity": 64,
      "energy": 20,
      "duration_s": 0.18
    },
    {
      "t": 288.52,
      "word": "right?",
      "f0_hz": 110.0,
      "pitch_bend": 0,
      "ternary": 1,
      "t_pitch": 1,
      "t_vol": 1,
      "t_timing": 1,
      "spk": 1,
      "role": 2,
      "note": 63,
      "velocity": 84,
      "energy": 80,
      "duration_s": 0.28
    },
    {
      "t": 288.8,
      "word": "Yeah.",
      "f0_hz": 130.0,
      "pitch_bend": 0,
      "ternary": 0,
      "t_pitch": 0,
      "t_vol": 0,
      "t_timing": 0,
      "spk": 1,
      "role": 1,
      "note": 60,
      "velocity": 64,
      "energy": 20,
      "duration_s": 0.38
    },
    {
      "t": 289.3,
      "word": "But",
      "f0_hz": 110.0,
      "pitch_bend": 0,
      "ternary": 0,
      "t_pitch": 0,
      "t_vol": 0,
      "t_timing": 0,
      "spk": 1,
      "role": 1,
      "note": 60,
      "velocity": 64,
      "energy": 20,
      "duration_s": 0.18
    },
    {
      "t": 289.48,
      "word": "you",
      "f0_hz": 130.0,
      "pitch_bend": 0,
      "ternary": 0,
      "t_pitch": 0,
      "t_vol": 0,
      "t_timing": 0,
      "spk": 1,
      "role": 1,
      "note": 60,
      "velocity": 64,
      "energy": 20,
      "duration_s": 0.12
    },
    {
      "t": 289.6,
      "word": "weren't",
      "f0_hz": 130.0,
      "pitch_bend": 0,
      "ternary": 0,
      "t_pitch": 0,
      "t_vol": 0,
      "t_timing": 0,
      "spk": 1,
      "role": 1,
      "note": 60,
      "velocity": 64,
      "energy": 20,
      "duration_s": 0.3
    },
    {
      "t": 289.9,
      "word": "born",
      "f0_hz": 110.0,
      "pitch_bend": 0,
      "ternary": 0,
      "t_pitch": 0,
      "t_vol": 0,
      "t_timing": 0,
      "spk": 1,
      "role": 1,
      "note": 60,
      "velocity": 64,
      "energy": 20,
      "duration_s": 0.32
    },
    {
      "t": 290.22,
      "word": "there.",
      "f0_hz": 110.0,
      "pitch_bend": 0,
      "ternary": 0,
      "t_pitch": 0,
      "t_vol": 0,
      "t_timing": 0,
      "spk": 1,
      "role": 1,
      "note": 60,
      "velocity": 64,
      "energy": 20,
      "duration_s": 0.62
    },
    {
      "t": 291.28,
      "word": "Where",
      "f0_hz": 130.0,
      "pitch_bend": 0,
      "ternary": 0,
      "t_pitch": 0,
      "t_vol": 0,
      "t_timing": 0,
      "spk": 1,
      "role": 1,
      "note": 60,
      "velocity": 64,
      "energy": 20,
      "duration_s": 0.0
    },
    {
      "t": 291.28,
      "word": "did",
      "f0_hz": 110.0,
      "pitch_bend": 0,
      "ternary": 0,
      "t_pitch": 0,
      "t_vol": 0,
      "t_timing": 0,
      "spk": 1,
      "role": 1,
      "note": 60,
      "velocity": 64,
      "energy": 20,
      "duration_s": 0.12
    },
    {
      "t": 291.4,
      "word": "your",
      "f0_hz": 130.0,
      "pitch_bend": 0,
      "ternary": 0,
      "t_pitch": 0,
      "t_vol": 0,
      "t_timing": 0,
      "spk": 1,
      "role": 1,
      "note": 60,
      "velocity": 64,
      "energy": 20,
      "duration_s": 0.28
    },
    {
      "t": 291.68,
      "word": "mum",
      "f0_hz": 110.0,
      "pitch_bend": 0,
      "ternary": 0,
      "t_pitch": 0,
      "t_vol": 0,
      "t_timing": 0,
      "spk": 1,
      "role": 1,
      "note": 60,
      "velocity": 64,
      "energy": 20,
      "duration_s": 0.26
    },
    {
      "t": 291.94,
      "word": "have",
      "f0_hz": 130.0,
      "pitch_bend": 0,
      "ternary": 0,
      "t_pitch": 0,
      "t_vol": 0,
      "t_timing": 0,
      "spk": 1,
      "role": 1,
      "note": 60,
      "velocity": 64,
      "energy": 20,
      "duration_s": 0.28
    },
    {
      "t": 292.22,
      "word": "to",
      "f0_hz": 110.0,
      "pitch_bend": 0,
      "ternary": 0,
      "t_pitch": 0,
      "t_vol": 0,
      "t_timing": 0,
      "spk": 1,
      "role": 1,
      "note": 60,
      "velocity": 64,
      "energy": 20,
      "duration_s": 0.22
    },
    {
      "t": 292.44,
      "word": "go",
      "f0_hz": 110.0,
      "pitch_bend": 0,
      "ternary": 0,
      "t_pitch": 0,
      "t_vol": 0,
      "t_timing": 0,
      "spk": 1,
      "role": 1,
      "note": 60,
      "velocity": 64,
      "energy": 20,
      "duration_s": 0.2
    },
    {
      "t": 292.64,
      "word": "to",
      "f0_hz": 110.0,
      "pitch_bend": 0,
      "ternary": 0,
      "t_pitch": 0,
      "t_vol": 0,
      "t_timing": 0,
      "spk": 1,
      "role": 1,
      "note": 60,
      "velocity": 64,
      "energy": 20,
      "duration_s": 0.1
    },
    {
      "t": 292.74,
      "word": "give",
      "f0_hz": 110.0,
      "pitch_bend": 0,
      "ternary": 0,
      "t_pitch": 0,
      "t_vol": 0,
      "t_timing": 0,
      "spk": 1,
      "role": 1,
      "note": 60,
      "velocity": 64,
      "energy": 20,
      "duration_s": 0.34
    },
    {
      "t": 293.08,
      "word": "birth",
      "f0_hz": 110.0,
      "pitch_bend": 0,
      "ternary": 0,
      "t_pitch": 0,
      "t_vol": 0,
      "t_timing": 0,
      "spk": 1,
      "role": 1,
      "note": 60,
      "velocity": 64,
      "energy": 20,
      "duration_s": 0.32
    },
    {
      "t": 293.4,
      "word": "to",
      "f0_hz": 110.0,
      "pitch_bend": 0,
      "ternary": 0,
      "t_pitch": 0,
      "t_vol": 0,
      "t_timing": 0,
      "spk": 1,
      "role": 1,
      "note": 60,
      "velocity": 64,
      "energy": 20,
      "duration_s": 0.14
    },
    {
      "t": 293.54,
      "word": "you?",
      "f0_hz": 130.0,
      "pitch_bend": 0,
      "ternary": 1,
      "t_pitch": 1,
      "t_vol": 1,
      "t_timing": 1,
      "spk": 1,
      "role": 2,
      "note": 63,
      "velocity": 84,
      "energy": 80,
      "duration_s": 0.26
    },
    {
      "t": 293.8,
      "word": "Yeah.",
      "f0_hz": 130.0,
      "pitch_bend": 0,
      "ternary": 0,
      "t_pitch": 0,
      "t_vol": 0,
      "t_timing": 0,
      "spk": 0,
      "role": 1,
      "note": 60,
      "velocity": 64,
      "energy": 20,
      "duration_s": 0.32
    },
    {
      "t": 294.88,
      "word": "So",
      "f0_hz": 110.0,
      "pitch_bend": 0,
      "ternary": 0,
      "t_pitch": 0,
      "t_vol": 0,
      "t_timing": 0,
      "spk": 1,
      "role": 1,
      "note": 60,
      "velocity": 64,
      "energy": 20,
      "duration_s": 0.42
    },
    {
      "t": 295.3,
      "word": "love",
      "f0_hz": 110.0,
      "pitch_bend": 0,
      "ternary": 1,
      "t_pitch": 1,
      "t_vol": 1,
      "t_timing": 1,
      "spk": 1,
      "role": 2,
      "note": 63,
      "velocity": 84,
      "energy": 80,
      "duration_s": 0.42
    },
    {
      "t": 295.72,
      "word": "miles,",
      "f0_hz": 110.0,
      "pitch_bend": 0,
      "ternary": 0,
      "t_pitch": 0,
      "t_vol": 0,
      "t_timing": 0,
      "spk": 0,
      "role": 1,
      "note": 60,
      "velocity": 64,
      "energy": 20,
      "duration_s": 0.36
    },
    {
      "t": 296.16,
      "word": "share",
      "f0_hz": 110.0,
      "pitch_bend": 0,
      "ternary": 0,
      "t_pitch": 0,
      "t_vol": 0,
      "t_timing": 0,
      "spk": 0,
      "role": 1,
      "note": 60,
      "velocity": 64,
      "energy": 20,
      "duration_s": 0.24
    },
    {
      "t": 296.4,
      "word": "that",
      "f0_hz": 110.0,
      "pitch_bend": 0,
      "ternary": 0,
      "t_pitch": 0,
      "t_vol": 0,
      "t_timing": 0,
      "spk": 1,
      "role": 1,
      "note": 60,
      "velocity": 64,
      "energy": 20,
      "duration_s": 0.2
    },
    {
      "t": 296.6,
      "word": "to",
      "f0_hz": 110.0,
      "pitch_bend": 0,
      "ternary": 0,
      "t_pitch": 0,
      "t_vol": 0,
      "t_timing": 0,
      "spk": 1,
      "role": 1,
      "note": 60,
      "velocity": 64,
      "energy": 20,
      "duration_s": 0.18
    },
    {
      "t": 296.78,
      "word": "Miles,",
      "f0_hz": 110.0,
      "pitch_bend": 0,
      "ternary": 0,
      "t_pitch": 0,
      "t_vol": 0,
      "t_timing": 0,
      "spk": 0,
      "role": 1,
      "note": 60,
      "velocity": 64,
      "energy": 20,
      "duration_s": 0.32
    },
    {
      "t": 297.76,
      "word": "and",
      "f0_hz": 110.0,
      "pitch_bend": 0,
      "ternary": 0,
      "t_pitch": 0,
      "t_vol": 0,
      "t_timing": 0,
      "spk": 1,
      "role": 1,
      "note": 60,
      "velocity": 64,
      "energy": 20,
      "duration_s": 0.04
    },
    {
      "t": 297.8,
      "word": "a",
      "f0_hz": 110.0,
      "pitch_bend": 0,
      "ternary": 0,
      "t_pitch": 0,
      "t_vol": 0,
      "t_timing": 0,
      "spk": 1,
      "role": 1,
      "note": 60,
      "velocity": 64,
      "energy": 20,
      "duration_s": 0.06
    },
    {
      "t": 297.86,
      "word": "lot",
      "f0_hz": 110.0,
      "pitch_bend": 0,
      "ternary": 0,
      "t_pitch": 0,
      "t_vol": 0,
      "t_timing": 0,
      "spk": 1,
      "role": 1,
      "note": 60,
      "velocity": 64,
      "energy": 20,
      "duration_s": 0.1
    },
    {
      "t": 297.96,
      "word": "of",
      "f0_hz": 110.0,
      "pitch_bend": 0,
      "ternary": 0,
      "t_pitch": 0,
      "t_vol": 0,
      "t_timing": 0,
      "spk": 1,
      "role": 1,
      "note": 60,
      "velocity": 64,
      "energy": 20,
      "duration_s": 0.18
    },
    {
      "t": 298.14,
      "word": "love",
      "f0_hz": 110.0,
      "pitch_bend": 0,
      "ternary": 1,
      "t_pitch": 1,
      "t_vol": 1,
      "t_timing": 1,
      "spk": 1,
      "role": 2,
      "note": 63,
      "velocity": 84,
      "energy": 80,
      "duration_s": 0.12
    },
    {
      "t": 298.26,
      "word": "for",
      "f0_hz": 110.0,
      "pitch_bend": 0,
      "ternary": 0,
      "t_pitch": 0,
      "t_vol": 0,
      "t_timing": 0,
      "spk": 1,
      "role": 1,
      "note": 60,
      "velocity": 64,
      "energy": 20,
      "duration_s": 0.18
    },
    {
      "t": 298.44,
      "word": "Miles.",
      "f0_hz": 110.0,
      "pitch_bend": 0,
      "ternary": 0,
      "t_pitch": 0,
      "t_vol": 0,
      "t_timing": 0,
      "spk": 1,
      "role": 1,
      "note": 60,
      "velocity": 64,
      "energy": 20,
      "duration_s": 0.26
    },
    {
      "t": 299.72,
      "word": "But",
      "f0_hz": 110.0,
      "pitch_bend": 0,
      "ternary": 0,
      "t_pitch": 0,
      "t_vol": 0,
      "t_timing": 0,
      "spk": 1,
      "role": 1,
      "note": 60,
      "velocity": 64,
      "energy": 20,
      "duration_s": 0.16
    },
    {
      "t": 299.88,
      "word": "we",
      "f0_hz": 130.0,
      "pitch_bend": 0,
      "ternary": 0,
      "t_pitch": 0,
      "t_vol": 0,
      "t_timing": 0,
      "spk": 1,
      "role": 1,
      "note": 60,
      "velocity": 64,
      "energy": 20,
      "duration_s": 0.14
    },
    {
      "t": 300.02,
      "word": "didn't",
      "f0_hz": 110.0,
      "pitch_bend": 0,
      "ternary": -1,
      "t_pitch": -1,
      "t_vol": -1,
      "t_timing": -1,
      "spk": 1,
      "role": 0,
      "note": 57,
      "velocity": 44,
      "energy": 80,
      "duration_s": 0.16
    },
    {
      "t": 300.18,
      "word": "have",
      "f0_hz": 130.0,
      "pitch_bend": 0,
      "ternary": 0,
      "t_pitch": 0,
      "t_vol": 0,
      "t_timing": 0,
      "spk": 1,
      "role": 1,
      "note": 60,
      "velocity": 64,
      "energy": 20,
      "duration_s": 0.74
    },
    {
      "t": 300.92,
      "word": "a",
      "f0_hz": 110.0,
      "pitch_bend": 0,
      "ternary": 0,
      "t_pitch": 0,
      "t_vol": 0,
      "t_timing": 0,
      "spk": 1,
      "role": 1,
      "note": 60,
      "velocity": 64,
      "energy": 20,
      "duration_s": 0.54
    },
    {
      "t": 301.46,
      "word": "maternity",
      "f0_hz": 110.0,
      "pitch_bend": 0,
      "ternary": 0,
      "t_pitch": 0,
      "t_vol": 0,
      "t_timing": 0,
      "spk": 1,
      "role": 1,
      "note": 60,
      "velocity": 64,
      "energy": 20,
      "duration_s": 0.66
    },
    {
      "t": 302.12,
      "word": "ward",
      "f0_hz": 130.0,
      "pitch_bend": 0,
      "ternary": 0,
      "t_pitch": 0,
      "t_vol": 0,
      "t_timing": 0,
      "spk": 1,
      "role": 1,
      "note": 60,
      "velocity": 64,
      "energy": 20,
      "duration_s": 0.3
    },
    {
      "t": 302.42,
      "word": "in",
      "f0_hz": 110.0,
      "pitch_bend": 0,
      "ternary": 0,
      "t_pitch": 0,
      "t_vol": 0,
      "t_timing": 0,
      "spk": 1,
      "role": 1,
      "note": 60,
      "velocity": 64,
      "energy": 20,
      "duration_s": 0.26
    },
    {
      "t": 302.68,
      "word": "Miles.",
      "f0_hz": 110.0,
      "pitch_bend": 0,
      "ternary": 0,
      "t_pitch": 0,
      "t_vol": 0,
      "t_timing": 0,
      "spk": 1,
      "role": 1,
      "note": 60,
      "velocity": 64,
      "energy": 20,
      "duration_s": 0.28
    },
    {
      "t": 303.1,
      "word": "So",
      "f0_hz": 110.0,
      "pitch_bend": 0,
      "ternary": 0,
      "t_pitch": 0,
      "t_vol": 0,
      "t_timing": 0,
      "spk": 1,
      "role": 1,
      "note": 60,
      "velocity": 64,
      "energy": 20,
      "duration_s": 0.08
    },
    {
      "t": 303.18,
      "word": "mum",
      "f0_hz": 110.0,
      "pitch_bend": 0,
      "ternary": 0,
      "t_pitch": 0,
      "t_vol": 0,
      "t_timing": 0,
      "spk": 0,
      "role": 1,
      "note": 60,
      "velocity": 64,
      "energy": 20,
      "duration_s": 0.24
    },
    {
      "t": 303.42,
      "word": "had",
      "f0_hz": 130.0,
      "pitch_bend": 0,
      "ternary": 0,
      "t_pitch": 0,
      "t_vol": 0,
      "t_timing": 0,
      "spk": 1,
      "role": 1,
      "note": 60,
      "velocity": 64,
      "energy": 20,
      "duration_s": 0.22
    },
    {
      "t": 303.64,
      "word": "to",
      "f0_hz": 110.0,
      "pitch_bend": 0,
      "ternary": 0,
      "t_pitch": 0,
      "t_vol": 0,
      "t_timing": 0,
      "spk": 1,
      "role": 1,
      "note": 60,
      "velocity": 64,
      "energy": 20,
      "duration_s": 0.12
    },
    {
      "t": 303.76,
      "word": "go",
      "f0_hz": 110.0,
      "pitch_bend": 0,
      "ternary": 0,
      "t_pitch": 0,
      "t_vol": 0,
      "t_timing": 0,
      "spk": 1,
      "role": 1,
      "note": 60,
      "velocity": 64,
      "energy": 20,
      "duration_s": 0.18
    },
    {
      "t": 303.94,
      "word": "to",
      "f0_hz": 110.0,
      "pitch_bend": 0,
      "ternary": 0,
      "t_pitch": 0,
      "t_vol": 0,
      "t_timing": 0,
      "spk": 1,
      "role": 1,
      "note": 60,
      "velocity": 64,
      "energy": 20,
      "duration_s": 0.48
    },
    {
      "t": 304.42,
      "word": "Tumba",
      "f0_hz": 110.0,
      "pitch_bend": 0,
      "ternary": 0,
      "t_pitch": 0,
      "t_vol": 0,
      "t_timing": 0,
      "spk": 1,
      "role": 1,
      "note": 60,
      "velocity": 64,
      "energy": 20,
      "duration_s": 0.86
    },
    {
      "t": 305.28,
      "word": "to",
      "f0_hz": 110.0,
      "pitch_bend": 0,
      "ternary": 0,
      "t_pitch": 0,
      "t_vol": 0,
      "t_timing": 0,
      "spk": 1,
      "role": 1,
      "note": 60,
      "velocity": 64,
      "energy": 20,
      "duration_s": 0.5
    },
    {
      "t": 305.78,
      "word": "have,",
      "f0_hz": 130.0,
      "pitch_bend": 0,
      "ternary": 0,
      "t_pitch": 0,
      "t_vol": 0,
      "t_timing": 0,
      "spk": 1,
      "role": 1,
      "note": 60,
      "velocity": 64,
      "energy": 20,
      "duration_s": 0.6
    },
    {
      "t": 306.38,
      "word": "I've",
      "f0_hz": 110.0,
      "pitch_bend": 0,
      "ternary": 0,
      "t_pitch": 0,
      "t_vol": 0,
      "t_timing": 0,
      "spk": 1,
      "role": 1,
      "note": 60,
      "velocity": 64,
      "energy": 20,
      "duration_s": 0.74
    },
    {
      "t": 307.12,
      "word": "got",
      "f0_hz": 110.0,
      "pitch_bend": 0,
      "ternary": 0,
      "t_pitch": 0,
      "t_vol": 0,
      "t_timing": 0,
      "spk": 1,
      "role": 1,
      "note": 60,
      "velocity": 64,
      "energy": 20,
      "duration_s": 0.1
    },
    {
      "t": 307.22,
      "word": "a",
      "f0_hz": 110.0,
      "pitch_bend": 0,
      "ternary": 0,
      "t_pitch": 0,
      "t_vol": 0,
      "t_timing": 0,
      "spk": 1,
      "role": 1,
      "note": 60,
      "velocity": 64,
      "energy": 20,
      "duration_s": 0.16
    },
    {
      "t": 307.38,
      "word": "brother",
      "f0_hz": 110.0,
      "pitch_bend": 0,
      "ternary": 0,
      "t_pitch": 0,
      "t_vol": 0,
      "t_timing": 0,
      "spk": 1,
      "role": 1,
      "note": 60,
      "velocity": 64,
      "energy": 20,
      "duration_s": 0.12
    },
    {
      "t": 307.5,
      "word": "and",
      "f0_hz": 110.0,
      "pitch_bend": 0,
      "ternary": 0,
      "t_pitch": 0,
      "t_vol": 0,
      "t_timing": 0,
      "spk": 1,
      "role": 1,
      "note": 60,
      "velocity": 64,
      "energy": 20,
      "duration_s": 0.16
    },
    {
      "t": 307.66,
      "word": "sister,",
      "f0_hz": 110.0,
      "pitch_bend": 0,
      "ternary": 0,
      "t_pitch": 0,
      "t_vol": 0,
      "t_timing": 0,
      "spk": 1,
      "role": 1,
      "note": 60,
      "velocity": 64,
      "energy": 20,
      "duration_s": 0.26
    },
    {
      "t": 308.1,
      "word": "so",
      "f0_hz": 110.0,
      "pitch_bend": 0,
      "ternary": 0,
      "t_pitch": 0,
      "t_vol": 0,
      "t_timing": 0,
      "spk": 1,
      "role": 1,
      "note": 60,
      "velocity": 64,
      "energy": 20,
      "duration_s": 0.02
    },
    {
      "t": 308.12,
      "word": "they",
      "f0_hz": 110.0,
      "pitch_bend": 0,
      "ternary": 0,
      "t_pitch": 0,
      "t_vol": 0,
      "t_timing": 0,
      "spk": 1,
      "role": 1,
      "note": 60,
      "velocity": 64,
      "energy": 20,
      "duration_s": 0.08
    },
    {
      "t": 308.2,
      "word": "have",
      "f0_hz": 130.0,
      "pitch_bend": 0,
      "ternary": 0,
      "t_pitch": 0,
      "t_vol": 0,
      "t_timing": 0,
      "spk": 1,
      "role": 1,
      "note": 60,
      "velocity": 64,
      "energy": 20,
      "duration_s": 0.08
    },
    {
      "t": 308.28,
      "word": "all",
      "f0_hz": 110.0,
      "pitch_bend": 0,
      "ternary": 0,
      "t_pitch": 0,
      "t_vol": 0,
      "t_timing": 0,
      "spk": 1,
      "role": 1,
      "note": 60,
      "velocity": 64,
      "energy": 20,
      "duration_s": 0.2
    },
    {
      "t": 308.48,
      "word": "three",
      "f0_hz": 110.0,
      "pitch_bend": 0,
      "ternary": 0,
      "t_pitch": 0,
      "t_vol": 0,
      "t_timing": 0,
      "spk": 1,
      "role": 1,
      "note": 60,
      "velocity": 64,
      "energy": 20,
      "duration_s": 0.12
    },
    {
      "t": 308.6,
      "word": "of",
      "f0_hz": 110.0,
      "pitch_bend": 0,
      "ternary": 0,
      "t_pitch": 0,
      "t_vol": 0,
      "t_timing": 0,
      "spk": 1,
      "role": 1,
      "note": 60,
      "velocity": 64,
      "energy": 20,
      "duration_s": 0.1
    },
    {
      "t": 308.7,
      "word": "us",
      "f0_hz": 110.0,
      "pitch_bend": 0,
      "ternary": 0,
      "t_pitch": 0,
      "t_vol": 0,
      "t_timing": 0,
      "spk": 1,
      "role": 1,
      "note": 60,
      "velocity": 64,
      "energy": 20,
      "duration_s": 0.18
    },
    {
      "t": 308.88,
      "word": "kids.",
      "f0_hz": 110.0,
      "pitch_bend": 0,
      "ternary": 0,
      "t_pitch": 0,
      "t_vol": 0,
      "t_timing": 0,
      "spk": 1,
      "role": 1,
      "note": 60,
      "velocity": 64,
      "energy": 20,
      "duration_s": 0.58
    },
    {
      "t": 309.62,
      "word": "So",
      "f0_hz": 110.0,
      "pitch_bend": 0,
      "ternary": 0,
      "t_pitch": 0,
      "t_vol": 0,
      "t_timing": 0,
      "spk": 0,
      "role": 1,
      "note": 60,
      "velocity": 64,
      "energy": 20,
      "duration_s": 0.14
    },
    {
      "t": 309.76,
      "word": "we're",
      "f0_hz": 130.0,
      "pitch_bend": 0,
      "ternary": 0,
      "t_pitch": 0,
      "t_vol": 0,
      "t_timing": 0,
      "spk": 1,
      "role": 1,
      "note": 60,
      "velocity": 64,
      "energy": 20,
      "duration_s": 0.24
    },
    {
      "t": 310.0,
      "word": "all",
      "f0_hz": 110.0,
      "pitch_bend": 0,
      "ternary": 0,
      "t_pitch": 0,
      "t_vol": 0,
      "t_timing": 0,
      "spk": 1,
      "role": 1,
      "note": 60,
      "velocity": 64,
      "energy": 20,
      "duration_s": 0.14
    },
    {
      "t": 310.14,
      "word": "born",
      "f0_hz": 110.0,
      "pitch_bend": 0,
      "ternary": 0,
      "t_pitch": 0,
      "t_vol": 0,
      "t_timing": 0,
      "spk": 1,
      "role": 1,
      "note": 60,
      "velocity": 64,
      "energy": 20,
      "duration_s": 0.2
    },
    {
      "t": 310.34,
      "word": "in",
      "f0_hz": 110.0,
      "pitch_bend": 0,
      "ternary": 0,
      "t_pitch": 0,
      "t_vol": 0,
      "t_timing": 0,
      "spk": 1,
      "role": 1,
      "note": 60,
      "velocity": 64,
      "energy": 20,
      "duration_s": 0.12
    },
    {
      "t": 310.46,
      "word": "Tumba.",
      "f0_hz": 110.0,
      "pitch_bend": 0,
      "ternary": 0,
      "t_pitch": 0,
      "t_vol": 0,
      "t_timing": 0,
      "spk": 1,
      "role": 1,
      "note": 60,
      "velocity": 64,
      "energy": 20,
      "duration_s": 0.3
    },
    {
      "t": 311.42,
      "word": "But",
      "f0_hz": 110.0,
      "pitch_bend": 0,
      "ternary": 0,
      "t_pitch": 0,
      "t_vol": 0,
      "t_timing": 0,
      "spk": 1,
      "role": 1,
      "note": 60,
      "velocity": 64,
      "energy": 20,
      "duration_s": 0.08
    },
    {
      "t": 311.5,
      "word": "when",
      "f0_hz": 130.0,
      "pitch_bend": 0,
      "ternary": 0,
      "t_pitch": 0,
      "t_vol": 0,
      "t_timing": 0,
      "spk": 1,
      "role": 1,
      "note": 60,
      "velocity": 64,
      "energy": 20,
      "duration_s": 0.14
    },
    {
      "t": 311.64,
      "word": "you",
      "f0_hz": 130.0,
      "pitch_bend": 0,
      "ternary": 0,
      "t_pitch": 0,
      "t_vol": 0,
      "t_timing": 0,
      "spk": 1,
      "role": 1,
      "note": 60,
      "velocity": 64,
      "energy": 20,
      "duration_s": 0.02
    },
    {
      "t": 311.66,
      "word": "want",
      "f0_hz": 130.0,
      "pitch_bend": 0,
      "ternary": 0,
      "t_pitch": 0,
      "t_vol": 0,
      "t_timing": 0,
      "spk": 0,
      "role": 1,
      "note": 60,
      "velocity": 64,
      "energy": 20,
      "duration_s": 0.2
    },
    {
      "t": 311.86,
      "word": "to",
      "f0_hz": 110.0,
      "pitch_bend": 0,
      "ternary": 0,
      "t_pitch": 0,
      "t_vol": 0,
      "t_timing": 0,
      "spk": 1,
      "role": 1,
      "note": 60,
      "velocity": 64,
      "energy": 20,
      "duration_s": 0.1
    },
    {
      "t": 311.96,
      "word": "be",
      "f0_hz": 110.0,
      "pitch_bend": 0,
      "ternary": 0,
      "t_pitch": 0,
      "t_vol": 0,
      "t_timing": 0,
      "spk": 1,
      "role": 1,
      "note": 60,
      "velocity": 64,
      "energy": 20,
      "duration_s": 0.08
    },
    {
      "t": 312.04,
      "word": "out",
      "f0_hz": 110.0,
      "pitch_bend": 0,
      "ternary": 0,
      "t_pitch": 0,
      "t_vol": 0,
      "t_timing": 0,
      "spk": 1,
      "role": 1,
      "note": 60,
      "velocity": 64,
      "energy": 20,
      "duration_s": 0.08
    },
    {
      "t": 312.12,
      "word": "of",
      "f0_hz": 110.0,
      "pitch_bend": 0,
      "ternary": 0,
      "t_pitch": 0,
      "t_vol": 0,
      "t_timing": 0,
      "spk": 1,
      "role": 1,
      "note": 60,
      "velocity": 64,
      "energy": 20,
      "duration_s": 0.12
    },
    {
      "t": 312.24,
      "word": "hospital,",
      "f0_hz": 130.0,
      "pitch_bend": 0,
      "ternary": 0,
      "t_pitch": 0,
      "t_vol": 0,
      "t_timing": 0,
      "spk": 0,
      "role": 1,
      "note": 60,
      "velocity": 64,
      "energy": 20,
      "duration_s": 0.34
    },
    {
      "t": 312.74,
      "word": "straight",
      "f0_hz": 110.0,
      "pitch_bend": 0,
      "ternary": 0,
      "t_pitch": 0,
      "t_vol": 0,
      "t_timing": 0,
      "spk": 0,
      "role": 1,
      "note": 60,
      "velocity": 64,
      "energy": 20,
      "duration_s": 0.12
    },
    {
      "t": 312.86,
      "word": "back",
      "f0_hz": 110.0,
      "pitch_bend": 0,
      "ternary": 0,
      "t_pitch": 0,
      "t_vol": 0,
      "t_timing": 0,
      "spk": 1,
      "role": 1,
      "note": 60,
      "velocity": 64,
      "energy": 20,
      "duration_s": 0.18
    },
    {
      "t": 313.04,
      "word": "out",
      "f0_hz": 110.0,
      "pitch_bend": 0,
      "ternary": 0,
      "t_pitch": 0,
      "t_vol": 0,
      "t_timing": 0,
      "spk": 1,
      "role": 1,
      "note": 60,
      "velocity": 64,
      "energy": 20,
      "duration_s": 0.42
    },
    {
      "t": 313.46,
      "word": "to",
      "f0_hz": 110.0,
      "pitch_bend": 0,
      "ternary": 0,
      "t_pitch": 0,
      "t_vol": 0,
      "t_timing": 0,
      "spk": 1,
      "role": 1,
      "note": 60,
      "velocity": 64,
      "energy": 20,
      "duration_s": 0.32
    },
    {
      "t": 313.78,
      "word": "Miles.",
      "f0_hz": 110.0,
      "pitch_bend": 0,
      "ternary": 0,
      "t_pitch": 0,
      "t_vol": 0,
      "t_timing": 0,
      "spk": 1,
      "role": 1,
      "note": 60,
      "velocity": 64,
      "energy": 20,
      "duration_s": 0.38
    },
    {
      "t": 315.98,
      "word": "And",
      "f0_hz": 110.0,
      "pitch_bend": 0,
      "ternary": 0,
      "t_pitch": 0,
      "t_vol": 0,
      "t_timing": 0,
      "spk": 1,
      "role": 1,
      "note": 60,
      "velocity": 64,
      "energy": 20,
      "duration_s": 0.42
    },
    {
      "t": 316.4,
      "word": "when",
      "f0_hz": 130.0,
      "pitch_bend": 0,
      "ternary": 0,
      "t_pitch": 0,
      "t_vol": 0,
      "t_timing": 0,
      "spk": 1,
      "role": 1,
      "note": 60,
      "velocity": 64,
      "energy": 20,
      "duration_s": 0.42
    },
    {
      "t": 316.82,
      "word": "you're",
      "f0_hz": 130.0,
      "pitch_bend": 0,
      "ternary": 0,
      "t_pitch": 0,
      "t_vol": 0,
      "t_timing": 0,
      "spk": 1,
      "role": 1,
      "note": 60,
      "velocity": 64,
      "energy": 20,
      "duration_s": 0.24
    },
    {
      "t": 317.06,
      "word": "growing",
      "f0_hz": 110.0,
      "pitch_bend": 0,
      "ternary": 0,
      "t_pitch": 0,
      "t_vol": 0,
      "t_timing": 0,
      "spk": 1,
      "role": 1,
      "note": 60,
      "velocity": 64,
      "energy": 20,
      "duration_s": 0.22
    },
    {
      "t": 317.28,
      "word": "up,",
      "f0_hz": 110.0,
      "pitch_bend": 0,
      "ternary": 0,
      "t_pitch": 0,
      "t_vol": 0,
      "t_timing": 0,
      "spk": 1,
      "role": 1,
      "note": 60,
      "velocity": 64,
      "energy": 20,
      "duration_s": 0.62
    },
    {
      "t": 318.08,
      "word": "you",
      "f0_hz": 130.0,
      "pitch_bend": 0,
      "ternary": 0,
      "t_pitch": 0,
      "t_vol": 0,
      "t_timing": 0,
      "spk": 1,
      "role": 1,
      "note": 60,
      "velocity": 64,
      "energy": 20,
      "duration_s": 0.32
    },
    {
      "t": 318.4,
      "word": "developed",
      "f0_hz": 110.0,
      "pitch_bend": 0,
      "ternary": 0,
      "t_pitch": 0,
      "t_vol": 0,
      "t_timing": 0,
      "spk": 0,
      "role": 1,
      "note": 60,
      "velocity": 64,
      "energy": 20,
      "duration_s": 0.28
    },
    {
      "t": 318.68,
      "word": "a",
      "f0_hz": 110.0,
      "pitch_bend": 0,
      "ternary": 0,
      "t_pitch": 0,
      "t_vol": 0,
      "t_timing": 0,
      "spk": 1,
      "role": 1,
      "note": 60,
      "velocity": 64,
      "energy": 20,
      "duration_s": 0.22
    },
    {
      "t": 318.9,
      "word": "love",
      "f0_hz": 110.0,
      "pitch_bend": 0,
      "ternary": 1,
      "t_pitch": 1,
      "t_vol": 1,
      "t_timing": 1,
      "spk": 1,
      "role": 2,
      "note": 63,
      "velocity": 84,
      "energy": 80,
      "duration_s": 0.1
    },
    {
      "t": 319.0,
      "word": "of",
      "f0_hz": 110.0,
      "pitch_bend": 0,
      "ternary": 0,
      "t_pitch": 0,
      "t_vol": 0,
      "t_timing": 0,
      "spk": 1,
      "role": 1,
      "note": 60,
      "velocity": 64,
      "energy": 20,
      "duration_s": 0.28
    },
    {
      "t": 319.28,
      "word": "books.",
      "f0_hz": 110.0,
      "pitch_bend": 0,
      "ternary": 0,
      "t_pitch": 0,
      "t_vol": 0,
      "t_timing": 0,
      "spk": 1,
      "role": 1,
      "note": 60,
      "velocity": 64,
      "energy": 20,
      "duration_s": 0.34
    },
    {
      "t": 319.92,
      "word": "Who",
      "f0_hz": 130.0,
      "pitch_bend": 0,
      "ternary": 0,
      "t_pitch": 0,
      "t_vol": 0,
      "t_timing": 0,
      "spk": 1,
      "role": 1,
      "note": 60,
      "velocity": 64,
      "energy": 20,
      "duration_s": 0.42
    },
    {
      "t": 320.34,
      "word": "introduced",
      "f0_hz": 110.0,
      "pitch_bend": 0,
      "ternary": 0,
      "t_pitch": 0,
      "t_vol": 0,
      "t_timing": 0,
      "spk": 1,
      "role": 1,
      "note": 60,
      "velocity": 64,
      "energy": 20,
      "duration_s": 0.24
    },
    {
      "t": 320.58,
      "word": "you",
      "f0_hz": 130.0,
      "pitch_bend": 0,
      "ternary": 0,
      "t_pitch": 0,
      "t_vol": 0,
      "t_timing": 0,
      "spk": 1,
      "role": 1,
      "note": 60,
      "velocity": 64,
      "energy": 20,
      "duration_s": 0.24
    },
    {
      "t": 320.82,
      "word": "to",
      "f0_hz": 110.0,
      "pitch_bend": 0,
      "ternary": 0,
      "t_pitch": 0,
      "t_vol": 0,
      "t_timing": 0,
      "spk": 1,
      "role": 1,
      "note": 60,
      "velocity": 64,
      "energy": 20,
      "duration_s": 0.08
    },
    {
      "t": 320.9,
      "word": "the",
      "f0_hz": 110.0,
      "pitch_bend": 0,
      "ternary": 0,
      "t_pitch": 0,
      "t_vol": 0,
      "t_timing": 0,
      "spk": 0,
      "role": 1,
      "note": 60,
      "velocity": 64,
      "energy": 20,
      "duration_s": 0.02
    },
    {
      "t": 320.92,
      "word": "books?",
      "f0_hz": 110.0,
      "pitch_bend": 0,
      "ternary": 1,
      "t_pitch": 1,
      "t_vol": 1,
      "t_timing": 1,
      "spk": 1,
      "role": 2,
      "note": 63,
      "velocity": 84,
      "energy": 80,
      "duration_s": 0.3
    },
    {
      "t": 321.22,
      "word": "Yeah,",
      "f0_hz": 130.0,
      "pitch_bend": 0,
      "ternary": 0,
      "t_pitch": 0,
      "t_vol": 0,
      "t_timing": 0,
      "spk": 0,
      "role": 1,
      "note": 60,
      "velocity": 64,
      "energy": 20,
      "duration_s": 0.86
    },
    {
      "t": 322.12,
      "word": "my",
      "f0_hz": 110.0,
      "pitch_bend": 0,
      "ternary": 0,
      "t_pitch": 0,
      "t_vol": 0,
      "t_timing": 0,
      "spk": 1,
      "role": 1,
      "note": 60,
      "velocity": 64,
      "energy": 20,
      "duration_s": 0.16
    },
    {
      "t": 322.28,
      "word": "love",
      "f0_hz": 110.0,
      "pitch_bend": 0,
      "ternary": 1,
      "t_pitch": 1,
      "t_vol": 1,
      "t_timing": 1,
      "spk": 0,
      "role": 2,
      "note": 63,
      "velocity": 84,
      "energy": 80,
      "duration_s": 0.14
    },
    {
      "t": 322.42,
      "word": "of",
      "f0_hz": 110.0,
      "pitch_bend": 0,
      "ternary": 0,
      "t_pitch": 0,
      "t_vol": 0,
      "t_timing": 0,
      "spk": 1,
      "role": 1,
      "note": 60,
      "velocity": 64,
      "energy": 20,
      "duration_s": 0.22
    },
    {
      "t": 322.64,
      "word": "books",
      "f0_hz": 110.0,
      "pitch_bend": 0,
      "ternary": 0,
      "t_pitch": 0,
      "t_vol": 0,
      "t_timing": 0,
      "spk": 1,
      "role": 1,
      "note": 60,
      "velocity": 64,
      "energy": 20,
      "duration_s": 0.08
    },
    {
      "t": 322.72,
      "word": "then",
      "f0_hz": 110.0,
      "pitch_bend": 0,
      "ternary": 0,
      "t_pitch": 0,
      "t_vol": 0,
      "t_timing": 0,
      "spk": 0,
      "role": 1,
      "note": 60,
      "velocity": 64,
      "energy": 20,
      "duration_s": 0.16
    },
    {
      "t": 322.88,
      "word": "from",
      "f0_hz": 110.0,
      "pitch_bend": 0,
      "ternary": 0,
      "t_pitch": 0,
      "t_vol": 0,
      "t_timing": 0,
      "spk": 1,
      "role": 1,
      "note": 60,
      "velocity": 64,
      "energy": 20,
      "duration_s": 0.18
    },
    {
      "t": 323.06,
      "word": "my",
      "f0_hz": 110.0,
      "pitch_bend": 0,
      "ternary": 0,
      "t_pitch": 0,
      "t_vol": 0,
      "t_timing": 0,
      "spk": 1,
      "role": 1,
      "note": 60,
      "velocity": 64,
      "energy": 20,
      "duration_s": 0.18
    },
    {
      "t": 323.24,
      "word": "mum.",
      "f0_hz": 110.0,
      "pitch_bend": 0,
      "ternary": 0,
      "t_pitch": 0,
      "t_vol": 0,
      "t_timing": 0,
      "spk": 0,
      "role": 1,
      "note": 60,
      "velocity": 64,
      "energy": 20,
      "duration_s": 0.76
    },
    {
      "t": 324.24,
      "word": "Mum's",
      "f0_hz": 110.0,
      "pitch_bend": 0,
      "ternary": 0,
      "t_pitch": 0,
      "t_vol": 0,
      "t_timing": 0,
      "spk": 1,
      "role": 1,
      "note": 60,
      "velocity": 64,
      "energy": 20,
      "duration_s": 0.08
    },
    {
      "t": 324.32,
      "word": "a",
      "f0_hz": 110.0,
      "pitch_bend": 0,
      "ternary": 0,
      "t_pitch": 0,
      "t_vol": 0,
      "t_timing": 0,
      "spk": 1,
      "role": 1,
      "note": 60,
      "velocity": 64,
      "energy": 20,
      "duration_s": 0.14
    },
    {
      "t": 324.46,
      "word": "massive",
      "f0_hz": 110.0,
      "pitch_bend": 0,
      "ternary": 0,
      "t_pitch": 0,
      "t_vol": 0,
      "t_timing": 0,
      "spk": 1,
      "role": 1,
      "note": 60,
      "velocity": 64,
      "energy": 20,
      "duration_s": 0.3
    },
    {
      "t": 324.76,
      "word": "writer.",
      "f0_hz": 130.0,
      "pitch_bend": 0,
      "ternary": 0,
      "t_pitch": 0,
      "t_vol": 0,
      "t_timing": 0,
      "spk": 0,
      "role": 1,
      "note": 60,
      "velocity": 64,
      "energy": 20,
      "duration_s": 0.24
    },
    {
      "t": 325.24,
      "word": "I",
      "f0_hz": 110.0,
      "pitch_bend": 0,
      "ternary": 0,
      "t_pitch": 0,
      "t_vol": 0,
      "t_timing": 0,
      "spk": 1,
      "role": 1,
      "note": 60,
      "velocity": 64,
      "energy": 20,
      "duration_s": 0.06
    },
    {
      "t": 325.3,
      "word": "still",
      "f0_hz": 110.0,
      "pitch_bend": 0,
      "ternary": 0,
      "t_pitch": 0,
      "t_vol": 0,
      "t_timing": 0,
      "spk": 1,
      "role": 1,
      "note": 60,
      "velocity": 64,
      "energy": 20,
      "duration_s": 0.1
    },
    {
      "t": 325.4,
      "word": "is.",
      "f0_hz": 110.0,
      "pitch_bend": 0,
      "ternary": 0,
      "t_pitch": 0,
      "t_vol": 0,
      "t_timing": 0,
      "spk": 1,
      "role": 1,
      "note": 60,
      "velocity": 64,
      "energy": 20,
      "duration_s": 0.38
    },
    {
      "t": 325.78,
      "word": "You",
      "f0_hz": 130.0,
      "pitch_bend": 0,
      "ternary": 0,
      "t_pitch": 0,
      "t_vol": 0,
      "t_timing": 0,
      "spk": 0,
      "role": 1,
      "note": 60,
      "velocity": 64,
      "energy": 20,
      "duration_s": 0.0
    },
    {
      "t": 325.78,
      "word": "know,",
      "f0_hz": 110.0,
      "pitch_bend": 0,
      "ternary": 0,
      "t_pitch": 0,
      "t_vol": 0,
      "t_timing": 0,
      "spk": 1,
      "role": 1,
      "note": 60,
      "velocity": 64,
      "energy": 20,
      "duration_s": 0.22
    },
    {
      "t": 326.08,
      "word": "me",
      "f0_hz": 110.0,
      "pitch_bend": 0,
      "ternary": 0,
      "t_pitch": 0,
      "t_vol": 0,
      "t_timing": 0,
      "spk": 1,
      "role": 1,
      "note": 60,
      "velocity": 64,
      "energy": 20,
      "duration_s": 0.08
    },
    {
      "t": 326.16,
      "word": "and",
      "f0_hz": 110.0,
      "pitch_bend": 0,
      "ternary": 0,
      "t_pitch": 0,
      "t_vol": 0,
      "t_timing": 0,
      "spk": 1,
      "role": 1,
      "note": 60,
      "velocity": 64,
      "energy": 20,
      "duration_s": 0.58
    },
    {
      "t": 326.74,
      "word": "mum",
      "f0_hz": 110.0,
      "pitch_bend": 0,
      "ternary": 0,
      "t_pitch": 0,
      "t_vol": 0,
      "t_timing": 0,
      "spk": 0,
      "role": 1,
      "note": 60,
      "velocity": 64,
      "energy": 20,
      "duration_s": 0.0
    },
    {
      "t": 326.74,
      "word": "both",
      "f0_hz": 110.0,
      "pitch_bend": 0,
      "ternary": 0,
      "t_pitch": 0,
      "t_vol": 0,
      "t_timing": 0,
      "spk": 1,
      "role": 1,
      "note": 60,
      "velocity": 64,
      "energy": 20,
      "duration_s": 0.44
    },
    {
      "t": 327.18,
      "word": "still",
      "f0_hz": 110.0,
      "pitch_bend": 0,
      "ternary": 0,
      "t_pitch": 0,
      "t_vol": 0,
      "t_timing": 0,
      "spk": 0,
      "role": 1,
      "note": 60,
      "velocity": 64,
      "energy": 20,
      "duration_s": 0.36
    },
    {
      "t": 327.54,
      "word": "share",
      "f0_hz": 110.0,
      "pitch_bend": 0,
      "ternary": 0,
      "t_pitch": 0,
      "t_vol": 0,
      "t_timing": 0,
      "spk": 1,
      "role": 1,
      "note": 60,
      "velocity": 64,
      "energy": 20,
      "duration_s": 0.24
    },
    {
      "t": 327.78,
      "word": "our",
      "f0_hz": 110.0,
      "pitch_bend": 0,
      "ternary": 0,
      "t_pitch": 0,
      "t_vol": 0,
      "t_timing": 0,
      "spk": 1,
      "role": 1,
      "note": 60,
      "velocity": 64,
      "energy": 20,
      "duration_s": 0.76
    },
    {
      "t": 328.54,
      "word": "deep",
      "f0_hz": 110.0,
      "pitch_bend": 0,
      "ternary": 0,
      "t_pitch": 0,
      "t_vol": 0,
      "t_timing": 0,
      "spk": 1,
      "role": 1,
      "note": 60,
      "velocity": 64,
      "energy": 20,
      "duration_s": 0.26
    },
    {
      "t": 328.8,
      "word": "love",
      "f0_hz": 110.0,
      "pitch_bend": 0,
      "ternary": 1,
      "t_pitch": 1,
      "t_vol": 1,
      "t_timing": 1,
      "spk": 1,
      "role": 2,
      "note": 63,
      "velocity": 84,
      "energy": 80,
      "duration_s": 0.16
    },
    {
      "t": 328.96,
      "word": "of",
      "f0_hz": 110.0,
      "pitch_bend": 0,
      "ternary": 0,
      "t_pitch": 0,
      "t_vol": 0,
      "t_timing": 0,
      "spk": 1,
      "role": 1,
      "note": 60,
      "velocity": 64,
      "energy": 20,
      "duration_s": 0.34
    },
    {
      "t": 329.3,
      "word": "books",
      "f0_hz": 110.0,
      "pitch_bend": 0,
      "ternary": 0,
      "t_pitch": 0,
      "t_vol": 0,
      "t_timing": 0,
      "spk": 1,
      "role": 1,
      "note": 60,
      "velocity": 64,
      "energy": 20,
      "duration_s": 0.2
    },
    {
      "t": 329.5,
      "word": "and",
      "f0_hz": 110.0,
      "pitch_bend": 0,
      "ternary": 0,
      "t_pitch": 0,
      "t_vol": 0,
      "t_timing": 0,
      "spk": 1,
      "role": 1,
      "note": 60,
      "velocity": 64,
      "energy": 20,
      "duration_s": 0.2
    },
    {
      "t": 329.7,
      "word": "literature",
      "f0_hz": 110.0,
      "pitch_bend": 0,
      "ternary": 0,
      "t_pitch": 0,
      "t_vol": 0,
      "t_timing": 0,
      "spk": 1,
      "role": 1,
      "note": 60,
      "velocity": 64,
      "energy": 20,
      "duration_s": 0.24
    },
    {
      "t": 329.94,
      "word": "and",
      "f0_hz": 110.0,
      "pitch_bend": 0,
      "ternary": 0,
      "t_pitch": 0,
      "t_vol": 0,
      "t_timing": 0,
      "spk": 1,
      "role": 1,
      "note": 60,
      "velocity": 64,
      "energy": 20,
      "duration_s": 0.28
    },
    {
      "t": 330.22,
      "word": "stories",
      "f0_hz": 110.0,
      "pitch_bend": 0,
      "ternary": 0,
      "t_pitch": 0,
      "t_vol": 0,
      "t_timing": 0,
      "spk": 1,
      "role": 1,
      "note": 60,
      "velocity": 64,
      "energy": 20,
      "duration_s": 0.28
    },
    {
      "t": 330.5,
      "word": "with",
      "f0_hz": 130.0,
      "pitch_bend": 0,
      "ternary": 0,
      "t_pitch": 0,
      "t_vol": 0,
      "t_timing": 0,
      "spk": 1,
      "role": 1,
      "note": 60,
      "velocity": 64,
      "energy": 20,
      "duration_s": 0.2
    },
    {
      "t": 330.7,
      "word": "each",
      "f0_hz": 110.0,
      "pitch_bend": 0,
      "ternary": 0,
      "t_pitch": 0,
      "t_vol": 0,
      "t_timing": 0,
      "spk": 1,
      "role": 1,
      "note": 60,
      "velocity": 64,
      "energy": 20,
      "duration_s": 0.22
    },
    {
      "t": 330.92,
      "word": "other.",
      "f0_hz": 110.0,
      "pitch_bend": 0,
      "ternary": 0,
      "t_pitch": 0,
      "t_vol": 0,
      "t_timing": 0,
      "spk": 1,
      "role": 1,
      "note": 60,
      "velocity": 64,
      "energy": 20,
      "duration_s": 0.46
    },
    {
      "t": 331.7,
      "word": "We",
      "f0_hz": 130.0,
      "pitch_bend": 0,
      "ternary": 0,
      "t_pitch": 0,
      "t_vol": 0,
      "t_timing": 0,
      "spk": 1,
      "role": 1,
      "note": 60,
      "velocity": 64,
      "energy": 20,
      "duration_s": 0.04
    },
    {
      "t": 331.74,
      "word": "talk",
      "f0_hz": 110.0,
      "pitch_bend": 0,
      "ternary": 0,
      "t_pitch": 0,
      "t_vol": 0,
      "t_timing": 0,
      "spk": 1,
      "role": 1,
      "note": 60,
      "velocity": 64,
      "energy": 20,
      "duration_s": 0.24
    },
    {
      "t": 331.98,
      "word": "literally",
      "f0_hz": 110.0,
      "pitch_bend": 0,
      "ternary": 0,
      "t_pitch": 0,
      "t_vol": 0,
      "t_timing": 0,
      "spk": 1,
      "role": 1,
      "note": 60,
      "velocity": 64,
      "energy": 20,
      "duration_s": 0.24
    },
    {
      "t": 332.22,
      "word": "every",
      "f0_hz": 110.0,
      "pitch_bend": 0,
      "ternary": 0,
      "t_pitch": 0,
      "t_vol": 0,
      "t_timing": 0,
      "spk": 1,
      "role": 1,
      "note": 60,
      "velocity": 64,
      "energy": 20,
      "duration_s": 0.28
    },
    {
      "t": 332.5,
      "word": "day,",
      "f0_hz": 110.0,
      "pitch_bend": 0,
      "ternary": 0,
      "t_pitch": 0,
      "t_vol": 0,
      "t_timing": 0,
      "spk": 1,
      "role": 1,
      "note": 60,
      "velocity": 64,
      "energy": 20,
      "duration_s": 0.22
    },
    {
      "t": 332.84,
      "word": "and",
      "f0_hz": 110.0,
      "pitch_bend": 0,
      "ternary": 0,
      "t_pitch": 0,
      "t_vol": 0,
      "t_timing": 0,
      "spk": 1,
      "role": 1,
      "note": 60,
      "velocity": 64,
      "energy": 20,
      "duration_s": 0.0
    },
    {
      "t": 332.84,
      "word": "it's",
      "f0_hz": 110.0,
      "pitch_bend": 0,
      "ternary": 0,
      "t_pitch": 0,
      "t_vol": 0,
      "t_timing": 0,
      "spk": 1,
      "role": 1,
      "note": 60,
      "velocity": 64,
      "energy": 20,
      "duration_s": 0.46
    },
    {
      "t": 333.3,
      "word": "nearly",
      "f0_hz": 110.0,
      "pitch_bend": 0,
      "ternary": 0,
      "t_pitch": 0,
      "t_vol": 0,
      "t_timing": 0,
      "spk": 1,
      "role": 1,
      "note": 60,
      "velocity": 64,
      "energy": 20,
      "duration_s": 0.0
    },
    {
      "t": 333.3,
      "word": "always",
      "f0_hz": 110.0,
      "pitch_bend": 0,
      "ternary": 0,
      "t_pitch": 0,
      "t_vol": 0,
      "t_timing": 0,
      "spk": 1,
      "role": 1,
      "note": 60,
      "velocity": 64,
      "energy": 20,
      "duration_s": 0.28
    },
    {
      "t": 333.58,
      "word": "about",
      "f0_hz": 110.0,
      "pitch_bend": 0,
      "ternary": 0,
      "t_pitch": 0,
      "t_vol": 0,
      "t_timing": 0,
      "spk": 1,
      "role": 1,
      "note": 60,
      "velocity": 64,
      "energy": 20,
      "duration_s": 0.32
    },
    {
      "t": 333.9,
      "word": "books.",
      "f0_hz": 110.0,
      "pitch_bend": 0,
      "ternary": 0,
      "t_pitch": 0,
      "t_vol": 0,
      "t_timing": 0,
      "spk": 1,
      "role": 1,
      "note": 60,
      "velocity": 64,
      "energy": 20,
      "duration_s": 0.42
    },
    {
      "t": 335.5,
      "word": "But",
      "f0_hz": 110.0,
      "pitch_bend": 0,
      "ternary": 0,
      "t_pitch": 0,
      "t_vol": 0,
      "t_timing": 0,
      "spk": 1,
      "role": 1,
      "note": 60,
      "velocity": 64,
      "energy": 20,
      "duration_s": 0.18
    },
    {
      "t": 335.68,
      "word": "growing",
      "f0_hz": 110.0,
      "pitch_bend": 0,
      "ternary": 0,
      "t_pitch": 0,
      "t_vol": 0,
      "t_timing": 0,
      "spk": 1,
      "role": 1,
      "note": 60,
      "velocity": 64,
      "energy": 20,
      "duration_s": 0.26
    },
    {
      "t": 335.94,
      "word": "up,",
      "f0_hz": 110.0,
      "pitch_bend": 0,
      "ternary": 0,
      "t_pitch": 0,
      "t_vol": 0,
      "t_timing": 0,
      "spk": 1,
      "role": 1,
      "note": 60,
      "velocity": 64,
      "energy": 20,
      "duration_s": 0.64
    },
    {
      "t": 336.72,
      "word": "she",
      "f0_hz": 110.0,
      "pitch_bend": 0,
      "ternary": 0,
      "t_pitch": 0,
      "t_vol": 0,
      "t_timing": 0,
      "spk": 1,
      "role": 1,
      "note": 60,
      "velocity": 64,
      "energy": 20,
      "duration_s": 0.06
    },
    {
      "t": 336.78,
      "word": "always",
      "f0_hz": 110.0,
      "pitch_bend": 0,
      "ternary": 0,
      "t_pitch": 0,
      "t_vol": 0,
      "t_timing": 0,
      "spk": 0,
      "role": 1,
      "note": 60,
      "velocity": 64,
      "energy": 20,
      "duration_s": 0.4
    },
    {
      "t": 337.18,
      "word": "read",
      "f0_hz": 110.0,
      "pitch_bend": 0,
      "ternary": 0,
      "t_pitch": 0,
      "t_vol": 0,
      "t_timing": 0,
      "spk": 0,
      "role": 1,
      "note": 60,
      "velocity": 64,
      "energy": 20,
      "duration_s": 0.46
    },
    {
      "t": 337.64,
      "word": "to",
      "f0_hz": 110.0,
      "pitch_bend": 0,
      "ternary": 0,
      "t_pitch": 0,
      "t_vol": 0,
      "t_timing": 0,
      "spk": 1,
      "role": 1,
      "note": 60,
      "velocity": 64,
      "energy": 20,
      "duration_s": 0.2
    },
    {
      "t": 337.84,
      "word": "us.",
      "f0_hz": 110.0,
      "pitch_bend": 0,
      "ternary": 0,
      "t_pitch": 0,
      "t_vol": 0,
      "t_timing": 0,
      "spk": 1,
      "role": 1,
      "note": 60,
      "velocity": 64,
      "energy": 20,
      "duration_s": 0.46
    },
    {
      "t": 338.8,
      "word": "She",
      "f0_hz": 110.0,
      "pitch_bend": 0,
      "ternary": 0,
      "t_pitch": 0,
      "t_vol": 0,
      "t_timing": 0,
      "spk": 1,
      "role": 1,
      "note": 60,
      "velocity": 64,
      "energy": 20,
      "duration_s": 0.3
    },
    {
      "t": 339.1,
      "word": "was",
      "f0_hz": 130.0,
      "pitch_bend": 0,
      "ternary": 0,
      "t_pitch": 0,
      "t_vol": 0,
      "t_timing": 0,
      "spk": 1,
      "role": 1,
      "note": 60,
      "velocity": 64,
      "energy": 20,
      "duration_s": 0.38
    },
    {
      "t": 339.48,
      "word": "a",
      "f0_hz": 110.0,
      "pitch_bend": 0,
      "ternary": 0,
      "t_pitch": 0,
      "t_vol": 0,
      "t_timing": 0,
      "spk": 1,
      "role": 1,
      "note": 60,
      "velocity": 64,
      "energy": 20,
      "duration_s": 0.3
    },
    {
      "t": 339.78,
      "word": "single",
      "f0_hz": 110.0,
      "pitch_bend": 0,
      "ternary": 0,
      "t_pitch": 0,
      "t_vol": 0,
      "t_timing": 0,
      "spk": 1,
      "role": 1,
      "note": 60,
      "velocity": 64,
      "energy": 20,
      "duration_s": 0.22
    },
    {
      "t": 340.0,
      "word": "mum",
      "f0_hz": 110.0,
      "pitch_bend": 0,
      "ternary": 0,
      "t_pitch": 0,
      "t_vol": 0,
      "t_timing": 0,
      "spk": 1,
      "role": 1,
      "note": 60,
      "velocity": 64,
      "energy": 20,
      "duration_s": 0.28
    },
    {
      "t": 340.28,
      "word": "when",
      "f0_hz": 130.0,
      "pitch_bend": 0,
      "ternary": 0,
      "t_pitch": 0,
      "t_vol": 0,
      "t_timing": 0,
      "spk": 1,
      "role": 1,
      "note": 60,
      "velocity": 64,
      "energy": 20,
      "duration_s": 0.42
    },
    {
      "t": 340.7,
      "word": "we",
      "f0_hz": 130.0,
      "pitch_bend": 0,
      "ternary": 0,
      "t_pitch": 0,
      "t_vol": 0,
      "t_timing": 0,
      "spk": 1,
      "role": 1,
      "note": 60,
      "velocity": 64,
      "energy": 20,
      "duration_s": 0.2
    },
    {
      "t": 340.9,
      "word": "were",
      "f0_hz": 130.0,
      "pitch_bend": 0,
      "ternary": 0,
      "t_pitch": 0,
      "t_vol": 0,
      "t_timing": 0,
      "spk": 1,
      "role": 1,
      "note": 60,
      "velocity": 64,
      "energy": 20,
      "duration_s": 0.06
    },
    {
      "t": 340.96,
      "word": "young.",
      "f0_hz": 130.0,
      "pitch_bend": 0,
      "ternary": 0,
      "t_pitch": 0,
      "t_vol": 0,
      "t_timing": 0,
      "spk": 1,
      "role": 1,
      "note": 60,
      "velocity": 64,
      "energy": 20,
      "duration_s": 0.38
    },
    {
      "t": 341.76,
      "word": "She",
      "f0_hz": 110.0,
      "pitch_bend": 0,
      "ternary": 0,
      "t_pitch": 0,
      "t_vol": 0,
      "t_timing": 0,
      "spk": 1,
      "role": 1,
      "note": 60,
      "velocity": 64,
      "energy": 20,
      "duration_s": 0.0
    },
    {
      "t": 341.76,
      "word": "left",
      "f0_hz": 110.0,
      "pitch_bend": 0,
      "ternary": 0,
      "t_pitch": 0,
      "t_vol": 0,
      "t_timing": 0,
      "spk": 1,
      "role": 1,
      "note": 60,
      "velocity": 64,
      "energy": 20,
      "duration_s": 1.0
    },
    {
      "t": 342.76,
      "word": "my",
      "f0_hz": 110.0,
      "pitch_bend": 0,
      "ternary": 0,
      "t_pitch": 0,
      "t_vol": 0,
      "t_timing": 0,
      "spk": 1,
      "role": 1,
      "note": 60,
      "velocity": 64,
      "energy": 20,
      "duration_s": 1.12
    },
    {
      "t": 343.88,
      "word": "biological",
      "f0_hz": 110.0,
      "pitch_bend": 0,
      "ternary": 0,
      "t_pitch": 0,
      "t_vol": 0,
      "t_timing": 0,
      "spk": 1,
      "role": 1,
      "note": 60,
      "velocity": 64,
      "energy": 20,
      "duration_s": 0.9
    },
    {
      "t": 344.78,
      "word": "father",
      "f0_hz": 110.0,
      "pitch_bend": 0,
      "ternary": 0,
      "t_pitch": 0,
      "t_vol": 0,
      "t_timing": 0,
      "spk": 1,
      "role": 1,
      "note": 60,
      "velocity": 64,
      "energy": 20,
      "duration_s": 0.6
    },
    {
      "t": 345.38,
      "word": "when",
      "f0_hz": 130.0,
      "pitch_bend": 0,
      "ternary": 0,
      "t_pitch": 0,
      "t_vol": 0,
      "t_timing": 0,
      "spk": 1,
      "role": 1,
      "note": 60,
      "velocity": 64,
      "energy": 20,
      "duration_s": 0.58
    },
    {
      "t": 345.96,
      "word": "I",
      "f0_hz": 110.0,
      "pitch_bend": 0,
      "ternary": 0,
      "t_pitch": 0,
      "t_vol": 0,
      "t_timing": 0,
      "spk": 1,
      "role": 1,
      "note": 60,
      "velocity": 64,
      "energy": 20,
      "duration_s": 0.1
    },
    {
      "t": 346.06,
      "word": "was",
      "f0_hz": 130.0,
      "pitch_bend": 0,
      "ternary": 0,
      "t_pitch": 0,
      "t_vol": 0,
      "t_timing": 0,
      "spk": 1,
      "role": 1,
      "note": 60,
      "velocity": 64,
      "energy": 20,
      "duration_s": 0.08
    },
    {
      "t": 346.14,
      "word": "just",
      "f0_hz": 110.0,
      "pitch_bend": 0,
      "ternary": 0,
      "t_pitch": 0,
      "t_vol": 0,
      "t_timing": 0,
      "spk": 1,
      "role": 1,
      "note": 60,
      "velocity": 64,
      "energy": 20,
      "duration_s": 0.16
    },
    {
      "t": 346.3,
      "word": "a",
      "f0_hz": 110.0,
      "pitch_bend": 0,
      "ternary": 0,
      "t_pitch": 0,
      "t_vol": 0,
      "t_timing": 0,
      "spk": 1,
      "role": 1,
      "note": 60,
      "velocity": 64,
      "energy": 20,
      "duration_s": 0.12
    },
    {
      "t": 346.42,
      "word": "baby.",
      "f0_hz": 110.0,
      "pitch_bend": 0,
      "ternary": 0,
      "t_pitch": 0,
      "t_vol": 0,
      "t_timing": 0,
      "spk": 1,
      "role": 1,
      "note": 60,
      "velocity": 64,
      "energy": 20,
      "duration_s": 0.48
    },
    {
      "t": 348.32,
      "word": "So",
      "f0_hz": 110.0,
      "pitch_bend": 0,
      "ternary": 0,
      "t_pitch": 0,
      "t_vol": 0,
      "t_timing": 0,
      "spk": 1,
      "role": 1,
      "note": 60,
      "velocity": 64,
      "energy": 20,
      "duration_s": 0.48
    },
    {
      "t": 348.8,
      "word": "my",
      "f0_hz": 110.0,
      "pitch_bend": 0,
      "ternary": 0,
      "t_pitch": 0,
      "t_vol": 0,
      "t_timing": 0,
      "spk": 1,
      "role": 1,
      "note": 60,
      "velocity": 64,
      "energy": 20,
      "duration_s": 0.18
    },
    {
      "t": 348.98,
      "word": "older",
      "f0_hz": 110.0,
      "pitch_bend": 0,
      "ternary": 0,
      "t_pitch": 0,
      "t_vol": 0,
      "t_timing": 0,
      "spk": 1,
      "role": 1,
      "note": 60,
      "velocity": 64,
      "energy": 20,
      "duration_s": 0.16
    },
    {
      "t": 349.14,
      "word": "brother",
      "f0_hz": 110.0,
      "pitch_bend": 0,
      "ternary": 0,
      "t_pitch": 0,
      "t_vol": 0,
      "t_timing": 0,
      "spk": 1,
      "role": 1,
      "note": 60,
      "velocity": 64,
      "energy": 20,
      "duration_s": 0.48
    },
    {
      "t": 349.62,
      "word": "is",
      "f0_hz": 110.0,
      "pitch_bend": 0,
      "ternary": 0,
      "t_pitch": 0,
      "t_vol": 0,
      "t_timing": 0,
      "spk": 1,
      "role": 1,
      "note": 60,
      "velocity": 64,
      "energy": 20,
      "duration_s": 0.38
    },
    {
      "t": 350.0,
      "word": "two",
      "f0_hz": 110.0,
      "pitch_bend": 0,
      "ternary": 0,
      "t_pitch": 0,
      "t_vol": 0,
      "t_timing": 0,
      "spk": 1,
      "role": 1,
      "note": 60,
      "velocity": 64,
      "energy": 20,
      "duration_s": 0.12
    },
    {
      "t": 350.12,
      "word": "years",
      "f0_hz": 130.0,
      "pitch_bend": 0,
      "ternary": 0,
      "t_pitch": 0,
      "t_vol": 0,
      "t_timing": 0,
      "spk": 1,
      "role": 1,
      "note": 60,
      "velocity": 64,
      "energy": 20,
      "duration_s": 0.14
    },
    {
      "t": 350.26,
      "word": "older",
      "f0_hz": 110.0,
      "pitch_bend": 0,
      "ternary": 0,
      "t_pitch": 0,
      "t_vol": 0,
      "t_timing": 0,
      "spk": 1,
      "role": 1,
      "note": 60,
      "velocity": 64,
      "energy": 20,
      "duration_s": 0.16
    },
    {
      "t": 350.42,
      "word": "than",
      "f0_hz": 110.0,
      "pitch_bend": 0,
      "ternary": 0,
      "t_pitch": 0,
      "t_vol": 0,
      "t_timing": 0,
      "spk": 1,
      "role": 1,
      "note": 60,
      "velocity": 64,
      "energy": 20,
      "duration_s": 0.16
    },
    {
      "t": 350.58,
      "word": "me.",
      "f0_hz": 110.0,
      "pitch_bend": 0,
      "ternary": 0,
      "t_pitch": 0,
      "t_vol": 0,
      "t_timing": 0,
      "spk": 1,
      "role": 1,
      "note": 60,
      "velocity": 64,
      "energy": 20,
      "duration_s": 0.1
    },
    {
      "t": 350.68,
      "word": "I",
      "f0_hz": 110.0,
      "pitch_bend": 0,
      "ternary": 0,
      "t_pitch": 0,
      "t_vol": 0,
      "t_timing": 0,
      "spk": 0,
      "role": 1,
      "note": 60,
      "velocity": 64,
      "energy": 20,
      "duration_s": 0.18
    },
    {
      "t": 350.86,
      "word": "have",
      "f0_hz": 130.0,
      "pitch_bend": 0,
      "ternary": 0,
      "t_pitch": 0,
      "t_vol": 0,
      "t_timing": 0,
      "spk": 1,
      "role": 1,
      "note": 60,
      "velocity": 64,
      "energy": 20,
      "duration_s": 0.06
    },
    {
      "t": 350.92,
      "word": "a",
      "f0_hz": 110.0,
      "pitch_bend": 0,
      "ternary": 0,
      "t_pitch": 0,
      "t_vol": 0,
      "t_timing": 0,
      "spk": 1,
      "role": 1,
      "note": 60,
      "velocity": 64,
      "energy": 20,
      "duration_s": 0.18
    },
    {
      "t": 351.1,
      "word": "twin",
      "f0_hz": 110.0,
      "pitch_bend": 0,
      "ternary": 0,
      "t_pitch": 0,
      "t_vol": 0,
      "t_timing": 0,
      "spk": 1,
      "role": 1,
      "note": 60,
      "velocity": 64,
      "energy": 20,
      "duration_s": 0.24
    },
    {
      "t": 351.34,
      "word": "sister.",
      "f0_hz": 110.0,
      "pitch_bend": 0,
      "ternary": 0,
      "t_pitch": 0,
      "t_vol": 0,
      "t_timing": 0,
      "spk": 1,
      "role": 1,
      "note": 60,
      "velocity": 64,
      "energy": 20,
      "duration_s": 0.5
    },
    {
      "t": 352.3,
      "word": "So",
      "f0_hz": 110.0,
      "pitch_bend": 0,
      "ternary": 0,
      "t_pitch": 0,
      "t_vol": 0,
      "t_timing": 0,
      "spk": 1,
      "role": 1,
      "note": 60,
      "velocity": 64,
      "energy": 20,
      "duration_s": 0.1
    },
    {
      "t": 352.4,
      "word": "it",
      "f0_hz": 110.0,
      "pitch_bend": 0,
      "ternary": 0,
      "t_pitch": 0,
      "t_vol": 0,
      "t_timing": 0,
      "spk": 0,
      "role": 1,
      "note": 60,
      "velocity": 64,
      "energy": 20,
      "duration_s": 0.1
    },
    {
      "t": 352.5,
      "word": "was",
      "f0_hz": 130.0,
      "pitch_bend": 0,
      "ternary": 0,
      "t_pitch": 0,
      "t_vol": 0,
      "t_timing": 0,
      "spk": 1,
      "role": 1,
      "note": 60,
      "velocity": 64,
      "energy": 20,
      "duration_s": 0.0
    },
    {
      "t": 352.5,
      "word": "me",
      "f0_hz": 110.0,
      "pitch_bend": 0,
      "ternary": 0,
      "t_pitch": 0,
      "t_vol": 0,
      "t_timing": 0,
      "spk": 1,
      "role": 1,
      "note": 60,
      "velocity": 64,
      "energy": 20,
      "duration_s": 0.12
    },
    {
      "t": 352.62,
      "word": "and",
      "f0_hz": 110.0,
      "pitch_bend": 0,
      "ternary": 0,
      "t_pitch": 0,
      "t_vol": 0,
      "t_timing": 0,
      "spk": 1,
      "role": 1,
      "note": 60,
      "velocity": 64,
      "energy": 20,
      "duration_s": 0.06
    },
    {
      "t": 352.68,
      "word": "my",
      "f0_hz": 110.0,
      "pitch_bend": 0,
      "ternary": 0,
      "t_pitch": 0,
      "t_vol": 0,
      "t_timing": 0,
      "spk": 1,
      "role": 1,
      "note": 60,
      "velocity": 64,
      "energy": 20,
      "duration_s": 0.16
    },
    {
      "t": 352.84,
      "word": "twin",
      "f0_hz": 110.0,
      "pitch_bend": 0,
      "ternary": 0,
      "t_pitch": 0,
      "t_vol": 0,
      "t_timing": 0,
      "spk": 1,
      "role": 1,
      "note": 60,
      "velocity": 64,
      "energy": 20,
      "duration_s": 0.14
    },
    {
      "t": 352.98,
      "word": "sister.",
      "f0_hz": 110.0,
      "pitch_bend": 0,
      "ternary": 0,
      "t_pitch": 0,
      "t_vol": 0,
      "t_timing": 0,
      "spk": 1,
      "role": 1,
      "note": 60,
      "velocity": 64,
      "energy": 20,
      "duration_s": 0.3
    },
    {
      "t": 353.76,
      "word": "Mum",
      "f0_hz": 110.0,
      "pitch_bend": 0,
      "ternary": 0,
      "t_pitch": 0,
      "t_vol": 0,
      "t_timing": 0,
      "spk": 0,
      "role": 1,
      "note": 60,
      "velocity": 64,
      "energy": 20,
      "duration_s": 0.02
    },
    {
      "t": 353.78,
      "word": "tells",
      "f0_hz": 110.0,
      "pitch_bend": 0,
      "ternary": 0,
      "t_pitch": 0,
      "t_vol": 0,
      "t_timing": 0,
      "spk": 1,
      "role": 1,
      "note": 60,
      "velocity": 64,
      "energy": 20,
      "duration_s": 1.22
    },
    {
      "t": 355.0,
      "word": "us",
      "f0_hz": 110.0,
      "pitch_bend": 0,
      "ternary": 0,
      "t_pitch": 0,
      "t_vol": 0,
      "t_timing": 0,
      "spk": 0,
      "role": 1,
      "note": 60,
      "velocity": 64,
      "energy": 20,
      "duration_s": 0.32
    },
    {
      "t": 355.32,
      "word": "about",
      "f0_hz": 110.0,
      "pitch_bend": 0,
      "ternary": 0,
      "t_pitch": 0,
      "t_vol": 0,
      "t_timing": 0,
      "spk": 1,
      "role": 1,
      "note": 60,
      "velocity": 64,
      "energy": 20,
      "duration_s": 0.24
    },
    {
      "t": 355.56,
      "word": "how",
      "f0_hz": 130.0,
      "pitch_bend": 0,
      "ternary": 0,
      "t_pitch": 0,
      "t_vol": 0,
      "t_timing": 0,
      "spk": 1,
      "role": 1,
      "note": 60,
      "velocity": 64,
      "energy": 20,
      "duration_s": 0.56
    },
    {
      "t": 356.12,
      "word": "she",
      "f0_hz": 110.0,
      "pitch_bend": 0,
      "ternary": 0,
      "t_pitch": 0,
      "t_vol": 0,
      "t_timing": 0,
      "spk": 1,
      "role": 1,
      "note": 60,
      "velocity": 64,
      "energy": 20,
      "duration_s": 0.08
    },
    {
      "t": 356.2,
      "word": "would",
      "f0_hz": 130.0,
      "pitch_bend": 0,
      "ternary": 0,
      "t_pitch": 0,
      "t_vol": 0,
      "t_timing": 0,
      "spk": 0,
      "role": 1,
      "note": 60,
      "velocity": 64,
      "energy": 20,
      "duration_s": 0.14
    },
    {
      "t": 356.34,
      "word": "breastfeed",
      "f0_hz": 110.0,
      "pitch_bend": 0,
      "ternary": 0,
      "t_pitch": 0,
      "t_vol": 0,
      "t_timing": 0,
      "spk": 1,
      "role": 1,
      "note": 60,
      "velocity": 64,
      "energy": 20,
      "duration_s": 0.46
    },
    {
      "t": 356.8,
      "word": "us",
      "f0_hz": 110.0,
      "pitch_bend": 0,
      "ternary": 0,
      "t_pitch": 0,
      "t_vol": 0,
      "t_timing": 0,
      "spk": 1,
      "role": 1,
      "note": 60,
      "velocity": 64,
      "energy": 20,
      "duration_s": 0.26
    },
    {
      "t": 357.06,
      "word": "both",
      "f0_hz": 110.0,
      "pitch_bend": 0,
      "ternary": 0,
      "t_pitch": 0,
      "t_vol": 0,
      "t_timing": 0,
      "spk": 1,
      "role": 1,
      "note": 60,
      "velocity": 64,
      "energy": 20,
      "duration_s": 0.26
    },
    {
      "t": 357.32,
      "word": "at",
      "f0_hz": 110.0,
      "pitch_bend": 0,
      "ternary": 0,
      "t_pitch": 0,
      "t_vol": 0,
      "t_timing": 0,
      "spk": 1,
      "role": 1,
      "note": 60,
      "velocity": 64,
      "energy": 20,
      "duration_s": 0.14
    },
    {
      "t": 357.46,
      "word": "the",
      "f0_hz": 110.0,
      "pitch_bend": 0,
      "ternary": 0,
      "t_pitch": 0,
      "t_vol": 0,
      "t_timing": 0,
      "spk": 1,
      "role": 1,
      "note": 60,
      "velocity": 64,
      "energy": 20,
      "duration_s": 0.16
    },
    {
      "t": 357.62,
      "word": "same",
      "f0_hz": 110.0,
      "pitch_bend": 0,
      "ternary": 0,
      "t_pitch": 0,
      "t_vol": 0,
      "t_timing": 0,
      "spk": 1,
      "role": 1,
      "note": 60,
      "velocity": 64,
      "energy": 20,
      "duration_s": 0.2
    },
    {
      "t": 357.82,
      "word": "time.",
      "f0_hz": 110.0,
      "pitch_bend": 0,
      "ternary": 0,
      "t_pitch": 0,
      "t_vol": 0,
      "t_timing": 0,
      "spk": 1,
      "role": 1,
      "note": 60,
      "velocity": 64,
      "energy": 20,
      "duration_s": 0.54
    },
    {
      "t": 358.76,
      "word": "And",
      "f0_hz": 110.0,
      "pitch_bend": 0,
      "ternary": 0,
      "t_pitch": 0,
      "t_vol": 0,
      "t_timing": 0,
      "spk": 1,
      "role": 1,
      "note": 60,
      "velocity": 64,
      "energy": 20,
      "duration_s": 0.0
    },
    {
      "t": 358.76,
      "word": "then",
      "f0_hz": 110.0,
      "pitch_bend": 0,
      "ternary": 0,
      "t_pitch": 0,
      "t_vol": 0,
      "t_timing": 0,
      "spk": 1,
      "role": 1,
      "note": 60,
      "velocity": 64,
      "energy": 20,
      "duration_s": 0.4
    },
    {
      "t": 359.16,
      "word": "Sam",
      "f0_hz": 110.0,
      "pitch_bend": 0,
      "ternary": 0,
      "t_pitch": 0,
      "t_vol": 0,
      "t_timing": 0,
      "spk": 1,
      "role": 1,
      "note": 60,
      "velocity": 64,
      "energy": 20,
      "duration_s": 0.26
    },
    {
      "t": 359.42,
      "word": "was",
      "f0_hz": 130.0,
      "pitch_bend": 0,
      "ternary": 0,
      "t_pitch": 0,
      "t_vol": 0,
      "t_timing": 0,
      "spk": 1,
      "role": 1,
      "note": 60,
      "velocity": 64,
      "energy": 20,
      "duration_s": 0.2
    },
    {
      "t": 359.62,
      "word": "a",
      "f0_hz": 110.0,
      "pitch_bend": 0,
      "ternary": 0,
      "t_pitch": 0,
      "t_vol": 0,
      "t_timing": 0,
      "spk": 1,
      "role": 1,
      "note": 60,
      "velocity": 64,
      "energy": 20,
      "duration_s": 0.12
    },
    {
      "t": 359.74,
      "word": "little",
      "f0_hz": 110.0,
      "pitch_bend": 0,
      "ternary": 0,
      "t_pitch": 0,
      "t_vol": 0,
      "t_timing": 0,
      "spk": 1,
      "role": 1,
      "note": 60,
      "velocity": 64,
      "energy": 20,
      "duration_s": 0.1
    },
    {
      "t": 359.84,
      "word": "bit",
      "f0_hz": 110.0,
      "pitch_bend": 0,
      "ternary": 0,
      "t_pitch": 0,
      "t_vol": 0,
      "t_timing": 0,
      "spk": 1,
      "role": 1,
      "note": 60,
      "velocity": 64,
      "energy": 20,
      "duration_s": 0.18
    },
    {
      "t": 360.02,
      "word": "older,",
      "f0_hz": 110.0,
      "pitch_bend": 0,
      "ternary": 0,
      "t_pitch": 0,
      "t_vol": 0,
      "t_timing": 0,
      "spk": 1,
      "role": 1,
      "note": 60,
      "velocity": 64,
      "energy": 20,
      "duration_s": 0.16
    },
    {
      "t": 360.4,
      "word": "so",
      "f0_hz": 110.0,
      "pitch_bend": 0,
      "ternary": 0,
      "t_pitch": 0,
      "t_vol": 0,
      "t_timing": 0,
      "spk": 1,
      "role": 1,
      "note": 60,
      "velocity": 64,
      "energy": 20,
      "duration_s": 0.08
    },
    {
      "t": 360.48,
      "word": "she",
      "f0_hz": 110.0,
      "pitch_bend": 0,
      "ternary": 0,
      "t_pitch": 0,
      "t_vol": 0,
      "t_timing": 0,
      "spk": 1,
      "role": 1,
      "note": 60,
      "velocity": 64,
      "energy": 20,
      "duration_s": 0.14
    },
    {
      "t": 360.62,
      "word": "had",
      "f0_hz": 130.0,
      "pitch_bend": 0,
      "ternary": 0,
      "t_pitch": 0,
      "t_vol": 0,
      "t_timing": 0,
      "spk": 1,
      "role": 1,
      "note": 60,
      "velocity": 64,
      "energy": 20,
      "duration_s": 0.06
    },
    {
      "t": 360.68,
      "word": "to",
      "f0_hz": 110.0,
      "pitch_bend": 0,
      "ternary": 0,
      "t_pitch": 0,
      "t_vol": 0,
      "t_timing": 0,
      "spk": 1,
      "role": 1,
      "note": 60,
      "velocity": 64,
      "energy": 20,
      "duration_s": 0.08
    },
    {
      "t": 360.76,
      "word": "keep",
      "f0_hz": 110.0,
      "pitch_bend": 0,
      "ternary": 0,
      "t_pitch": 0,
      "t_vol": 0,
      "t_timing": 0,
      "spk": 1,
      "role": 1,
      "note": 60,
      "velocity": 64,
      "energy": 20,
      "duration_s": 0.28
    },
    {
      "t": 361.04,
      "word": "Sam",
      "f0_hz": 110.0,
      "pitch_bend": 0,
      "ternary": 0,
      "t_pitch": 0,
      "t_vol": 0,
      "t_timing": 0,
      "spk": 1,
      "role": 1,
      "note": 60,
      "velocity": 64,
      "energy": 20,
      "duration_s": 0.18
    },
    {
      "t": 361.22,
      "word": "occupied,",
      "f0_hz": 110.0,
      "pitch_bend": 0,
      "ternary": 0,
      "t_pitch": 0,
      "t_vol": 0,
      "t_timing": 0,
      "spk": 0,
      "role": 1,
      "note": 60,
      "velocity": 64,
      "energy": 20,
      "duration_s": 0.38
    },
    {
      "t": 361.82,
      "word": "but",
      "f0_hz": 110.0,
      "pitch_bend": 0,
      "ternary": 0,
      "t_pitch": 0,
      "t_vol": 0,
      "t_timing": 0,
      "spk": 1,
      "role": 1,
      "note": 60,
      "velocity": 64,
      "energy": 20,
      "duration_s": 0.0
    },
    {
      "t": 361.82,
      "word": "she",
      "f0_hz": 110.0,
      "pitch_bend": 0,
      "ternary": 0,
      "t_pitch": 0,
      "t_vol": 0,
      "t_timing": 0,
      "spk": 1,
      "role": 1,
      "note": 60,
      "velocity": 64,
      "energy": 20,
      "duration_s": 0.08
    },
    {
      "t": 361.9,
      "word": "was",
      "f0_hz": 130.0,
      "pitch_bend": 0,
      "ternary": 0,
      "t_pitch": 0,
      "t_vol": 0,
      "t_timing": 0,
      "spk": 1,
      "role": 1,
      "note": 60,
      "velocity": 64,
      "energy": 20,
      "duration_s": 0.2
    },
    {
      "t": 362.1,
      "word": "breastfeeding",
      "f0_hz": 110.0,
      "pitch_bend": 0,
      "ternary": 0,
      "t_pitch": 0,
      "t_vol": 0,
      "t_timing": 0,
      "spk": 1,
      "role": 1,
      "note": 60,
      "velocity": 64,
      "energy": 20,
      "duration_s": 0.38
    },
    {
      "t": 362.48,
      "word": "me",
      "f0_hz": 110.0,
      "pitch_bend": 0,
      "ternary": 0,
      "t_pitch": 0,
      "t_vol": 0,
      "t_timing": 0,
      "spk": 0,
      "role": 1,
      "note": 60,
      "velocity": 64,
      "energy": 20,
      "duration_s": 0.32
    },
    {
      "t": 362.8,
      "word": "and",
      "f0_hz": 110.0,
      "pitch_bend": 0,
      "ternary": 0,
      "t_pitch": 0,
      "t_vol": 0,
      "t_timing": 0,
      "spk": 1,
      "role": 1,
      "note": 60,
      "velocity": 64,
      "energy": 20,
      "duration_s": 0.08
    },
    {
      "t": 362.88,
      "word": "Sarah.",
      "f0_hz": 110.0,
      "pitch_bend": 0,
      "ternary": 0,
      "t_pitch": 0,
      "t_vol": 0,
      "t_timing": 0,
      "spk": 1,
      "role": 1,
      "note": 60,
      "velocity": 64,
      "energy": 20,
      "duration_s": 0.24
    },
    {
      "t": 363.56,
      "word": "So",
      "f0_hz": 110.0,
      "pitch_bend": 0,
      "ternary": 0,
      "t_pitch": 0,
      "t_vol": 0,
      "t_timing": 0,
      "spk": 1,
      "role": 1,
      "note": 60,
      "velocity": 64,
      "energy": 20,
      "duration_s": 0.0
    },
    {
      "t": 363.56,
      "word": "she'd",
      "f0_hz": 110.0,
      "pitch_bend": 0,
      "ternary": 0,
      "t_pitch": 0,
      "t_vol": 0,
      "t_timing": 0,
      "spk": 1,
      "role": 1,
      "note": 60,
      "velocity": 64,
      "energy": 20,
      "duration_s": 0.16
    },
    {
      "t": 363.72,
      "word": "read",
      "f0_hz": 110.0,
      "pitch_bend": 0,
      "ternary": 0,
      "t_pitch": 0,
      "t_vol": 0,
      "t_timing": 0,
      "spk": 1,
      "role": 1,
      "note": 60,
      "velocity": 64,
      "energy": 20,
      "duration_s": 0.16
    },
    {
      "t": 363.88,
      "word": "books.",
      "f0_hz": 110.0,
      "pitch_bend": 0,
      "ternary": 0,
      "t_pitch": 0,
      "t_vol": 0,
      "t_timing": 0,
      "spk": 1,
      "role": 1,
      "note": 60,
      "velocity": 64,
      "energy": 20,
      "duration_s": 0.24
    },
    {
      "t": 364.42,
      "word": "So",
      "f0_hz": 110.0,
      "pitch_bend": 0,
      "ternary": 0,
      "t_pitch": 0,
      "t_vol": 0,
      "t_timing": 0,
      "spk": 1,
      "role": 1,
      "note": 60,
      "velocity": 64,
      "energy": 20,
      "duration_s": 0.0
    },
    {
      "t": 364.42,
      "word": "like",
      "f0_hz": 110.0,
      "pitch_bend": 0,
      "ternary": 0,
      "t_pitch": 0,
      "t_vol": 0,
      "t_timing": 0,
      "spk": 1,
      "role": 1,
      "note": 60,
      "velocity": 64,
      "energy": 20,
      "duration_s": 0.1
    },
    {
      "t": 364.52,
      "word": "me,",
      "f0_hz": 110.0,
      "pitch_bend": 0,
      "ternary": 0,
      "t_pitch": 0,
      "t_vol": 0,
      "t_timing": 0,
      "spk": 1,
      "role": 1,
      "note": 60,
      "velocity": 64,
      "energy": 20,
      "duration_s": 0.24
    },
    {
      "t": 364.86,
      "word": "she'd",
      "f0_hz": 110.0,
      "pitch_bend": 0,
      "ternary": 0,
      "t_pitch": 0,
      "t_vol": 0,
      "t_timing": 0,
      "spk": 1,
      "role": 1,
      "note": 60,
      "velocity": 64,
      "energy": 20,
      "duration_s": 0.1
    },
    {
      "t": 364.96,
      "word": "have",
      "f0_hz": 130.0,
      "pitch_bend": 0,
      "ternary": 0,
      "t_pitch": 0,
      "t_vol": 0,
      "t_timing": 0,
      "spk": 1,
      "role": 1,
      "note": 60,
      "velocity": 64,
      "energy": 20,
      "duration_s": 0.48
    },
    {
      "t": 365.44,
      "word": "me",
      "f0_hz": 110.0,
      "pitch_bend": 0,
      "ternary": 0,
      "t_pitch": 0,
      "t_vol": 0,
      "t_timing": 0,
      "spk": 1,
      "role": 1,
      "note": 60,
      "velocity": 64,
      "energy": 20,
      "duration_s": 0.18
    },
    {
      "t": 365.62,
      "word": "and",
      "f0_hz": 110.0,
      "pitch_bend": 0,
      "ternary": 0,
      "t_pitch": 0,
      "t_vol": 0,
      "t_timing": 0,
      "spk": 1,
      "role": 1,
      "note": 60,
      "velocity": 64,
      "energy": 20,
      "duration_s": 0.1
    },
    {
      "t": 365.72,
      "word": "Sarah",
      "f0_hz": 110.0,
      "pitch_bend": 0,
      "ternary": 0,
      "t_pitch": 0,
      "t_vol": 0,
      "t_timing": 0,
      "spk": 1,
      "role": 1,
      "note": 60,
      "velocity": 64,
      "energy": 20,
      "duration_s": 0.28
    },
    {
      "t": 366.0,
      "word": "on",
      "f0_hz": 110.0,
      "pitch_bend": 0,
      "ternary": 0,
      "t_pitch": 0,
      "t_vol": 0,
      "t_timing": 0,
      "spk": 1,
      "role": 1,
      "note": 60,
      "velocity": 64,
      "energy": 20,
      "duration_s": 1.14
    },
    {
      "t": 367.14,
      "word": "one",
      "f0_hz": 110.0,
      "pitch_bend": 0,
      "ternary": 0,
      "t_pitch": 0,
      "t_vol": 0,
      "t_timing": 0,
      "spk": 1,
      "role": 1,
      "note": 60,
      "velocity": 64,
      "energy": 20,
      "duration_s": 0.84
    },
    {
      "t": 367.98,
      "word": "breast",
      "f0_hz": 110.0,
      "pitch_bend": 0,
      "ternary": 0,
      "t_pitch": 0,
      "t_vol": 0,
      "t_timing": 0,
      "spk": 1,
      "role": 1,
      "note": 60,
      "velocity": 64,
      "energy": 20,
      "duration_s": 0.4
    },
    {
      "t": 368.38,
      "word": "stage",
      "f0_hz": 110.0,
      "pitch_bend": 0,
      "ternary": 0,
      "t_pitch": 0,
      "t_vol": 0,
      "t_timing": 0,
      "spk": 1,
      "role": 1,
      "note": 60,
      "velocity": 64,
      "energy": 20,
      "duration_s": 0.44
    },
    {
      "t": 368.82,
      "word": "and",
      "f0_hz": 110.0,
      "pitch_bend": 0,
      "ternary": 0,
      "t_pitch": 0,
      "t_vol": 0,
      "t_timing": 0,
      "spk": 0,
      "role": 1,
      "note": 60,
      "velocity": 64,
      "energy": 20,
      "duration_s": 0.2
    },
    {
      "t": 369.02,
      "word": "then",
      "f0_hz": 110.0,
      "pitch_bend": 0,
      "ternary": 0,
      "t_pitch": 0,
      "t_vol": 0,
      "t_timing": 0,
      "spk": 1,
      "role": 1,
      "note": 60,
      "velocity": 64,
      "energy": 20,
      "duration_s": 0.22
    },
    {
      "t": 369.24,
      "word": "Sam",
      "f0_hz": 110.0,
      "pitch_bend": 0,
      "ternary": 0,
      "t_pitch": 0,
      "t_vol": 0,
      "t_timing": 0,
      "spk": 1,
      "role": 1,
      "note": 60,
      "velocity": 64,
      "energy": 20,
      "duration_s": 0.1
    },
    {
      "t": 369.34,
      "word": "would",
      "f0_hz": 130.0,
      "pitch_bend": 0,
      "ternary": 0,
      "t_pitch": 0,
      "t_vol": 0,
      "t_timing": 0,
      "spk": 1,
      "role": 1,
      "note": 60,
      "velocity": 64,
      "energy": 20,
      "duration_s": 0.14
    },
    {
      "t": 369.48,
      "word": "be",
      "f0_hz": 110.0,
      "pitch_bend": 0,
      "ternary": 0,
      "t_pitch": 0,
      "t_vol": 0,
      "t_timing": 0,
      "spk": 1,
      "role": 1,
      "note": 60,
      "velocity": 64,
      "energy": 20,
      "duration_s": 0.14
    },
    {
      "t": 369.62,
      "word": "seen",
      "f0_hz": 110.0,
      "pitch_bend": 0,
      "ternary": 0,
      "t_pitch": 0,
      "t_vol": 0,
      "t_timing": 0,
      "spk": 1,
      "role": 1,
      "note": 60,
      "velocity": 64,
      "energy": 20,
      "duration_s": 0.14
    },
    {
      "t": 369.76,
      "word": "that",
      "f0_hz": 110.0,
      "pitch_bend": 0,
      "ternary": 0,
      "t_pitch": 0,
      "t_vol": 0,
      "t_timing": 0,
      "spk": 1,
      "role": 1,
      "note": 60,
      "velocity": 64,
      "energy": 20,
      "duration_s": 0.18
    },
    {
      "t": 369.94,
      "word": "she'd",
      "f0_hz": 110.0,
      "pitch_bend": 0,
      "ternary": 0,
      "t_pitch": 0,
      "t_vol": 0,
      "t_timing": 0,
      "spk": 1,
      "role": 1,
      "note": 60,
      "velocity": 64,
      "energy": 20,
      "duration_s": 0.22
    },
    {
      "t": 370.16,
      "word": "be",
      "f0_hz": 110.0,
      "pitch_bend": 0,
      "ternary": 0,
      "t_pitch": 0,
      "t_vol": 0,
      "t_timing": 0,
      "spk": 1,
      "role": 1,
      "note": 60,
      "velocity": 64,
      "energy": 20,
      "duration_s": 0.18
    },
    {
      "t": 370.34,
      "word": "just",
      "f0_hz": 110.0,
      "pitch_bend": 0,
      "ternary": 0,
      "t_pitch": 0,
      "t_vol": 0,
      "t_timing": 0,
      "spk": 1,
      "role": 1,
      "note": 60,
      "velocity": 64,
      "energy": 20,
      "duration_s": 0.16
    },
    {
      "t": 370.5,
      "word": "reading",
      "f0_hz": 110.0,
      "pitch_bend": 0,
      "ternary": 0,
      "t_pitch": 0,
      "t_vol": 0,
      "t_timing": 0,
      "spk": 1,
      "role": 1,
      "note": 60,
      "velocity": 64,
      "energy": 20,
      "duration_s": 0.36
    },
    {
      "t": 370.86,
      "word": "us",
      "f0_hz": 110.0,
      "pitch_bend": 0,
      "ternary": 0,
      "t_pitch": 0,
      "t_vol": 0,
      "t_timing": 0,
      "spk": 1,
      "role": 1,
      "note": 60,
      "velocity": 64,
      "energy": 20,
      "duration_s": 0.36
    },
    {
      "t": 371.22,
      "word": "all",
      "f0_hz": 110.0,
      "pitch_bend": 0,
      "ternary": 0,
      "t_pitch": 0,
      "t_vol": 0,
      "t_timing": 0,
      "spk": 1,
      "role": 1,
      "note": 60,
      "velocity": 64,
      "energy": 20,
      "duration_s": 0.2
    },
    {
      "t": 371.42,
      "word": "books.",
      "f0_hz": 110.0,
      "pitch_bend": 0,
      "ternary": 0,
      "t_pitch": 0,
      "t_vol": 0,
      "t_timing": 0,
      "spk": 1,
      "role": 1,
      "note": 60,
      "velocity": 64,
      "energy": 20,
      "duration_s": 0.44
    },
    {
      "t": 372.14,
      "word": "Okay.",
      "f0_hz": 110.0,
      "pitch_bend": 0,
      "ternary": 0,
      "t_pitch": 0,
      "t_vol": 0,
      "t_timing": 0,
      "spk": 0,
      "role": 1,
      "note": 60,
      "velocity": 64,
      "energy": 20,
      "duration_s": 0.24
    },
    {
      "t": 372.46,
      "word": "In",
      "f0_hz": 110.0,
      "pitch_bend": 0,
      "ternary": 0,
      "t_pitch": 0,
      "t_vol": 0,
      "t_timing": 0,
      "spk": 1,
      "role": 1,
      "note": 60,
      "velocity": 64,
      "energy": 20,
      "duration_s": 0.1
    },
    {
      "t": 372.56,
      "word": "my",
      "f0_hz": 110.0,
      "pitch_bend": 0,
      "ternary": 0,
      "t_pitch": 0,
      "t_vol": 0,
      "t_timing": 0,
      "spk": 1,
      "role": 1,
      "note": 60,
      "velocity": 64,
      "energy": 20,
      "duration_s": 0.24
    },
    {
      "t": 372.8,
      "word": "mind,",
      "f0_hz": 110.0,
      "pitch_bend": 0,
      "ternary": 0,
      "t_pitch": 0,
      "t_vol": 0,
      "t_timing": 0,
      "spk": 1,
      "role": 1,
      "note": 60,
      "velocity": 64,
      "energy": 20,
      "duration_s": 0.28
    },
    {
      "t": 373.12,
      "word": "that",
      "f0_hz": 110.0,
      "pitch_bend": 0,
      "ternary": 0,
      "t_pitch": 0,
      "t_vol": 0,
      "t_timing": 0,
      "spk": 0,
      "role": 1,
      "note": 60,
      "velocity": 64,
      "energy": 20,
      "duration_s": 0.12
    },
    {
      "t": 373.24,
      "word": "is",
      "f0_hz": 110.0,
      "pitch_bend": 0,
      "ternary": 0,
      "t_pitch": 0,
      "t_vol": 0,
      "t_timing": 0,
      "spk": 1,
      "role": 1,
      "note": 60,
      "velocity": 64,
      "energy": 20,
      "duration_s": 0.22
    },
    {
      "t": 373.46,
      "word": "a",
      "f0_hz": 110.0,
      "pitch_bend": 0,
      "ternary": 0,
      "t_pitch": 0,
      "t_vol": 0,
      "t_timing": 0,
      "spk": 1,
      "role": 1,
      "note": 60,
      "velocity": 64,
      "energy": 20,
      "duration_s": 0.14
    },
    {
      "t": 373.6,
      "word": "woman",
      "f0_hz": 130.0,
      "pitch_bend": 0,
      "ternary": 0,
      "t_pitch": 0,
      "t_vol": 0,
      "t_timing": 0,
      "spk": 1,
      "role": 1,
      "note": 60,
      "velocity": 64,
      "energy": 20,
      "duration_s": 0.2
    },
    {
      "t": 373.8,
      "word": "with",
      "f0_hz": 130.0,
      "pitch_bend": 0,
      "ternary": 0,
      "t_pitch": 0,
      "t_vol": 0,
      "t_timing": 0,
      "spk": 1,
      "role": 1,
      "note": 60,
      "velocity": 64,
      "energy": 20,
      "duration_s": 0.3
    },
    {
      "t": 374.1,
      "word": "two",
      "f0_hz": 110.0,
      "pitch_bend": 0,
      "ternary": 0,
      "t_pitch": 0,
      "t_vol": 0,
      "t_timing": 0,
      "spk": 1,
      "role": 1,
      "note": 60,
      "velocity": 64,
      "energy": 20,
      "duration_s": 0.28
    },
    {
      "t": 374.38,
      "word": "arms,",
      "f0_hz": 110.0,
      "pitch_bend": 0,
      "ternary": 0,
      "t_pitch": 0,
      "t_vol": 0,
      "t_timing": 0,
      "spk": 1,
      "role": 1,
      "note": 60,
      "velocity": 64,
      "energy": 20,
      "duration_s": 0.38
    },
    {
      "t": 374.94,
      "word": "twins,",
      "f0_hz": 110.0,
      "pitch_bend": 0,
      "ternary": 0,
      "t_pitch": 0,
      "t_vol": 0,
      "t_timing": 0,
      "spk": 1,
      "role": 1,
      "note": 60,
      "velocity": 64,
      "energy": 20,
      "duration_s": 0.52
    },
    {
      "t": 375.7,
      "word": "having",
      "f0_hz": 130.0,
      "pitch_bend": 0,
      "ternary": 0,
      "t_pitch": 0,
      "t_vol": 0,
      "t_timing": 0,
      "spk": 0,
      "role": 1,
      "note": 60,
      "velocity": 64,
      "energy": 20,
      "duration_s": 0.1
    },
    {
      "t": 375.8,
      "word": "to",
      "f0_hz": 110.0,
      "pitch_bend": 0,
      "ternary": 0,
      "t_pitch": 0,
      "t_vol": 0,
      "t_timing": 0,
      "spk": 1,
      "role": 1,
      "note": 60,
      "velocity": 64,
      "energy": 20,
      "duration_s": 0.28
    },
    {
      "t": 376.08,
      "word": "turn",
      "f0_hz": 110.0,
      "pitch_bend": 0,
      "ternary": 0,
      "t_pitch": 0,
      "t_vol": 0,
      "t_timing": 0,
      "spk": 1,
      "role": 1,
      "note": 60,
      "velocity": 64,
      "energy": 20,
      "duration_s": 0.34
    },
    {
      "t": 376.42,
      "word": "pages",
      "f0_hz": 110.0,
      "pitch_bend": 0,
      "ternary": 0,
      "t_pitch": 0,
      "t_vol": 0,
      "t_timing": 0,
      "spk": 1,
      "role": 1,
      "note": 60,
      "velocity": 64,
      "energy": 20,
      "duration_s": 0.3
    },
    {
      "t": 376.72,
      "word": "with",
      "f0_hz": 130.0,
      "pitch_bend": 0,
      "ternary": 0,
      "t_pitch": 0,
      "t_vol": 0,
      "t_timing": 0,
      "spk": 1,
      "role": 1,
      "note": 60,
      "velocity": 64,
      "energy": 20,
      "duration_s": 0.3
    },
    {
      "t": 377.02,
      "word": "a",
      "f0_hz": 110.0,
      "pitch_bend": 0,
      "ternary": 0,
      "t_pitch": 0,
      "t_vol": 0,
      "t_timing": 0,
      "spk": 1,
      "role": 1,
      "note": 60,
      "velocity": 64,
      "energy": 20,
      "duration_s": 0.22
    },
    {
      "t": 377.24,
      "word": "toy.",
      "f0_hz": 110.0,
      "pitch_bend": 0,
      "ternary": 0,
      "t_pitch": 0,
      "t_vol": 0,
      "t_timing": 0,
      "spk": 1,
      "role": 1,
      "note": 60,
      "velocity": 64,
      "energy": 20,
      "duration_s": 0.24
    },
    {
      "t": 379.5,
      "word": "That",
      "f0_hz": 110.0,
      "pitch_bend": 0,
      "ternary": 0,
      "t_pitch": 0,
      "t_vol": 0,
      "t_timing": 0,
      "spk": 0,
      "role": 1,
      "note": 60,
      "velocity": 64,
      "energy": 20,
      "duration_s": 0.48
    },
    {
      "t": 379.98,
      "word": "is",
      "f0_hz": 110.0,
      "pitch_bend": 0,
      "ternary": 0,
      "t_pitch": 0,
      "t_vol": 0,
      "t_timing": 0,
      "spk": 1,
      "role": 1,
      "note": 60,
      "velocity": 64,
      "energy": 20,
      "duration_s": 0.22
    },
    {
      "t": 380.2,
      "word": "a",
      "f0_hz": 110.0,
      "pitch_bend": 0,
      "ternary": 0,
      "t_pitch": 0,
      "t_vol": 0,
      "t_timing": 0,
      "spk": 1,
      "role": 1,
      "note": 60,
      "velocity": 64,
      "energy": 20,
      "duration_s": 0.16
    },
    {
      "t": 380.36,
      "word": "lot",
      "f0_hz": 110.0,
      "pitch_bend": 0,
      "ternary": 0,
      "t_pitch": 0,
      "t_vol": 0,
      "t_timing": 0,
      "spk": 1,
      "role": 1,
      "note": 60,
      "velocity": 64,
      "energy": 20,
      "duration_s": 0.12
    },
    {
      "t": 380.48,
      "word": "of",
      "f0_hz": 110.0,
      "pitch_bend": 0,
      "ternary": 0,
      "t_pitch": 0,
      "t_vol": 0,
      "t_timing": 0,
      "spk": 1,
      "role": 1,
      "note": 60,
      "velocity": 64,
      "energy": 20,
      "duration_s": 0.22
    },
    {
      "t": 380.7,
      "word": "multi",
      "f0_hz": 110.0,
      "pitch_bend": 0,
      "ternary": 0,
      "t_pitch": 0,
      "t_vol": 0,
      "t_timing": 0,
      "spk": 0,
      "role": 1,
      "note": 60,
      "velocity": 64,
      "energy": 20,
      "duration_s": 0.4
    },
    {
      "t": 381.1,
      "word": "-tiles.",
      "f0_hz": 110.0,
      "pitch_bend": 0,
      "ternary": 0,
      "t_pitch": 0,
      "t_vol": 0,
      "t_timing": 0,
      "spk": 1,
      "role": 1,
      "note": 60,
      "velocity": 64,
      "energy": 20,
      "duration_s": 0.34
    },
    {
      "t": 381.8,
      "word": "Yeah,",
      "f0_hz": 130.0,
      "pitch_bend": 0,
      "ternary": 0,
      "t_pitch": 0,
      "t_vol": 0,
      "t_timing": 0,
      "spk": 0,
      "role": 1,
      "note": 60,
      "velocity": 64,
      "energy": 20,
      "duration_s": 0.08
    },
    {
      "t": 382.1,
      "word": "this",
      "f0_hz": 110.0,
      "pitch_bend": 0,
      "ternary": 0,
      "t_pitch": 0,
      "t_vol": 0,
      "t_timing": 0,
      "spk": 1,
      "role": 1,
      "note": 60,
      "velocity": 64,
      "energy": 20,
      "duration_s": 0.24
    },
    {
      "t": 382.34,
      "word": "is",
      "f0_hz": 110.0,
      "pitch_bend": 0,
      "ternary": 0,
      "t_pitch": 0,
      "t_vol": 0,
      "t_timing": 0,
      "spk": 1,
      "role": 1,
      "note": 60,
      "velocity": 64,
      "energy": 20,
      "duration_s": 0.2
    },
    {
      "t": 382.54,
      "word": "a",
      "f0_hz": 110.0,
      "pitch_bend": 0,
      "ternary": 0,
      "t_pitch": 0,
      "t_vol": 0,
      "t_timing": 0,
      "spk": 1,
      "role": 1,
      "note": 60,
      "velocity": 64,
      "energy": 20,
      "duration_s": 0.16
    },
    {
      "t": 382.7,
      "word": "sort",
      "f0_hz": 110.0,
      "pitch_bend": 0,
      "ternary": 0,
      "t_pitch": 0,
      "t_vol": 0,
      "t_timing": 0,
      "spk": 0,
      "role": 1,
      "note": 60,
      "velocity": 64,
      "energy": 20,
      "duration_s": 0.2
    },
    {
      "t": 382.9,
      "word": "of",
      "f0_hz": 110.0,
      "pitch_bend": 0,
      "ternary": 0,
      "t_pitch": 0,
      "t_vol": 0,
      "t_timing": 0,
      "spk": 1,
      "role": 1,
      "note": 60,
      "velocity": 64,
      "energy": 20,
      "duration_s": 0.06
    },
    {
      "t": 382.96,
      "word": "woman.",
      "f0_hz": 130.0,
      "pitch_bend": 0,
      "ternary": 0,
      "t_pitch": 0,
      "t_vol": 0,
      "t_timing": 0,
      "spk": 1,
      "role": 1,
      "note": 60,
      "velocity": 64,
      "energy": 20,
      "duration_s": 0.6
    },
    {
      "t": 383.94,
      "word": "What's",
      "f0_hz": 130.0,
      "pitch_bend": 0,
      "ternary": 0,
      "t_pitch": 0,
      "t_vol": 0,
      "t_timing": 0,
      "spk": 1,
      "role": 1,
      "note": 60,
      "velocity": 64,
      "energy": 20,
      "duration_s": 0.02
    },
    {
      "t": 383.96,
      "word": "your",
      "f0_hz": 130.0,
      "pitch_bend": 0,
      "ternary": 0,
      "t_pitch": 0,
      "t_vol": 0,
      "t_timing": 0,
      "spk": 1,
      "role": 1,
      "note": 60,
      "velocity": 64,
      "energy": 20,
      "duration_s": 0.24
    },
    {
      "t": 384.2,
      "word": "first",
      "f0_hz": 110.0,
      "pitch_bend": 0,
      "ternary": 0,
      "t_pitch": 0,
      "t_vol": 0,
      "t_timing": 0,
      "spk": 1,
      "role": 1,
      "note": 60,
      "velocity": 64,
      "energy": 20,
      "duration_s": 0.46
    },
    {
      "t": 384.66,
      "word": "memory",
      "f0_hz": 110.0,
      "pitch_bend": 0,
      "ternary": 0,
      "t_pitch": 0,
      "t_vol": 0,
      "t_timing": 0,
      "spk": 1,
      "role": 1,
      "note": 60,
      "velocity": 64,
      "energy": 20,
      "duration_s": 0.46
    },
    {
      "t": 385.12,
      "word": "of",
      "f0_hz": 110.0,
      "pitch_bend": 0,
      "ternary": 0,
      "t_pitch": 0,
      "t_vol": 0,
      "t_timing": 0,
      "spk": 1,
      "role": 1,
      "note": 60,
      "velocity": 64,
      "energy": 20,
      "duration_s": 0.38
    },
    {
      "t": 385.5,
      "word": "buying",
      "f0_hz": 110.0,
      "pitch_bend": 0,
      "ternary": 0,
      "t_pitch": 0,
      "t_vol": 0,
      "t_timing": 0,
      "spk": 1,
      "role": 1,
      "note": 60,
      "velocity": 64,
      "energy": 20,
      "duration_s": 0.22
    },
    {
      "t": 385.72,
      "word": "a",
      "f0_hz": 110.0,
      "pitch_bend": 0,
      "ternary": 0,
      "t_pitch": 0,
      "t_vol": 0,
      "t_timing": 0,
      "spk": 1,
      "role": 1,
      "note": 60,
      "velocity": 64,
      "energy": 20,
      "duration_s": 0.26
    },
    {
      "t": 385.98,
      "word": "book",
      "f0_hz": 110.0,
      "pitch_bend": 0,
      "ternary": 0,
      "t_pitch": 0,
      "t_vol": 0,
      "t_timing": 0,
      "spk": 1,
      "role": 1,
      "note": 60,
      "velocity": 64,
      "energy": 20,
      "duration_s": 0.14
    },
    {
      "t": 386.12,
      "word": "of",
      "f0_hz": 110.0,
      "pitch_bend": 0,
      "ternary": 0,
      "t_pitch": 0,
      "t_vol": 0,
      "t_timing": 0,
      "spk": 1,
      "role": 1,
      "note": 60,
      "velocity": 64,
      "energy": 20,
      "duration_s": 0.16
    },
    {
      "t": 386.28,
      "word": "your",
      "f0_hz": 130.0,
      "pitch_bend": 0,
      "ternary": 0,
      "t_pitch": 0,
      "t_vol": 0,
      "t_timing": 0,
      "spk": 1,
      "role": 1,
      "note": 60,
      "velocity": 64,
      "energy": 20,
      "duration_s": 0.2
    },
    {
      "t": 386.48,
      "word": "own?",
      "f0_hz": 110.0,
      "pitch_bend": 0,
      "ternary": 1,
      "t_pitch": 1,
      "t_vol": 1,
      "t_timing": 1,
      "spk": 1,
      "role": 2,
      "note": 63,
      "velocity": 84,
      "energy": 80,
      "duration_s": 0.54
    },
    {
      "t": 388.08,
      "word": "It's",
      "f0_hz": 110.0,
      "pitch_bend": 0,
      "ternary": 0,
      "t_pitch": 0,
      "t_vol": 0,
      "t_timing": 0,
      "spk": 1,
      "role": 1,
      "note": 60,
      "velocity": 64,
      "energy": 20,
      "duration_s": 0.1
    },
    {
      "t": 388.18,
      "word": "my",
      "f0_hz": 110.0,
      "pitch_bend": 0,
      "ternary": 0,
      "t_pitch": 0,
      "t_vol": 0,
      "t_timing": 0,
      "spk": 1,
      "role": 1,
      "note": 60,
      "velocity": 64,
      "energy": 20,
      "duration_s": 0.38
    },
    {
      "t": 388.56,
      "word": "very",
      "f0_hz": 110.0,
      "pitch_bend": 0,
      "ternary": 0,
      "t_pitch": 0,
      "t_vol": 0,
      "t_timing": 0,
      "spk": 1,
      "role": 1,
      "note": 60,
      "velocity": 64,
      "energy": 20,
      "duration_s": 0.38
    },
    {
      "t": 388.94,
      "word": "first",
      "f0_hz": 110.0,
      "pitch_bend": 0,
      "ternary": 0,
      "t_pitch": 0,
      "t_vol": 0,
      "t_timing": 0,
      "spk": 1,
      "role": 1,
      "note": 60,
      "velocity": 64,
      "energy": 20,
      "duration_s": 0.24
    },
    {
      "t": 389.18,
      "word": "memory",
      "f0_hz": 110.0,
      "pitch_bend": 0,
      "ternary": 0,
      "t_pitch": 0,
      "t_vol": 0,
      "t_timing": 0,
      "spk": 1,
      "role": 1,
      "note": 60,
      "velocity": 64,
      "energy": 20,
      "duration_s": 0.24
    },
    {
      "t": 389.42,
      "word": "of",
      "f0_hz": 110.0,
      "pitch_bend": 0,
      "ternary": 0,
      "t_pitch": 0,
      "t_vol": 0,
      "t_timing": 0,
      "spk": 1,
      "role": 1,
      "note": 60,
      "velocity": 64,
      "energy": 20,
      "duration_s": 0.24
    },
    {
      "t": 389.66,
      "word": "buying",
      "f0_hz": 110.0,
      "pitch_bend": 0,
      "ternary": 0,
      "t_pitch": 0,
      "t_vol": 0,
      "t_timing": 0,
      "spk": 1,
      "role": 1,
      "note": 60,
      "velocity": 64,
      "energy": 20,
      "duration_s": 0.18
    },
    {
      "t": 389.84,
      "word": "my",
      "f0_hz": 110.0,
      "pitch_bend": 0,
      "ternary": 0,
      "t_pitch": 0,
      "t_vol": 0,
      "t_timing": 0,
      "spk": 1,
      "role": 1,
      "note": 60,
      "velocity": 64,
      "energy": 20,
      "duration_s": 0.22
    },
    {
      "t": 390.06,
      "word": "own",
      "f0_hz": 110.0,
      "pitch_bend": 0,
      "ternary": 0,
      "t_pitch": 0,
      "t_vol": 0,
      "t_timing": 0,
      "spk": 1,
      "role": 1,
      "note": 60,
      "velocity": 64,
      "energy": 20,
      "duration_s": 0.2
    },
    {
      "t": 390.26,
      "word": "book.",
      "f0_hz": 110.0,
      "pitch_bend": 0,
      "ternary": 0,
      "t_pitch": 0,
      "t_vol": 0,
      "t_timing": 0,
      "spk": 1,
      "role": 1,
      "note": 60,
      "velocity": 64,
      "energy": 20,
      "duration_s": 0.5
    },
    {
      "t": 390.92,
      "word": "It",
      "f0_hz": 110.0,
      "pitch_bend": 0,
      "ternary": 0,
      "t_pitch": 0,
      "t_vol": 0,
      "t_timing": 0,
      "spk": 0,
      "role": 1,
      "note": 60,
      "velocity": 64,
      "energy": 20,
      "duration_s": 0.02
    },
    {
      "t": 390.94,
      "word": "was",
      "f0_hz": 130.0,
      "pitch_bend": 0,
      "ternary": 0,
      "t_pitch": 0,
      "t_vol": 0,
      "t_timing": 0,
      "spk": 1,
      "role": 1,
      "note": 60,
      "velocity": 64,
      "energy": 20,
      "duration_s": 0.06
    },
    {
      "t": 391.0,
      "word": "at",
      "f0_hz": 110.0,
      "pitch_bend": 0,
      "ternary": 0,
      "t_pitch": 0,
      "t_vol": 0,
      "t_timing": 0,
      "spk": 1,
      "role": 1,
      "note": 60,
      "velocity": 64,
      "energy": 20,
      "duration_s": 0.3
    },
    {
      "t": 391.3,
      "word": "the...",
      "f0_hz": 110.0,
      "pitch_bend": 0,
      "ternary": 0,
      "t_pitch": 0,
      "t_vol": 0,
      "t_timing": 0,
      "spk": 1,
      "role": 1,
      "note": 60,
      "velocity": 64,
      "energy": 20,
      "duration_s": 0.24
    },
    {
      "t": 392.28,
      "word": "I",
      "f0_hz": 110.0,
      "pitch_bend": 0,
      "ternary": 0,
      "t_pitch": 0,
      "t_vol": 0,
      "t_timing": 0,
      "spk": 1,
      "role": 1,
      "note": 60,
      "velocity": 64,
      "energy": 20,
      "duration_s": 0.04
    },
    {
      "t": 392.32,
      "word": "was",
      "f0_hz": 130.0,
      "pitch_bend": 0,
      "ternary": 0,
      "t_pitch": 0,
      "t_vol": 0,
      "t_timing": 0,
      "spk": 1,
      "role": 1,
      "note": 60,
      "velocity": 64,
      "energy": 20,
      "duration_s": 0.24
    },
    {
      "t": 392.56,
      "word": "in",
      "f0_hz": 110.0,
      "pitch_bend": 0,
      "ternary": 0,
      "t_pitch": 0,
      "t_vol": 0,
      "t_timing": 0,
      "spk": 1,
      "role": 1,
      "note": 60,
      "velocity": 64,
      "energy": 20,
      "duration_s": 2.12
    },
    {
      "t": 394.68,
      "word": "preschool",
      "f0_hz": 110.0,
      "pitch_bend": 0,
      "ternary": 0,
      "t_pitch": 0,
      "t_vol": 0,
      "t_timing": 0,
      "spk": 0,
      "role": 1,
      "note": 60,
      "velocity": 64,
      "energy": 20,
      "duration_s": 0.74
    },
    {
      "t": 395.42,
      "word": "in",
      "f0_hz": 110.0,
      "pitch_bend": 0,
      "ternary": 0,
      "t_pitch": 0,
      "t_vol": 0,
      "t_timing": 0,
      "spk": 1,
      "role": 1,
      "note": 60,
      "velocity": 64,
      "energy": 20,
      "duration_s": 1.14
    },
    {
      "t": 396.56,
      "word": "preschool",
      "f0_hz": 110.0,
      "pitch_bend": 0,
      "ternary": 0,
      "t_pitch": 0,
      "t_vol": 0,
      "t_timing": 0,
      "spk": 1,
      "role": 1,
      "note": 60,
      "velocity": 64,
      "energy": 20,
      "duration_s": 0.32
    },
    {
      "t": 396.88,
      "word": "in",
      "f0_hz": 110.0,
      "pitch_bend": 0,
      "ternary": 0,
      "t_pitch": 0,
      "t_vol": 0,
      "t_timing": 0,
      "spk": 1,
      "role": 1,
      "note": 60,
      "velocity": 64,
      "energy": 20,
      "duration_s": 0.28
    },
    {
      "t": 397.16,
      "word": "Mars.",
      "f0_hz": 110.0,
      "pitch_bend": 0,
      "ternary": 0,
      "t_pitch": 0,
      "t_vol": 0,
      "t_timing": 0,
      "spk": 1,
      "role": 1,
      "note": 60,
      "velocity": 64,
      "energy": 20,
      "duration_s": 0.48
    },
    {
      "t": 398.32,
      "word": "And",
      "f0_hz": 110.0,
      "pitch_bend": 0,
      "ternary": 0,
      "t_pitch": 0,
      "t_vol": 0,
      "t_timing": 0,
      "spk": 1,
      "role": 1,
      "note": 60,
      "velocity": 64,
      "energy": 20,
      "duration_s": 0.16
    },
    {
      "t": 398.48,
      "word": "the",
      "f0_hz": 110.0,
      "pitch_bend": 0,
      "ternary": 0,
      "t_pitch": 0,
      "t_vol": 0,
      "t_timing": 0,
      "spk": 1,
      "role": 1,
      "note": 60,
      "velocity": 64,
      "energy": 20,
      "duration_s": 0.2
    },
    {
      "t": 398.68,
      "word": "scholastic",
      "f0_hz": 110.0,
      "pitch_bend": 0,
      "ternary": 0,
      "t_pitch": 0,
      "t_vol": 0,
      "t_timing": 0,
      "spk": 1,
      "role": 1,
      "note": 60,
      "velocity": 64,
      "energy": 20,
      "duration_s": 0.38
    },
    {
      "t": 399.06,
      "word": "book",
      "f0_hz": 110.0,
      "pitch_bend": 0,
      "ternary": 0,
      "t_pitch": 0,
      "t_vol": 0,
      "t_timing": 0,
      "spk": 1,
      "role": 1,
      "note": 60,
      "velocity": 64,
      "energy": 20,
      "duration_s": 0.4
    },
    {
      "t": 399.46,
      "word": "fair",
      "f0_hz": 110.0,
      "pitch_bend": 0,
      "ternary": 0,
      "t_pitch": 0,
      "t_vol": 0,
      "t_timing": 0,
      "spk": 1,
      "role": 1,
      "note": 60,
      "velocity": 64,
      "energy": 20,
      "duration_s": 0.36
    },
    {
      "t": 399.82,
      "word": "would",
      "f0_hz": 130.0,
      "pitch_bend": 0,
      "ternary": 0,
      "t_pitch": 0,
      "t_vol": 0,
      "t_timing": 0,
      "spk": 1,
      "role": 1,
      "note": 60,
      "velocity": 64,
      "energy": 20,
      "duration_s": 0.24
    },
    {
      "t": 400.06,
      "word": "come",
      "f0_hz": 110.0,
      "pitch_bend": 0,
      "ternary": 0,
      "t_pitch": 0,
      "t_vol": 0,
      "t_timing": 0,
      "spk": 1,
      "role": 1,
      "note": 60,
      "velocity": 64,
      "energy": 20,
      "duration_s": 0.5
    },
    {
      "t": 400.56,
      "word": "months",
      "f0_hz": 110.0,
      "pitch_bend": 0,
      "ternary": 0,
      "t_pitch": 0,
      "t_vol": 0,
      "t_timing": 0,
      "spk": 1,
      "role": 1,
      "note": 60,
      "velocity": 64,
      "energy": 20,
      "duration_s": 0.28
    },
    {
      "t": 400.84,
      "word": "or",
      "f0_hz": 110.0,
      "pitch_bend": 0,
      "ternary": 0,
      "t_pitch": 0,
      "t_vol": 0,
      "t_timing": 0,
      "spk": 1,
      "role": 1,
      "note": 60,
      "velocity": 64,
      "energy": 20,
      "duration_s": 0.2
    },
    {
      "t": 401.04,
      "word": "twice",
      "f0_hz": 110.0,
      "pitch_bend": 0,
      "ternary": 0,
      "t_pitch": 0,
      "t_vol": 0,
      "t_timing": 0,
      "spk": 1,
      "role": 1,
      "note": 60,
      "velocity": 64,
      "energy": 20,
      "duration_s": 0.24
    },
    {
      "t": 401.28,
      "word": "a",
      "f0_hz": 110.0,
      "pitch_bend": 0,
      "ternary": 0,
      "t_pitch": 0,
      "t_vol": 0,
      "t_timing": 0,
      "spk": 1,
      "role": 1,
      "note": 60,
      "velocity": 64,
      "energy": 20,
      "duration_s": 0.26
    },
    {
      "t": 401.54,
      "word": "year.",
      "f0_hz": 130.0,
      "pitch_bend": 0,
      "ternary": 0,
      "t_pitch": 0,
      "t_vol": 0,
      "t_timing": 0,
      "spk": 1,
      "role": 1,
      "note": 60,
      "velocity": 64,
      "energy": 20,
      "duration_s": 0.06
    },
    {
      "t": 401.98,
      "word": "I",
      "f0_hz": 110.0,
      "pitch_bend": 0,
      "ternary": 0,
      "t_pitch": 0,
      "t_vol": 0,
      "t_timing": 0,
      "spk": 0,
      "role": 1,
      "note": 60,
      "velocity": 64,
      "energy": 20,
      "duration_s": 0.0
    },
    {
      "t": 401.98,
      "word": "told",
      "f0_hz": 110.0,
      "pitch_bend": 0,
      "ternary": 0,
      "t_pitch": 0,
      "t_vol": 0,
      "t_timing": 0,
      "spk": 0,
      "role": 1,
      "note": 60,
      "velocity": 64,
      "energy": 20,
      "duration_s": 0.3
    },
    {
      "t": 402.28,
      "word": "any",
      "f0_hz": 110.0,
      "pitch_bend": 0,
      "ternary": 0,
      "t_pitch": 0,
      "t_vol": 0,
      "t_timing": 0,
      "spk": 1,
      "role": 1,
      "note": 60,
      "velocity": 64,
      "energy": 20,
      "duration_s": 0.86
    },
    {
      "t": 403.14,
      "word": "kids",
      "f0_hz": 110.0,
      "pitch_bend": 0,
      "ternary": 0,
      "t_pitch": 0,
      "t_vol": 0,
      "t_timing": 0,
      "spk": 1,
      "role": 1,
      "note": 60,
      "velocity": 64,
      "energy": 20,
      "duration_s": 0.48
    },
    {
      "t": 403.62,
      "word": "who",
      "f0_hz": 130.0,
      "pitch_bend": 0,
      "ternary": 0,
      "t_pitch": 0,
      "t_vol": 0,
      "t_timing": 0,
      "spk": 0,
      "role": 1,
      "note": 60,
      "velocity": 64,
      "energy": 20,
      "duration_s": 0.18
    },
    {
      "t": 403.8,
      "word": "grew",
      "f0_hz": 110.0,
      "pitch_bend": 0,
      "ternary": 0,
      "t_pitch": 0,
      "t_vol": 0,
      "t_timing": 0,
      "spk": 1,
      "role": 1,
      "note": 60,
      "velocity": 64,
      "energy": 20,
      "duration_s": 0.1
    },
    {
      "t": 403.9,
      "word": "up",
      "f0_hz": 110.0,
      "pitch_bend": 0,
      "ternary": 0,
      "t_pitch": 0,
      "t_vol": 0,
      "t_timing": 0,
      "spk": 1,
      "role": 1,
      "note": 60,
      "velocity": 64,
      "energy": 20,
      "duration_s": 0.1
    },
    {
      "t": 404.0,
      "word": "in",
      "f0_hz": 110.0,
      "pitch_bend": 0,
      "ternary": 0,
      "t_pitch": 0,
      "t_vol": 0,
      "t_timing": 0,
      "spk": 1,
      "role": 1,
      "note": 60,
      "velocity": 64,
      "energy": 20,
      "duration_s": 0.06
    },
    {
      "t": 404.06,
      "word": "the",
      "f0_hz": 110.0,
      "pitch_bend": 0,
      "ternary": 0,
      "t_pitch": 0,
      "t_vol": 0,
      "t_timing": 0,
      "spk": 0,
      "role": 1,
      "note": 60,
      "velocity": 64,
      "energy": 20,
      "duration_s": 0.16
    },
    {
      "t": 404.22,
      "word": "scholastic",
      "f0_hz": 110.0,
      "pitch_bend": 0,
      "ternary": 0,
      "t_pitch": 0,
      "t_vol": 0,
      "t_timing": 0,
      "spk": 1,
      "role": 1,
      "note": 60,
      "velocity": 64,
      "energy": 20,
      "duration_s": 0.82
    },
    {
      "t": 405.04,
      "word": "book",
      "f0_hz": 110.0,
      "pitch_bend": 0,
      "ternary": 0,
      "t_pitch": 0,
      "t_vol": 0,
      "t_timing": 0,
      "spk": 1,
      "role": 1,
      "note": 60,
      "velocity": 64,
      "energy": 20,
      "duration_s": 0.3
    },
    {
      "t": 405.34,
      "word": "fair,",
      "f0_hz": 110.0,
      "pitch_bend": 0,
      "ternary": 0,
      "t_pitch": 0,
      "t_vol": 0,
      "t_timing": 0,
      "spk": 1,
      "role": 1,
      "note": 60,
      "velocity": 64,
      "energy": 20,
      "duration_s": 0.16
    },
    {
      "t": 405.5,
      "word": "probably",
      "f0_hz": 110.0,
      "pitch_bend": 0,
      "ternary": 0,
      "t_pitch": 0,
      "t_vol": 0,
      "t_timing": 0,
      "spk": 0,
      "role": 1,
      "note": 60,
      "velocity": 64,
      "energy": 20,
      "duration_s": 0.24
    },
    {
      "t": 405.74,
      "word": "still",
      "f0_hz": 110.0,
      "pitch_bend": 0,
      "ternary": 0,
      "t_pitch": 0,
      "t_vol": 0,
      "t_timing": 0,
      "spk": 1,
      "role": 1,
      "note": 60,
      "velocity": 64,
      "energy": 20,
      "duration_s": 0.2
    },
    {
      "t": 405.94,
      "word": "going",
      "f0_hz": 110.0,
      "pitch_bend": 0,
      "ternary": 0,
      "t_pitch": 0,
      "t_vol": 0,
      "t_timing": 0,
      "spk": 1,
      "role": 1,
      "note": 60,
      "velocity": 64,
      "energy": 20,
      "duration_s": 0.28
    },
    {
      "t": 406.22,
      "word": "actually.",
      "f0_hz": 110.0,
      "pitch_bend": 0,
      "ternary": 0,
      "t_pitch": 0,
      "t_vol": 0,
      "t_timing": 0,
      "spk": 1,
      "role": 1,
      "note": 60,
      "velocity": 64,
      "energy": 20,
      "duration_s": 0.4
    },
    {
      "t": 408.08,
      "word": "And",
      "f0_hz": 110.0,
      "pitch_bend": 0,
      "ternary": 0,
      "t_pitch": 0,
      "t_vol": 0,
      "t_timing": 0,
      "spk": 1,
      "role": 1,
      "note": 60,
      "velocity": 64,
      "energy": 20,
      "duration_s": 0.46
    },
    {
      "t": 408.54,
      "word": "I",
      "f0_hz": 110.0,
      "pitch_bend": 0,
      "ternary": 0,
      "t_pitch": 0,
      "t_vol": 0,
      "t_timing": 0,
      "spk": 1,
      "role": 1,
      "note": 60,
      "velocity": 64,
      "energy": 20,
      "duration_s": 0.46
    },
    {
      "t": 409.0,
      "word": "bought",
      "f0_hz": 110.0,
      "pitch_bend": 0,
      "ternary": 0,
      "t_pitch": 0,
      "t_vol": 0,
      "t_timing": 0,
      "spk": 1,
      "role": 1,
      "note": 60,
      "velocity": 64,
      "energy": 20,
      "duration_s": 0.22
    },
    {
      "t": 409.22,
      "word": "a",
      "f0_hz": 110.0,
      "pitch_bend": 0,
      "ternary": 0,
      "t_pitch": 0,
      "t_vol": 0,
      "t_timing": 0,
      "spk": 1,
      "role": 1,
      "note": 60,
      "velocity": 64,
      "energy": 20,
      "duration_s": 0.76
    },
    {
      "t": 409.98,
      "word": "Pokemon",
      "f0_hz": 110.0,
      "pitch_bend": 0,
      "ternary": 0,
      "t_pitch": 0,
      "t_vol": 0,
      "t_timing": 0,
      "spk": 1,
      "role": 1,
      "note": 60,
      "velocity": 64,
      "energy": 20,
      "duration_s": 0.74
    },
    {
      "t": 410.72,
      "word": "picture",
      "f0_hz": 110.0,
      "pitch_bend": 0,
      "ternary": 0,
      "t_pitch": 0,
      "t_vol": 0,
      "t_timing": 0,
      "spk": 1,
      "role": 1,
      "note": 60,
      "velocity": 64,
      "energy": 20,
      "duration_s": 1.18
    },
    {
      "t": 411.9,
      "word": "novel.",
      "f0_hz": 110.0,
      "pitch_bend": 0,
      "ternary": 0,
      "t_pitch": 0,
      "t_vol": 0,
      "t_timing": 0,
      "spk": 1,
      "role": 1,
      "note": 60,
      "velocity": 64,
      "energy": 20,
      "duration_s": 0.7
    },
    {
      "t": 414.14,
      "word": "And",
      "f0_hz": 110.0,
      "pitch_bend": 0,
      "ternary": 0,
      "t_pitch": 0,
      "t_vol": 0,
      "t_timing": 0,
      "spk": 1,
      "role": 1,
      "note": 60,
      "velocity": 64,
      "energy": 20,
      "duration_s": 0.14
    },
    {
      "t": 414.28,
      "word": "I",
      "f0_hz": 110.0,
      "pitch_bend": 0,
      "ternary": 0,
      "t_pitch": 0,
      "t_vol": 0,
      "t_timing": 0,
      "spk": 1,
      "role": 1,
      "note": 60,
      "velocity": 64,
      "energy": 20,
      "duration_s": 0.0
    },
    {
      "t": 414.28,
      "word": "remember",
      "f0_hz": 110.0,
      "pitch_bend": 0,
      "ternary": 0,
      "t_pitch": 0,
      "t_vol": 0,
      "t_timing": 0,
      "spk": 1,
      "role": 1,
      "note": 60,
      "velocity": 64,
      "energy": 20,
      "duration_s": 0.24
    },
    {
      "t": 414.52,
      "word": "it",
      "f0_hz": 110.0,
      "pitch_bend": 0,
      "ternary": 0,
      "t_pitch": 0,
      "t_vol": 0,
      "t_timing": 0,
      "spk": 1,
      "role": 1,
      "note": 60,
      "velocity": 64,
      "energy": 20,
      "duration_s": 0.18
    },
    {
      "t": 414.7,
      "word": "so",
      "f0_hz": 110.0,
      "pitch_bend": 0,
      "ternary": 0,
      "t_pitch": 0,
      "t_vol": 0,
      "t_timing": 0,
      "spk": 1,
      "role": 1,
      "note": 60,
      "velocity": 64,
      "energy": 20,
      "duration_s": 0.22
    },
    {
      "t": 414.92,
      "word": "clearly.",
      "f0_hz": 110.0,
      "pitch_bend": 0,
      "ternary": 0,
      "t_pitch": 0,
      "t_vol": 0,
      "t_timing": 0,
      "spk": 1,
      "role": 1,
      "note": 60,
      "velocity": 64,
      "energy": 20,
      "duration_s": 0.42
    },
    {
      "t": 415.56,
      "word": "And",
      "f0_hz": 110.0,
      "pitch_bend": 0,
      "ternary": 0,
      "t_pitch": 0,
      "t_vol": 0,
      "t_timing": 0,
      "spk": 1,
      "role": 1,
      "note": 60,
      "velocity": 64,
      "energy": 20,
      "duration_s": 0.0
    },
    {
      "t": 415.56,
      "word": "the",
      "f0_hz": 110.0,
      "pitch_bend": 0,
      "ternary": 0,
      "t_pitch": 0,
      "t_vol": 0,
      "t_timing": 0,
      "spk": 1,
      "role": 1,
      "note": 60,
      "velocity": 64,
      "energy": 20,
      "duration_s": 0.14
    },
    {
      "t": 415.7,
      "word": "reason",
      "f0_hz": 110.0,
      "pitch_bend": 0,
      "ternary": 0,
      "t_pitch": 0,
      "t_vol": 0,
      "t_timing": 0,
      "spk": 1,
      "role": 1,
      "note": 60,
      "velocity": 64,
      "energy": 20,
      "duration_s": 0.2
    },
    {
      "t": 415.9,
      "word": "that",
      "f0_hz": 110.0,
      "pitch_bend": 0,
      "ternary": 0,
      "t_pitch": 0,
      "t_vol": 0,
      "t_timing": 0,
      "spk": 1,
      "role": 1,
      "note": 60,
      "velocity": 64,
      "energy": 20,
      "duration_s": 0.12
    },
    {
      "t": 416.02,
      "word": "I",
      "f0_hz": 110.0,
      "pitch_bend": 0,
      "ternary": 0,
      "t_pitch": 0,
      "t_vol": 0,
      "t_timing": 0,
      "spk": 1,
      "role": 1,
      "note": 60,
      "velocity": 64,
      "energy": 20,
      "duration_s": 0.12
    },
    {
      "t": 416.14,
      "word": "remember",
      "f0_hz": 110.0,
      "pitch_bend": 0,
      "ternary": 0,
      "t_pitch": 0,
      "t_vol": 0,
      "t_timing": 0,
      "spk": 1,
      "role": 1,
      "note": 60,
      "velocity": 64,
      "energy": 20,
      "duration_s": 0.26
    },
    {
      "t": 416.4,
      "word": "it",
      "f0_hz": 110.0,
      "pitch_bend": 0,
      "ternary": 0,
      "t_pitch": 0,
      "t_vol": 0,
      "t_timing": 0,
      "spk": 1,
      "role": 1,
      "note": 60,
      "velocity": 64,
      "energy": 20,
      "duration_s": 0.3
    },
    {
      "t": 416.7,
      "word": "is",
      "f0_hz": 110.0,
      "pitch_bend": 0,
      "ternary": 0,
      "t_pitch": 0,
      "t_vol": 0,
      "t_timing": 0,
      "spk": 1,
      "role": 1,
      "note": 60,
      "velocity": 64,
      "energy": 20,
      "duration_s": 0.06
    },
    {
      "t": 416.76,
      "word": "because",
      "f0_hz": 110.0,
      "pitch_bend": 0,
      "ternary": 0,
      "t_pitch": 0,
      "t_vol": 0,
      "t_timing": 0,
      "spk": 1,
      "role": 1,
      "note": 60,
      "velocity": 64,
      "energy": 20,
      "duration_s": 0.48
    },
    {
      "t": 417.24,
      "word": "I",
      "f0_hz": 110.0,
      "pitch_bend": 0,
      "ternary": 0,
      "t_pitch": 0,
      "t_vol": 0,
      "t_timing": 0,
      "spk": 1,
      "role": 1,
      "note": 60,
      "velocity": 64,
      "energy": 20,
      "duration_s": 0.32
    },
    {
      "t": 417.56,
      "word": "would",
      "f0_hz": 130.0,
      "pitch_bend": 0,
      "ternary": 0,
      "t_pitch": 0,
      "t_vol": 0,
      "t_timing": 0,
      "spk": 1,
      "role": 1,
      "note": 60,
      "velocity": 64,
      "energy": 20,
      "duration_s": 0.3
    },
    {
      "t": 417.86,
      "word": "pretend",
      "f0_hz": 110.0,
      "pitch_bend": 0,
      "ternary": 0,
      "t_pitch": 0,
      "t_vol": 0,
      "t_timing": 0,
      "spk": 1,
      "role": 1,
      "note": 60,
      "velocity": 64,
      "energy": 20,
      "duration_s": 0.34
    },
    {
      "t": 418.2,
      "word": "to",
      "f0_hz": 110.0,
      "pitch_bend": 0,
      "ternary": 0,
      "t_pitch": 0,
      "t_vol": 0,
      "t_timing": 0,
      "spk": 1,
      "role": 1,
      "note": 60,
      "velocity": 64,
      "energy": 20,
      "duration_s": 0.22
    },
    {
      "t": 418.42,
      "word": "read",
      "f0_hz": 110.0,
      "pitch_bend": 0,
      "ternary": 0,
      "t_pitch": 0,
      "t_vol": 0,
      "t_timing": 0,
      "spk": 1,
      "role": 1,
      "note": 60,
      "velocity": 64,
      "energy": 20,
      "duration_s": 0.22
    },
    {
      "t": 418.64,
      "word": "it.",
      "f0_hz": 110.0,
      "pitch_bend": 0,
      "ternary": 0,
      "t_pitch": 0,
      "t_vol": 0,
      "t_timing": 0,
      "spk": 1,
      "role": 1,
      "note": 60,
      "velocity": 64,
      "energy": 20,
      "duration_s": 0.42
    },
    {
      "t": 419.62,
      "word": "And",
      "f0_hz": 110.0,
      "pitch_bend": 0,
      "ternary": 0,
      "t_pitch": 0,
      "t_vol": 0,
      "t_timing": 0,
      "spk": 1,
      "role": 1,
      "note": 60,
      "velocity": 64,
      "energy": 20,
      "duration_s": 0.02
    },
    {
      "t": 419.64,
      "word": "I",
      "f0_hz": 110.0,
      "pitch_bend": 0,
      "ternary": 0,
      "t_pitch": 0,
      "t_vol": 0,
      "t_timing": 0,
      "spk": 1,
      "role": 1,
      "note": 60,
      "velocity": 64,
      "energy": 20,
      "duration_s": 0.2
    },
    {
      "t": 419.84,
      "word": "couldn't",
      "f0_hz": 110.0,
      "pitch_bend": 0,
      "ternary": 0,
      "t_pitch": 0,
      "t_vol": 0,
      "t_timing": 0,
      "spk": 1,
      "role": 1,
      "note": 60,
      "velocity": 64,
      "energy": 20,
      "duration_s": 0.28
    },
    {
      "t": 420.12,
      "word": "read.",
      "f0_hz": 110.0,
      "pitch_bend": 0,
      "ternary": 0,
      "t_pitch": 0,
      "t_vol": 0,
      "t_timing": 0,
      "spk": 1,
      "role": 1,
      "note": 60,
      "velocity": 64,
      "energy": 20,
      "duration_s": 0.34
    },
    {
      "t": 420.64,
      "word": "Because",
      "f0_hz": 110.0,
      "pitch_bend": 0,
      "ternary": 0,
      "t_pitch": 0,
      "t_vol": 0,
      "t_timing": 0,
      "spk": 0,
      "role": 1,
      "note": 60,
      "velocity": 64,
      "energy": 20,
      "duration_s": 0.0
    },
    {
      "t": 420.64,
      "word": "I",
      "f0_hz": 110.0,
      "pitch_bend": 0,
      "ternary": 0,
      "t_pitch": 0,
      "t_vol": 0,
      "t_timing": 0,
      "spk": 1,
      "role": 1,
      "note": 60,
      "velocity": 64,
      "energy": 20,
      "duration_s": 0.04
    },
    {
      "t": 420.68,
      "word": "was",
      "f0_hz": 130.0,
      "pitch_bend": 0,
      "ternary": 0,
      "t_pitch": 0,
      "t_vol": 0,
      "t_timing": 0,
      "spk": 1,
      "role": 1,
      "note": 60,
      "velocity": 64,
      "energy": 20,
      "duration_s": 0.44
    },
    {
      "t": 421.12,
      "word": "in",
      "f0_hz": 110.0,
      "pitch_bend": 0,
      "ternary": 0,
      "t_pitch": 0,
      "t_vol": 0,
      "t_timing": 0,
      "spk": 1,
      "role": 1,
      "note": 60,
      "velocity": 64,
      "energy": 20,
      "duration_s": 0.16
    },
    {
      "t": 421.28,
      "word": "preschool.",
      "f0_hz": 110.0,
      "pitch_bend": 0,
      "ternary": 0,
      "t_pitch": 0,
      "t_vol": 0,
      "t_timing": 0,
      "spk": 1,
      "role": 1,
      "note": 60,
      "velocity": 64,
      "energy": 20,
      "duration_s": 0.26
    },
    {
      "t": 422.04,
      "word": "I",
      "f0_hz": 110.0,
      "pitch_bend": 0,
      "ternary": 0,
      "t_pitch": 0,
      "t_vol": 0,
      "t_timing": 0,
      "spk": 1,
      "role": 1,
      "note": 60,
      "velocity": 64,
      "energy": 20,
      "duration_s": 0.24
    },
    {
      "t": 422.28,
      "word": "had",
      "f0_hz": 130.0,
      "pitch_bend": 0,
      "ternary": 0,
      "t_pitch": 0,
      "t_vol": 0,
      "t_timing": 0,
      "spk": 0,
      "role": 1,
      "note": 60,
      "velocity": 64,
      "energy": 20,
      "duration_s": 0.02
    },
    {
      "t": 422.3,
      "word": "to",
      "f0_hz": 110.0,
      "pitch_bend": 0,
      "ternary": 0,
      "t_pitch": 0,
      "t_vol": 0,
      "t_timing": 0,
      "spk": 1,
      "role": 1,
      "note": 60,
      "velocity": 64,
      "energy": 20,
      "duration_s": 0.46
    },
    {
      "t": 422.76,
      "word": "learn",
      "f0_hz": 110.0,
      "pitch_bend": 0,
      "ternary": 0,
      "t_pitch": 0,
      "t_vol": 0,
      "t_timing": 0,
      "spk": 1,
      "role": 1,
      "note": 60,
      "velocity": 64,
      "energy": 20,
      "duration_s": 0.12
    },
    {
      "t": 422.88,
      "word": "how",
      "f0_hz": 130.0,
      "pitch_bend": 0,
      "ternary": 0,
      "t_pitch": 0,
      "t_vol": 0,
      "t_timing": 0,
      "spk": 1,
      "role": 1,
      "note": 60,
      "velocity": 64,
      "energy": 20,
      "duration_s": 0.2
    },
    {
      "t": 423.08,
      "word": "to",
      "f0_hz": 110.0,
      "pitch_bend": 0,
      "ternary": 0,
      "t_pitch": 0,
      "t_vol": 0,
      "t_timing": 0,
      "spk": 1,
      "role": 1,
      "note": 60,
      "velocity": 64,
      "energy": 20,
      "duration_s": 0.1
    },
    {
      "t": 423.18,
      "word": "read",
      "f0_hz": 110.0,
      "pitch_bend": 0,
      "ternary": 0,
      "t_pitch": 0,
      "t_vol": 0,
      "t_timing": 0,
      "spk": 1,
      "role": 1,
      "note": 60,
      "velocity": 64,
      "energy": 20,
      "duration_s": 0.12
    },
    {
      "t": 423.3,
      "word": "yet.",
      "f0_hz": 130.0,
      "pitch_bend": 0,
      "ternary": 0,
      "t_pitch": 0,
      "t_vol": 0,
      "t_timing": 0,
      "spk": 1,
      "role": 1,
      "note": 60,
      "velocity": 64,
      "energy": 20,
      "duration_s": 0.44
    },
    {
      "t": 424.26,
      "word": "And",
      "f0_hz": 110.0,
      "pitch_bend": 0,
      "ternary": 0,
      "t_pitch": 0,
      "t_vol": 0,
      "t_timing": 0,
      "spk": 1,
      "role": 1,
      "note": 60,
      "velocity": 64,
      "energy": 20,
      "duration_s": 0.1
    },
    {
      "t": 424.36,
      "word": "I",
      "f0_hz": 110.0,
      "pitch_bend": 0,
      "ternary": 0,
      "t_pitch": 0,
      "t_vol": 0,
      "t_timing": 0,
      "spk": 1,
      "role": 1,
      "note": 60,
      "velocity": 64,
      "energy": 20,
      "duration_s": 0.1
    },
    {
      "t": 424.46,
      "word": "would",
      "f0_hz": 130.0,
      "pitch_bend": 0,
      "ternary": 0,
      "t_pitch": 0,
      "t_vol": 0,
      "t_timing": 0,
      "spk": 1,
      "role": 1,
      "note": 60,
      "velocity": 64,
      "energy": 20,
      "duration_s": 0.16
    },
    {
      "t": 424.62,
      "word": "sit",
      "f0_hz": 110.0,
      "pitch_bend": 0,
      "ternary": 0,
      "t_pitch": 0,
      "t_vol": 0,
      "t_timing": 0,
      "spk": 1,
      "role": 1,
      "note": 60,
      "velocity": 64,
      "energy": 20,
      "duration_s": 0.16
    },
    {
      "t": 424.78,
      "word": "down",
      "f0_hz": 110.0,
      "pitch_bend": 0,
      "ternary": 0,
      "t_pitch": 0,
      "t_vol": 0,
      "t_timing": 0,
      "spk": 1,
      "role": 1,
      "note": 60,
      "velocity": 64,
      "energy": 20,
      "duration_s": 0.2
    },
    {
      "t": 424.98,
      "word": "and",
      "f0_hz": 110.0,
      "pitch_bend": 0,
      "ternary": 0,
      "t_pitch": 0,
      "t_vol": 0,
      "t_timing": 0,
      "spk": 1,
      "role": 1,
      "note": 60,
      "velocity": 64,
      "energy": 20,
      "duration_s": 0.22
    },
    {
      "t": 425.2,
      "word": "flip",
      "f0_hz": 110.0,
      "pitch_bend": 0,
      "ternary": 0,
      "t_pitch": 0,
      "t_vol": 0,
      "t_timing": 0,
      "spk": 1,
      "role": 1,
      "note": 60,
      "velocity": 64,
      "energy": 20,
      "duration_s": 0.14
    },
    {
      "t": 425.34,
      "word": "to",
      "f0_hz": 110.0,
      "pitch_bend": 0,
      "ternary": 0,
      "t_pitch": 0,
      "t_vol": 0,
      "t_timing": 0,
      "spk": 1,
      "role": 1,
      "note": 60,
      "velocity": 64,
      "energy": 20,
      "duration_s": 0.14
    },
    {
      "t": 425.48,
      "word": "the",
      "f0_hz": 110.0,
      "pitch_bend": 0,
      "ternary": 0,
      "t_pitch": 0,
      "t_vol": 0,
      "t_timing": 0,
      "spk": 1,
      "role": 1,
      "note": 60,
      "velocity": 64,
      "energy": 20,
      "duration_s": 0.18
    },
    {
      "t": 425.66,
      "word": "pages.",
      "f0_hz": 110.0,
      "pitch_bend": 0,
      "ternary": 0,
      "t_pitch": 0,
      "t_vol": 0,
      "t_timing": 0,
      "spk": 1,
      "role": 1,
      "note": 60,
      "velocity": 64,
      "energy": 20,
      "duration_s": 0.34
    },
    {
      "t": 426.2,
      "word": "And",
      "f0_hz": 110.0,
      "pitch_bend": 0,
      "ternary": 0,
      "t_pitch": 0,
      "t_vol": 0,
      "t_timing": 0,
      "spk": 1,
      "role": 1,
      "note": 60,
      "velocity": 64,
      "energy": 20,
      "duration_s": 0.0
    },
    {
      "t": 426.2,
      "word": "I",
      "f0_hz": 110.0,
      "pitch_bend": 0,
      "ternary": 0,
      "t_pitch": 0,
      "t_vol": 0,
      "t_timing": 0,
      "spk": 1,
      "role": 1,
      "note": 60,
      "velocity": 64,
      "energy": 20,
      "duration_s": 0.0
    },
    {
      "t": 426.2,
      "word": "would",
      "f0_hz": 130.0,
      "pitch_bend": 0,
      "ternary": 0,
      "t_pitch": 0,
      "t_vol": 0,
      "t_timing": 0,
      "spk": 1,
      "role": 1,
      "note": 60,
      "velocity": 64,
      "energy": 20,
      "duration_s": 0.14
    },
    {
      "t": 426.34,
      "word": "pretend",
      "f0_hz": 110.0,
      "pitch_bend": 0,
      "ternary": 0,
      "t_pitch": 0,
      "t_vol": 0,
      "t_timing": 0,
      "spk": 1,
      "role": 1,
      "note": 60,
      "velocity": 64,
      "energy": 20,
      "duration_s": 0.44
    },
    {
      "t": 426.78,
      "word": "to",
      "f0_hz": 110.0,
      "pitch_bend": 0,
      "ternary": 0,
      "t_pitch": 0,
      "t_vol": 0,
      "t_timing": 0,
      "spk": 1,
      "role": 1,
      "note": 60,
      "velocity": 64,
      "energy": 20,
      "duration_s": 0.56
    },
    {
      "t": 427.34,
      "word": "read",
      "f0_hz": 110.0,
      "pitch_bend": 0,
      "ternary": 0,
      "t_pitch": 0,
      "t_vol": 0,
      "t_timing": 0,
      "spk": 1,
      "role": 1,
      "note": 60,
      "velocity": 64,
      "energy": 20,
      "duration_s": 0.48
    },
    {
      "t": 427.82,
      "word": "the",
      "f0_hz": 110.0,
      "pitch_bend": 0,
      "ternary": 0,
      "t_pitch": 0,
      "t_vol": 0,
      "t_timing": 0,
      "spk": 1,
      "role": 1,
      "note": 60,
      "velocity": 64,
      "energy": 20,
      "duration_s": 0.26
    },
    {
      "t": 428.08,
      "word": "book.",
      "f0_hz": 110.0,
      "pitch_bend": 0,
      "ternary": 0,
      "t_pitch": 0,
      "t_vol": 0,
      "t_timing": 0,
      "spk": 1,
      "role": 1,
      "note": 60,
      "velocity": 64,
      "energy": 20,
      "duration_s": 0.26
    },
    {
      "t": 428.34,
      "word": "And",
      "f0_hz": 110.0,
      "pitch_bend": 0,
      "ternary": 0,
      "t_pitch": 0,
      "t_vol": 0,
      "t_timing": 0,
      "spk": 1,
      "role": 1,
      "note": 60,
      "velocity": 64,
      "energy": 20,
      "duration_s": 0.1
    },
    {
      "t": 428.44,
      "word": "I'd",
      "f0_hz": 110.0,
      "pitch_bend": 0,
      "ternary": 0,
      "t_pitch": 0,
      "t_vol": 0,
      "t_timing": 0,
      "spk": 1,
      "role": 1,
      "note": 60,
      "velocity": 64,
      "energy": 20,
      "duration_s": 0.16
    },
    {
      "t": 428.6,
      "word": "just",
      "f0_hz": 110.0,
      "pitch_bend": 0,
      "ternary": 0,
      "t_pitch": 0,
      "t_vol": 0,
      "t_timing": 0,
      "spk": 1,
      "role": 1,
      "note": 60,
      "velocity": 64,
      "energy": 20,
      "duration_s": 0.12
    },
    {
      "t": 428.72,
      "word": "look",
      "f0_hz": 110.0,
      "pitch_bend": 0,
      "ternary": 0,
      "t_pitch": 0,
      "t_vol": 0,
      "t_timing": 0,
      "spk": 1,
      "role": 1,
      "note": 60,
      "velocity": 64,
      "energy": 20,
      "duration_s": 0.16
    },
    {
      "t": 428.88,
      "word": "at",
      "f0_hz": 110.0,
      "pitch_bend": 0,
      "ternary": 0,
      "t_pitch": 0,
      "t_vol": 0,
      "t_timing": 0,
      "spk": 1,
      "role": 1,
      "note": 60,
      "velocity": 64,
      "energy": 20,
      "duration_s": 0.18
    },
    {
      "t": 429.06,
      "word": "all",
      "f0_hz": 110.0,
      "pitch_bend": 0,
      "ternary": 0,
      "t_pitch": 0,
      "t_vol": 0,
      "t_timing": 0,
      "spk": 1,
      "role": 1,
      "note": 60,
      "velocity": 64,
      "energy": 20,
      "duration_s": 0.38
    },
    {
      "t": 429.44,
      "word": "the",
      "f0_hz": 110.0,
      "pitch_bend": 0,
      "ternary": 0,
      "t_pitch": 0,
      "t_vol": 0,
      "t_timing": 0,
      "spk": 1,
      "role": 1,
      "note": 60,
      "velocity": 64,
      "energy": 20,
      "duration_s": 0.18
    },
    {
      "t": 429.62,
      "word": "Pokemon",
      "f0_hz": 110.0,
      "pitch_bend": 0,
      "ternary": 0,
      "t_pitch": 0,
      "t_vol": 0,
      "t_timing": 0,
      "spk": 1,
      "role": 1,
      "note": 60,
      "velocity": 64,
      "energy": 20,
      "duration_s": 0.3
    },
    {
      "t": 429.92,
      "word": "pictures.",
      "f0_hz": 110.0,
      "pitch_bend": 0,
      "ternary": 0,
      "t_pitch": 0,
      "t_vol": 0,
      "t_timing": 0,
      "spk": 1,
      "role": 1,
      "note": 60,
      "velocity": 64,
      "energy": 20,
      "duration_s": 0.42
    },
    {
      "t": 430.9,
      "word": "And",
      "f0_hz": 110.0,
      "pitch_bend": 0,
      "ternary": 0,
      "t_pitch": 0,
      "t_vol": 0,
      "t_timing": 0,
      "spk": 1,
      "role": 1,
      "note": 60,
      "velocity": 64,
      "energy": 20,
      "duration_s": 0.14
    },
    {
      "t": 431.04,
      "word": "for",
      "f0_hz": 110.0,
      "pitch_bend": 0,
      "ternary": 0,
      "t_pitch": 0,
      "t_vol": 0,
      "t_timing": 0,
      "spk": 1,
      "role": 1,
      "note": 60,
      "velocity": 64,
      "energy": 20,
      "duration_s": 0.08
    },
    {
      "t": 431.12,
      "word": "those",
      "f0_hz": 110.0,
      "pitch_bend": 0,
      "ternary": 0,
      "t_pitch": 0,
      "t_vol": 0,
      "t_timing": 0,
      "spk": 1,
      "role": 1,
      "note": 60,
      "velocity": 64,
      "energy": 20,
      "duration_s": 0.18
    },
    {
      "t": 431.3,
      "word": "who",
      "f0_hz": 130.0,
      "pitch_bend": 0,
      "ternary": 0,
      "t_pitch": 0,
      "t_vol": 0,
      "t_timing": 0,
      "spk": 0,
      "role": 1,
      "note": 60,
      "velocity": 64,
      "energy": 20,
      "duration_s": 0.12
    },
    {
      "t": 431.42,
      "word": "know",
      "f0_hz": 110.0,
      "pitch_bend": 0,
      "ternary": 0,
      "t_pitch": 0,
      "t_vol": 0,
      "t_timing": 0,
      "spk": 1,
      "role": 1,
      "note": 60,
      "velocity": 64,
      "energy": 20,
      "duration_s": 0.14
    },
    {
      "t": 431.56,
      "word": "Pokemon",
      "f0_hz": 110.0,
      "pitch_bend": 0,
      "ternary": 0,
      "t_pitch": 0,
      "t_vol": 0,
      "t_timing": 0,
      "spk": 1,
      "role": 1,
      "note": 60,
      "velocity": 64,
      "energy": 20,
      "duration_s": 0.74
    },
    {
      "t": 432.3,
      "word": "Mew",
      "f0_hz": 110.0,
      "pitch_bend": 0,
      "ternary": 0,
      "t_pitch": 0,
      "t_vol": 0,
      "t_timing": 0,
      "spk": 0,
      "role": 1,
      "note": 60,
      "velocity": 64,
      "energy": 20,
      "duration_s": 0.98
    },
    {
      "t": 433.28,
      "word": "and",
      "f0_hz": 110.0,
      "pitch_bend": 0,
      "ternary": 0,
      "t_pitch": 0,
      "t_vol": 0,
      "t_timing": 0,
      "spk": 1,
      "role": 1,
      "note": 60,
      "velocity": 64,
      "energy": 20,
      "duration_s": 0.18
    },
    {
      "t": 433.46,
      "word": "Mew",
      "f0_hz": 110.0,
      "pitch_bend": 0,
      "ternary": 0,
      "t_pitch": 0,
      "t_vol": 0,
      "t_timing": 0,
      "spk": 1,
      "role": 1,
      "note": 60,
      "velocity": 64,
      "energy": 20,
      "duration_s": 0.24
    },
    {
      "t": 433.7,
      "word": "too.",
      "f0_hz": 110.0,
      "pitch_bend": 0,
      "ternary": 0,
      "t_pitch": 0,
      "t_vol": 0,
      "t_timing": 0,
      "spk": 0,
      "role": 1,
      "note": 60,
      "velocity": 64,
      "energy": 20,
      "duration_s": 0.44
    },
    {
      "t": 434.14,
      "word": "Yeah.",
      "f0_hz": 130.0,
      "pitch_bend": 0,
      "ternary": 0,
      "t_pitch": 0,
      "t_vol": 0,
      "t_timing": 0,
      "spk": 0,
      "role": 1,
      "note": 60,
      "velocity": 64,
      "energy": 20,
      "duration_s": 0.78
    },
    {
      "t": 435.28,
      "word": "So",
      "f0_hz": 110.0,
      "pitch_bend": 0,
      "ternary": 0,
      "t_pitch": 0,
      "t_vol": 0,
      "t_timing": 0,
      "spk": 1,
      "role": 1,
      "note": 60,
      "velocity": 64,
      "energy": 20,
      "duration_s": 0.18
    },
    {
      "t": 435.46,
      "word": "it",
      "f0_hz": 110.0,
      "pitch_bend": 0,
      "ternary": 0,
      "t_pitch": 0,
      "t_vol": 0,
      "t_timing": 0,
      "spk": 1,
      "role": 1,
      "note": 60,
      "velocity": 64,
      "energy": 20,
      "duration_s": 0.42
    },
    {
      "t": 435.88,
      "word": "was",
      "f0_hz": 130.0,
      "pitch_bend": 0,
      "ternary": 0,
      "t_pitch": 0,
      "t_vol": 0,
      "t_timing": 0,
      "spk": 1,
      "role": 1,
      "note": 60,
      "velocity": 64,
      "energy": 20,
      "duration_s": 0.08
    },
    {
      "t": 435.96,
      "word": "like",
      "f0_hz": 110.0,
      "pitch_bend": 0,
      "ternary": 0,
      "t_pitch": 0,
      "t_vol": 0,
      "t_timing": 0,
      "spk": 1,
      "role": 1,
      "note": 60,
      "velocity": 64,
      "energy": 20,
      "duration_s": 0.24
    },
    {
      "t": 436.2,
      "word": "the",
      "f0_hz": 110.0,
      "pitch_bend": 0,
      "ternary": 0,
      "t_pitch": 0,
      "t_vol": 0,
      "t_timing": 0,
      "spk": 0,
      "role": 1,
      "note": 60,
      "velocity": 64,
      "energy": 20,
      "duration_s": 0.78
    },
    {
      "t": 436.98,
      "word": "rare",
      "f0_hz": 110.0,
      "pitch_bend": 0,
      "ternary": 0,
      "t_pitch": 0,
      "t_vol": 0,
      "t_timing": 0,
      "spk": 1,
      "role": 1,
      "note": 60,
      "velocity": 64,
      "energy": 20,
      "duration_s": 0.38
    },
    {
      "t": 437.36,
      "word": "Pokemon",
      "f0_hz": 110.0,
      "pitch_bend": 0,
      "ternary": 0,
      "t_pitch": 0,
      "t_vol": 0,
      "t_timing": 0,
      "spk": 1,
      "role": 1,
      "note": 60,
      "velocity": 64,
      "energy": 20,
      "duration_s": 0.42
    },
    {
      "t": 437.78,
      "word": "in",
      "f0_hz": 110.0,
      "pitch_bend": 0,
      "ternary": 0,
      "t_pitch": 0,
      "t_vol": 0,
      "t_timing": 0,
      "spk": 1,
      "role": 1,
      "note": 60,
      "velocity": 64,
      "energy": 20,
      "duration_s": 0.24
    },
    {
      "t": 438.02,
      "word": "the",
      "f0_hz": 110.0,
      "pitch_bend": 0,
      "ternary": 0,
      "t_pitch": 0,
      "t_vol": 0,
      "t_timing": 0,
      "spk": 1,
      "role": 1,
      "note": 60,
      "velocity": 64,
      "energy": 20,
      "duration_s": 0.12
    },
    {
      "t": 438.14,
      "word": "book.",
      "f0_hz": 110.0,
      "pitch_bend": 0,
      "ternary": 0,
      "t_pitch": 0,
      "t_vol": 0,
      "t_timing": 0,
      "spk": 1,
      "role": 1,
      "note": 60,
      "velocity": 64,
      "energy": 20,
      "duration_s": 0.14
    },
    {
      "t": 438.42,
      "word": "And",
      "f0_hz": 110.0,
      "pitch_bend": 0,
      "ternary": 0,
      "t_pitch": 0,
      "t_vol": 0,
      "t_timing": 0,
      "spk": 1,
      "role": 1,
      "note": 60,
      "velocity": 64,
      "energy": 20,
      "duration_s": 0.02
    },
    {
      "t": 438.44,
      "word": "I",
      "f0_hz": 110.0,
      "pitch_bend": 0,
      "ternary": 0,
      "t_pitch": 0,
      "t_vol": 0,
      "t_timing": 0,
      "spk": 1,
      "role": 1,
      "note": 60,
      "velocity": 64,
      "energy": 20,
      "duration_s": 0.04
    },
    {
      "t": 438.48,
      "word": "just",
      "f0_hz": 110.0,
      "pitch_bend": 0,
      "ternary": 0,
      "t_pitch": 0,
      "t_vol": 0,
      "t_timing": 0,
      "spk": 1,
      "role": 1,
      "note": 60,
      "velocity": 64,
      "energy": 20,
      "duration_s": 0.2
    },
    {
      "t": 438.68,
      "word": "used",
      "f0_hz": 110.0,
      "pitch_bend": 0,
      "ternary": 0,
      "t_pitch": 0,
      "t_vol": 0,
      "t_timing": 0,
      "spk": 1,
      "role": 1,
      "note": 60,
      "velocity": 64,
      "energy": 20,
      "duration_s": 0.18
    },
    {
      "t": 438.86,
      "word": "to",
      "f0_hz": 110.0,
      "pitch_bend": 0,
      "ternary": 0,
      "t_pitch": 0,
      "t_vol": 0,
      "t_timing": 0,
      "spk": 1,
      "role": 1,
      "note": 60,
      "velocity": 64,
      "energy": 20,
      "duration_s": 0.12
    },
    {
      "t": 438.98,
      "word": "always,",
      "f0_hz": 110.0,
      "pitch_bend": 0,
      "ternary": 0,
      "t_pitch": 0,
      "t_vol": 0,
      "t_timing": 0,
      "spk": 0,
      "role": 1,
      "note": 60,
      "velocity": 64,
      "energy": 20,
      "duration_s": 0.24
    },
    {
      "t": 439.22,
      "word": "you",
      "f0_hz": 130.0,
      "pitch_bend": 0,
      "ternary": 0,
      "t_pitch": 0,
      "t_vol": 0,
      "t_timing": 0,
      "spk": 1,
      "role": 1,
      "note": 60,
      "velocity": 64,
      "energy": 20,
      "duration_s": 0.02
    },
    {
      "t": 439.24,
      "word": "know,",
      "f0_hz": 110.0,
      "pitch_bend": 0,
      "ternary": 0,
      "t_pitch": 0,
      "t_vol": 0,
      "t_timing": 0,
      "spk": 1,
      "role": 1,
      "note": 60,
      "velocity": 64,
      "energy": 20,
      "duration_s": 0.2
    },
    {
      "t": 439.5,
      "word": "because",
      "f0_hz": 110.0,
      "pitch_bend": 0,
      "ternary": 0,
      "t_pitch": 0,
      "t_vol": 0,
      "t_timing": 0,
      "spk": 1,
      "role": 1,
      "note": 60,
      "velocity": 64,
      "energy": 20,
      "duration_s": 0.12
    },
    {
      "t": 439.62,
      "word": "I",
      "f0_hz": 110.0,
      "pitch_bend": 0,
      "ternary": 0,
      "t_pitch": 0,
      "t_vol": 0,
      "t_timing": 0,
      "spk": 1,
      "role": 1,
      "note": 60,
      "velocity": 64,
      "energy": 20,
      "duration_s": 0.1
    },
    {
      "t": 439.72,
      "word": "always",
      "f0_hz": 110.0,
      "pitch_bend": 0,
      "ternary": 0,
      "t_pitch": 0,
      "t_vol": 0,
      "t_timing": 0,
      "spk": 0,
      "role": 1,
      "note": 60,
      "velocity": 64,
      "energy": 20,
      "duration_s": 0.16
    },
    {
      "t": 439.88,
      "word": "loved",
      "f0_hz": 110.0,
      "pitch_bend": 0,
      "ternary": 0,
      "t_pitch": 0,
      "t_vol": 0,
      "t_timing": 0,
      "spk": 1,
      "role": 1,
      "note": 60,
      "velocity": 64,
      "energy": 20,
      "duration_s": 0.46
    },
    {
      "t": 440.34,
      "word": "Mew",
      "f0_hz": 110.0,
      "pitch_bend": 0,
      "ternary": 0,
      "t_pitch": 0,
      "t_vol": 0,
      "t_timing": 0,
      "spk": 0,
      "role": 1,
      "note": 60,
      "velocity": 64,
      "energy": 20,
      "duration_s": 0.34
    },
    {
      "t": 440.68,
      "word": "and",
      "f0_hz": 110.0,
      "pitch_bend": 0,
      "ternary": 0,
      "t_pitch": 0,
      "t_vol": 0,
      "t_timing": 0,
      "spk": 0,
      "role": 1,
      "note": 60,
      "velocity": 64,
      "energy": 20,
      "duration_s": 0.16
    },
    {
      "t": 440.84,
      "word": "Mew",
      "f0_hz": 110.0,
      "pitch_bend": 0,
      "ternary": 0,
      "t_pitch": 0,
      "t_vol": 0,
      "t_timing": 0,
      "spk": 1,
      "role": 1,
      "note": 60,
      "velocity": 64,
      "energy": 20,
      "duration_s": 0.18
    },
    {
      "t": 441.02,
      "word": "too.",
      "f0_hz": 110.0,
      "pitch_bend": 0,
      "ternary": 0,
      "t_pitch": 0,
      "t_vol": 0,
      "t_timing": 0,
      "spk": 0,
      "role": 1,
      "note": 60,
      "velocity": 64,
      "energy": 20,
      "duration_s": 0.24
    },
    {
      "t": 441.36,
      "word": "They",
      "f0_hz": 110.0,
      "pitch_bend": 0,
      "ternary": 0,
      "t_pitch": 0,
      "t_vol": 0,
      "t_timing": 0,
      "spk": 0,
      "role": 1,
      "note": 60,
      "velocity": 64,
      "energy": 20,
      "duration_s": 0.06
    },
    {
      "t": 441.42,
      "word": "were",
      "f0_hz": 130.0,
      "pitch_bend": 0,
      "ternary": 0,
      "t_pitch": 0,
      "t_vol": 0,
      "t_timing": 0,
      "spk": 1,
      "role": 1,
      "note": 60,
      "velocity": 64,
      "energy": 20,
      "duration_s": 0.12
    },
    {
      "t": 441.54,
      "word": "my",
      "f0_hz": 110.0,
      "pitch_bend": 0,
      "ternary": 0,
      "t_pitch": 0,
      "t_vol": 0,
      "t_timing": 0,
      "spk": 1,
      "role": 1,
      "note": 60,
      "velocity": 64,
      "energy": 20,
      "duration_s": 0.22
    },
    {
      "t": 441.76,
      "word": "favorite.",
      "f0_hz": 110.0,
      "pitch_bend": 0,
      "ternary": 0,
      "t_pitch": 0,
      "t_vol": 0,
      "t_timing": 0,
      "spk": 1,
      "role": 1,
      "note": 60,
      "velocity": 64,
      "energy": 20,
      "duration_s": 0.52
    },
    {
      "t": 442.66,
      "word": "And",
      "f0_hz": 110.0,
      "pitch_bend": 0,
      "ternary": 0,
      "t_pitch": 0,
      "t_vol": 0,
      "t_timing": 0,
      "spk": 1,
      "role": 1,
      "note": 60,
      "velocity": 64,
      "energy": 20,
      "duration_s": 0.36
    },
    {
      "t": 443.02,
      "word": "my",
      "f0_hz": 110.0,
      "pitch_bend": 0,
      "ternary": 0,
      "t_pitch": 0,
      "t_vol": 0,
      "t_timing": 0,
      "spk": 1,
      "role": 1,
      "note": 60,
      "velocity": 64,
      "energy": 20,
      "duration_s": 0.26
    },
    {
      "t": 443.28,
      "word": "brother",
      "f0_hz": 110.0,
      "pitch_bend": 0,
      "ternary": 0,
      "t_pitch": 0,
      "t_vol": 0,
      "t_timing": 0,
      "spk": 1,
      "role": 1,
      "note": 60,
      "velocity": 64,
      "energy": 20,
      "duration_s": 0.14
    },
    {
      "t": 443.42,
      "word": "would",
      "f0_hz": 130.0,
      "pitch_bend": 0,
      "ternary": 0,
      "t_pitch": 0,
      "t_vol": 0,
      "t_timing": 0,
      "spk": 1,
      "role": 1,
      "note": 60,
      "velocity": 64,
      "energy": 20,
      "duration_s": 0.22
    },
    {
      "t": 443.64,
      "word": "always",
      "f0_hz": 110.0,
      "pitch_bend": 0,
      "ternary": 0,
      "t_pitch": 0,
      "t_vol": 0,
      "t_timing": 0,
      "spk": 1,
      "role": 1,
      "note": 60,
      "velocity": 64,
      "energy": 20,
      "duration_s": 0.32
    },
    {
      "t": 443.96,
      "word": "pay",
      "f0_hz": 110.0,
      "pitch_bend": 0,
      "ternary": 0,
      "t_pitch": 0,
      "t_vol": 0,
      "t_timing": 0,
      "spk": 1,
      "role": 1,
      "note": 60,
      "velocity": 64,
      "energy": 20,
      "duration_s": 0.18
    },
    {
      "t": 444.14,
      "word": "me",
      "f0_hz": 110.0,
      "pitch_bend": 0,
      "ternary": 0,
      "t_pitch": 0,
      "t_vol": 0,
      "t_timing": 0,
      "spk": 1,
      "role": 1,
      "note": 60,
      "velocity": 64,
      "energy": 20,
      "duration_s": 0.18
    },
    {
      "t": 444.32,
      "word": "out",
      "f0_hz": 110.0,
      "pitch_bend": 0,
      "ternary": 0,
      "t_pitch": 0,
      "t_vol": 0,
      "t_timing": 0,
      "spk": 1,
      "role": 1,
      "note": 60,
      "velocity": 64,
      "energy": 20,
      "duration_s": 0.08
    },
    {
      "t": 444.4,
      "word": "on",
      "f0_hz": 110.0,
      "pitch_bend": 0,
      "ternary": 0,
      "t_pitch": 0,
      "t_vol": 0,
      "t_timing": 0,
      "spk": 0,
      "role": 1,
      "note": 60,
      "velocity": 64,
      "energy": 20,
      "duration_s": 0.08
    },
    {
      "t": 444.48,
      "word": "the",
      "f0_hz": 110.0,
      "pitch_bend": 0,
      "ternary": 0,
      "t_pitch": 0,
      "t_vol": 0,
      "t_timing": 0,
      "spk": 1,
      "role": 1,
      "note": 60,
      "velocity": 64,
      "energy": 20,
      "duration_s": 0.12
    },
    {
      "t": 444.6,
      "word": "back.",
      "f0_hz": 110.0,
      "pitch_bend": 0,
      "ternary": 0,
      "t_pitch": 0,
      "t_vol": 0,
      "t_timing": 0,
      "spk": 1,
      "role": 1,
      "note": 60,
      "velocity": 64,
      "energy": 20,
      "duration_s": 0.1
    },
    {
      "t": 444.7,
      "word": "You",
      "f0_hz": 130.0,
      "pitch_bend": 0,
      "ternary": 0,
      "t_pitch": 0,
      "t_vol": 0,
      "t_timing": 0,
      "spk": 1,
      "role": 1,
      "note": 60,
      "velocity": 64,
      "energy": 20,
      "duration_s": 0.14
    },
    {
      "t": 444.84,
      "word": "can't",
      "f0_hz": 110.0,
      "pitch_bend": 0,
      "ternary": -1,
      "t_pitch": -1,
      "t_vol": -1,
      "t_timing": -1,
      "spk": 1,
      "role": 0,
      "note": 57,
      "velocity": 44,
      "energy": 80,
      "duration_s": 0.28
    },
    {
      "t": 445.12,
      "word": "read.",
      "f0_hz": 110.0,
      "pitch_bend": 0,
      "ternary": 0,
      "t_pitch": 0,
      "t_vol": 0,
      "t_timing": 0,
      "spk": 1,
      "role": 1,
      "note": 60,
      "velocity": 64,
      "energy": 20,
      "duration_s": 0.28
    },
    {
      "t": 446.18,
      "word": "Stop",
      "f0_hz": 110.0,
      "pitch_bend": 0,
      "ternary": 0,
      "t_pitch": 0,
      "t_vol": 0,
      "t_timing": 0,
      "spk": 0,
      "role": 1,
      "note": 60,
      "velocity": 64,
      "energy": 20,
      "duration_s": 0.48
    },
    {
      "t": 446.66,
      "word": "pretending",
      "f0_hz": 110.0,
      "pitch_bend": 0,
      "ternary": 0,
      "t_pitch": 0,
      "t_vol": 0,
      "t_timing": 0,
      "spk": 1,
      "role": 1,
      "note": 60,
      "velocity": 64,
      "energy": 20,
      "duration_s": 0.34
    },
    {
      "t": 447.0,
      "word": "to",
      "f0_hz": 110.0,
      "pitch_bend": 0,
      "ternary": 0,
      "t_pitch": 0,
      "t_vol": 0,
      "t_timing": 0,
      "spk": 1,
      "role": 1,
      "note": 60,
      "velocity": 64,
      "energy": 20,
      "duration_s": 0.16
    },
    {
      "t": 447.16,
      "word": "read",
      "f0_hz": 110.0,
      "pitch_bend": 0,
      "ternary": 0,
      "t_pitch": 0,
      "t_vol": 0,
      "t_timing": 0,
      "spk": 1,
      "role": 1,
      "note": 60,
      "velocity": 64,
      "energy": 20,
      "duration_s": 0.1
    },
    {
      "t": 447.26,
      "word": "them",
      "f0_hz": 110.0,
      "pitch_bend": 0,
      "ternary": 0,
      "t_pitch": 0,
      "t_vol": 0,
      "t_timing": 0,
      "spk": 0,
      "role": 1,
      "note": 60,
      "velocity": 64,
      "energy": 20,
      "duration_s": 0.14
    },
    {
      "t": 447.4,
      "word": "back.",
      "f0_hz": 110.0,
      "pitch_bend": 0,
      "ternary": 0,
      "t_pitch": 0,
      "t_vol": 0,
      "t_timing": 0,
      "spk": 1,
      "role": 1,
      "note": 60,
      "velocity": 64,
      "energy": 20,
      "duration_s": 0.22
    },
    {
      "t": 447.62,
      "word": "I",
      "f0_hz": 110.0,
      "pitch_bend": 0,
      "ternary": 0,
      "t_pitch": 0,
      "t_vol": 0,
      "t_timing": 0,
      "spk": 1,
      "role": 1,
      "note": 60,
      "velocity": 64,
      "energy": 20,
      "duration_s": 0.2
    },
    {
      "t": 447.82,
      "word": "can",
      "f0_hz": 110.0,
      "pitch_bend": 0,
      "ternary": 0,
      "t_pitch": 0,
      "t_vol": 0,
      "t_timing": 0,
      "spk": 1,
      "role": 1,
      "note": 60,
      "velocity": 64,
      "energy": 20,
      "duration_s": 0.06
    },
    {
      "t": 447.88,
      "word": "read.",
      "f0_hz": 110.0,
      "pitch_bend": 0,
      "ternary": 0,
      "t_pitch": 0,
      "t_vol": 0,
      "t_timing": 0,
      "spk": 1,
      "role": 1,
      "note": 60,
      "velocity": 64,
      "energy": 20,
      "duration_s": 0.32
    },
    {
      "t": 448.76,
      "word": "And",
      "f0_hz": 110.0,
      "pitch_bend": 0,
      "ternary": 0,
      "t_pitch": 0,
      "t_vol": 0,
      "t_timing": 0,
      "spk": 1,
      "role": 1,
      "note": 60,
      "velocity": 64,
      "energy": 20,
      "duration_s": 0.0
    },
    {
      "t": 448.76,
      "word": "yeah.",
      "f0_hz": 130.0,
      "pitch_bend": 0,
      "ternary": 0,
      "t_pitch": 0,
      "t_vol": 0,
      "t_timing": 0,
      "spk": 1,
      "role": 1,
      "note": 60,
      "velocity": 64,
      "energy": 20,
      "duration_s": 0.26
    },
    {
      "t": 449.02,
      "word": "I",
      "f0_hz": 110.0,
      "pitch_bend": 0,
      "ternary": 0,
      "t_pitch": 0,
      "t_vol": 0,
      "t_timing": 0,
      "spk": 1,
      "role": 1,
      "note": 60,
      "velocity": 64,
      "energy": 20,
      "duration_s": 0.08
    },
    {
      "t": 449.1,
      "word": "love",
      "f0_hz": 110.0,
      "pitch_bend": 0,
      "ternary": 1,
      "t_pitch": 1,
      "t_vol": 1,
      "t_timing": 1,
      "spk": 1,
      "role": 2,
      "note": 63,
      "velocity": 84,
      "energy": 80,
      "duration_s": 0.18
    },
    {
      "t": 449.28,
      "word": "that.",
      "f0_hz": 110.0,
      "pitch_bend": 0,
      "ternary": 0,
      "t_pitch": 0,
      "t_vol": 0,
      "t_timing": 0,
      "spk": 1,
      "role": 1,
      "note": 60,
      "velocity": 64,
      "energy": 20,
      "duration_s": 0.2
    },
    {
      "t": 449.58,
      "word": "You",
      "f0_hz": 130.0,
      "pitch_bend": 0,
      "ternary": 0,
      "t_pitch": 0,
      "t_vol": 0,
      "t_timing": 0,
      "spk": 1,
      "role": 1,
      "note": 60,
      "velocity": 64,
      "energy": 20,
      "duration_s": 0.0
    },
    {
      "t": 449.58,
      "word": "were",
      "f0_hz": 130.0,
      "pitch_bend": 0,
      "ternary": 0,
      "t_pitch": 0,
      "t_vol": 0,
      "t_timing": 0,
      "spk": 1,
      "role": 1,
      "note": 60,
      "velocity": 64,
      "energy": 20,
      "duration_s": 0.1
    },
    {
      "t": 449.68,
      "word": "an",
      "f0_hz": 110.0,
      "pitch_bend": 0,
      "ternary": 0,
      "t_pitch": 0,
      "t_vol": 0,
      "t_timing": 0,
      "spk": 1,
      "role": 1,
      "note": 60,
      "velocity": 64,
      "energy": 20,
      "duration_s": 0.14
    },
    {
      "t": 449.82,
      "word": "aspirational",
      "f0_hz": 110.0,
      "pitch_bend": 0,
      "ternary": 0,
      "t_pitch": 0,
      "t_vol": 0,
      "t_timing": 0,
      "spk": 1,
      "role": 1,
      "note": 60,
      "velocity": 64,
      "energy": 20,
      "duration_s": 0.6
    },
    {
      "t": 450.42,
      "word": "reader.",
      "f0_hz": 110.0,
      "pitch_bend": 0,
      "ternary": 0,
      "t_pitch": 0,
      "t_vol": 0,
      "t_timing": 0,
      "spk": 1,
      "role": 1,
      "note": 60,
      "velocity": 64,
      "energy": 20,
      "duration_s": 0.4
    },
    {
      "t": 453.14,
      "word": "Was",
      "f0_hz": 130.0,
      "pitch_bend": 0,
      "ternary": 0,
      "t_pitch": 0,
      "t_vol": 0,
      "t_timing": 0,
      "spk": 0,
      "role": 1,
      "note": 60,
      "velocity": 64,
      "energy": 20,
      "duration_s": 0.14
    },
    {
      "t": 453.28,
      "word": "your",
      "f0_hz": 130.0,
      "pitch_bend": 0,
      "ternary": 0,
      "t_pitch": 0,
      "t_vol": 0,
      "t_timing": 0,
      "spk": 1,
      "role": 1,
      "note": 60,
      "velocity": 64,
      "energy": 20,
      "duration_s": 0.2
    },
    {
      "t": 453.48,
      "word": "love",
      "f0_hz": 110.0,
      "pitch_bend": 0,
      "ternary": 1,
      "t_pitch": 1,
      "t_vol": 1,
      "t_timing": 1,
      "spk": 1,
      "role": 2,
      "note": 63,
      "velocity": 84,
      "energy": 80,
      "duration_s": 0.16
    },
    {
      "t": 453.64,
      "word": "of",
      "f0_hz": 110.0,
      "pitch_bend": 0,
      "ternary": 0,
      "t_pitch": 0,
      "t_vol": 0,
      "t_timing": 0,
      "spk": 1,
      "role": 1,
      "note": 60,
      "velocity": 64,
      "energy": 20,
      "duration_s": 0.32
    },
    {
      "t": 453.96,
      "word": "reading",
      "f0_hz": 110.0,
      "pitch_bend": 0,
      "ternary": 0,
      "t_pitch": 0,
      "t_vol": 0,
      "t_timing": 0,
      "spk": 1,
      "role": 1,
      "note": 60,
      "velocity": 64,
      "energy": 20,
      "duration_s": 0.58
    },
    {
      "t": 454.54,
      "word": "shared",
      "f0_hz": 110.0,
      "pitch_bend": 0,
      "ternary": 0,
      "t_pitch": 0,
      "t_vol": 0,
      "t_timing": 0,
      "spk": 1,
      "role": 1,
      "note": 60,
      "velocity": 64,
      "energy": 20,
      "duration_s": 0.52
    },
    {
      "t": 455.06,
      "word": "by",
      "f0_hz": 110.0,
      "pitch_bend": 0,
      "ternary": 0,
      "t_pitch": 0,
      "t_vol": 0,
      "t_timing": 0,
      "spk": 1,
      "role": 1,
      "note": 60,
      "velocity": 64,
      "energy": 20,
      "duration_s": 0.42
    },
    {
      "t": 455.48,
      "word": "your",
      "f0_hz": 130.0,
      "pitch_bend": 0,
      "ternary": 0,
      "t_pitch": 0,
      "t_vol": 0,
      "t_timing": 0,
      "spk": 1,
      "role": 1,
      "note": 60,
      "velocity": 64,
      "energy": 20,
      "duration_s": 0.28
    },
    {
      "t": 455.76,
      "word": "friends?",
      "f0_hz": 110.0,
      "pitch_bend": 0,
      "ternary": 1,
      "t_pitch": 1,
      "t_vol": 1,
      "t_timing": 1,
      "spk": 1,
      "role": 2,
      "note": 63,
      "velocity": 84,
      "energy": 80,
      "duration_s": 0.24
    },
    {
      "t": 456.0,
      "word": "Like",
      "f0_hz": 110.0,
      "pitch_bend": 0,
      "ternary": 0,
      "t_pitch": 0,
      "t_vol": 0,
      "t_timing": 0,
      "spk": 1,
      "role": 1,
      "note": 60,
      "velocity": 64,
      "energy": 20,
      "duration_s": 0.2
    },
    {
      "t": 456.2,
      "word": "how",
      "f0_hz": 130.0,
      "pitch_bend": 0,
      "ternary": 0,
      "t_pitch": 0,
      "t_vol": 0,
      "t_timing": 0,
      "spk": 1,
      "role": 1,
      "note": 60,
      "velocity": 64,
      "energy": 20,
      "duration_s": 0.12
    },
    {
      "t": 456.32,
      "word": "was",
      "f0_hz": 130.0,
      "pitch_bend": 0,
      "ternary": 0,
      "t_pitch": 0,
      "t_vol": 0,
      "t_timing": 0,
      "spk": 1,
      "role": 1,
      "note": 60,
      "velocity": 64,
      "energy": 20,
      "duration_s": 0.28
    },
    {
      "t": 456.6,
      "word": "reading",
      "f0_hz": 110.0,
      "pitch_bend": 0,
      "ternary": 0,
      "t_pitch": 0,
      "t_vol": 0,
      "t_timing": 0,
      "spk": 1,
      "role": 1,
      "note": 60,
      "velocity": 64,
      "energy": 20,
      "duration_s": 0.32
    },
    {
      "t": 456.92,
      "word": "regarded?",
      "f0_hz": 110.0,
      "pitch_bend": 0,
      "ternary": 1,
      "t_pitch": 1,
      "t_vol": 1,
      "t_timing": 1,
      "spk": 1,
      "role": 2,
      "note": 63,
      "velocity": 84,
      "energy": 80,
      "duration_s": 0.48
    },
    {
      "t": 458.84,
      "word": "No.",
      "f0_hz": 110.0,
      "pitch_bend": 0,
      "ternary": 0,
      "t_pitch": 0,
      "t_vol": 0,
      "t_timing": 0,
      "spk": 1,
      "role": 1,
      "note": 60,
      "velocity": 64,
      "energy": 20,
      "duration_s": 0.48
    },
    {
      "t": 460.04,
      "word": "None",
      "f0_hz": 110.0,
      "pitch_bend": 0,
      "ternary": 0,
      "t_pitch": 0,
      "t_vol": 0,
      "t_timing": 0,
      "spk": 1,
      "role": 1,
      "note": 60,
      "velocity": 64,
      "energy": 20,
      "duration_s": 0.34
    },
    {
      "t": 460.38,
      "word": "of",
      "f0_hz": 110.0,
      "pitch_bend": 0,
      "ternary": 0,
      "t_pitch": 0,
      "t_vol": 0,
      "t_timing": 0,
      "spk": 1,
      "role": 1,
      "note": 60,
      "velocity": 64,
      "energy": 20,
      "duration_s": 0.1
    },
    {
      "t": 460.48,
      "word": "my",
      "f0_hz": 110.0,
      "pitch_bend": 0,
      "ternary": 0,
      "t_pitch": 0,
      "t_vol": 0,
      "t_timing": 0,
      "spk": 1,
      "role": 1,
      "note": 60,
      "velocity": 64,
      "energy": 20,
      "duration_s": 0.24
    },
    {
      "t": 460.72,
      "word": "friends",
      "f0_hz": 110.0,
      "pitch_bend": 0,
      "ternary": 0,
      "t_pitch": 0,
      "t_vol": 0,
      "t_timing": 0,
      "spk": 1,
      "role": 1,
      "note": 60,
      "velocity": 64,
      "energy": 20,
      "duration_s": 0.68
    },
    {
      "t": 461.4,
      "word": "were",
      "f0_hz": 130.0,
      "pitch_bend": 0,
      "ternary": 0,
      "t_pitch": 0,
      "t_vol": 0,
      "t_timing": 0,
      "spk": 1,
      "role": 1,
      "note": 60,
      "velocity": 64,
      "energy": 20,
      "duration_s": 0.32
    },
    {
      "t": 461.72,
      "word": "readers,",
      "f0_hz": 110.0,
      "pitch_bend": 0,
      "ternary": 0,
      "t_pitch": 0,
      "t_vol": 0,
      "t_timing": 0,
      "spk": 1,
      "role": 1,
      "note": 60,
      "velocity": 64,
      "energy": 20,
      "duration_s": 0.5
    },
    {
      "t": 462.52,
      "word": "really.",
      "f0_hz": 110.0,
      "pitch_bend": 0,
      "ternary": 0,
      "t_pitch": 0,
      "t_vol": 0,
      "t_timing": 0,
      "spk": 1,
      "role": 1,
      "note": 60,
      "velocity": 64,
      "energy": 20,
      "duration_s": 0.34
    },
    {
      "t": 462.86,
      "word": "Yeah.",
      "f0_hz": 130.0,
      "pitch_bend": 0,
      "ternary": 0,
      "t_pitch": 0,
      "t_vol": 0,
      "t_timing": 0,
      "spk": 0,
      "role": 1,
      "note": 60,
      "velocity": 64,
      "energy": 20,
      "duration_s": 0.66
    },
    {
      "t": 463.88,
      "word": "It",
      "f0_hz": 110.0,
      "pitch_bend": 0,
      "ternary": 0,
      "t_pitch": 0,
      "t_vol": 0,
      "t_timing": 0,
      "spk": 1,
      "role": 1,
      "note": 60,
      "velocity": 64,
      "energy": 20,
      "duration_s": 0.18
    },
    {
      "t": 464.06,
      "word": "wasn't",
      "f0_hz": 130.0,
      "pitch_bend": 0,
      "ternary": 0,
      "t_pitch": 0,
      "t_vol": 0,
      "t_timing": 0,
      "spk": 1,
      "role": 1,
      "note": 60,
      "velocity": 64,
      "energy": 20,
      "duration_s": 0.88
    },
    {
      "t": 464.94,
      "word": "a",
      "f0_hz": 110.0,
      "pitch_bend": 0,
      "ternary": 0,
      "t_pitch": 0,
      "t_vol": 0,
      "t_timing": 0,
      "spk": 1,
      "role": 1,
      "note": 60,
      "velocity": 64,
      "energy": 20,
      "duration_s": 0.58
    },
    {
      "t": 465.52,
      "word": "thing,",
      "f0_hz": 110.0,
      "pitch_bend": 0,
      "ternary": 0,
      "t_pitch": 0,
      "t_vol": 0,
      "t_timing": 0,
      "spk": 1,
      "role": 1,
      "note": 60,
      "velocity": 64,
      "energy": 20,
      "duration_s": 0.54
    },
    {
      "t": 466.16,
      "word": "I",
      "f0_hz": 110.0,
      "pitch_bend": 0,
      "ternary": 0,
      "t_pitch": 0,
      "t_vol": 0,
      "t_timing": 0,
      "spk": 1,
      "role": 1,
      "note": 60,
      "velocity": 64,
      "energy": 20,
      "duration_s": 0.04
    },
    {
      "t": 466.2,
      "word": "would",
      "f0_hz": 130.0,
      "pitch_bend": 0,
      "ternary": 0,
      "t_pitch": 0,
      "t_vol": 0,
      "t_timing": 0,
      "spk": 1,
      "role": 1,
      "note": 60,
      "velocity": 64,
      "energy": 20,
      "duration_s": 0.24
    },
    {
      "t": 466.44,
      "word": "say,",
      "f0_hz": 110.0,
      "pitch_bend": 0,
      "ternary": 0,
      "t_pitch": 0,
      "t_vol": 0,
      "t_timing": 0,
      "spk": 1,
      "role": 1,
      "note": 60,
      "velocity": 64,
      "energy": 20,
      "duration_s": 0.76
    },
    {
      "t": 467.44,
      "word": "in",
      "f0_hz": 110.0,
      "pitch_bend": 0,
      "ternary": 0,
      "t_pitch": 0,
      "t_vol": 0,
      "t_timing": 0,
      "spk": 1,
      "role": 1,
      "note": 60,
      "velocity": 64,
      "energy": 20,
      "duration_s": 0.5
    },
    {
      "t": 467.94,
      "word": "the",
      "f0_hz": 110.0,
      "pitch_bend": 0,
      "ternary": 0,
      "t_pitch": 0,
      "t_vol": 0,
      "t_timing": 0,
      "spk": 1,
      "role": 1,
      "note": 60,
      "velocity": 64,
      "energy": 20,
      "duration_s": 0.66
    },
    {
      "t": 468.6,
      "word": "cultures",
      "f0_hz": 110.0,
      "pitch_bend": 0,
      "ternary": 0,
      "t_pitch": 0,
      "t_vol": 0,
      "t_timing": 0,
      "spk": 0,
      "role": 1,
      "note": 60,
      "velocity": 64,
      "energy": 20,
      "duration_s": 0.3
    },
    {
      "t": 468.9,
      "word": "I",
      "f0_hz": 110.0,
      "pitch_bend": 0,
      "ternary": 0,
      "t_pitch": 0,
      "t_vol": 0,
      "t_timing": 0,
      "spk": 1,
      "role": 1,
      "note": 60,
      "velocity": 64,
      "energy": 20,
      "duration_s": 0.24
    },
    {
      "t": 469.14,
      "word": "grew",
      "f0_hz": 110.0,
      "pitch_bend": 0,
      "ternary": 0,
      "t_pitch": 0,
      "t_vol": 0,
      "t_timing": 0,
      "spk": 1,
      "role": 1,
      "note": 60,
      "velocity": 64,
      "energy": 20,
      "duration_s": 0.16
    },
    {
      "t": 469.3,
      "word": "up",
      "f0_hz": 110.0,
      "pitch_bend": 0,
      "ternary": 0,
      "t_pitch": 0,
      "t_vol": 0,
      "t_timing": 0,
      "spk": 1,
      "role": 1,
      "note": 60,
      "velocity": 64,
      "energy": 20,
      "duration_s": 0.4
    },
    {
      "t": 469.7,
      "word": "within.",
      "f0_hz": 130.0,
      "pitch_bend": 0,
      "ternary": 0,
      "t_pitch": 0,
      "t_vol": 0,
      "t_timing": 0,
      "spk": 0,
      "role": 1,
      "note": 60,
      "velocity": 64,
      "energy": 20,
      "duration_s": 0.28
    },
    {
      "t": 470.86,
      "word": "Reading",
      "f0_hz": 110.0,
      "pitch_bend": 0,
      "ternary": 0,
      "t_pitch": 0,
      "t_vol": 0,
      "t_timing": 0,
      "spk": 1,
      "role": 1,
      "note": 60,
      "velocity": 64,
      "energy": 20,
      "duration_s": 0.16
    },
    {
      "t": 471.02,
      "word": "wasn't",
      "f0_hz": 130.0,
      "pitch_bend": 0,
      "ternary": 0,
      "t_pitch": 0,
      "t_vol": 0,
      "t_timing": 0,
      "spk": 1,
      "role": 1,
      "note": 60,
      "velocity": 64,
      "energy": 20,
      "duration_s": 0.24
    },
    {
      "t": 471.26,
      "word": "a",
      "f0_hz": 110.0,
      "pitch_bend": 0,
      "ternary": 0,
      "t_pitch": 0,
      "t_vol": 0,
      "t_timing": 0,
      "spk": 1,
      "role": 1,
      "note": 60,
      "velocity": 64,
      "energy": 20,
      "duration_s": 0.1
    },
    {
      "t": 471.36,
      "word": "big",
      "f0_hz": 110.0,
      "pitch_bend": 0,
      "ternary": 0,
      "t_pitch": 0,
      "t_vol": 0,
      "t_timing": 0,
      "spk": 1,
      "role": 1,
      "note": 60,
      "velocity": 64,
      "energy": 20,
      "duration_s": 0.22
    },
    {
      "t": 471.58,
      "word": "thing.",
      "f0_hz": 110.0,
      "pitch_bend": 0,
      "ternary": 0,
      "t_pitch": 0,
      "t_vol": 0,
      "t_timing": 0,
      "spk": 1,
      "role": 1,
      "note": 60,
      "velocity": 64,
      "energy": 20,
      "duration_s": 0.3
    },
    {
      "t": 472.08,
      "word": "You",
      "f0_hz": 130.0,
      "pitch_bend": 0,
      "ternary": 0,
      "t_pitch": 0,
      "t_vol": 0,
      "t_timing": 0,
      "spk": 0,
      "role": 1,
      "note": 60,
      "velocity": 64,
      "energy": 20,
      "duration_s": 0.0
    },
    {
      "t": 472.08,
      "word": "know,",
      "f0_hz": 110.0,
      "pitch_bend": 0,
      "ternary": 0,
      "t_pitch": 0,
      "t_vol": 0,
      "t_timing": 0,
      "spk": 1,
      "role": 1,
      "note": 60,
      "velocity": 64,
      "energy": 20,
      "duration_s": 0.16
    },
    {
      "t": 472.24,
      "word": "we",
      "f0_hz": 130.0,
      "pitch_bend": 0,
      "ternary": 0,
      "t_pitch": 0,
      "t_vol": 0,
      "t_timing": 0,
      "spk": 1,
      "role": 1,
      "note": 60,
      "velocity": 64,
      "energy": 20,
      "duration_s": 0.0
    },
    {
      "t": 472.24,
      "word": "were",
      "f0_hz": 130.0,
      "pitch_bend": 0,
      "ternary": 0,
      "t_pitch": 0,
      "t_vol": 0,
      "t_timing": 0,
      "spk": 1,
      "role": 1,
      "note": 60,
      "velocity": 64,
      "energy": 20,
      "duration_s": 0.2
    },
    {
      "t": 472.44,
      "word": "very,",
      "f0_hz": 110.0,
      "pitch_bend": 0,
      "ternary": 0,
      "t_pitch": 0,
      "t_vol": 0,
      "t_timing": 0,
      "spk": 1,
      "role": 1,
      "note": 60,
      "velocity": 64,
      "energy": 20,
      "duration_s": 0.82
    },
    {
      "t": 473.26,
      "word": "very",
      "f0_hz": 110.0,
      "pitch_bend": 0,
      "ternary": 0,
      "t_pitch": 0,
      "t_vol": 0,
      "t_timing": 0,
      "spk": 1,
      "role": 1,
      "note": 60,
      "velocity": 64,
      "energy": 20,
      "duration_s": 0.54
    },
    {
      "t": 473.8,
      "word": "sporty.",
      "f0_hz": 110.0,
      "pitch_bend": 0,
      "ternary": 0,
      "t_pitch": 0,
      "t_vol": 0,
      "t_timing": 0,
      "spk": 1,
      "role": 1,
      "note": 60,
      "velocity": 64,
      "energy": 20,
      "duration_s": 0.48
    },
    {
      "t": 474.38,
      "word": "And",
      "f0_hz": 110.0,
      "pitch_bend": 0,
      "ternary": 0,
      "t_pitch": 0,
      "t_vol": 0,
      "t_timing": 0,
      "spk": 0,
      "role": 1,
      "note": 60,
      "velocity": 64,
      "energy": 20,
      "duration_s": 0.1
    },
    {
      "t": 474.48,
      "word": "my",
      "f0_hz": 110.0,
      "pitch_bend": 0,
      "ternary": 0,
      "t_pitch": 0,
      "t_vol": 0,
      "t_timing": 0,
      "spk": 1,
      "role": 1,
      "note": 60,
      "velocity": 64,
      "energy": 20,
      "duration_s": 0.08
    },
    {
      "t": 474.56,
      "word": "friends",
      "f0_hz": 110.0,
      "pitch_bend": 0,
      "ternary": 0,
      "t_pitch": 0,
      "t_vol": 0,
      "t_timing": 0,
      "spk": 1,
      "role": 1,
      "note": 60,
      "velocity": 64,
      "energy": 20,
      "duration_s": 0.22
    },
    {
      "t": 474.78,
      "word": "were",
      "f0_hz": 130.0,
      "pitch_bend": 0,
      "ternary": 0,
      "t_pitch": 0,
      "t_vol": 0,
      "t_timing": 0,
      "spk": 1,
      "role": 1,
      "note": 60,
      "velocity": 64,
      "energy": 20,
      "duration_s": 0.42
    },
    {
      "t": 475.2,
      "word": "very",
      "f0_hz": 110.0,
      "pitch_bend": 0,
      "ternary": 0,
      "t_pitch": 0,
      "t_vol": 0,
      "t_timing": 0,
      "spk": 1,
      "role": 1,
      "note": 60,
      "velocity": 64,
      "energy": 20,
      "duration_s": 0.22
    },
    {
      "t": 475.42,
      "word": "sporty.",
      "f0_hz": 110.0,
      "pitch_bend": 0,
      "ternary": 0,
      "t_pitch": 0,
      "t_vol": 0,
      "t_timing": 0,
      "spk": 1,
      "role": 1,
      "note": 60,
      "velocity": 64,
      "energy": 20,
      "duration_s": 0.48
    },
    {
      "t": 476.1,
      "word": "Whether",
      "f0_hz": 130.0,
      "pitch_bend": 0,
      "ternary": 0,
      "t_pitch": 0,
      "t_vol": 0,
      "t_timing": 0,
      "spk": 1,
      "role": 1,
      "note": 60,
      "velocity": 64,
      "energy": 20,
      "duration_s": 0.0
    },
    {
      "t": 476.1,
      "word": "that",
      "f0_hz": 110.0,
      "pitch_bend": 0,
      "ternary": 0,
      "t_pitch": 0,
      "t_vol": 0,
      "t_timing": 0,
      "spk": 1,
      "role": 1,
      "note": 60,
      "velocity": 64,
      "energy": 20,
      "duration_s": 0.28
    },
    {
      "t": 476.38,
      "word": "be",
      "f0_hz": 110.0,
      "pitch_bend": 0,
      "ternary": 0,
      "t_pitch": 0,
      "t_vol": 0,
      "t_timing": 0,
      "spk": 1,
      "role": 1,
      "note": 60,
      "velocity": 64,
      "energy": 20,
      "duration_s": 0.9
    },
    {
      "t": 477.28,
      "word": "regularly",
      "f0_hz": 110.0,
      "pitch_bend": 0,
      "ternary": 0,
      "t_pitch": 0,
      "t_vol": 0,
      "t_timing": 0,
      "spk": 0,
      "role": 1,
      "note": 60,
      "velocity": 64,
      "energy": 20,
      "duration_s": 0.5
    },
    {
      "t": 477.78,
      "word": "swimming,",
      "f0_hz": 110.0,
      "pitch_bend": 0,
      "ternary": 0,
      "t_pitch": 0,
      "t_vol": 0,
      "t_timing": 0,
      "spk": 1,
      "role": 1,
      "note": 60,
      "velocity": 64,
      "energy": 20,
      "duration_s": 0.88
    },
    {
      "t": 479.0,
      "word": "touchfully.",
      "f0_hz": 110.0,
      "pitch_bend": 0,
      "ternary": 0,
      "t_pitch": 0,
      "t_vol": 0,
      "t_timing": 0,
      "spk": 1,
      "role": 1,
      "note": 60,
      "velocity": 64,
      "energy": 20,
      "duration_s": 0.86
    },
    {
      "t": 480.2,
      "word": "You",
      "f0_hz": 130.0,
      "pitch_bend": 0,
      "ternary": 0,
      "t_pitch": 0,
      "t_vol": 0,
      "t_timing": 0,
      "spk": 1,
      "role": 1,
      "note": 60,
      "velocity": 64,
      "energy": 20,
      "duration_s": 0.08
    },
    {
      "t": 480.28,
      "word": "know,",
      "f0_hz": 110.0,
      "pitch_bend": 0,
      "ternary": 0,
      "t_pitch": 0,
      "t_vol": 0,
      "t_timing": 0,
      "spk": 1,
      "role": 1,
      "note": 60,
      "velocity": 64,
      "energy": 20,
      "duration_s": 0.26
    },
    {
      "t": 480.54,
      "word": "a",
      "f0_hz": 110.0,
      "pitch_bend": 0,
      "ternary": 0,
      "t_pitch": 0,
      "t_vol": 0,
      "t_timing": 0,
      "spk": 1,
      "role": 1,
      "note": 60,
      "velocity": 64,
      "energy": 20,
      "duration_s": 0.12
    },
    {
      "t": 480.66,
      "word": "lot",
      "f0_hz": 110.0,
      "pitch_bend": 0,
      "ternary": 0,
      "t_pitch": 0,
      "t_vol": 0,
      "t_timing": 0,
      "spk": 1,
      "role": 1,
      "note": 60,
      "velocity": 64,
      "energy": 20,
      "duration_s": 0.0
    },
    {
      "t": 480.66,
      "word": "of",
      "f0_hz": 110.0,
      "pitch_bend": 0,
      "ternary": 0,
      "t_pitch": 0,
      "t_vol": 0,
      "t_timing": 0,
      "spk": 1,
      "role": 1,
      "note": 60,
      "velocity": 64,
      "energy": 20,
      "duration_s": 0.14
    },
    {
      "t": 480.8,
      "word": "the",
      "f0_hz": 110.0,
      "pitch_bend": 0,
      "ternary": 0,
      "t_pitch": 0,
      "t_vol": 0,
      "t_timing": 0,
      "spk": 1,
      "role": 1,
      "note": 60,
      "velocity": 64,
      "energy": 20,
      "duration_s": 0.14
    },
    {
      "t": 480.94,
      "word": "girls",
      "f0_hz": 110.0,
      "pitch_bend": 0,
      "ternary": 0,
      "t_pitch": 0,
      "t_vol": 0,
      "t_timing": 0,
      "spk": 1,
      "role": 1,
      "note": 60,
      "velocity": 64,
      "energy": 20,
      "duration_s": 0.26
    },
    {
      "t": 481.2,
      "word": "played",
      "f0_hz": 110.0,
      "pitch_bend": 0,
      "ternary": 0,
      "t_pitch": 0,
      "t_vol": 0,
      "t_timing": 0,
      "spk": 1,
      "role": 1,
      "note": 60,
      "velocity": 64,
      "energy": 20,
      "duration_s": 0.36
    },
    {
      "t": 481.56,
      "word": "netball,",
      "f0_hz": 110.0,
      "pitch_bend": 0,
      "ternary": 0,
      "t_pitch": 0,
      "t_vol": 0,
      "t_timing": 0,
      "spk": 1,
      "role": 1,
      "note": 60,
      "velocity": 64,
      "energy": 20,
      "duration_s": 0.52
    },
    {
      "t": 482.22,
      "word": "things",
      "f0_hz": 110.0,
      "pitch_bend": 0,
      "ternary": 0,
      "t_pitch": 0,
      "t_vol": 0,
      "t_timing": 0,
      "spk": 1,
      "role": 1,
      "note": 60,
      "velocity": 64,
      "energy": 20,
      "duration_s": 0.14
    },
    {
      "t": 482.36,
      "word": "like",
      "f0_hz": 110.0,
      "pitch_bend": 0,
      "ternary": 0,
      "t_pitch": 0,
      "t_vol": 0,
      "t_timing": 0,
      "spk": 1,
      "role": 1,
      "note": 60,
      "velocity": 64,
      "energy": 20,
      "duration_s": 0.18
    },
    {
      "t": 482.54,
      "word": "that.",
      "f0_hz": 110.0,
      "pitch_bend": 0,
      "ternary": 0,
      "t_pitch": 0,
      "t_vol": 0,
      "t_timing": 0,
      "spk": 1,
      "role": 1,
      "note": 60,
      "velocity": 64,
      "energy": 20,
      "duration_s": 0.22
    },
    {
      "t": 483.42,
      "word": "So",
      "f0_hz": 110.0,
      "pitch_bend": 0,
      "ternary": 0,
      "t_pitch": 0,
      "t_vol": 0,
      "t_timing": 0,
      "spk": 1,
      "role": 1,
      "note": 60,
      "velocity": 64,
      "energy": 20,
      "duration_s": 0.04
    },
    {
      "t": 483.46,
      "word": "reading",
      "f0_hz": 110.0,
      "pitch_bend": 0,
      "ternary": 0,
      "t_pitch": 0,
      "t_vol": 0,
      "t_timing": 0,
      "spk": 0,
      "role": 1,
      "note": 60,
      "velocity": 64,
      "energy": 20,
      "duration_s": 0.46
    },
    {
      "t": 483.92,
      "word": "wasn't",
      "f0_hz": 130.0,
      "pitch_bend": 0,
      "ternary": 0,
      "t_pitch": 0,
      "t_vol": 0,
      "t_timing": 0,
      "spk": 1,
      "role": 1,
      "note": 60,
      "velocity": 64,
      "energy": 20,
      "duration_s": 1.26
    },
    {
      "t": 485.18,
      "word": "a",
      "f0_hz": 110.0,
      "pitch_bend": 0,
      "ternary": 0,
      "t_pitch": 0,
      "t_vol": 0,
      "t_timing": 0,
      "spk": 1,
      "role": 1,
      "note": 60,
      "velocity": 64,
      "energy": 20,
      "duration_s": 0.32
    },
    {
      "t": 485.5,
      "word": "very",
      "f0_hz": 110.0,
      "pitch_bend": 0,
      "ternary": 0,
      "t_pitch": 0,
      "t_vol": 0,
      "t_timing": 0,
      "spk": 1,
      "role": 1,
      "note": 60,
      "velocity": 64,
      "energy": 20,
      "duration_s": 0.72
    },
    {
      "t": 486.22,
      "word": "popular",
      "f0_hz": 110.0,
      "pitch_bend": 0,
      "ternary": 0,
      "t_pitch": 0,
      "t_vol": 0,
      "t_timing": 0,
      "spk": 1,
      "role": 1,
      "note": 60,
      "velocity": 64,
      "energy": 20,
      "duration_s": 0.62
    },
    {
      "t": 486.84,
      "word": "pastime.",
      "f0_hz": 110.0,
      "pitch_bend": 0,
      "ternary": 0,
      "t_pitch": 0,
      "t_vol": 0,
      "t_timing": 0,
      "spk": 1,
      "role": 1,
      "note": 60,
      "velocity": 64,
      "energy": 20,
      "duration_s": 0.86
    },
    {
      "t": 488.5,
      "word": "It",
      "f0_hz": 110.0,
      "pitch_bend": 0,
      "ternary": 0,
      "t_pitch": 0,
      "t_vol": 0,
      "t_timing": 0,
      "spk": 1,
      "role": 1,
      "note": 60,
      "velocity": 64,
      "energy": 20,
      "duration_s": 0.2
    },
    {
      "t": 488.7,
      "word": "sounds",
      "f0_hz": 110.0,
      "pitch_bend": 0,
      "ternary": 0,
      "t_pitch": 0,
      "t_vol": 0,
      "t_timing": 0,
      "spk": 1,
      "role": 1,
      "note": 60,
      "velocity": 64,
      "energy": 20,
      "duration_s": 0.22
    },
    {
      "t": 488.92,
      "word": "like",
      "f0_hz": 110.0,
      "pitch_bend": 0,
      "ternary": 0,
      "t_pitch": 0,
      "t_vol": 0,
      "t_timing": 0,
      "spk": 1,
      "role": 1,
      "note": 60,
      "velocity": 64,
      "energy": 20,
      "duration_s": 0.2
    },
    {
      "t": 489.12,
      "word": "a",
      "f0_hz": 110.0,
      "pitch_bend": 0,
      "ternary": 0,
      "t_pitch": 0,
      "t_vol": 0,
      "t_timing": 0,
      "spk": 1,
      "role": 1,
      "note": 60,
      "velocity": 64,
      "energy": 20,
      "duration_s": 0.08
    },
    {
      "t": 489.2,
      "word": "really",
      "f0_hz": 110.0,
      "pitch_bend": 0,
      "ternary": 0,
      "t_pitch": 0,
      "t_vol": 0,
      "t_timing": 0,
      "spk": 1,
      "role": 1,
      "note": 60,
      "velocity": 64,
      "energy": 20,
      "duration_s": 0.28
    },
    {
      "t": 489.48,
      "word": "well",
      "f0_hz": 130.0,
      "pitch_bend": 0,
      "ternary": 0,
      "t_pitch": 0,
      "t_vol": 0,
      "t_timing": 0,
      "spk": 1,
      "role": 1,
      "note": 60,
      "velocity": 64,
      "energy": 20,
      "duration_s": 0.34
    },
    {
      "t": 489.82,
      "word": "-rounded,",
      "f0_hz": 110.0,
      "pitch_bend": 0,
      "ternary": 0,
      "t_pitch": 0,
      "t_vol": 0,
      "t_timing": 0,
      "spk": 1,
      "role": 1,
      "note": 60,
      "velocity": 64,
      "energy": 20,
      "duration_s": 0.52
    },
    {
      "t": 490.84,
      "word": "almost",
      "f0_hz": 110.0,
      "pitch_bend": 0,
      "ternary": 0,
      "t_pitch": 0,
      "t_vol": 0,
      "t_timing": 0,
      "spk": 1,
      "role": 1,
      "note": 60,
      "velocity": 64,
      "energy": 20,
      "duration_s": 0.02
    },
    {
      "t": 490.86,
      "word": "charmed",
      "f0_hz": 110.0,
      "pitch_bend": 0,
      "ternary": 0,
      "t_pitch": 0,
      "t_vol": 0,
      "t_timing": 0,
      "spk": 1,
      "role": 1,
      "note": 60,
      "velocity": 64,
      "energy": 20,
      "duration_s": 0.54
    },
    {
      "t": 491.4,
      "word": "childhood",
      "f0_hz": 110.0,
      "pitch_bend": 0,
      "ternary": 0,
      "t_pitch": 0,
      "t_vol": 0,
      "t_timing": 0,
      "spk": 1,
      "role": 1,
      "note": 60,
      "velocity": 64,
      "energy": 20,
      "duration_s": 0.36
    },
    {
      "t": 491.76,
      "word": "in",
      "f0_hz": 110.0,
      "pitch_bend": 0,
      "ternary": 0,
      "t_pitch": 0,
      "t_vol": 0,
      "t_timing": 0,
      "spk": 1,
      "role": 1,
      "note": 60,
      "velocity": 64,
      "energy": 20,
      "duration_s": 0.24
    },
    {
      "t": 492.0,
      "word": "a",
      "f0_hz": 110.0,
      "pitch_bend": 0,
      "ternary": 0,
      "t_pitch": 0,
      "t_vol": 0,
      "t_timing": 0,
      "spk": 1,
      "role": 1,
      "note": 60,
      "velocity": 64,
      "energy": 20,
      "duration_s": 0.12
    },
    {
      "t": 492.12,
      "word": "way",
      "f0_hz": 130.0,
      "pitch_bend": 0,
      "ternary": 0,
      "t_pitch": 0,
      "t_vol": 0,
      "t_timing": 0,
      "spk": 1,
      "role": 1,
      "note": 60,
      "velocity": 64,
      "energy": 20,
      "duration_s": 0.12
    },
    {
      "t": 492.24,
      "word": "when",
      "f0_hz": 130.0,
      "pitch_bend": 0,
      "ternary": 0,
      "t_pitch": 0,
      "t_vol": 0,
      "t_timing": 0,
      "spk": 1,
      "role": 1,
      "note": 60,
      "velocity": 64,
      "energy": 20,
      "duration_s": 0.22
    },
    {
      "t": 492.46,
      "word": "you",
      "f0_hz": 130.0,
      "pitch_bend": 0,
      "ternary": 0,
      "t_pitch": 0,
      "t_vol": 0,
      "t_timing": 0,
      "spk": 1,
      "role": 1,
      "note": 60,
      "velocity": 64,
      "energy": 20,
      "duration_s": 0.08
    },
    {
      "t": 492.54,
      "word": "describe",
      "f0_hz": 110.0,
      "pitch_bend": 0,
      "ternary": 0,
      "t_pitch": 0,
      "t_vol": 0,
      "t_timing": 0,
      "spk": 1,
      "role": 1,
      "note": 60,
      "velocity": 64,
      "energy": 20,
      "duration_s": 0.28
    },
    {
      "t": 492.82,
      "word": "it.",
      "f0_hz": 110.0,
      "pitch_bend": 0,
      "ternary": 0,
      "t_pitch": 0,
      "t_vol": 0,
      "t_timing": 0,
      "spk": 1,
      "role": 1,
      "note": 60,
      "velocity": 64,
      "energy": 20,
      "duration_s": 0.2
    },
    {
      "t": 493.08,
      "word": "You've",
      "f0_hz": 130.0,
      "pitch_bend": 0,
      "ternary": 0,
      "t_pitch": 0,
      "t_vol": 0,
      "t_timing": 0,
      "spk": 1,
      "role": 1,
      "note": 60,
      "velocity": 64,
      "energy": 20,
      "duration_s": 0.04
    },
    {
      "t": 493.12,
      "word": "got",
      "f0_hz": 110.0,
      "pitch_bend": 0,
      "ternary": 0,
      "t_pitch": 0,
      "t_vol": 0,
      "t_timing": 0,
      "spk": 1,
      "role": 1,
      "note": 60,
      "velocity": 64,
      "energy": 20,
      "duration_s": 0.26
    },
    {
      "t": 493.38,
      "word": "sports.",
      "f0_hz": 110.0,
      "pitch_bend": 0,
      "ternary": 0,
      "t_pitch": 0,
      "t_vol": 0,
      "t_timing": 0,
      "spk": 1,
      "role": 1,
      "note": 60,
      "velocity": 64,
      "energy": 20,
      "duration_s": 0.44
    },
    {
      "t": 493.92,
      "word": "You've",
      "f0_hz": 130.0,
      "pitch_bend": 0,
      "ternary": 0,
      "t_pitch": 0,
      "t_vol": 0,
      "t_timing": 0,
      "spk": 1,
      "role": 1,
      "note": 60,
      "velocity": 64,
      "energy": 20,
      "duration_s": 0.12
    },
    {
      "t": 494.04,
      "word": "got",
      "f0_hz": 110.0,
      "pitch_bend": 0,
      "ternary": 0,
      "t_pitch": 0,
      "t_vol": 0,
      "t_timing": 0,
      "spk": 1,
      "role": 1,
      "note": 60,
      "velocity": 64,
      "energy": 20,
      "duration_s": 0.12
    },
    {
      "t": 494.16,
      "word": "your",
      "f0_hz": 130.0,
      "pitch_bend": 0,
      "ternary": 0,
      "t_pitch": 0,
      "t_vol": 0,
      "t_timing": 0,
      "spk": 1,
      "role": 1,
      "note": 60,
      "velocity": 64,
      "energy": 20,
      "duration_s": 0.12
    },
    {
      "t": 494.28,
      "word": "love",
      "f0_hz": 110.0,
      "pitch_bend": 0,
      "ternary": 1,
      "t_pitch": 1,
      "t_vol": 1,
      "t_timing": 1,
      "spk": 1,
      "role": 2,
      "note": 63,
      "velocity": 84,
      "energy": 80,
      "duration_s": 0.14
    },
    {
      "t": 494.42,
      "word": "of",
      "f0_hz": 110.0,
      "pitch_bend": 0,
      "ternary": 0,
      "t_pitch": 0,
      "t_vol": 0,
      "t_timing": 0,
      "spk": 1,
      "role": 1,
      "note": 60,
      "velocity": 64,
      "energy": 20,
      "duration_s": 0.24
    },
    {
      "t": 494.66,
      "word": "reading.",
      "f0_hz": 110.0,
      "pitch_bend": 0,
      "ternary": 0,
      "t_pitch": 0,
      "t_vol": 0,
      "t_timing": 0,
      "spk": 1,
      "role": 1,
      "note": 60,
      "velocity": 64,
      "energy": 20,
      "duration_s": 0.34
    },
    {
      "t": 495.58,
      "word": "But",
      "f0_hz": 110.0,
      "pitch_bend": 0,
      "ternary": 0,
      "t_pitch": 0,
      "t_vol": 0,
      "t_timing": 0,
      "spk": 1,
      "role": 1,
      "note": 60,
      "velocity": 64,
      "energy": 20,
      "duration_s": 0.12
    },
    {
      "t": 495.7,
      "word": "your",
      "f0_hz": 130.0,
      "pitch_bend": 0,
      "ternary": 0,
      "t_pitch": 0,
      "t_vol": 0,
      "t_timing": 0,
      "spk": 1,
      "role": 1,
      "note": 60,
      "velocity": 64,
      "energy": 20,
      "duration_s": 0.18
    },
    {
      "t": 495.88,
      "word": "mum",
      "f0_hz": 110.0,
      "pitch_bend": 0,
      "ternary": 0,
      "t_pitch": 0,
      "t_vol": 0,
      "t_timing": 0,
      "spk": 1,
      "role": 1,
      "note": 60,
      "velocity": 64,
      "energy": 20,
      "duration_s": 0.06
    },
    {
      "t": 495.94,
      "word": "and",
      "f0_hz": 110.0,
      "pitch_bend": 0,
      "ternary": 0,
      "t_pitch": 0,
      "t_vol": 0,
      "t_timing": 0,
      "spk": 1,
      "role": 1,
      "note": 60,
      "velocity": 64,
      "energy": 20,
      "duration_s": 0.14
    },
    {
      "t": 496.08,
      "word": "dad",
      "f0_hz": 110.0,
      "pitch_bend": 0,
      "ternary": 0,
      "t_pitch": 0,
      "t_vol": 0,
      "t_timing": 0,
      "spk": 1,
      "role": 1,
      "note": 60,
      "velocity": 64,
      "energy": 20,
      "duration_s": 0.28
    },
    {
      "t": 496.36,
      "word": "split",
      "f0_hz": 110.0,
      "pitch_bend": 0,
      "ternary": 0,
      "t_pitch": 0,
      "t_vol": 0,
      "t_timing": 0,
      "spk": 1,
      "role": 1,
      "note": 60,
      "velocity": 64,
      "energy": 20,
      "duration_s": 0.44
    },
    {
      "t": 496.8,
      "word": "when",
      "f0_hz": 130.0,
      "pitch_bend": 0,
      "ternary": 0,
      "t_pitch": 0,
      "t_vol": 0,
      "t_timing": 0,
      "spk": 1,
      "role": 1,
      "note": 60,
      "velocity": 64,
      "energy": 20,
      "duration_s": 0.38
    },
    {
      "t": 497.18,
      "word": "you",
      "f0_hz": 130.0,
      "pitch_bend": 0,
      "ternary": 0,
      "t_pitch": 0,
      "t_vol": 0,
      "t_timing": 0,
      "spk": 1,
      "role": 1,
      "note": 60,
      "velocity": 64,
      "energy": 20,
      "duration_s": 0.18
    },
    {
      "t": 497.36,
      "word": "were",
      "f0_hz": 130.0,
      "pitch_bend": 0,
      "ternary": 0,
      "t_pitch": 0,
      "t_vol": 0,
      "t_timing": 0,
      "spk": 1,
      "role": 1,
      "note": 60,
      "velocity": 64,
      "energy": 20,
      "duration_s": 0.26
    },
    {
      "t": 497.62,
      "word": "really",
      "f0_hz": 110.0,
      "pitch_bend": 0,
      "ternary": 0,
      "t_pitch": 0,
      "t_vol": 0,
      "t_timing": 0,
      "spk": 1,
      "role": 1,
      "note": 60,
      "velocity": 64,
      "energy": 20,
      "duration_s": 0.74
    },
    {
      "t": 498.36,
      "word": "little,",
      "f0_hz": 110.0,
      "pitch_bend": 0,
      "ternary": 0,
      "t_pitch": 0,
      "t_vol": 0,
      "t_timing": 0,
      "spk": 1,
      "role": 1,
      "note": 60,
      "velocity": 64,
      "energy": 20,
      "duration_s": 0.32
    },
    {
      "t": 499.12,
      "word": "right?",
      "f0_hz": 110.0,
      "pitch_bend": 0,
      "ternary": 1,
      "t_pitch": 1,
      "t_vol": 1,
      "t_timing": 1,
      "spk": 1,
      "role": 2,
      "note": 63,
      "velocity": 84,
      "energy": 80,
      "duration_s": 0.06
    },
    {
      "t": 499.18,
      "word": "How",
      "f0_hz": 130.0,
      "pitch_bend": 0,
      "ternary": 0,
      "t_pitch": 0,
      "t_vol": 0,
      "t_timing": 0,
      "spk": 1,
      "role": 1,
      "note": 60,
      "velocity": 64,
      "energy": 20,
      "duration_s": 0.36
    },
    {
      "t": 499.54,
      "word": "did",
      "f0_hz": 110.0,
      "pitch_bend": 0,
      "ternary": 0,
      "t_pitch": 0,
      "t_vol": 0,
      "t_timing": 0,
      "spk": 1,
      "role": 1,
      "note": 60,
      "velocity": 64,
      "energy": 20,
      "duration_s": 0.24
    },
    {
      "t": 499.78,
      "word": "your",
      "f0_hz": 130.0,
      "pitch_bend": 0,
      "ternary": 0,
      "t_pitch": 0,
      "t_vol": 0,
      "t_timing": 0,
      "spk": 0,
      "role": 1,
      "note": 60,
      "velocity": 64,
      "energy": 20,
      "duration_s": 0.7
    },
    {
      "t": 500.48,
      "word": "mum",
      "f0_hz": 110.0,
      "pitch_bend": 0,
      "ternary": 0,
      "t_pitch": 0,
      "t_vol": 0,
      "t_timing": 0,
      "spk": 1,
      "role": 1,
      "note": 60,
      "velocity": 64,
      "energy": 20,
      "duration_s": 0.26
    },
    {
      "t": 500.74,
      "word": "find",
      "f0_hz": 110.0,
      "pitch_bend": 0,
      "ternary": 0,
      "t_pitch": 0,
      "t_vol": 0,
      "t_timing": 0,
      "spk": 1,
      "role": 1,
      "note": 60,
      "velocity": 64,
      "energy": 20,
      "duration_s": 0.46
    },
    {
      "t": 501.2,
      "word": "a",
      "f0_hz": 110.0,
      "pitch_bend": 0,
      "ternary": 0,
      "t_pitch": 0,
      "t_vol": 0,
      "t_timing": 0,
      "spk": 1,
      "role": 1,
      "note": 60,
      "velocity": 64,
      "energy": 20,
      "duration_s": 0.36
    },
    {
      "t": 501.56,
      "word": "single",
      "f0_hz": 110.0,
      "pitch_bend": 0,
      "ternary": 0,
      "t_pitch": 0,
      "t_vol": 0,
      "t_timing": 0,
      "spk": 1,
      "role": 1,
      "note": 60,
      "velocity": 64,
      "energy": 20,
      "duration_s": 0.0
    },
    {
      "t": 501.56,
      "word": "parenting?",
      "f0_hz": 110.0,
      "pitch_bend": 0,
      "ternary": 1,
      "t_pitch": 1,
      "t_vol": 1,
      "t_timing": 1,
      "spk": 1,
      "role": 2,
      "note": 63,
      "velocity": 84,
      "energy": 80,
      "duration_s": 0.44
    },
    {
      "t": 503.94,
      "word": "My",
      "f0_hz": 110.0,
      "pitch_bend": 0,
      "ternary": 0,
      "t_pitch": 0,
      "t_vol": 0,
      "t_timing": 0,
      "spk": 0,
      "role": 1,
      "note": 60,
      "velocity": 64,
      "energy": 20,
      "duration_s": 0.28
    },
    {
      "t": 504.22,
      "word": "mum",
      "f0_hz": 110.0,
      "pitch_bend": 0,
      "ternary": 0,
      "t_pitch": 0,
      "t_vol": 0,
      "t_timing": 0,
      "spk": 1,
      "role": 1,
      "note": 60,
      "velocity": 64,
      "energy": 20,
      "duration_s": 0.86
    },
    {
      "t": 505.08,
      "word": "is",
      "f0_hz": 110.0,
      "pitch_bend": 0,
      "ternary": 0,
      "t_pitch": 0,
      "t_vol": 0,
      "t_timing": 0,
      "spk": 1,
      "role": 1,
      "note": 60,
      "velocity": 64,
      "energy": 20,
      "duration_s": 1.5
    },
    {
      "t": 506.58,
      "word": "an",
      "f0_hz": 110.0,
      "pitch_bend": 0,
      "ternary": 0,
      "t_pitch": 0,
      "t_vol": 0,
      "t_timing": 0,
      "spk": 1,
      "role": 1,
      "note": 60,
      "velocity": 64,
      "energy": 20,
      "duration_s": 0.8
    },
    {
      "t": 507.38,
      "word": "incredible",
      "f0_hz": 110.0,
      "pitch_bend": 0,
      "ternary": 0,
      "t_pitch": 0,
      "t_vol": 0,
      "t_timing": 0,
      "spk": 1,
      "role": 1,
      "note": 60,
      "velocity": 64,
      "energy": 20,
      "duration_s": 0.24
    },
    {
      "t": 507.62,
      "word": "woman.",
      "f0_hz": 130.0,
      "pitch_bend": 0,
      "ternary": 0,
      "t_pitch": 0,
      "t_vol": 0,
      "t_timing": 0,
      "spk": 1,
      "role": 1,
      "note": 60,
      "velocity": 64,
      "energy": 20,
      "duration_s": 0.66
    },
    {
      "t": 509.08,
      "word": "And",
      "f0_hz": 110.0,
      "pitch_bend": 0,
      "ternary": 0,
      "t_pitch": 0,
      "t_vol": 0,
      "t_timing": 0,
      "spk": 1,
      "role": 1,
      "note": 60,
      "velocity": 64,
      "energy": 20,
      "duration_s": 0.0
    },
    {
      "t": 509.08,
      "word": "she",
      "f0_hz": 110.0,
      "pitch_bend": 0,
      "ternary": 0,
      "t_pitch": 0,
      "t_vol": 0,
      "t_timing": 0,
      "spk": 1,
      "role": 1,
      "note": 60,
      "velocity": 64,
      "energy": 20,
      "duration_s": 2.54
    },
    {
      "t": 511.62,
      "word": "crushes",
      "f0_hz": 110.0,
      "pitch_bend": 0,
      "ternary": 0,
      "t_pitch": 0,
      "t_vol": 0,
      "t_timing": 0,
      "spk": 1,
      "role": 1,
      "note": 60,
      "velocity": 64,
      "energy": 20,
      "duration_s": 1.42
    },
    {
      "t": 513.04,
      "word": "everything",
      "f0_hz": 110.0,
      "pitch_bend": 0,
      "ternary": 0,
      "t_pitch": 0,
      "t_vol": 0,
      "t_timing": 0,
      "spk": 1,
      "role": 1,
      "note": 60,
      "velocity": 64,
      "energy": 20,
      "duration_s": 0.92
    },
    {
      "t": 513.96,
      "word": "that",
      "f0_hz": 110.0,
      "pitch_bend": 0,
      "ternary": 0,
      "t_pitch": 0,
      "t_vol": 0,
      "t_timing": 0,
      "spk": 1,
      "role": 1,
      "note": 60,
      "velocity": 64,
      "energy": 20,
      "duration_s": 0.32
    },
    {
      "t": 514.28,
      "word": "she",
      "f0_hz": 110.0,
      "pitch_bend": 0,
      "ternary": 0,
      "t_pitch": 0,
      "t_vol": 0,
      "t_timing": 0,
      "spk": 1,
      "role": 1,
      "note": 60,
      "velocity": 64,
      "energy": 20,
      "duration_s": 0.24
    },
    {
      "t": 514.52,
      "word": "does.",
      "f0_hz": 110.0,
      "pitch_bend": 0,
      "ternary": 0,
      "t_pitch": 0,
      "t_vol": 0,
      "t_timing": 0,
      "spk": 1,
      "role": 1,
      "note": 60,
      "velocity": 64,
      "energy": 20,
      "duration_s": 0.38
    },
    {
      "t": 516.1,
      "word": "So",
      "f0_hz": 110.0,
      "pitch_bend": 0,
      "ternary": 0,
      "t_pitch": 0,
      "t_vol": 0,
      "t_timing": 0,
      "spk": 1,
      "role": 1,
      "note": 60,
      "velocity": 64,
      "energy": 20,
      "duration_s": 0.46
    },
    {
      "t": 516.56,
      "word": "funny",
      "f0_hz": 110.0,
      "pitch_bend": 0,
      "ternary": 0,
      "t_pitch": 0,
      "t_vol": 0,
      "t_timing": 0,
      "spk": 1,
      "role": 1,
      "note": 60,
      "velocity": 64,
      "energy": 20,
      "duration_s": 0.52
    },
    {
      "t": 517.08,
      "word": "actually.",
      "f0_hz": 110.0,
      "pitch_bend": 0,
      "ternary": 0,
      "t_pitch": 0,
      "t_vol": 0,
      "t_timing": 0,
      "spk": 1,
      "role": 1,
      "note": 60,
      "velocity": 64,
      "energy": 20,
      "duration_s": 0.42
    },
    {
      "t": 518.82,
      "word": "I've",
      "f0_hz": 110.0,
      "pitch_bend": 0,
      "ternary": 0,
      "t_pitch": 0,
      "t_vol": 0,
      "t_timing": 0,
      "spk": 1,
      "role": 1,
      "note": 60,
      "velocity": 64,
      "energy": 20,
      "duration_s": 0.64
    },
    {
      "t": 519.46,
      "word": "never",
      "f0_hz": 110.0,
      "pitch_bend": 0,
      "ternary": -1,
      "t_pitch": -1,
      "t_vol": -1,
      "t_timing": -1,
      "spk": 1,
      "role": 0,
      "note": 57,
      "velocity": 44,
      "energy": 80,
      "duration_s": 0.28
    },
    {
      "t": 519.74,
      "word": "asked",
      "f0_hz": 110.0,
      "pitch_bend": 0,
      "ternary": 0,
      "t_pitch": 0,
      "t_vol": 0,
      "t_timing": 0,
      "spk": 1,
      "role": 1,
      "note": 60,
      "velocity": 64,
      "energy": 20,
      "duration_s": 0.26
    },
    {
      "t": 520.0,
      "word": "her",
      "f0_hz": 130.0,
      "pitch_bend": 0,
      "ternary": 0,
      "t_pitch": 0,
      "t_vol": 0,
      "t_timing": 0,
      "spk": 1,
      "role": 1,
      "note": 60,
      "velocity": 64,
      "energy": 20,
      "duration_s": 0.14
    },
    {
      "t": 520.14,
      "word": "that",
      "f0_hz": 110.0,
      "pitch_bend": 0,
      "ternary": 0,
      "t_pitch": 0,
      "t_vol": 0,
      "t_timing": 0,
      "spk": 1,
      "role": 1,
      "note": 60,
      "velocity": 64,
      "energy": 20,
      "duration_s": 0.18
    },
    {
      "t": 520.32,
      "word": "question.",
      "f0_hz": 110.0,
      "pitch_bend": 0,
      "ternary": 0,
      "t_pitch": 0,
      "t_vol": 0,
      "t_timing": 0,
      "spk": 1,
      "role": 1,
      "note": 60,
      "velocity": 64,
      "energy": 20,
      "duration_s": 0.64
    },
    {
      "t": 522.06,
      "word": "That's",
      "f0_hz": 110.0,
      "pitch_bend": 0,
      "ternary": 0,
      "t_pitch": 0,
      "t_vol": 0,
      "t_timing": 0,
      "spk": 1,
      "role": 1,
      "note": 60,
      "velocity": 64,
      "energy": 20,
      "duration_s": 0.4
    },
    {
      "t": 522.46,
      "word": "the",
      "f0_hz": 110.0,
      "pitch_bend": 0,
      "ternary": 0,
      "t_pitch": 0,
      "t_vol": 0,
      "t_timing": 0,
      "spk": 0,
      "role": 1,
      "note": 60,
      "velocity": 64,
      "energy": 20,
      "duration_s": 0.4
    },
    {
      "t": 522.86,
      "word": "thinking",
      "f0_hz": 110.0,
      "pitch_bend": 0,
      "ternary": 0,
      "t_pitch": 0,
      "t_vol": 0,
      "t_timing": 0,
      "spk": 1,
      "role": 1,
      "note": 60,
      "velocity": 64,
      "energy": 20,
      "duration_s": 0.2
    },
    {
      "t": 523.06,
      "word": "on",
      "f0_hz": 110.0,
      "pitch_bend": 0,
      "ternary": 0,
      "t_pitch": 0,
      "t_vol": 0,
      "t_timing": 0,
      "spk": 1,
      "role": 1,
      "note": 60,
      "velocity": 64,
      "energy": 20,
      "duration_s": 0.26
    },
    {
      "t": 523.32,
      "word": "that.",
      "f0_hz": 110.0,
      "pitch_bend": 0,
      "ternary": 0,
      "t_pitch": 0,
      "t_vol": 0,
      "t_timing": 0,
      "spk": 1,
      "role": 1,
      "note": 60,
      "velocity": 64,
      "energy": 20,
      "duration_s": 0.36
    },
    {
      "t": 523.76,
      "word": "You're",
      "f0_hz": 130.0,
      "pitch_bend": 0,
      "ternary": 0,
      "t_pitch": 0,
      "t_vol": 0,
      "t_timing": 0,
      "spk": 0,
      "role": 1,
      "note": 60,
      "velocity": 64,
      "energy": 20,
      "duration_s": 0.36
    },
    {
      "t": 524.12,
      "word": "asking",
      "f0_hz": 110.0,
      "pitch_bend": 0,
      "ternary": 0,
      "t_pitch": 0,
      "t_vol": 0,
      "t_timing": 0,
      "spk": 1,
      "role": 1,
      "note": 60,
      "velocity": 64,
      "energy": 20,
      "duration_s": 0.12
    },
    {
      "t": 524.24,
      "word": "me",
      "f0_hz": 110.0,
      "pitch_bend": 0,
      "ternary": 0,
      "t_pitch": 0,
      "t_vol": 0,
      "t_timing": 0,
      "spk": 1,
      "role": 1,
      "note": 60,
      "velocity": 64,
      "energy": 20,
      "duration_s": 0.2
    },
    {
      "t": 524.44,
      "word": "that.",
      "f0_hz": 110.0,
      "pitch_bend": 0,
      "ternary": 0,
      "t_pitch": 0,
      "t_vol": 0,
      "t_timing": 0,
      "spk": 1,
      "role": 1,
      "note": 60,
      "velocity": 64,
      "energy": 20,
      "duration_s": 0.14
    },
    {
      "t": 524.72,
      "word": "Makes",
      "f0_hz": 110.0,
      "pitch_bend": 0,
      "ternary": 0,
      "t_pitch": 0,
      "t_vol": 0,
      "t_timing": 0,
      "spk": 0,
      "role": 1,
      "note": 60,
      "velocity": 64,
      "energy": 20,
      "duration_s": 0.0
    },
    {
      "t": 524.72,
      "word": "me",
      "f0_hz": 110.0,
      "pitch_bend": 0,
      "ternary": 0,
      "t_pitch": 0,
      "t_vol": 0,
      "t_timing": 0,
      "spk": 1,
      "role": 1,
      "note": 60,
      "velocity": 64,
      "energy": 20,
      "duration_s": 0.18
    },
    {
      "t": 524.9,
      "word": "think,",
      "f0_hz": 110.0,
      "pitch_bend": 0,
      "ternary": 0,
      "t_pitch": 0,
      "t_vol": 0,
      "t_timing": 0,
      "spk": 1,
      "role": 1,
      "note": 60,
      "velocity": 64,
      "energy": 20,
      "duration_s": 0.26
    },
    {
      "t": 525.16,
      "word": "you",
      "f0_hz": 130.0,
      "pitch_bend": 0,
      "ternary": 0,
      "t_pitch": 0,
      "t_vol": 0,
      "t_timing": 0,
      "spk": 1,
      "role": 1,
      "note": 60,
      "velocity": 64,
      "energy": 20,
      "duration_s": 0.06
    },
    {
      "t": 525.22,
      "word": "know,",
      "f0_hz": 110.0,
      "pitch_bend": 0,
      "ternary": 0,
      "t_pitch": 0,
      "t_vol": 0,
      "t_timing": 0,
      "spk": 1,
      "role": 1,
      "note": 60,
      "velocity": 64,
      "energy": 20,
      "duration_s": 0.66
    },
    {
      "t": 525.94,
      "word": "I",
      "f0_hz": 110.0,
      "pitch_bend": 0,
      "ternary": 0,
      "t_pitch": 0,
      "t_vol": 0,
      "t_timing": 0,
      "spk": 1,
      "role": 1,
      "note": 60,
      "velocity": 64,
      "energy": 20,
      "duration_s": 0.1
    },
    {
      "t": 526.04,
      "word": "really",
      "f0_hz": 110.0,
      "pitch_bend": 0,
      "ternary": 0,
      "t_pitch": 0,
      "t_vol": 0,
      "t_timing": 0,
      "spk": 1,
      "role": 1,
      "note": 60,
      "velocity": 64,
      "energy": 20,
      "duration_s": 0.2
    },
    {
      "t": 526.24,
      "word": "need",
      "f0_hz": 110.0,
      "pitch_bend": 0,
      "ternary": 0,
      "t_pitch": 0,
      "t_vol": 0,
      "t_timing": 0,
      "spk": 1,
      "role": 1,
      "note": 60,
      "velocity": 64,
      "energy": 20,
      "duration_s": 0.18
    },
    {
      "t": 526.42,
      "word": "to",
      "f0_hz": 110.0,
      "pitch_bend": 0,
      "ternary": 0,
      "t_pitch": 0,
      "t_vol": 0,
      "t_timing": 0,
      "spk": 1,
      "role": 1,
      "note": 60,
      "velocity": 64,
      "energy": 20,
      "duration_s": 0.18
    },
    {
      "t": 526.6,
      "word": "talk",
      "f0_hz": 110.0,
      "pitch_bend": 0,
      "ternary": 0,
      "t_pitch": 0,
      "t_vol": 0,
      "t_timing": 0,
      "spk": 1,
      "role": 1,
      "note": 60,
      "velocity": 64,
      "energy": 20,
      "duration_s": 0.18
    },
    {
      "t": 526.78,
      "word": "to",
      "f0_hz": 110.0,
      "pitch_bend": 0,
      "ternary": 0,
      "t_pitch": 0,
      "t_vol": 0,
      "t_timing": 0,
      "spk": 1,
      "role": 1,
      "note": 60,
      "velocity": 64,
      "energy": 20,
      "duration_s": 0.14
    },
    {
      "t": 526.92,
      "word": "her",
      "f0_hz": 130.0,
      "pitch_bend": 0,
      "ternary": 0,
      "t_pitch": 0,
      "t_vol": 0,
      "t_timing": 0,
      "spk": 1,
      "role": 1,
      "note": 60,
      "velocity": 64,
      "energy": 20,
      "duration_s": 0.22
    },
    {
      "t": 527.14,
      "word": "about",
      "f0_hz": 110.0,
      "pitch_bend": 0,
      "ternary": 0,
      "t_pitch": 0,
      "t_vol": 0,
      "t_timing": 0,
      "spk": 1,
      "role": 1,
      "note": 60,
      "velocity": 64,
      "energy": 20,
      "duration_s": 0.18
    },
    {
      "t": 527.32,
      "word": "that.",
      "f0_hz": 110.0,
      "pitch_bend": 0,
      "ternary": 0,
      "t_pitch": 0,
      "t_vol": 0,
      "t_timing": 0,
      "spk": 1,
      "role": 1,
      "note": 60,
      "velocity": 64,
      "energy": 20,
      "duration_s": 0.32
    },
    {
      "t": 527.72,
      "word": "Because",
      "f0_hz": 110.0,
      "pitch_bend": 0,
      "ternary": 0,
      "t_pitch": 0,
      "t_vol": 0,
      "t_timing": 0,
      "spk": 1,
      "role": 1,
      "note": 60,
      "velocity": 64,
      "energy": 20,
      "duration_s": 0.06
    },
    {
      "t": 527.78,
      "word": "that's",
      "f0_hz": 110.0,
      "pitch_bend": 0,
      "ternary": 0,
      "t_pitch": 0,
      "t_vol": 0,
      "t_timing": 0,
      "spk": 1,
      "role": 1,
      "note": 60,
      "velocity": 64,
      "energy": 20,
      "duration_s": 0.26
    },
    {
      "t": 528.04,
      "word": "never",
      "f0_hz": 110.0,
      "pitch_bend": 0,
      "ternary": -1,
      "t_pitch": -1,
      "t_vol": -1,
      "t_timing": -1,
      "spk": 1,
      "role": 0,
      "note": 57,
      "velocity": 44,
      "energy": 80,
      "duration_s": 0.22
    },
    {
      "t": 528.26,
      "word": "a",
      "f0_hz": 110.0,
      "pitch_bend": 0,
      "ternary": 0,
      "t_pitch": 0,
      "t_vol": 0,
      "t_timing": 0,
      "spk": 1,
      "role": 1,
      "note": 60,
      "velocity": 64,
      "energy": 20,
      "duration_s": 0.14
    },
    {
      "t": 528.4,
      "word": "question.",
      "f0_hz": 110.0,
      "pitch_bend": 0,
      "ternary": 0,
      "t_pitch": 0,
      "t_vol": 0,
      "t_timing": 0,
      "spk": 1,
      "role": 1,
      "note": 60,
      "velocity": 64,
      "energy": 20,
      "duration_s": 0.16
    },
    {
      "t": 528.7,
      "word": "I'm",
      "f0_hz": 110.0,
      "pitch_bend": 0,
      "ternary": 0,
      "t_pitch": 0,
      "t_vol": 0,
      "t_timing": 0,
      "spk": 1,
      "role": 1,
      "note": 60,
      "velocity": 64,
      "energy": 20,
      "duration_s": 0.12
    },
    {
      "t": 528.82,
      "word": "asked",
      "f0_hz": 110.0,
      "pitch_bend": 0,
      "ternary": 0,
      "t_pitch": 0,
      "t_vol": 0,
      "t_timing": 0,
      "spk": 1,
      "role": 1,
      "note": 60,
      "velocity": 64,
      "energy": 20,
      "duration_s": 0.06
    },
    {
      "t": 528.88,
      "word": "to",
      "f0_hz": 110.0,
      "pitch_bend": 0,
      "ternary": 0,
      "t_pitch": 0,
      "t_vol": 0,
      "t_timing": 0,
      "spk": 1,
      "role": 1,
      "note": 60,
      "velocity": 64,
      "energy": 20,
      "duration_s": 0.16
    },
    {
      "t": 529.04,
      "word": "how",
      "f0_hz": 130.0,
      "pitch_bend": 0,
      "ternary": 0,
      "t_pitch": 0,
      "t_vol": 0,
      "t_timing": 0,
      "spk": 1,
      "role": 1,
      "note": 60,
      "velocity": 64,
      "energy": 20,
      "duration_s": 0.14
    },
    {
      "t": 529.18,
      "word": "she",
      "f0_hz": 110.0,
      "pitch_bend": 0,
      "ternary": 0,
      "t_pitch": 0,
      "t_vol": 0,
      "t_timing": 0,
      "spk": 1,
      "role": 1,
      "note": 60,
      "velocity": 64,
      "energy": 20,
      "duration_s": 0.2
    },
    {
      "t": 529.38,
      "word": "found",
      "f0_hz": 110.0,
      "pitch_bend": 0,
      "ternary": 0,
      "t_pitch": 0,
      "t_vol": 0,
      "t_timing": 0,
      "spk": 1,
      "role": 1,
      "note": 60,
      "velocity": 64,
      "energy": 20,
      "duration_s": 0.7
    },
    {
      "t": 530.08,
      "word": "being",
      "f0_hz": 110.0,
      "pitch_bend": 0,
      "ternary": 0,
      "t_pitch": 0,
      "t_vol": 0,
      "t_timing": 0,
      "spk": 1,
      "role": 1,
      "note": 60,
      "velocity": 64,
      "energy": 20,
      "duration_s": 0.46
    },
    {
      "t": 530.54,
      "word": "a",
      "f0_hz": 110.0,
      "pitch_bend": 0,
      "ternary": 0,
      "t_pitch": 0,
      "t_vol": 0,
      "t_timing": 0,
      "spk": 1,
      "role": 1,
      "note": 60,
      "velocity": 64,
      "energy": 20,
      "duration_s": 0.18
    },
    {
      "t": 530.72,
      "word": "single",
      "f0_hz": 110.0,
      "pitch_bend": 0,
      "ternary": 0,
      "t_pitch": 0,
      "t_vol": 0,
      "t_timing": 0,
      "spk": 1,
      "role": 1,
      "note": 60,
      "velocity": 64,
      "energy": 20,
      "duration_s": 0.18
    },
    {
      "t": 530.9,
      "word": "mum.",
      "f0_hz": 110.0,
      "pitch_bend": 0,
      "ternary": 0,
      "t_pitch": 0,
      "t_vol": 0,
      "t_timing": 0,
      "spk": 0,
      "role": 1,
      "note": 60,
      "velocity": 64,
      "energy": 20,
      "duration_s": 0.32
    },
    {
      "t": 531.3,
      "word": "I",
      "f0_hz": 110.0,
      "pitch_bend": 0,
      "ternary": 0,
      "t_pitch": 0,
      "t_vol": 0,
      "t_timing": 0,
      "spk": 1,
      "role": 1,
      "note": 60,
      "velocity": 64,
      "energy": 20,
      "duration_s": 0.1
    },
    {
      "t": 531.4,
      "word": "think",
      "f0_hz": 110.0,
      "pitch_bend": 0,
      "ternary": 0,
      "t_pitch": 0,
      "t_vol": 0,
      "t_timing": 0,
      "spk": 1,
      "role": 1,
      "note": 60,
      "velocity": 64,
      "energy": 20,
      "duration_s": 0.04
    },
    {
      "t": 531.44,
      "word": "she",
      "f0_hz": 110.0,
      "pitch_bend": 0,
      "ternary": 0,
      "t_pitch": 0,
      "t_vol": 0,
      "t_timing": 0,
      "spk": 1,
      "role": 1,
      "note": 60,
      "velocity": 64,
      "energy": 20,
      "duration_s": 0.1
    },
    {
      "t": 531.54,
      "word": "was",
      "f0_hz": 130.0,
      "pitch_bend": 0,
      "ternary": 0,
      "t_pitch": 0,
      "t_vol": 0,
      "t_timing": 0,
      "spk": 1,
      "role": 1,
      "note": 60,
      "velocity": 64,
      "energy": 20,
      "duration_s": 0.16
    },
    {
      "t": 531.7,
      "word": "a",
      "f0_hz": 110.0,
      "pitch_bend": 0,
      "ternary": 0,
      "t_pitch": 0,
      "t_vol": 0,
      "t_timing": 0,
      "spk": 1,
      "role": 1,
      "note": 60,
      "velocity": 64,
      "energy": 20,
      "duration_s": 0.14
    },
    {
      "t": 531.84,
      "word": "single",
      "f0_hz": 110.0,
      "pitch_bend": 0,
      "ternary": 0,
      "t_pitch": 0,
      "t_vol": 0,
      "t_timing": 0,
      "spk": 1,
      "role": 1,
      "note": 60,
      "velocity": 64,
      "energy": 20,
      "duration_s": 0.14
    },
    {
      "t": 531.98,
      "word": "mum",
      "f0_hz": 110.0,
      "pitch_bend": 0,
      "ternary": 0,
      "t_pitch": 0,
      "t_vol": 0,
      "t_timing": 0,
      "spk": 1,
      "role": 1,
      "note": 60,
      "velocity": 64,
      "energy": 20,
      "duration_s": 0.18
    },
    {
      "t": 532.16,
      "word": "for",
      "f0_hz": 110.0,
      "pitch_bend": 0,
      "ternary": 0,
      "t_pitch": 0,
      "t_vol": 0,
      "t_timing": 0,
      "spk": 1,
      "role": 1,
      "note": 60,
      "velocity": 64,
      "energy": 20,
      "duration_s": 0.1
    },
    {
      "t": 532.26,
      "word": "about",
      "f0_hz": 110.0,
      "pitch_bend": 0,
      "ternary": 0,
      "t_pitch": 0,
      "t_vol": 0,
      "t_timing": 0,
      "spk": 1,
      "role": 1,
      "note": 60,
      "velocity": 64,
      "energy": 20,
      "duration_s": 0.22
    },
    {
      "t": 532.48,
      "word": "two",
      "f0_hz": 110.0,
      "pitch_bend": 0,
      "ternary": 0,
      "t_pitch": 0,
      "t_vol": 0,
      "t_timing": 0,
      "spk": 1,
      "role": 1,
      "note": 60,
      "velocity": 64,
      "energy": 20,
      "duration_s": 0.28
    },
    {
      "t": 532.76,
      "word": "years.",
      "f0_hz": 130.0,
      "pitch_bend": 0,
      "ternary": 0,
      "t_pitch": 0,
      "t_vol": 0,
      "t_timing": 0,
      "spk": 1,
      "role": 1,
      "note": 60,
      "velocity": 64,
      "energy": 20,
      "duration_s": 0.5
    },
    {
      "t": 533.52,
      "word": "But",
      "f0_hz": 110.0,
      "pitch_bend": 0,
      "ternary": 0,
      "t_pitch": 0,
      "t_vol": 0,
      "t_timing": 0,
      "spk": 1,
      "role": 1,
      "note": 60,
      "velocity": 64,
      "energy": 20,
      "duration_s": 0.08
    },
    {
      "t": 533.6,
      "word": "she",
      "f0_hz": 110.0,
      "pitch_bend": 0,
      "ternary": 0,
      "t_pitch": 0,
      "t_vol": 0,
      "t_timing": 0,
      "spk": 1,
      "role": 1,
      "note": 60,
      "velocity": 64,
      "energy": 20,
      "duration_s": 0.22
    },
    {
      "t": 533.82,
      "word": "meant",
      "f0_hz": 110.0,
      "pitch_bend": 0,
      "ternary": 0,
      "t_pitch": 0,
      "t_vol": 0,
      "t_timing": 0,
      "spk": 1,
      "role": 1,
      "note": 60,
      "velocity": 64,
      "energy": 20,
      "duration_s": 0.18
    },
    {
      "t": 534.0,
      "word": "my",
      "f0_hz": 110.0,
      "pitch_bend": 0,
      "ternary": 0,
      "t_pitch": 0,
      "t_vol": 0,
      "t_timing": 0,
      "spk": 1,
      "role": 1,
      "note": 60,
      "velocity": 64,
      "energy": 20,
      "duration_s": 0.18
    },
    {
      "t": 534.18,
      "word": "stepfather.",
      "f0_hz": 110.0,
      "pitch_bend": 0,
      "ternary": 0,
      "t_pitch": 0,
      "t_vol": 0,
      "t_timing": 0,
      "spk": 1,
      "role": 1,
      "note": 60,
      "velocity": 64,
      "energy": 20,
      "duration_s": 0.44
    },
    {
      "t": 534.82,
      "word": "I've",
      "f0_hz": 110.0,
      "pitch_bend": 0,
      "ternary": 0,
      "t_pitch": 0,
      "t_vol": 0,
      "t_timing": 0,
      "spk": 1,
      "role": 1,
      "note": 60,
      "velocity": 64,
      "energy": 20,
      "duration_s": 0.18
    },
    {
      "t": 535.0,
      "word": "never",
      "f0_hz": 110.0,
      "pitch_bend": 0,
      "ternary": -1,
      "t_pitch": -1,
      "t_vol": -1,
      "t_timing": -1,
      "spk": 1,
      "role": 0,
      "note": 57,
      "velocity": 44,
      "energy": 80,
      "duration_s": 0.2
    },
    {
      "t": 535.2,
      "word": "asked",
      "f0_hz": 110.0,
      "pitch_bend": 0,
      "ternary": 0,
      "t_pitch": 0,
      "t_vol": 0,
      "t_timing": 0,
      "spk": 1,
      "role": 1,
      "note": 60,
      "velocity": 64,
      "energy": 20,
      "duration_s": 0.22
    },
    {
      "t": 535.42,
      "word": "her.",
      "f0_hz": 130.0,
      "pitch_bend": 0,
      "ternary": 0,
      "t_pitch": 0,
      "t_vol": 0,
      "t_timing": 0,
      "spk": 1,
      "role": 1,
      "note": 60,
      "velocity": 64,
      "energy": 20,
      "duration_s": 0.26
    },
    {
      "t": 536.78,
      "word": "But",
      "f0_hz": 110.0,
      "pitch_bend": 0,
      "ternary": 0,
      "t_pitch": 0,
      "t_vol": 0,
      "t_timing": 0,
      "spk": 1,
      "role": 1,
      "note": 60,
      "velocity": 64,
      "energy": 20,
      "duration_s": 0.4
    },
    {
      "t": 537.18,
      "word": "I",
      "f0_hz": 110.0,
      "pitch_bend": 0,
      "ternary": 0,
      "t_pitch": 0,
      "t_vol": 0,
      "t_timing": 0,
      "spk": 1,
      "role": 1,
      "note": 60,
      "velocity": 64,
      "energy": 20,
      "duration_s": 0.38
    },
    {
      "t": 537.56,
      "word": "was",
      "f0_hz": 130.0,
      "pitch_bend": 0,
      "ternary": 0,
      "t_pitch": 0,
      "t_vol": 0,
      "t_timing": 0,
      "spk": 1,
      "role": 1,
      "note": 60,
      "velocity": 64,
      "energy": 20,
      "duration_s": 0.16
    },
    {
      "t": 537.72,
      "word": "very",
      "f0_hz": 110.0,
      "pitch_bend": 0,
      "ternary": 0,
      "t_pitch": 0,
      "t_vol": 0,
      "t_timing": 0,
      "spk": 1,
      "role": 1,
      "note": 60,
      "velocity": 64,
      "energy": 20,
      "duration_s": 0.3
    },
    {
      "t": 538.02,
      "word": "young",
      "f0_hz": 130.0,
      "pitch_bend": 0,
      "ternary": 0,
      "t_pitch": 0,
      "t_vol": 0,
      "t_timing": 0,
      "spk": 1,
      "role": 1,
      "note": 60,
      "velocity": 64,
      "energy": 20,
      "duration_s": 0.28
    },
    {
      "t": 538.3,
      "word": "in",
      "f0_hz": 110.0,
      "pitch_bend": 0,
      "ternary": 0,
      "t_pitch": 0,
      "t_vol": 0,
      "t_timing": 0,
      "spk": 1,
      "role": 1,
      "note": 60,
      "velocity": 64,
      "energy": 20,
      "duration_s": 0.14
    },
    {
      "t": 538.44,
      "word": "that",
      "f0_hz": 110.0,
      "pitch_bend": 0,
      "ternary": 0,
      "t_pitch": 0,
      "t_vol": 0,
      "t_timing": 0,
      "spk": 1,
      "role": 1,
      "note": 60,
      "velocity": 64,
      "energy": 20,
      "duration_s": 0.16
    },
    {
      "t": 538.6,
      "word": "state.",
      "f0_hz": 110.0,
      "pitch_bend": 0,
      "ternary": 0,
      "t_pitch": 0,
      "t_vol": 0,
      "t_timing": 0,
      "spk": 1,
      "role": 1,
      "note": 60,
      "velocity": 64,
      "energy": 20,
      "duration_s": 0.22
    },
    {
      "t": 538.92,
      "word": "So",
      "f0_hz": 110.0,
      "pitch_bend": 0,
      "ternary": 0,
      "t_pitch": 0,
      "t_vol": 0,
      "t_timing": 0,
      "spk": 1,
      "role": 1,
      "note": 60,
      "velocity": 64,
      "energy": 20,
      "duration_s": 0.02
    },
    {
      "t": 538.94,
      "word": "I",
      "f0_hz": 110.0,
      "pitch_bend": 0,
      "ternary": 0,
      "t_pitch": 0,
      "t_vol": 0,
      "t_timing": 0,
      "spk": 1,
      "role": 1,
      "note": 60,
      "velocity": 64,
      "energy": 20,
      "duration_s": 0.12
    },
    {
      "t": 539.06,
      "word": "don't",
      "f0_hz": 110.0,
      "pitch_bend": 0,
      "ternary": -1,
      "t_pitch": -1,
      "t_vol": -1,
      "t_timing": -1,
      "spk": 1,
      "role": 0,
      "note": 57,
      "velocity": 44,
      "energy": 80,
      "duration_s": 0.16
    },
    {
      "t": 539.22,
      "word": "even",
      "f0_hz": 110.0,
      "pitch_bend": 0,
      "ternary": 0,
      "t_pitch": 0,
      "t_vol": 0,
      "t_timing": 0,
      "spk": 1,
      "role": 1,
      "note": 60,
      "velocity": 64,
      "energy": 20,
      "duration_s": 0.78
    },
    {
      "t": 540.0,
      "word": "remember",
      "f0_hz": 110.0,
      "pitch_bend": 0,
      "ternary": 0,
      "t_pitch": 0,
      "t_vol": 0,
      "t_timing": 0,
      "spk": 1,
      "role": 1,
      "note": 60,
      "velocity": 64,
      "energy": 20,
      "duration_s": 0.34
    },
    {
      "t": 540.34,
      "word": "that",
      "f0_hz": 110.0,
      "pitch_bend": 0,
      "ternary": 0,
      "t_pitch": 0,
      "t_vol": 0,
      "t_timing": 0,
      "spk": 1,
      "role": 1,
      "note": 60,
      "velocity": 64,
      "energy": 20,
      "duration_s": 0.36
    },
    {
      "t": 540.7,
      "word": "time.",
      "f0_hz": 110.0,
      "pitch_bend": 0,
      "ternary": 0,
      "t_pitch": 0,
      "t_vol": 0,
      "t_timing": 0,
      "spk": 1,
      "role": 1,
      "note": 60,
      "velocity": 64,
      "energy": 20,
      "duration_s": 0.26
    },
    {
      "t": 541.84,
      "word": "Because",
      "f0_hz": 110.0,
      "pitch_bend": 0,
      "ternary": 0,
      "t_pitch": 0,
      "t_vol": 0,
      "t_timing": 0,
      "spk": 1,
      "role": 1,
      "note": 60,
      "velocity": 64,
      "energy": 20,
      "duration_s": 0.18
    },
    {
      "t": 542.02,
      "word": "that",
      "f0_hz": 110.0,
      "pitch_bend": 0,
      "ternary": 0,
      "t_pitch": 0,
      "t_vol": 0,
      "t_timing": 0,
      "spk": 1,
      "role": 1,
      "note": 60,
      "velocity": 64,
      "energy": 20,
      "duration_s": 0.14
    },
    {
      "t": 542.16,
      "word": "was",
      "f0_hz": 130.0,
      "pitch_bend": 0,
      "ternary": 0,
      "t_pitch": 0,
      "t_vol": 0,
      "t_timing": 0,
      "spk": 1,
      "role": 1,
      "note": 60,
      "velocity": 64,
      "energy": 20,
      "duration_s": 0.16
    },
    {
      "t": 542.32,
      "word": "from",
      "f0_hz": 110.0,
      "pitch_bend": 0,
      "ternary": 0,
      "t_pitch": 0,
      "t_vol": 0,
      "t_timing": 0,
      "spk": 1,
      "role": 1,
      "note": 60,
      "velocity": 64,
      "energy": 20,
      "duration_s": 0.2
    },
    {
      "t": 542.52,
      "word": "when",
      "f0_hz": 130.0,
      "pitch_bend": 0,
      "ternary": 0,
      "t_pitch": 0,
      "t_vol": 0,
      "t_timing": 0,
      "spk": 1,
      "role": 1,
      "note": 60,
      "velocity": 64,
      "energy": 20,
      "duration_s": 0.08
    },
    {
      "t": 542.6,
      "word": "I",
      "f0_hz": 110.0,
      "pitch_bend": 0,
      "ternary": 0,
      "t_pitch": 0,
      "t_vol": 0,
      "t_timing": 0,
      "spk": 1,
      "role": 1,
      "note": 60,
      "velocity": 64,
      "energy": 20,
      "duration_s": 0.22
    },
    {
      "t": 542.82,
      "word": "was",
      "f0_hz": 130.0,
      "pitch_bend": 0,
      "ternary": 0,
      "t_pitch": 0,
      "t_vol": 0,
      "t_timing": 0,
      "spk": 1,
      "role": 1,
      "note": 60,
      "velocity": 64,
      "energy": 20,
      "duration_s": 0.1
    },
    {
      "t": 542.92,
      "word": "this,",
      "f0_hz": 110.0,
      "pitch_bend": 0,
      "ternary": 0,
      "t_pitch": 0,
      "t_vol": 0,
      "t_timing": 0,
      "spk": 0,
      "role": 1,
      "note": 60,
      "velocity": 64,
      "energy": 20,
      "duration_s": 0.16
    },
    {
      "t": 543.14,
      "word": "you",
      "f0_hz": 130.0,
      "pitch_bend": 0,
      "ternary": 0,
      "t_pitch": 0,
      "t_vol": 0,
      "t_timing": 0,
      "spk": 1,
      "role": 1,
      "note": 60,
      "velocity": 64,
      "energy": 20,
      "duration_s": 0.0
    },
    {
      "t": 543.14,
      "word": "know,",
      "f0_hz": 110.0,
      "pitch_bend": 0,
      "ternary": 0,
      "t_pitch": 0,
      "t_vol": 0,
      "t_timing": 0,
      "spk": 1,
      "role": 1,
      "note": 60,
      "velocity": 64,
      "energy": 20,
      "duration_s": 0.92
    },
    {
      "t": 544.28,
      "word": "a",
      "f0_hz": 110.0,
      "pitch_bend": 0,
      "ternary": 0,
      "t_pitch": 0,
      "t_vol": 0,
      "t_timing": 0,
      "spk": 1,
      "role": 1,
      "note": 60,
      "velocity": 64,
      "energy": 20,
      "duration_s": 0.06
    },
    {
      "t": 544.34,
      "word": "genuine",
      "f0_hz": 110.0,
      "pitch_bend": 0,
      "ternary": 0,
      "t_pitch": 0,
      "t_vol": 0,
      "t_timing": 0,
      "spk": 1,
      "role": 1,
      "note": 60,
      "velocity": 64,
      "energy": 20,
      "duration_s": 0.22
    },
    {
      "t": 544.56,
      "word": "newborn",
      "f0_hz": 110.0,
      "pitch_bend": 0,
      "ternary": 0,
      "t_pitch": 0,
      "t_vol": 0,
      "t_timing": 0,
      "spk": 1,
      "role": 1,
      "note": 60,
      "velocity": 64,
      "energy": 20,
      "duration_s": 0.92
    },
    {
      "t": 545.48,
      "word": "to",
      "f0_hz": 110.0,
      "pitch_bend": 0,
      "ternary": 0,
      "t_pitch": 0,
      "t_vol": 0,
      "t_timing": 0,
      "spk": 1,
      "role": 1,
      "note": 60,
      "velocity": 64,
      "energy": 20,
      "duration_s": 0.7
    },
    {
      "t": 546.18,
      "word": "two",
      "f0_hz": 110.0,
      "pitch_bend": 0,
      "ternary": 0,
      "t_pitch": 0,
      "t_vol": 0,
      "t_timing": 0,
      "spk": 1,
      "role": 1,
      "note": 60,
      "velocity": 64,
      "energy": 20,
      "duration_s": 0.26
    },
    {
      "t": 546.44,
      "word": "or",
      "f0_hz": 110.0,
      "pitch_bend": 0,
      "ternary": 0,
      "t_pitch": 0,
      "t_vol": 0,
      "t_timing": 0,
      "spk": 1,
      "role": 1,
      "note": 60,
      "velocity": 64,
      "energy": 20,
      "duration_s": 0.02
    },
    {
      "t": 546.46,
      "word": "three",
      "f0_hz": 110.0,
      "pitch_bend": 0,
      "ternary": 0,
      "t_pitch": 0,
      "t_vol": 0,
      "t_timing": 0,
      "spk": 1,
      "role": 1,
      "note": 60,
      "velocity": 64,
      "energy": 20,
      "duration_s": 0.16
    },
    {
      "t": 546.62,
      "word": "years",
      "f0_hz": 130.0,
      "pitch_bend": 0,
      "ternary": 0,
      "t_pitch": 0,
      "t_vol": 0,
      "t_timing": 0,
      "spk": 1,
      "role": 1,
      "note": 60,
      "velocity": 64,
      "energy": 20,
      "duration_s": 0.26
    },
    {
      "t": 546.88,
      "word": "old.",
      "f0_hz": 110.0,
      "pitch_bend": 0,
      "ternary": 0,
      "t_pitch": 0,
      "t_vol": 0,
      "t_timing": 0,
      "spk": 1,
      "role": 1,
      "note": 60,
      "velocity": 64,
      "energy": 20,
      "duration_s": 0.42
    },
    {
      "t": 547.76,
      "word": "So",
      "f0_hz": 110.0,
      "pitch_bend": 0,
      "ternary": 0,
      "t_pitch": 0,
      "t_vol": 0,
      "t_timing": 0,
      "spk": 1,
      "role": 1,
      "note": 60,
      "velocity": 64,
      "energy": 20,
      "duration_s": 0.34
    },
    {
      "t": 548.1,
      "word": "I",
      "f0_hz": 110.0,
      "pitch_bend": 0,
      "ternary": 0,
      "t_pitch": 0,
      "t_vol": 0,
      "t_timing": 0,
      "spk": 1,
      "role": 1,
      "note": 60,
      "velocity": 64,
      "energy": 20,
      "duration_s": 0.06
    },
    {
      "t": 548.16,
      "word": "don't",
      "f0_hz": 110.0,
      "pitch_bend": 0,
      "ternary": -1,
      "t_pitch": -1,
      "t_vol": -1,
      "t_timing": -1,
      "spk": 1,
      "role": 0,
      "note": 57,
      "velocity": 44,
      "energy": 80,
      "duration_s": 0.44
    },
    {
      "t": 548.6,
      "word": "remember",
      "f0_hz": 110.0,
      "pitch_bend": 0,
      "ternary": 0,
      "t_pitch": 0,
      "t_vol": 0,
      "t_timing": 0,
      "spk": 1,
      "role": 1,
      "note": 60,
      "velocity": 64,
      "energy": 20,
      "duration_s": 0.24
    },
    {
      "t": 548.84,
      "word": "that",
      "f0_hz": 110.0,
      "pitch_bend": 0,
      "ternary": 0,
      "t_pitch": 0,
      "t_vol": 0,
      "t_timing": 0,
      "spk": 1,
      "role": 1,
      "note": 60,
      "velocity": 64,
      "energy": 20,
      "duration_s": 0.28
    },
    {
      "t": 549.12,
      "word": "time.",
      "f0_hz": 110.0,
      "pitch_bend": 0,
      "ternary": 0,
      "t_pitch": 0,
      "t_vol": 0,
      "t_timing": 0,
      "spk": 1,
      "role": 1,
      "note": 60,
      "velocity": 64,
      "energy": 20,
      "duration_s": 0.2
    },
    {
      "t": 549.32,
      "word": "But",
      "f0_hz": 110.0,
      "pitch_bend": 0,
      "ternary": 0,
      "t_pitch": 0,
      "t_vol": 0,
      "t_timing": 0,
      "spk": 0,
      "role": 1,
      "note": 60,
      "velocity": 64,
      "energy": 20,
      "duration_s": 0.36
    },
    {
      "t": 549.68,
      "word": "there's",
      "f0_hz": 110.0,
      "pitch_bend": 0,
      "ternary": 0,
      "t_pitch": 0,
      "t_vol": 0,
      "t_timing": 0,
      "spk": 1,
      "role": 1,
      "note": 60,
      "velocity": 64,
      "energy": 20,
      "duration_s": 0.38
    },
    {
      "t": 550.06,
      "word": "nothing",
      "f0_hz": 110.0,
      "pitch_bend": 0,
      "ternary": 0,
      "t_pitch": 0,
      "t_vol": 0,
      "t_timing": 0,
      "spk": 1,
      "role": 1,
      "note": 60,
      "velocity": 64,
      "energy": 20,
      "duration_s": 0.28
    },
    {
      "t": 550.34,
      "word": "my",
      "f0_hz": 110.0,
      "pitch_bend": 0,
      "ternary": 0,
      "t_pitch": 0,
      "t_vol": 0,
      "t_timing": 0,
      "spk": 1,
      "role": 1,
      "note": 60,
      "velocity": 64,
      "energy": 20,
      "duration_s": 0.2
    },
    {
      "t": 550.54,
      "word": "mum",
      "f0_hz": 110.0,
      "pitch_bend": 0,
      "ternary": 0,
      "t_pitch": 0,
      "t_vol": 0,
      "t_timing": 0,
      "spk": 1,
      "role": 1,
      "note": 60,
      "velocity": 64,
      "energy": 20,
      "duration_s": 0.28
    },
    {
      "t": 550.82,
      "word": "can't",
      "f0_hz": 110.0,
      "pitch_bend": 0,
      "ternary": -1,
      "t_pitch": -1,
      "t_vol": -1,
      "t_timing": -1,
      "spk": 1,
      "role": 0,
      "note": 57,
      "velocity": 44,
      "energy": 80,
      "duration_s": 0.26
    },
    {
      "t": 551.08,
      "word": "accomplish.",
      "f0_hz": 110.0,
      "pitch_bend": 0,
      "ternary": 0,
      "t_pitch": 0,
      "t_vol": 0,
      "t_timing": 0,
      "spk": 1,
      "role": 1,
      "note": 60,
      "velocity": 64,
      "energy": 20,
      "duration_s": 0.54
    },
    {
      "t": 552.08,
      "word": "So",
      "f0_hz": 110.0,
      "pitch_bend": 0,
      "ternary": 0,
      "t_pitch": 0,
      "t_vol": 0,
      "t_timing": 0,
      "spk": 1,
      "role": 1,
      "note": 60,
      "velocity": 64,
      "energy": 20,
      "duration_s": 0.08
    },
    {
      "t": 552.16,
      "word": "I'm",
      "f0_hz": 110.0,
      "pitch_bend": 0,
      "ternary": 0,
      "t_pitch": 0,
      "t_vol": 0,
      "t_timing": 0,
      "spk": 1,
      "role": 1,
      "note": 60,
      "velocity": 64,
      "energy": 20,
      "duration_s": 0.14
    },
    {
      "t": 552.3,
      "word": "sure",
      "f0_hz": 110.0,
      "pitch_bend": 0,
      "ternary": 0,
      "t_pitch": 0,
      "t_vol": 0,
      "t_timing": 0,
      "spk": 1,
      "role": 1,
      "note": 60,
      "velocity": 64,
      "energy": 20,
      "duration_s": 0.22
    },
    {
      "t": 552.52,
      "word": "that",
      "f0_hz": 110.0,
      "pitch_bend": 0,
      "ternary": 0,
      "t_pitch": 0,
      "t_vol": 0,
      "t_timing": 0,
      "spk": 1,
      "role": 1,
      "note": 60,
      "velocity": 64,
      "energy": 20,
      "duration_s": 0.16
    },
    {
      "t": 552.68,
      "word": "she",
      "f0_hz": 110.0,
      "pitch_bend": 0,
      "ternary": 0,
      "t_pitch": 0,
      "t_vol": 0,
      "t_timing": 0,
      "spk": 1,
      "role": 1,
      "note": 60,
      "velocity": 64,
      "energy": 20,
      "duration_s": 0.1
    },
    {
      "t": 552.78,
      "word": "would",
      "f0_hz": 130.0,
      "pitch_bend": 0,
      "ternary": 0,
      "t_pitch": 0,
      "t_vol": 0,
      "t_timing": 0,
      "spk": 1,
      "role": 1,
      "note": 60,
      "velocity": 64,
      "energy": 20,
      "duration_s": 0.12
    },
    {
      "t": 552.9,
      "word": "have",
      "f0_hz": 130.0,
      "pitch_bend": 0,
      "ternary": 0,
      "t_pitch": 0,
      "t_vol": 0,
      "t_timing": 0,
      "spk": 1,
      "role": 1,
      "note": 60,
      "velocity": 64,
      "energy": 20,
      "duration_s": 0.12
    },
    {
      "t": 553.02,
      "word": "taken",
      "f0_hz": 110.0,
      "pitch_bend": 0,
      "ternary": 0,
      "t_pitch": 0,
      "t_vol": 0,
      "t_timing": 0,
      "spk": 1,
      "role": 1,
      "note": 60,
      "velocity": 64,
      "energy": 20,
      "duration_s": 0.22
    },
    {
      "t": 553.24,
      "word": "everything",
      "f0_hz": 110.0,
      "pitch_bend": 0,
      "ternary": 0,
      "t_pitch": 0,
      "t_vol": 0,
      "t_timing": 0,
      "spk": 1,
      "role": 1,
      "note": 60,
      "velocity": 64,
      "energy": 20,
      "duration_s": 0.52
    },
    {
      "t": 553.76,
      "word": "within",
      "f0_hz": 130.0,
      "pitch_bend": 0,
      "ternary": 0,
      "t_pitch": 0,
      "t_vol": 0,
      "t_timing": 0,
      "spk": 1,
      "role": 1,
      "note": 60,
      "velocity": 64,
      "energy": 20,
      "duration_s": 0.3
    },
    {
      "t": 554.06,
      "word": "her",
      "f0_hz": 130.0,
      "pitch_bend": 0,
      "ternary": 0,
      "t_pitch": 0,
      "t_vol": 0,
      "t_timing": 0,
      "spk": 1,
      "role": 1,
      "note": 60,
      "velocity": 64,
      "energy": 20,
      "duration_s": 0.22
    },
    {
      "t": 554.28,
      "word": "stride.",
      "f0_hz": 110.0,
      "pitch_bend": 0,
      "ternary": 0,
      "t_pitch": 0,
      "t_vol": 0,
      "t_timing": 0,
      "spk": 1,
      "role": 1,
      "note": 60,
      "velocity": 64,
      "energy": 20,
      "duration_s": 0.54
    },
    {
      "t": 555.68,
      "word": "I",
      "f0_hz": 110.0,
      "pitch_bend": 0,
      "ternary": 0,
      "t_pitch": 0,
      "t_vol": 0,
      "t_timing": 0,
      "spk": 1,
      "role": 1,
      "note": 60,
      "velocity": 64,
      "energy": 20,
      "duration_s": 0.0
    },
    {
      "t": 555.68,
      "word": "mean,",
      "f0_hz": 110.0,
      "pitch_bend": 0,
      "ternary": 0,
      "t_pitch": 0,
      "t_vol": 0,
      "t_timing": 0,
      "spk": 1,
      "role": 1,
      "note": 60,
      "velocity": 64,
      "energy": 20,
      "duration_s": 0.66
    },
    {
      "t": 556.38,
      "word": "she",
      "f0_hz": 110.0,
      "pitch_bend": 0,
      "ternary": 0,
      "t_pitch": 0,
      "t_vol": 0,
      "t_timing": 0,
      "spk": 1,
      "role": 1,
      "note": 60,
      "velocity": 64,
      "energy": 20,
      "duration_s": 0.16
    },
    {
      "t": 556.54,
      "word": "was",
      "f0_hz": 130.0,
      "pitch_bend": 0,
      "ternary": 0,
      "t_pitch": 0,
      "t_vol": 0,
      "t_timing": 0,
      "spk": 1,
      "role": 1,
      "note": 60,
      "velocity": 64,
      "energy": 20,
      "duration_s": 1.02
    },
    {
      "t": 557.56,
      "word": "obviously",
      "f0_hz": 110.0,
      "pitch_bend": 0,
      "ternary": 0,
      "t_pitch": 0,
      "t_vol": 0,
      "t_timing": 0,
      "spk": 1,
      "role": 1,
      "note": 60,
      "velocity": 64,
      "energy": 20,
      "duration_s": 0.4
    },
    {
      "t": 557.96,
      "word": "managing",
      "f0_hz": 110.0,
      "pitch_bend": 0,
      "ternary": 0,
      "t_pitch": 0,
      "t_vol": 0,
      "t_timing": 0,
      "spk": 1,
      "role": 1,
      "note": 60,
      "velocity": 64,
      "energy": 20,
      "duration_s": 0.46
    },
    {
      "t": 558.42,
      "word": "a",
      "f0_hz": 110.0,
      "pitch_bend": 0,
      "ternary": 0,
      "t_pitch": 0,
      "t_vol": 0,
      "t_timing": 0,
      "spk": 1,
      "role": 1,
      "note": 60,
      "velocity": 64,
      "energy": 20,
      "duration_s": 0.4
    },
    {
      "t": 558.82,
      "word": "lot.",
      "f0_hz": 110.0,
      "pitch_bend": 0,
      "ternary": 0,
      "t_pitch": 0,
      "t_vol": 0,
      "t_timing": 0,
      "spk": 1,
      "role": 1,
      "note": 60,
      "velocity": 64,
      "energy": 20,
      "duration_s": 0.26
    },
    {
      "t": 559.2,
      "word": "How",
      "f0_hz": 130.0,
      "pitch_bend": 0,
      "ternary": 0,
      "t_pitch": 0,
      "t_vol": 0,
      "t_timing": 0,
      "spk": 1,
      "role": 1,
      "note": 60,
      "velocity": 64,
      "energy": 20,
      "duration_s": 0.26
    },
    {
      "t": 559.46,
      "word": "was",
      "f0_hz": 130.0,
      "pitch_bend": 0,
      "ternary": 0,
      "t_pitch": 0,
      "t_vol": 0,
      "t_timing": 0,
      "spk": 0,
      "role": 1,
      "note": 60,
      "velocity": 64,
      "energy": 20,
      "duration_s": 0.36
    },
    {
      "t": 559.82,
      "word": "she",
      "f0_hz": 110.0,
      "pitch_bend": 0,
      "ternary": 0,
      "t_pitch": 0,
      "t_vol": 0,
      "t_timing": 0,
      "spk": 1,
      "role": 1,
      "note": 60,
      "velocity": 64,
      "energy": 20,
      "duration_s": 0.46
    },
    {
      "t": 560.28,
      "word": "with",
      "f0_hz": 130.0,
      "pitch_bend": 0,
      "ternary": 0,
      "t_pitch": 0,
      "t_vol": 0,
      "t_timing": 0,
      "spk": 1,
      "role": 1,
      "note": 60,
      "velocity": 64,
      "energy": 20,
      "duration_s": 0.36
    },
    {
      "t": 560.64,
      "word": "you",
      "f0_hz": 130.0,
      "pitch_bend": 0,
      "ternary": 0,
      "t_pitch": 0,
      "t_vol": 0,
      "t_timing": 0,
      "spk": 1,
      "role": 1,
      "note": 60,
      "velocity": 64,
      "energy": 20,
      "duration_s": 0.26
    },
    {
      "t": 560.9,
      "word": "kids",
      "f0_hz": 110.0,
      "pitch_bend": 0,
      "ternary": 0,
      "t_pitch": 0,
      "t_vol": 0,
      "t_timing": 0,
      "spk": 1,
      "role": 1,
      "note": 60,
      "velocity": 64,
      "energy": 20,
      "duration_s": 0.36
    },
    {
      "t": 561.26,
      "word": "and",
      "f0_hz": 110.0,
      "pitch_bend": 0,
      "ternary": 0,
      "t_pitch": 0,
      "t_vol": 0,
      "t_timing": 0,
      "spk": 0,
      "role": 1,
      "note": 60,
      "velocity": 64,
      "energy": 20,
      "duration_s": 0.12
    },
    {
      "t": 561.38,
      "word": "as",
      "f0_hz": 110.0,
      "pitch_bend": 0,
      "ternary": 0,
      "t_pitch": 0,
      "t_vol": 0,
      "t_timing": 0,
      "spk": 1,
      "role": 1,
      "note": 60,
      "velocity": 64,
      "energy": 20,
      "duration_s": 0.14
    },
    {
      "t": 561.52,
      "word": "a",
      "f0_hz": 110.0,
      "pitch_bend": 0,
      "ternary": 0,
      "t_pitch": 0,
      "t_vol": 0,
      "t_timing": 0,
      "spk": 1,
      "role": 1,
      "note": 60,
      "velocity": 64,
      "energy": 20,
      "duration_s": 0.22
    },
    {
      "t": 561.74,
      "word": "mum?",
      "f0_hz": 110.0,
      "pitch_bend": 0,
      "ternary": 1,
      "t_pitch": 1,
      "t_vol": 1,
      "t_timing": 1,
      "spk": 1,
      "role": 2,
      "note": 63,
      "velocity": 84,
      "energy": 80,
      "duration_s": 0.28
    },
    {
      "t": 562.92,
      "word": "Yeah,",
      "f0_hz": 130.0,
      "pitch_bend": 0,
      "ternary": 0,
      "t_pitch": 0,
      "t_vol": 0,
      "t_timing": 0,
      "spk": 1,
      "role": 1,
      "note": 60,
      "velocity": 64,
      "energy": 20,
      "duration_s": 0.18
    },
    {
      "t": 563.34,
      "word": "she",
      "f0_hz": 110.0,
      "pitch_bend": 0,
      "ternary": 0,
      "t_pitch": 0,
      "t_vol": 0,
      "t_timing": 0,
      "spk": 1,
      "role": 1,
      "note": 60,
      "velocity": 64,
      "energy": 20,
      "duration_s": 0.06
    },
    {
      "t": 563.4,
      "word": "was",
      "f0_hz": 130.0,
      "pitch_bend": 0,
      "ternary": 0,
      "t_pitch": 0,
      "t_vol": 0,
      "t_timing": 0,
      "spk": 1,
      "role": 1,
      "note": 60,
      "velocity": 64,
      "energy": 20,
      "duration_s": 0.24
    },
    {
      "t": 563.64,
      "word": "incredible.",
      "f0_hz": 110.0,
      "pitch_bend": 0,
      "ternary": 0,
      "t_pitch": 0,
      "t_vol": 0,
      "t_timing": 0,
      "spk": 1,
      "role": 1,
      "note": 60,
      "velocity": 64,
      "energy": 20,
      "duration_s": 0.4
    },
    {
      "t": 564.6,
      "word": "Even",
      "f0_hz": 110.0,
      "pitch_bend": 0,
      "ternary": 0,
      "t_pitch": 0,
      "t_vol": 0,
      "t_timing": 0,
      "spk": 1,
      "role": 1,
      "note": 60,
      "velocity": 64,
      "energy": 20,
      "duration_s": 0.3
    },
    {
      "t": 564.9,
      "word": "once",
      "f0_hz": 110.0,
      "pitch_bend": 0,
      "ternary": 0,
      "t_pitch": 0,
      "t_vol": 0,
      "t_timing": 0,
      "spk": 1,
      "role": 1,
      "note": 60,
      "velocity": 64,
      "energy": 20,
      "duration_s": 0.32
    },
    {
      "t": 565.22,
      "word": "she",
      "f0_hz": 110.0,
      "pitch_bend": 0,
      "ternary": 0,
      "t_pitch": 0,
      "t_vol": 0,
      "t_timing": 0,
      "spk": 1,
      "role": 1,
      "note": 60,
      "velocity": 64,
      "energy": 20,
      "duration_s": 0.2
    },
    {
      "t": 565.42,
      "word": "met",
      "f0_hz": 110.0,
      "pitch_bend": 0,
      "ternary": 0,
      "t_pitch": 0,
      "t_vol": 0,
      "t_timing": 0,
      "spk": 1,
      "role": 1,
      "note": 60,
      "velocity": 64,
      "energy": 20,
      "duration_s": 0.16
    },
    {
      "t": 565.58,
      "word": "my",
      "f0_hz": 110.0,
      "pitch_bend": 0,
      "ternary": 0,
      "t_pitch": 0,
      "t_vol": 0,
      "t_timing": 0,
      "spk": 1,
      "role": 1,
      "note": 60,
      "velocity": 64,
      "energy": 20,
      "duration_s": 0.18
    },
    {
      "t": 565.76,
      "word": "stepfather,",
      "f0_hz": 110.0,
      "pitch_bend": 0,
      "ternary": 0,
      "t_pitch": 0,
      "t_vol": 0,
      "t_timing": 0,
      "spk": 1,
      "role": 1,
      "note": 60,
      "velocity": 64,
      "energy": 20,
      "duration_s": 0.42
    },
    {
      "t": 566.2,
      "word": "my",
      "f0_hz": 110.0,
      "pitch_bend": 0,
      "ternary": 0,
      "t_pitch": 0,
      "t_vol": 0,
      "t_timing": 0,
      "spk": 1,
      "role": 1,
      "note": 60,
      "velocity": 64,
      "energy": 20,
      "duration_s": 0.2
    },
    {
      "t": 566.4,
      "word": "stepfather,",
      "f0_hz": 110.0,
      "pitch_bend": 0,
      "ternary": 0,
      "t_pitch": 0,
      "t_vol": 0,
      "t_timing": 0,
      "spk": 1,
      "role": 1,
      "note": 60,
      "velocity": 64,
      "energy": 20,
      "duration_s": 0.42
    },
    {
      "t": 566.98,
      "word": "he",
      "f0_hz": 130.0,
      "pitch_bend": 0,
      "ternary": 0,
      "t_pitch": 0,
      "t_vol": 0,
      "t_timing": 0,
      "spk": 1,
      "role": 1,
      "note": 60,
      "velocity": 64,
      "energy": 20,
      "duration_s": 0.08
    },
    {
      "t": 567.06,
      "word": "always",
      "f0_hz": 110.0,
      "pitch_bend": 0,
      "ternary": 0,
      "t_pitch": 0,
      "t_vol": 0,
      "t_timing": 0,
      "spk": 1,
      "role": 1,
      "note": 60,
      "velocity": 64,
      "energy": 20,
      "duration_s": 0.56
    },
    {
      "t": 567.62,
      "word": "worked",
      "f0_hz": 130.0,
      "pitch_bend": 0,
      "ternary": 0,
      "t_pitch": 0,
      "t_vol": 0,
      "t_timing": 0,
      "spk": 1,
      "role": 1,
      "note": 60,
      "velocity": 64,
      "energy": 20,
      "duration_s": 0.4
    },
    {
      "t": 568.02,
      "word": "away.",
      "f0_hz": 110.0,
      "pitch_bend": 0,
      "ternary": 0,
      "t_pitch": 0,
      "t_vol": 0,
      "t_timing": 0,
      "spk": 1,
      "role": 1,
      "note": 60,
      "velocity": 64,
      "energy": 20,
      "duration_s": 0.74
    },
    {
      "t": 569.72,
      "word": "So",
      "f0_hz": 110.0,
      "pitch_bend": 0,
      "ternary": 0,
      "t_pitch": 0,
      "t_vol": 0,
      "t_timing": 0,
      "spk": 1,
      "role": 1,
      "note": 60,
      "velocity": 64,
      "energy": 20,
      "duration_s": 0.26
    },
    {
      "t": 569.98,
      "word": "even",
      "f0_hz": 110.0,
      "pitch_bend": 0,
      "ternary": 0,
      "t_pitch": 0,
      "t_vol": 0,
      "t_timing": 0,
      "spk": 1,
      "role": 1,
      "note": 60,
      "velocity": 64,
      "energy": 20,
      "duration_s": 0.38
    },
    {
      "t": 570.36,
      "word": "with",
      "f0_hz": 130.0,
      "pitch_bend": 0,
      "ternary": 0,
      "t_pitch": 0,
      "t_vol": 0,
      "t_timing": 0,
      "spk": 1,
      "role": 1,
      "note": 60,
      "velocity": 64,
      "energy": 20,
      "duration_s": 1.06
    },
    {
      "t": 571.42,
      "word": "a",
      "f0_hz": 110.0,
      "pitch_bend": 0,
      "ternary": 0,
      "t_pitch": 0,
      "t_vol": 0,
      "t_timing": 0,
      "spk": 1,
      "role": 1,
      "note": 60,
      "velocity": 64,
      "energy": 20,
      "duration_s": 0.48
    },
    {
      "t": 571.9,
      "word": "partner,",
      "f0_hz": 110.0,
      "pitch_bend": 0,
      "ternary": 0,
      "t_pitch": 0,
      "t_vol": 0,
      "t_timing": 0,
      "spk": 1,
      "role": 1,
      "note": 60,
      "velocity": 64,
      "energy": 20,
      "duration_s": 0.16
    },
    {
      "t": 572.3,
      "word": "she",
      "f0_hz": 110.0,
      "pitch_bend": 0,
      "ternary": 0,
      "t_pitch": 0,
      "t_vol": 0,
      "t_timing": 0,
      "spk": 1,
      "role": 1,
      "note": 60,
      "velocity": 64,
      "energy": 20,
      "duration_s": 0.04
    },
    {
      "t": 572.34,
      "word": "was",
      "f0_hz": 130.0,
      "pitch_bend": 0,
      "ternary": 0,
      "t_pitch": 0,
      "t_vol": 0,
      "t_timing": 0,
      "spk": 1,
      "role": 1,
      "note": 60,
      "velocity": 64,
      "energy": 20,
      "duration_s": 0.24
    },
    {
      "t": 572.58,
      "word": "a",
      "f0_hz": 110.0,
      "pitch_bend": 0,
      "ternary": 0,
      "t_pitch": 0,
      "t_vol": 0,
      "t_timing": 0,
      "spk": 1,
      "role": 1,
      "note": 60,
      "velocity": 64,
      "energy": 20,
      "duration_s": 0.2
    },
    {
      "t": 572.78,
      "word": "single",
      "f0_hz": 110.0,
      "pitch_bend": 0,
      "ternary": 0,
      "t_pitch": 0,
      "t_vol": 0,
      "t_timing": 0,
      "spk": 1,
      "role": 1,
      "note": 60,
      "velocity": 64,
      "energy": 20,
      "duration_s": 0.18
    },
    {
      "t": 572.96,
      "word": "mum.",
      "f0_hz": 110.0,
      "pitch_bend": 0,
      "ternary": 0,
      "t_pitch": 0,
      "t_vol": 0,
      "t_timing": 0,
      "spk": 1,
      "role": 1,
      "note": 60,
      "velocity": 64,
      "energy": 20,
      "duration_s": 0.66
    },
    {
      "t": 573.78,
      "word": "And",
      "f0_hz": 110.0,
      "pitch_bend": 0,
      "ternary": 0,
      "t_pitch": 0,
      "t_vol": 0,
      "t_timing": 0,
      "spk": 1,
      "role": 1,
      "note": 60,
      "velocity": 64,
      "energy": 20,
      "duration_s": 0.06
    },
    {
      "t": 573.84,
      "word": "she",
      "f0_hz": 110.0,
      "pitch_bend": 0,
      "ternary": 0,
      "t_pitch": 0,
      "t_vol": 0,
      "t_timing": 0,
      "spk": 1,
      "role": 1,
      "note": 60,
      "velocity": 64,
      "energy": 20,
      "duration_s": 0.16
    },
    {
      "t": 574.0,
      "word": "had",
      "f0_hz": 130.0,
      "pitch_bend": 0,
      "ternary": 0,
      "t_pitch": 0,
      "t_vol": 0,
      "t_timing": 0,
      "spk": 1,
      "role": 1,
      "note": 60,
      "velocity": 64,
      "energy": 20,
      "duration_s": 0.14
    },
    {
      "t": 574.14,
      "word": "a",
      "f0_hz": 110.0,
      "pitch_bend": 0,
      "ternary": 0,
      "t_pitch": 0,
      "t_vol": 0,
      "t_timing": 0,
      "spk": 1,
      "role": 1,
      "note": 60,
      "velocity": 64,
      "energy": 20,
      "duration_s": 0.12
    },
    {
      "t": 574.26,
      "word": "full",
      "f0_hz": 110.0,
      "pitch_bend": 0,
      "ternary": 0,
      "t_pitch": 0,
      "t_vol": 0,
      "t_timing": 0,
      "spk": 1,
      "role": 1,
      "note": 60,
      "velocity": 64,
      "energy": 20,
      "duration_s": 0.18
    },
    {
      "t": 574.44,
      "word": "-time",
      "f0_hz": 110.0,
      "pitch_bend": 0,
      "ternary": 0,
      "t_pitch": 0,
      "t_vol": 0,
      "t_timing": 0,
      "spk": 1,
      "role": 1,
      "note": 60,
      "velocity": 64,
      "energy": 20,
      "duration_s": 0.12
    },
    {
      "t": 574.56,
      "word": "job.",
      "f0_hz": 110.0,
      "pitch_bend": 0,
      "ternary": 0,
      "t_pitch": 0,
      "t_vol": 0,
      "t_timing": 0,
      "spk": 1,
      "role": 1,
      "note": 60,
      "velocity": 64,
      "energy": 20,
      "duration_s": 0.34
    },
    {
      "t": 574.9,
      "word": "She",
      "f0_hz": 110.0,
      "pitch_bend": 0,
      "ternary": 0,
      "t_pitch": 0,
      "t_vol": 0,
      "t_timing": 0,
      "spk": 0,
      "role": 1,
      "note": 60,
      "velocity": 64,
      "energy": 20,
      "duration_s": 0.6
    },
    {
      "t": 575.5,
      "word": "worked",
      "f0_hz": 130.0,
      "pitch_bend": 0,
      "ternary": 0,
      "t_pitch": 0,
      "t_vol": 0,
      "t_timing": 0,
      "spk": 1,
      "role": 1,
      "note": 60,
      "velocity": 64,
      "energy": 20,
      "duration_s": 0.0
    },
    {
      "t": 575.5,
      "word": "at",
      "f0_hz": 110.0,
      "pitch_bend": 0,
      "ternary": 0,
      "t_pitch": 0,
      "t_vol": 0,
      "t_timing": 0,
      "spk": 1,
      "role": 1,
      "note": 60,
      "velocity": 64,
      "energy": 20,
      "duration_s": 0.4
    },
    {
      "t": 575.9,
      "word": "the",
      "f0_hz": 110.0,
      "pitch_bend": 0,
      "ternary": 0,
      "t_pitch": 0,
      "t_vol": 0,
      "t_timing": 0,
      "spk": 1,
      "role": 1,
      "note": 60,
      "velocity": 64,
      "energy": 20,
      "duration_s": 0.3
    },
    {
      "t": 576.2,
      "word": "local",
      "f0_hz": 110.0,
      "pitch_bend": 0,
      "ternary": 0,
      "t_pitch": 0,
      "t_vol": 0,
      "t_timing": 0,
      "spk": 1,
      "role": 1,
      "note": 60,
      "velocity": 64,
      "energy": 20,
      "duration_s": 0.14
    },
    {
      "t": 576.34,
      "word": "council.",
      "f0_hz": 110.0,
      "pitch_bend": 0,
      "ternary": 0,
      "t_pitch": 0,
      "t_vol": 0,
      "t_timing": 0,
      "spk": 1,
      "role": 1,
      "note": 60,
      "velocity": 64,
      "energy": 20,
      "duration_s": 0.3
    },
    {
      "t": 576.8,
      "word": "She",
      "f0_hz": 110.0,
      "pitch_bend": 0,
      "ternary": 0,
      "t_pitch": 0,
      "t_vol": 0,
      "t_timing": 0,
      "spk": 1,
      "role": 1,
      "note": 60,
      "velocity": 64,
      "energy": 20,
      "duration_s": 0.06
    },
    {
      "t": 576.86,
      "word": "worked",
      "f0_hz": 130.0,
      "pitch_bend": 0,
      "ternary": 0,
      "t_pitch": 0,
      "t_vol": 0,
      "t_timing": 0,
      "spk": 1,
      "role": 1,
      "note": 60,
      "velocity": 64,
      "energy": 20,
      "duration_s": 0.32
    },
    {
      "t": 577.18,
      "word": "for",
      "f0_hz": 110.0,
      "pitch_bend": 0,
      "ternary": 0,
      "t_pitch": 0,
      "t_vol": 0,
      "t_timing": 0,
      "spk": 1,
      "role": 1,
      "note": 60,
      "velocity": 64,
      "energy": 20,
      "duration_s": 0.38
    },
    {
      "t": 577.56,
      "word": "the",
      "f0_hz": 110.0,
      "pitch_bend": 0,
      "ternary": 0,
      "t_pitch": 0,
      "t_vol": 0,
      "t_timing": 0,
      "spk": 1,
      "role": 1,
      "note": 60,
      "velocity": 64,
      "energy": 20,
      "duration_s": 0.76
    },
    {
      "t": 578.32,
      "word": "Marilla",
      "f0_hz": 110.0,
      "pitch_bend": 0,
      "ternary": 0,
      "t_pitch": 0,
      "t_vol": 0,
      "t_timing": 0,
      "spk": 0,
      "role": 1,
      "note": 60,
      "velocity": 64,
      "energy": 20,
      "duration_s": 0.38
    },
    {
      "t": 578.7,
      "word": "Shire",
      "f0_hz": 110.0,
      "pitch_bend": 0,
      "ternary": 0,
      "t_pitch": 0,
      "t_vol": 0,
      "t_timing": 0,
      "spk": 1,
      "role": 1,
      "note": 60,
      "velocity": 64,
      "energy": 20,
      "duration_s": 0.46
    },
    {
      "t": 579.16,
      "word": "Council.",
      "f0_hz": 110.0,
      "pitch_bend": 0,
      "ternary": 0,
      "t_pitch": 0,
      "t_vol": 0,
      "t_timing": 0,
      "spk": 1,
      "role": 1,
      "note": 60,
      "velocity": 64,
      "energy": 20,
      "duration_s": 0.42
    },
    {
      "t": 579.74,
      "word": "It",
      "f0_hz": 110.0,
      "pitch_bend": 0,
      "ternary": 0,
      "t_pitch": 0,
      "t_vol": 0,
      "t_timing": 0,
      "spk": 1,
      "role": 1,
      "note": 60,
      "velocity": 64,
      "energy": 20,
      "duration_s": 0.08
    },
    {
      "t": 579.82,
      "word": "was",
      "f0_hz": 130.0,
      "pitch_bend": 0,
      "ternary": 0,
      "t_pitch": 0,
      "t_vol": 0,
      "t_timing": 0,
      "spk": 1,
      "role": 1,
      "note": 60,
      "velocity": 64,
      "energy": 20,
      "duration_s": 0.16
    },
    {
      "t": 579.98,
      "word": "when",
      "f0_hz": 130.0,
      "pitch_bend": 0,
      "ternary": 0,
      "t_pitch": 0,
      "t_vol": 0,
      "t_timing": 0,
      "spk": 1,
      "role": 1,
      "note": 60,
      "velocity": 64,
      "energy": 20,
      "duration_s": 0.18
    },
    {
      "t": 580.16,
      "word": "we",
      "f0_hz": 130.0,
      "pitch_bend": 0,
      "ternary": 0,
      "t_pitch": 0,
      "t_vol": 0,
      "t_timing": 0,
      "spk": 1,
      "role": 1,
      "note": 60,
      "velocity": 64,
      "energy": 20,
      "duration_s": 0.1
    },
    {
      "t": 580.26,
      "word": "were",
      "f0_hz": 130.0,
      "pitch_bend": 0,
      "ternary": 0,
      "t_pitch": 0,
      "t_vol": 0,
      "t_timing": 0,
      "spk": 1,
      "role": 1,
      "note": 60,
      "velocity": 64,
      "energy": 20,
      "duration_s": 0.08
    },
    {
      "t": 580.34,
      "word": "growing",
      "f0_hz": 110.0,
      "pitch_bend": 0,
      "ternary": 0,
      "t_pitch": 0,
      "t_vol": 0,
      "t_timing": 0,
      "spk": 0,
      "role": 1,
      "note": 60,
      "velocity": 64,
      "energy": 20,
      "duration_s": 0.1
    },
    {
      "t": 580.44,
      "word": "up",
      "f0_hz": 110.0,
      "pitch_bend": 0,
      "ternary": 0,
      "t_pitch": 0,
      "t_vol": 0,
      "t_timing": 0,
      "spk": 1,
      "role": 1,
      "note": 60,
      "velocity": 64,
      "energy": 20,
      "duration_s": 0.18
    },
    {
      "t": 580.62,
      "word": "before",
      "f0_hz": 110.0,
      "pitch_bend": 0,
      "ternary": 0,
      "t_pitch": 0,
      "t_vol": 0,
      "t_timing": 0,
      "spk": 1,
      "role": 1,
      "note": 60,
      "velocity": 64,
      "energy": 20,
      "duration_s": 0.5
    },
    {
      "t": 581.12,
      "word": "the",
      "f0_hz": 110.0,
      "pitch_bend": 0,
      "ternary": 0,
      "t_pitch": 0,
      "t_vol": 0,
      "t_timing": 0,
      "spk": 1,
      "role": 1,
      "note": 60,
      "velocity": 64,
      "energy": 20,
      "duration_s": 0.18
    },
    {
      "t": 581.3,
      "word": "amalgamation",
      "f0_hz": 110.0,
      "pitch_bend": 0,
      "ternary": 0,
      "t_pitch": 0,
      "t_vol": 0,
      "t_timing": 0,
      "spk": 1,
      "role": 1,
      "note": 60,
      "velocity": 64,
      "energy": 20,
      "duration_s": 0.46
    },
    {
      "t": 581.76,
      "word": "happened",
      "f0_hz": 130.0,
      "pitch_bend": 0,
      "ternary": 0,
      "t_pitch": 0,
      "t_vol": 0,
      "t_timing": 0,
      "spk": 1,
      "role": 1,
      "note": 60,
      "velocity": 64,
      "energy": 20,
      "duration_s": 0.3
    },
    {
      "t": 582.06,
      "word": "and",
      "f0_hz": 110.0,
      "pitch_bend": 0,
      "ternary": 0,
      "t_pitch": 0,
      "t_vol": 0,
      "t_timing": 0,
      "spk": 1,
      "role": 1,
      "note": 60,
      "velocity": 64,
      "energy": 20,
      "duration_s": 0.18
    },
    {
      "t": 582.24,
      "word": "it",
      "f0_hz": 110.0,
      "pitch_bend": 0,
      "ternary": 0,
      "t_pitch": 0,
      "t_vol": 0,
      "t_timing": 0,
      "spk": 1,
      "role": 1,
      "note": 60,
      "velocity": 64,
      "energy": 20,
      "duration_s": 0.02
    },
    {
      "t": 582.26,
      "word": "became",
      "f0_hz": 110.0,
      "pitch_bend": 0,
      "ternary": 0,
      "t_pitch": 0,
      "t_vol": 0,
      "t_timing": 0,
      "spk": 1,
      "role": 1,
      "note": 60,
      "velocity": 64,
      "energy": 20,
      "duration_s": 0.18
    },
    {
      "t": 582.44,
      "word": "the",
      "f0_hz": 110.0,
      "pitch_bend": 0,
      "ternary": 0,
      "t_pitch": 0,
      "t_vol": 0,
      "t_timing": 0,
      "spk": 1,
      "role": 1,
      "note": 60,
      "velocity": 64,
      "energy": 20,
      "duration_s": 0.36
    },
    {
      "t": 582.8,
      "word": "Western",
      "f0_hz": 130.0,
      "pitch_bend": 0,
      "ternary": 0,
      "t_pitch": 0,
      "t_vol": 0,
      "t_timing": 0,
      "spk": 0,
      "role": 1,
      "note": 60,
      "velocity": 64,
      "energy": 20,
      "duration_s": 0.04
    },
    {
      "t": 582.84,
      "word": "Downshire.",
      "f0_hz": 110.0,
      "pitch_bend": 0,
      "ternary": 0,
      "t_pitch": 0,
      "t_vol": 0,
      "t_timing": 0,
      "spk": 1,
      "role": 1,
      "note": 60,
      "velocity": 64,
      "energy": 20,
      "duration_s": 0.82
    },
    {
      "t": 584.64,
      "word": "BSS,",
      "f0_hz": 110.0,
      "pitch_bend": 0,
      "ternary": 0,
      "t_pitch": 0,
      "t_vol": 0,
      "t_timing": 0,
      "spk": 0,
      "role": 1,
      "note": 60,
      "velocity": 64,
      "energy": 20,
      "duration_s": 0.38
    },
    {
      "t": 585.34,
      "word": "she",
      "f0_hz": 110.0,
      "pitch_bend": 0,
      "ternary": 0,
      "t_pitch": 0,
      "t_vol": 0,
      "t_timing": 0,
      "spk": 1,
      "role": 1,
      "note": 60,
      "velocity": 64,
      "energy": 20,
      "duration_s": 0.0
    },
    {
      "t": 585.34,
      "word": "worked",
      "f0_hz": 130.0,
      "pitch_bend": 0,
      "ternary": 0,
      "t_pitch": 0,
      "t_vol": 0,
      "t_timing": 0,
      "spk": 1,
      "role": 1,
      "note": 60,
      "velocity": 64,
      "energy": 20,
      "duration_s": 0.16
    },
    {
      "t": 585.5,
      "word": "for",
      "f0_hz": 110.0,
      "pitch_bend": 0,
      "ternary": 0,
      "t_pitch": 0,
      "t_vol": 0,
      "t_timing": 0,
      "spk": 1,
      "role": 1,
      "note": 60,
      "velocity": 64,
      "energy": 20,
      "duration_s": 0.12
    },
    {
      "t": 585.62,
      "word": "the",
      "f0_hz": 110.0,
      "pitch_bend": 0,
      "ternary": 0,
      "t_pitch": 0,
      "t_vol": 0,
      "t_timing": 0,
      "spk": 1,
      "role": 1,
      "note": 60,
      "velocity": 64,
      "energy": 20,
      "duration_s": 0.16
    },
    {
      "t": 585.78,
      "word": "Marilla",
      "f0_hz": 110.0,
      "pitch_bend": 0,
      "ternary": 0,
      "t_pitch": 0,
      "t_vol": 0,
      "t_timing": 0,
      "spk": 1,
      "role": 1,
      "note": 60,
      "velocity": 64,
      "energy": 20,
      "duration_s": 0.22
    },
    {
      "t": 586.0,
      "word": "Shire",
      "f0_hz": 110.0,
      "pitch_bend": 0,
      "ternary": 0,
      "t_pitch": 0,
      "t_vol": 0,
      "t_timing": 0,
      "spk": 1,
      "role": 1,
      "note": 60,
      "velocity": 64,
      "energy": 20,
      "duration_s": 0.64
    },
    {
      "t": 586.64,
      "word": "and",
      "f0_hz": 110.0,
      "pitch_bend": 0,
      "ternary": 0,
      "t_pitch": 0,
      "t_vol": 0,
      "t_timing": 0,
      "spk": 1,
      "role": 1,
      "note": 60,
      "velocity": 64,
      "energy": 20,
      "duration_s": 0.44
    },
    {
      "t": 587.08,
      "word": "had",
      "f0_hz": 130.0,
      "pitch_bend": 0,
      "ternary": 0,
      "t_pitch": 0,
      "t_vol": 0,
      "t_timing": 0,
      "spk": 1,
      "role": 1,
      "note": 60,
      "velocity": 64,
      "energy": 20,
      "duration_s": 0.14
    },
    {
      "t": 587.22,
      "word": "a",
      "f0_hz": 110.0,
      "pitch_bend": 0,
      "ternary": 0,
      "t_pitch": 0,
      "t_vol": 0,
      "t_timing": 0,
      "spk": 1,
      "role": 1,
      "note": 60,
      "velocity": 64,
      "energy": 20,
      "duration_s": 0.08
    },
    {
      "t": 587.3,
      "word": "full",
      "f0_hz": 110.0,
      "pitch_bend": 0,
      "ternary": 0,
      "t_pitch": 0,
      "t_vol": 0,
      "t_timing": 0,
      "spk": 1,
      "role": 1,
      "note": 60,
      "velocity": 64,
      "energy": 20,
      "duration_s": 0.12
    },
    {
      "t": 587.42,
      "word": "-time",
      "f0_hz": 110.0,
      "pitch_bend": 0,
      "ternary": 0,
      "t_pitch": 0,
      "t_vol": 0,
      "t_timing": 0,
      "spk": 1,
      "role": 1,
      "note": 60,
      "velocity": 64,
      "energy": 20,
      "duration_s": 0.16
    },
    {
      "t": 587.58,
      "word": "job",
      "f0_hz": 110.0,
      "pitch_bend": 0,
      "ternary": 0,
      "t_pitch": 0,
      "t_vol": 0,
      "t_timing": 0,
      "spk": 1,
      "role": 1,
      "note": 60,
      "velocity": 64,
      "energy": 20,
      "duration_s": 0.56
    },
    {
      "t": 588.14,
      "word": "and",
      "f0_hz": 110.0,
      "pitch_bend": 0,
      "ternary": 0,
      "t_pitch": 0,
      "t_vol": 0,
      "t_timing": 0,
      "spk": 1,
      "role": 1,
      "note": 60,
      "velocity": 64,
      "energy": 20,
      "duration_s": 0.26
    },
    {
      "t": 588.4,
      "word": "managed,",
      "f0_hz": 110.0,
      "pitch_bend": 0,
      "ternary": 0,
      "t_pitch": 0,
      "t_vol": 0,
      "t_timing": 0,
      "spk": 1,
      "role": 1,
      "note": 60,
      "velocity": 64,
      "energy": 20,
      "duration_s": 0.54
    },
    {
      "t": 588.94,
      "word": "you",
      "f0_hz": 130.0,
      "pitch_bend": 0,
      "ternary": 0,
      "t_pitch": 0,
      "t_vol": 0,
      "t_timing": 0,
      "spk": 1,
      "role": 1,
      "note": 60,
      "velocity": 64,
      "energy": 20,
      "duration_s": 0.0
    },
    {
      "t": 588.94,
      "word": "know,",
      "f0_hz": 110.0,
      "pitch_bend": 0,
      "ternary": 0,
      "t_pitch": 0,
      "t_vol": 0,
      "t_timing": 0,
      "spk": 1,
      "role": 1,
      "note": 60,
      "velocity": 64,
      "energy": 20,
      "duration_s": 0.44
    },
    {
      "t": 589.46,
      "word": "getting",
      "f0_hz": 110.0,
      "pitch_bend": 0,
      "ternary": 0,
      "t_pitch": 0,
      "t_vol": 0,
      "t_timing": 0,
      "spk": 1,
      "role": 1,
      "note": 60,
      "velocity": 64,
      "energy": 20,
      "duration_s": 0.04
    },
    {
      "t": 589.5,
      "word": "us",
      "f0_hz": 110.0,
      "pitch_bend": 0,
      "ternary": 0,
      "t_pitch": 0,
      "t_vol": 0,
      "t_timing": 0,
      "spk": 1,
      "role": 1,
      "note": 60,
      "velocity": 64,
      "energy": 20,
      "duration_s": 0.2
    },
    {
      "t": 589.7,
      "word": "to",
      "f0_hz": 110.0,
      "pitch_bend": 0,
      "ternary": 0,
      "t_pitch": 0,
      "t_vol": 0,
      "t_timing": 0,
      "spk": 1,
      "role": 1,
      "note": 60,
      "velocity": 64,
      "energy": 20,
      "duration_s": 0.16
    },
    {
      "t": 589.86,
      "word": "school,",
      "f0_hz": 110.0,
      "pitch_bend": 0,
      "ternary": 0,
      "t_pitch": 0,
      "t_vol": 0,
      "t_timing": 0,
      "spk": 1,
      "role": 1,
      "note": 60,
      "velocity": 64,
      "energy": 20,
      "duration_s": 0.24
    },
    {
      "t": 590.6,
      "word": "feeding",
      "f0_hz": 110.0,
      "pitch_bend": 0,
      "ternary": 0,
      "t_pitch": 0,
      "t_vol": 0,
      "t_timing": 0,
      "spk": 1,
      "role": 1,
      "note": 60,
      "velocity": 64,
      "energy": 20,
      "duration_s": 0.16
    },
    {
      "t": 590.76,
      "word": "three",
      "f0_hz": 110.0,
      "pitch_bend": 0,
      "ternary": 0,
      "t_pitch": 0,
      "t_vol": 0,
      "t_timing": 0,
      "spk": 1,
      "role": 1,
      "note": 60,
      "velocity": 64,
      "energy": 20,
      "duration_s": 0.3
    },
    {
      "t": 591.06,
      "word": "kids",
      "f0_hz": 110.0,
      "pitch_bend": 0,
      "ternary": 0,
      "t_pitch": 0,
      "t_vol": 0,
      "t_timing": 0,
      "spk": 1,
      "role": 1,
      "note": 60,
      "velocity": 64,
      "energy": 20,
      "duration_s": 0.24
    },
    {
      "t": 591.3,
      "word": "back",
      "f0_hz": 110.0,
      "pitch_bend": 0,
      "ternary": 0,
      "t_pitch": 0,
      "t_vol": 0,
      "t_timing": 0,
      "spk": 0,
      "role": 1,
      "note": 60,
      "velocity": 64,
      "energy": 20,
      "duration_s": 0.32
    },
    {
      "t": 591.62,
      "word": "here,",
      "f0_hz": 130.0,
      "pitch_bend": 0,
      "ternary": 0,
      "t_pitch": 0,
      "t_vol": 0,
      "t_timing": 0,
      "spk": 1,
      "role": 1,
      "note": 60,
      "velocity": 64,
      "energy": 20,
      "duration_s": 0.36
    },
    {
      "t": 592.3,
      "word": "getting",
      "f0_hz": 110.0,
      "pitch_bend": 0,
      "ternary": 0,
      "t_pitch": 0,
      "t_vol": 0,
      "t_timing": 0,
      "spk": 1,
      "role": 1,
      "note": 60,
      "velocity": 64,
      "energy": 20,
      "duration_s": 0.12
    },
    {
      "t": 592.42,
      "word": "three",
      "f0_hz": 110.0,
      "pitch_bend": 0,
      "ternary": 0,
      "t_pitch": 0,
      "t_vol": 0,
      "t_timing": 0,
      "spk": 1,
      "role": 1,
      "note": 60,
      "velocity": 64,
      "energy": 20,
      "duration_s": 0.44
    },
    {
      "t": 592.86,
      "word": "lunches",
      "f0_hz": 110.0,
      "pitch_bend": 0,
      "ternary": 0,
      "t_pitch": 0,
      "t_vol": 0,
      "t_timing": 0,
      "spk": 1,
      "role": 1,
      "note": 60,
      "velocity": 64,
      "energy": 20,
      "duration_s": 0.32
    },
    {
      "t": 593.18,
      "word": "prepared",
      "f0_hz": 110.0,
      "pitch_bend": 0,
      "ternary": 0,
      "t_pitch": 0,
      "t_vol": 0,
      "t_timing": 0,
      "spk": 0,
      "role": 1,
      "note": 60,
      "velocity": 64,
      "energy": 20,
      "duration_s": 0.74
    },
    {
      "t": 593.92,
      "word": "for",
      "f0_hz": 110.0,
      "pitch_bend": 0,
      "ternary": 0,
      "t_pitch": 0,
      "t_vol": 0,
      "t_timing": 0,
      "spk": 1,
      "role": 1,
      "note": 60,
      "velocity": 64,
      "energy": 20,
      "duration_s": 0.34
    },
    {
      "t": 594.26,
      "word": "three",
      "f0_hz": 110.0,
      "pitch_bend": 0,
      "ternary": 0,
      "t_pitch": 0,
      "t_vol": 0,
      "t_timing": 0,
      "spk": 1,
      "role": 1,
      "note": 60,
      "velocity": 64,
      "energy": 20,
      "duration_s": 0.2
    },
    {
      "t": 594.46,
      "word": "kids,",
      "f0_hz": 110.0,
      "pitch_bend": 0,
      "ternary": 0,
      "t_pitch": 0,
      "t_vol": 0,
      "t_timing": 0,
      "spk": 1,
      "role": 1,
      "note": 60,
      "velocity": 64,
      "energy": 20,
      "duration_s": 0.44
    },
    {
      "t": 595.38,
      "word": "coming",
      "f0_hz": 110.0,
      "pitch_bend": 0,
      "ternary": 0,
      "t_pitch": 0,
      "t_vol": 0,
      "t_timing": 0,
      "spk": 1,
      "role": 1,
      "note": 60,
      "velocity": 64,
      "energy": 20,
      "duration_s": 0.0
    },
    {
      "t": 595.38,
      "word": "home,",
      "f0_hz": 130.0,
      "pitch_bend": 0,
      "ternary": 0,
      "t_pitch": 0,
      "t_vol": 0,
      "t_timing": 0,
      "spk": 1,
      "role": 1,
      "note": 60,
      "velocity": 64,
      "energy": 20,
      "duration_s": 0.36
    },
    {
      "t": 595.88,
      "word": "cooking",
      "f0_hz": 110.0,
      "pitch_bend": 0,
      "ternary": 0,
      "t_pitch": 0,
      "t_vol": 0,
      "t_timing": 0,
      "spk": 1,
      "role": 1,
      "note": 60,
      "velocity": 64,
      "energy": 20,
      "duration_s": 0.12
    },
    {
      "t": 596.0,
      "word": "three",
      "f0_hz": 110.0,
      "pitch_bend": 0,
      "ternary": 0,
      "t_pitch": 0,
      "t_vol": 0,
      "t_timing": 0,
      "spk": 1,
      "role": 1,
      "note": 60,
      "velocity": 64,
      "energy": 20,
      "duration_s": 0.32
    },
    {
      "t": 596.32,
      "word": "kids,",
      "f0_hz": 110.0,
      "pitch_bend": 0,
      "ternary": 0,
      "t_pitch": 0,
      "t_vol": 0,
      "t_timing": 0,
      "spk": 1,
      "role": 1,
      "note": 60,
      "velocity": 64,
      "energy": 20,
      "duration_s": 0.42
    },
    {
      "t": 597.36,
      "word": "dinner,",
      "f0_hz": 110.0,
      "pitch_bend": 0,
      "ternary": 0,
      "t_pitch": 0,
      "t_vol": 0,
      "t_timing": 0,
      "spk": 1,
      "role": 1,
      "note": 60,
      "velocity": 64,
      "energy": 20,
      "duration_s": 0.0
    },
    {
      "t": 597.76,
      "word": "working",
      "f0_hz": 130.0,
      "pitch_bend": 0,
      "ternary": 0,
      "t_pitch": 0,
      "t_vol": 0,
      "t_timing": 0,
      "spk": 1,
      "role": 1,
      "note": 60,
      "velocity": 64,
      "energy": 20,
      "duration_s": 0.14
    },
    {
      "t": 597.9,
      "word": "a",
      "f0_hz": 110.0,
      "pitch_bend": 0,
      "ternary": 0,
      "t_pitch": 0,
      "t_vol": 0,
      "t_timing": 0,
      "spk": 1,
      "role": 1,
      "note": 60,
      "velocity": 64,
      "energy": 20,
      "duration_s": 0.22
    },
    {
      "t": 598.12,
      "word": "full",
      "f0_hz": 110.0,
      "pitch_bend": 0,
      "ternary": 0,
      "t_pitch": 0,
      "t_vol": 0,
      "t_timing": 0,
      "spk": 1,
      "role": 1,
      "note": 60,
      "velocity": 64,
      "energy": 20,
      "duration_s": 0.12
    },
    {
      "t": 598.24,
      "word": "-time",
      "f0_hz": 110.0,
      "pitch_bend": 0,
      "ternary": 0,
      "t_pitch": 0,
      "t_vol": 0,
      "t_timing": 0,
      "spk": 1,
      "role": 1,
      "note": 60,
      "velocity": 64,
      "energy": 20,
      "duration_s": 0.22
    },
    {
      "t": 598.46,
      "word": "job,",
      "f0_hz": 110.0,
      "pitch_bend": 0,
      "ternary": 0,
      "t_pitch": 0,
      "t_vol": 0,
      "t_timing": 0,
      "spk": 1,
      "role": 1,
      "note": 60,
      "velocity": 64,
      "energy": 20,
      "duration_s": 0.52
    },
    {
      "t": 599.38,
      "word": "making",
      "f0_hz": 110.0,
      "pitch_bend": 0,
      "ternary": 0,
      "t_pitch": 0,
      "t_vol": 0,
      "t_timing": 0,
      "spk": 1,
      "role": 1,
      "note": 60,
      "velocity": 64,
      "energy": 20,
      "duration_s": 0.0
    },
    {
      "t": 599.38,
      "word": "sure",
      "f0_hz": 110.0,
      "pitch_bend": 0,
      "ternary": 0,
      "t_pitch": 0,
      "t_vol": 0,
      "t_timing": 0,
      "spk": 1,
      "role": 1,
      "note": 60,
      "velocity": 64,
      "energy": 20,
      "duration_s": 0.26
    },
    {
      "t": 599.64,
      "word": "we",
      "f0_hz": 130.0,
      "pitch_bend": 0,
      "ternary": 0,
      "t_pitch": 0,
      "t_vol": 0,
      "t_timing": 0,
      "spk": 1,
      "role": 1,
      "note": 60,
      "velocity": 64,
      "energy": 20,
      "duration_s": 0.14
    },
    {
      "t": 599.78,
      "word": "all...",
      "f0_hz": 110.0,
      "pitch_bend": 0,
      "ternary": 0,
      "t_pitch": 0,
      "t_vol": 0,
      "t_timing": 0,
      "spk": 1,
      "role": 1,
      "note": 60,
      "velocity": 64,
      "energy": 20,
      "duration_s": 0.2
    }
  ]
}